<svg width="1968" height="1806" viewBox="0 0 1968 1806" fill="none" xmlns="http://www.w3.org/2000/svg">
<path d="M619.142 1V1799.71" stroke="#676F74" stroke-linecap="round" stroke-linejoin="round"/>
<path d="M825.891 1V1799.71" stroke="#676F74" stroke-linecap="round" stroke-linejoin="round"/>
<path d="M954.074 1V1799.71" stroke="#676F74" stroke-linecap="round" stroke-linejoin="round"/>
<path d="M1863.77 302.852H1136.01V1803.84H1863.77V302.852Z" stroke="#676F74" stroke-linecap="round" stroke-linejoin="round"/>
<path d="M1897.05 302.852H1862.57V1803.84H1897.05V302.852Z" fill="#263238" stroke="#676F74" stroke-linecap="round" stroke-linejoin="round"/>
<path d="M1863.15 442.284H1136.8V462.297H1863.15V442.284Z" stroke="#676F74" stroke-linecap="round" stroke-linejoin="round"/>
<path d="M1138.2 485.618H1859.63" stroke="#676F74" stroke-linecap="round" stroke-linejoin="round"/>
<path d="M1243.52 313.727H1152.55V441.911H1243.52V313.727Z" stroke="#676F74" stroke-linecap="round" stroke-linejoin="round"/>
<path d="M1253.16 313.727H1243.52V441.911H1253.16V313.727Z" stroke="#676F74" stroke-linecap="round" stroke-linejoin="round"/>
<path d="M1355.17 313.727H1264.2V441.911H1355.17V313.727Z" stroke="#676F74" stroke-linecap="round" stroke-linejoin="round"/>
<path d="M1364.8 313.727H1355.17V441.911H1364.8V313.727Z" stroke="#676F74" stroke-linecap="round" stroke-linejoin="round"/>
<path d="M1459.04 336.594H1384.28V441.953H1459.04V336.594Z" stroke="#676F74" stroke-linecap="round" stroke-linejoin="round"/>
<path d="M1466.98 336.594H1459.04V441.953H1466.98V336.594Z" stroke="#676F74" stroke-linecap="round" stroke-linejoin="round"/>
<path d="M1578.45 313.727H1487.48V441.911H1578.45V313.727Z" stroke="#676F74" stroke-linecap="round" stroke-linejoin="round"/>
<path d="M1588.09 313.727H1578.45V441.911H1588.09V313.727Z" stroke="#676F74" stroke-linecap="round" stroke-linejoin="round"/>
<path d="M1691.79 336.594H1617.03V441.953H1691.79V336.594Z" stroke="#676F74" stroke-linecap="round" stroke-linejoin="round"/>
<path d="M1699.77 336.594H1691.83V441.953H1699.77V336.594Z" stroke="#676F74" stroke-linecap="round" stroke-linejoin="round"/>
<path d="M1803.44 336.594H1728.68V441.953H1803.44V336.594Z" stroke="#676F74" stroke-linecap="round" stroke-linejoin="round"/>
<path d="M1811.42 336.594H1803.48V441.953H1811.42V336.594Z" stroke="#676F74" stroke-linecap="round" stroke-linejoin="round"/>
<path d="M1863.15 657.302H1136.8V677.315H1863.15V657.302Z" stroke="#676F74" stroke-linecap="round" stroke-linejoin="round"/>
<path d="M1138.2 700.636H1859.63" stroke="#676F74" stroke-linecap="round" stroke-linejoin="round"/>
<path d="M1242.74 518.284H1144.32V656.93H1242.74V518.284Z" stroke="#676F74" stroke-linecap="round" stroke-linejoin="round"/>
<path d="M1253.16 518.284H1242.74V656.93H1253.16V518.284Z" stroke="#676F74" stroke-linecap="round" stroke-linejoin="round"/>
<path d="M1355.17 528.746H1264.2V656.93H1355.17V528.746Z" stroke="#676F74" stroke-linecap="round" stroke-linejoin="round"/>
<path d="M1364.8 528.746H1355.17V656.93H1364.8V528.746Z" stroke="#676F74" stroke-linecap="round" stroke-linejoin="round"/>
<path d="M1466.81 528.746H1375.84V656.93H1466.81V528.746Z" stroke="#676F74" stroke-linecap="round" stroke-linejoin="round"/>
<path d="M1476.44 528.746H1466.81V656.93H1476.44V528.746Z" stroke="#676F74" stroke-linecap="round" stroke-linejoin="round"/>
<path d="M1577.13 530.648H1487.48V656.971H1577.13V530.648Z" stroke="#676F74" stroke-linecap="round" stroke-linejoin="round"/>
<path d="M1586.64 530.648H1577.13V656.971H1586.64V530.648Z" stroke="#676F74" stroke-linecap="round" stroke-linejoin="round"/>
<path d="M1691.13 542.432H1609.88V656.93H1691.13V542.432Z" stroke="#676F74" stroke-linecap="round" stroke-linejoin="round"/>
<path d="M1699.73 542.432H1691.13V656.93H1699.73V542.432Z" stroke="#676F74" stroke-linecap="round" stroke-linejoin="round"/>
<path d="M1820.1 502.861H1710.77V656.93H1820.1V502.861Z" stroke="#676F74" stroke-linecap="round" stroke-linejoin="round"/>
<path d="M1831.68 502.861H1820.1V656.93H1831.68V502.861Z" stroke="#676F74" stroke-linecap="round" stroke-linejoin="round"/>
<path d="M1863.15 872.32H1136.8V892.333H1863.15V872.32Z" stroke="#676F74" stroke-linecap="round" stroke-linejoin="round"/>
<path d="M1138.2 915.654H1859.63" stroke="#676F74" stroke-linecap="round" stroke-linejoin="round"/>
<path d="M1243.52 743.764H1152.55V871.948H1243.52V743.764Z" stroke="#676F74" stroke-linecap="round" stroke-linejoin="round"/>
<path d="M1253.16 743.764H1243.52V871.948H1253.16V743.764Z" stroke="#676F74" stroke-linecap="round" stroke-linejoin="round"/>
<path d="M1355.17 743.764H1264.2V871.948H1355.17V743.764Z" stroke="#676F74" stroke-linecap="round" stroke-linejoin="round"/>
<path d="M1364.8 743.764H1355.17V871.948H1364.8V743.764Z" stroke="#676F74" stroke-linecap="round" stroke-linejoin="round"/>
<path d="M1466.81 743.764H1375.84V871.948H1466.81V743.764Z" stroke="#676F74" stroke-linecap="round" stroke-linejoin="round"/>
<path d="M1476.44 743.764H1466.81V871.948H1476.44V743.764Z" stroke="#676F74" stroke-linecap="round" stroke-linejoin="round"/>
<path d="M1579.45 757.037H1497.86V871.989H1579.45V757.037Z" stroke="#676F74" stroke-linecap="round" stroke-linejoin="round"/>
<path d="M1588.09 757.037H1579.45V871.989H1588.09V757.037Z" stroke="#676F74" stroke-linecap="round" stroke-linejoin="round"/>
<path d="M1690.1 743.764H1599.13V871.948H1690.1V743.764Z" stroke="#676F74" stroke-linecap="round" stroke-linejoin="round"/>
<path d="M1699.73 743.764H1690.1V871.948H1699.73V743.764Z" stroke="#676F74" stroke-linecap="round" stroke-linejoin="round"/>
<path d="M1801.74 743.764H1710.77V871.948H1801.74V743.764Z" stroke="#676F74" stroke-linecap="round" stroke-linejoin="round"/>
<path d="M1811.38 743.764H1801.74V871.948H1811.38V743.764Z" stroke="#676F74" stroke-linecap="round" stroke-linejoin="round"/>
<path d="M1863.15 1087.34H1136.8V1107.35H1863.15V1087.34Z" stroke="#676F74" stroke-linecap="round" stroke-linejoin="round"/>
<path d="M1138.2 1130.67H1859.63" stroke="#676F74" stroke-linecap="round" stroke-linejoin="round"/>
<path d="M1243.52 958.782H1152.55V1086.97H1243.52V958.782Z" stroke="#676F74" stroke-linecap="round" stroke-linejoin="round"/>
<path d="M1253.16 958.782H1243.52V1086.97H1253.16V958.782Z" stroke="#676F74" stroke-linecap="round" stroke-linejoin="round"/>
<path d="M1355.17 958.782H1264.2V1086.97H1355.17V958.782Z" stroke="#676F74" stroke-linecap="round" stroke-linejoin="round"/>
<path d="M1364.8 958.782H1355.17V1086.97H1364.8V958.782Z" stroke="#676F74" stroke-linecap="round" stroke-linejoin="round"/>
<path d="M1466.81 958.782H1375.84V1086.97H1466.81V958.782Z" stroke="#676F74" stroke-linecap="round" stroke-linejoin="round"/>
<path d="M1476.44 958.782H1466.81V1086.97H1476.44V958.782Z" stroke="#676F74" stroke-linecap="round" stroke-linejoin="round"/>
<path d="M1578.45 958.782H1487.48V1086.97H1578.45V958.782Z" stroke="#676F74" stroke-linecap="round" stroke-linejoin="round"/>
<path d="M1588.09 958.782H1578.45V1086.97H1588.09V958.782Z" stroke="#676F74" stroke-linecap="round" stroke-linejoin="round"/>
<path d="M1690.1 958.782H1599.13V1086.97H1690.1V958.782Z" stroke="#676F74" stroke-linecap="round" stroke-linejoin="round"/>
<path d="M1699.73 958.782H1690.1V1086.97H1699.73V958.782Z" stroke="#676F74" stroke-linecap="round" stroke-linejoin="round"/>
<path d="M1801.74 958.782H1710.77V1086.97H1801.74V958.782Z" stroke="#676F74" stroke-linecap="round" stroke-linejoin="round"/>
<path d="M1811.38 958.782H1801.74V1086.97H1811.38V958.782Z" stroke="#676F74" stroke-linecap="round" stroke-linejoin="round"/>
<path d="M1863.15 1302.36H1136.8V1322.37H1863.15V1302.36Z" stroke="#676F74" stroke-linecap="round" stroke-linejoin="round"/>
<path d="M1138.2 1345.69H1859.63" stroke="#676F74" stroke-linecap="round" stroke-linejoin="round"/>
<path d="M1243.52 1173.8H1152.55V1301.98H1243.52V1173.8Z" stroke="#676F74" stroke-linecap="round" stroke-linejoin="round"/>
<path d="M1253.16 1173.8H1243.52V1301.98H1253.16V1173.8Z" stroke="#676F74" stroke-linecap="round" stroke-linejoin="round"/>
<path d="M1355.17 1173.8H1264.2V1301.98H1355.17V1173.8Z" stroke="#676F74" stroke-linecap="round" stroke-linejoin="round"/>
<path d="M1364.8 1173.8H1355.17V1301.98H1364.8V1173.8Z" stroke="#676F74" stroke-linecap="round" stroke-linejoin="round"/>
<path d="M1466.81 1173.8H1375.84V1301.98H1466.81V1173.8Z" stroke="#676F74" stroke-linecap="round" stroke-linejoin="round"/>
<path d="M1476.44 1173.8H1466.81V1301.98H1476.44V1173.8Z" stroke="#676F74" stroke-linecap="round" stroke-linejoin="round"/>
<path d="M1578.45 1173.8H1487.48V1301.98H1578.45V1173.8Z" stroke="#676F74" stroke-linecap="round" stroke-linejoin="round"/>
<path d="M1588.09 1173.8H1578.45V1301.98H1588.09V1173.8Z" stroke="#676F74" stroke-linecap="round" stroke-linejoin="round"/>
<path d="M1690.1 1173.8H1599.13V1301.98H1690.1V1173.8Z" stroke="#676F74" stroke-linecap="round" stroke-linejoin="round"/>
<path d="M1699.73 1173.8H1690.1V1301.98H1699.73V1173.8Z" stroke="#676F74" stroke-linecap="round" stroke-linejoin="round"/>
<path d="M1801.74 1173.8H1710.77V1301.98H1801.74V1173.8Z" stroke="#676F74" stroke-linecap="round" stroke-linejoin="round"/>
<path d="M1811.38 1173.8H1801.74V1301.98H1811.38V1173.8Z" stroke="#676F74" stroke-linecap="round" stroke-linejoin="round"/>
<path d="M1863.15 1517.37H1136.8V1537.39H1863.15V1517.37Z" stroke="#676F74" stroke-linecap="round" stroke-linejoin="round"/>
<path d="M1138.2 1560.71H1859.63" stroke="#676F74" stroke-linecap="round" stroke-linejoin="round"/>
<path d="M1243.52 1388.82H1152.55V1517H1243.52V1388.82Z" stroke="#676F74" stroke-linecap="round" stroke-linejoin="round"/>
<path d="M1253.16 1388.82H1243.52V1517H1253.16V1388.82Z" stroke="#676F74" stroke-linecap="round" stroke-linejoin="round"/>
<path d="M1355.17 1388.82H1264.2V1517H1355.17V1388.82Z" stroke="#676F74" stroke-linecap="round" stroke-linejoin="round"/>
<path d="M1364.8 1388.82H1355.17V1517H1364.8V1388.82Z" stroke="#676F74" stroke-linecap="round" stroke-linejoin="round"/>
<path d="M1466.81 1388.82H1375.84V1517H1466.81V1388.82Z" stroke="#676F74" stroke-linecap="round" stroke-linejoin="round"/>
<path d="M1476.44 1388.82H1466.81V1517H1476.44V1388.82Z" stroke="#676F74" stroke-linecap="round" stroke-linejoin="round"/>
<path d="M1578.45 1388.82H1487.48V1517H1578.45V1388.82Z" stroke="#676F74" stroke-linecap="round" stroke-linejoin="round"/>
<path d="M1588.09 1388.82H1578.45V1517H1588.09V1388.82Z" stroke="#676F74" stroke-linecap="round" stroke-linejoin="round"/>
<path d="M1690.1 1388.82H1599.13V1517H1690.1V1388.82Z" stroke="#676F74" stroke-linecap="round" stroke-linejoin="round"/>
<path d="M1699.73 1388.82H1690.1V1517H1699.73V1388.82Z" stroke="#676F74" stroke-linecap="round" stroke-linejoin="round"/>
<path d="M1801.74 1388.82H1710.77V1517H1801.74V1388.82Z" stroke="#676F74" stroke-linecap="round" stroke-linejoin="round"/>
<path d="M1811.38 1388.82H1801.74V1517H1811.38V1388.82Z" stroke="#676F74" stroke-linecap="round" stroke-linejoin="round"/>
<path d="M1863.15 1732.39H1136.8V1752.41H1863.15V1732.39Z" stroke="#676F74" stroke-linecap="round" stroke-linejoin="round"/>
<path d="M1138.2 1775.73H1859.63" stroke="#676F74" stroke-linecap="round" stroke-linejoin="round"/>
<path d="M1243.52 1603.84H1152.55V1732.02H1243.52V1603.84Z" stroke="#676F74" stroke-linecap="round" stroke-linejoin="round"/>
<path d="M1253.16 1603.84H1243.52V1732.02H1253.16V1603.84Z" stroke="#676F74" stroke-linecap="round" stroke-linejoin="round"/>
<path d="M1355.17 1603.84H1264.2V1732.02H1355.17V1603.84Z" stroke="#676F74" stroke-linecap="round" stroke-linejoin="round"/>
<path d="M1364.8 1603.84H1355.17V1732.02H1364.8V1603.84Z" stroke="#676F74" stroke-linecap="round" stroke-linejoin="round"/>
<path d="M1466.81 1603.84H1375.84V1732.02H1466.81V1603.84Z" stroke="#676F74" stroke-linecap="round" stroke-linejoin="round"/>
<path d="M1476.44 1603.84H1466.81V1732.02H1476.44V1603.84Z" stroke="#676F74" stroke-linecap="round" stroke-linejoin="round"/>
<path d="M1578.45 1603.84H1487.48V1732.02H1578.45V1603.84Z" stroke="#676F74" stroke-linecap="round" stroke-linejoin="round"/>
<path d="M1588.09 1603.84H1578.45V1732.02H1588.09V1603.84Z" stroke="#676F74" stroke-linecap="round" stroke-linejoin="round"/>
<path d="M1690.1 1603.84H1599.13V1732.02H1690.1V1603.84Z" stroke="#676F74" stroke-linecap="round" stroke-linejoin="round"/>
<path d="M1699.73 1603.84H1690.1V1732.02H1699.73V1603.84Z" stroke="#676F74" stroke-linecap="round" stroke-linejoin="round"/>
<path d="M1801.74 1603.84H1710.77V1732.02H1801.74V1603.84Z" stroke="#676F74" stroke-linecap="round" stroke-linejoin="round"/>
<path d="M1811.38 1603.84H1801.74V1732.02H1811.38V1603.84Z" stroke="#676F74" stroke-linecap="round" stroke-linejoin="round"/>
<path d="M751.957 741.159H693.075V1003.03H751.957V741.159Z" fill="#263238" stroke="#263238" stroke-linecap="round" stroke-linejoin="round"/>
<path d="M897.591 636.42H547.483V898.287H897.591V636.42Z" fill="#263238" stroke="#263238" stroke-linecap="round" stroke-linejoin="round"/>
<path d="M870.879 656.351H574.154V878.316H870.879V656.351Z" fill="#E5E5E5" stroke="#263238" stroke-linecap="round" stroke-linejoin="round"/>
<path d="M1099.96 1750.63L1095.2 1803.84H900.031C900.031 1803.84 895.317 1782.55 905.944 1774.28C916.57 1766.01 955.563 1758.9 963.833 1756.54C972.103 1754.18 988.643 1741.16 988.643 1741.16L1099.96 1750.63Z" fill="#263238" stroke="#263238" stroke-linecap="round" stroke-linejoin="round"/>
<path d="M1096.23 1791.69L1095.2 1803.84H900.03C899.26 1799.9 898.927 1795.87 899.038 1791.85C954.984 1791.65 1060.72 1791.44 1096.23 1791.69Z" fill="#919191" stroke="#263238" stroke-linecap="round" stroke-linejoin="round"/>
<path d="M1098.8 1194.72C1098.8 1194.72 1092.89 1334.28 1092.89 1370.96C1092.89 1407.63 1122.45 1476.23 1123.65 1516.42C1124.85 1556.62 1103.51 1726.98 1103.51 1726.98L1014.82 1725.78C1014.82 1725.78 1007.83 1654.99 1005.31 1587.42C1002.78 1519.86 975.742 1356.77 969.829 1302.36C963.916 1247.94 950.891 1189.97 950.891 1189.97L1098.8 1194.72Z" fill="#263238" stroke="#263238" stroke-linecap="round" stroke-linejoin="round"/>
<path d="M1114.14 1715.15L1107.03 1754.18L1014.78 1749.43V1705.68L1114.14 1715.15Z" fill="#919191" stroke="#263238" stroke-linecap="round" stroke-linejoin="round"/>
<path d="M1123.61 1101.27C1123.61 1101.27 1112.94 1154.49 1108.23 1178.14C1103.51 1201.79 1079.82 1264.52 1078.66 1291.69C1077.5 1318.85 1067.99 1421.82 1067.99 1478.59C1067.99 1535.36 1065.64 1549.54 1053.81 1598.05C1041.98 1646.55 1030.16 1724.62 1030.16 1724.62C1012.35 1725.05 994.535 1723.86 976.941 1721.06C957.773 1718.23 939.312 1711.8 922.524 1702.12L921.325 1679.67C921.325 1679.67 915.412 1647.71 913.055 1638.32C910.698 1628.94 927.238 1586.26 927.238 1581.55C927.238 1576.84 914.255 1561.41 909.499 1537.76C904.744 1514.11 888.204 1374.55 888.204 1354.42C888.204 1334.28 881.133 1194.76 881.133 1194.76C881.133 1194.76 866.909 1104.87 866.909 1094.2C866.909 1083.53 1059.72 1082.38 1091.64 1080.02C1123.57 1077.66 1134.23 1083.53 1123.61 1101.27Z" fill="#919191" stroke="#263238" stroke-linecap="round" stroke-linejoin="round"/>
<path d="M958.209 1127.28C958.209 1127.28 984.218 1169.87 1014.98 1182.9" stroke="#263238" stroke-linecap="round" stroke-linejoin="round"/>
<path d="M1002.45 1284.66L1000.59 1294.09" stroke="#263238" stroke-linecap="round" stroke-linejoin="round"/>
<path d="M1032.51 1132.04L1005.76 1267.91" stroke="#263238" stroke-linecap="round" stroke-linejoin="round"/>
<path d="M1057.45 1300C1039.41 1302.57 1021.24 1304.14 1003.03 1304.71H930.795L929.637 1330.72C949.493 1334.55 969.714 1336.14 989.925 1335.48C1012.57 1334.35 1035.11 1331.59 1057.37 1327.21L1057.45 1300Z" stroke="#263238" stroke-linecap="round" stroke-linejoin="round"/>
<path d="M1057.45 1327.21C1057.45 1327.21 1055.09 1373.31 1056.25 1407.63C1057.41 1441.95 1043.27 1447.82 1027.88 1447.82C1012.5 1447.82 943.902 1456.09 934.433 1449.02C924.964 1441.95 921.408 1423.01 924.964 1407.67C928.52 1392.33 929.719 1330.76 929.719 1330.76" stroke="#263238" stroke-linecap="round" stroke-linejoin="round"/>
<path d="M1023.05 1762.5L1019.49 1803.84H824.361C824.361 1803.84 819.605 1782.55 830.273 1774.28C840.942 1766.01 879.893 1758.9 888.163 1756.54C896.433 1754.18 912.973 1741.16 912.973 1741.16L1023.05 1762.5Z" fill="#263238" stroke="#263238" stroke-linecap="round" stroke-linejoin="round"/>
<path d="M1020.56 1791.69L1019.49 1803.84H824.36C823.563 1799.9 823.217 1795.88 823.327 1791.85C879.273 1791.65 985.004 1791.44 1020.56 1791.69Z" fill="white" stroke="#263238" stroke-linecap="round" stroke-linejoin="round"/>
<path d="M1043.18 1709.24C1043.18 1709.24 1040.78 1763.65 1031.32 1766.01C1021.85 1768.37 901.229 1748.27 900.03 1738.8C898.831 1729.33 910.699 1711.59 911.856 1705.72C913.014 1699.85 913.055 1690.34 917.769 1683.27C922.483 1676.2 1012.42 1697.41 1043.18 1709.24Z" fill="white" stroke="#263238" stroke-linecap="round" stroke-linejoin="round"/>
<path d="M555.133 974.371C555.133 974.371 536.03 979.25 530.737 983.716C525.444 988.182 518.332 999.966 520.606 1004.8C522.88 1009.64 527.098 1007.66 528.876 1005.22C533.451 998.17 539.232 991.983 545.953 986.941C553.141 982.668 560.6 978.87 568.282 975.57C564.223 973.472 559.505 973.042 555.133 974.371Z" fill="#E5E5E5" stroke="#263238" stroke-linecap="round" stroke-linejoin="round"/>
<path d="M901.354 686.825L819.068 876.041C819.068 876.041 791.653 887.04 736.782 907.591C681.911 928.142 624.352 954.234 610.624 958.327C596.896 962.421 564.023 969.285 547.566 979.002C531.109 988.719 516.926 1008.4 527.883 1009.77C531.729 1010.26 532.018 1014.23 541.694 1013.03C545.611 1012.18 549.251 1010.36 552.28 1007.74C559.55 1002.29 567.685 998.092 576.345 995.335C588.229 992.21 600.626 991.549 612.774 993.392C618.26 994.169 623.828 994.169 629.314 993.392C635.755 989.055 641.864 984.245 647.591 979.002C647.591 979.002 743.563 970.732 781.977 963.909C820.391 957.087 877.95 937.859 877.95 937.859L939.685 688.273L901.354 686.825Z" fill="white" stroke="#263238" stroke-linecap="round" stroke-linejoin="round"/>
<path d="M574.981 978.919C574.981 978.919 535.202 992.606 532.473 1009.06" stroke="#263238" stroke-linecap="round" stroke-linejoin="round"/>
<path d="M647.673 978.919C641.845 984.637 635.396 989.686 628.446 993.971C618.853 999.47 606.531 996.741 596.937 1002.24C587.344 1007.74 584.533 1011.83 573.616 1010.51C562.7 1009.19 562.617 999.553 576.345 995.459C582.545 993.912 588.531 991.606 594.167 988.595L602.437 979.002" fill="white"/>
<path d="M647.673 978.919C641.845 984.637 635.396 989.686 628.446 993.971C618.853 999.47 606.531 996.741 596.937 1002.24C587.344 1007.74 584.533 1011.83 573.616 1010.51C562.7 1009.19 562.617 999.553 576.345 995.459C582.545 993.912 588.531 991.606 594.167 988.595L602.437 979.002" stroke="#263238" stroke-linecap="round" stroke-linejoin="round"/>
<path d="M707.837 756.127L432.573 761.586L394.448 1003.77L732.358 1006.5L707.837 756.127Z" fill="#756CBF" stroke="#263238" stroke-linecap="round" stroke-linejoin="round"/>
<path d="M675.213 1003.77L686.088 756.127L544.713 923.097L432.573 761.586" stroke="#263238" stroke-linecap="round" stroke-linejoin="round"/>
<path d="M1055.01 541.812C1055.01 541.812 1077.46 550.082 1110.58 580.846C1143.7 611.61 1169.71 692.035 1173.27 734.626C1176.82 777.216 1150.82 907.302 1150.82 939.224C1150.82 971.146 1141.35 1108.39 1136.59 1111.94C1131.84 1115.5 982.854 1127.28 916.612 1123.77C850.369 1120.25 846.813 1094.16 839.743 1069.35C832.672 1044.54 827.875 979.457 838.543 904.945C849.212 830.433 862.195 733.426 891.76 683.765C921.325 634.104 941.38 608.054 966.19 585.56C991 563.066 1037.27 539.455 1055.01 541.812Z" fill="#263238" stroke="#263238" stroke-linecap="round" stroke-linejoin="round"/>
<path d="M1010.81 807.153L954.446 803.555V708.823L1010.81 712.421V807.153Z" fill="#756CBF"/>
<path d="M989.221 695.633H978.429V724.412H989.221V695.633Z" fill="white" stroke="#263238" stroke-linecap="round" stroke-linejoin="round"/>
<path d="M998.815 787.14L966.438 783.997V734.832L998.815 737.975V787.14Z" fill="white"/>
<path d="M1011.26 688.851L1096.98 879.473L940.76 953.158C940.76 953.158 851.61 953.655 844.663 952.456C837.716 951.256 776.519 989.67 773.418 992.978C773.001 993.424 772.678 993.949 772.468 994.522C772.258 995.096 772.166 995.705 772.197 996.315C772.228 996.925 772.381 997.522 772.648 998.071C772.914 998.62 773.289 999.11 773.748 999.511C773.748 999.511 766.016 1006.79 771.433 1010.97L776.808 1015.1C776.808 1015.1 776.229 1018.57 784.086 1022.83C791.942 1027.09 795.54 1025.15 795.54 1025.15C800.716 1024.04 805.792 1022.5 810.715 1020.56C817.29 1017.75 837.261 1001.79 840.735 1002.41C844.208 1003.03 883.118 1008.61 898.624 1008.03C914.13 1007.45 926.08 992.275 926.08 992.275C926.08 992.275 1060.26 990.58 1106.16 978.34C1152.06 966.101 1209.08 933.187 1219.42 920.947C1229.75 908.708 1193.2 749.553 1180.17 714.612C1167.15 679.672 1146.68 642.085 1140.85 636.42" fill="#263238"/>
<path d="M1011.26 688.851L1096.98 879.473L940.76 953.158C940.76 953.158 851.61 953.655 844.663 952.456C837.716 951.256 776.519 989.67 773.418 992.978C773.001 993.424 772.678 993.949 772.468 994.522C772.258 995.096 772.166 995.705 772.197 996.315C772.228 996.925 772.381 997.522 772.648 998.071C772.914 998.62 773.289 999.11 773.748 999.511C773.748 999.511 766.016 1006.79 771.433 1010.97L776.808 1015.1C776.808 1015.1 776.229 1018.57 784.086 1022.83C791.942 1027.09 795.54 1025.15 795.54 1025.15C800.716 1024.04 805.792 1022.5 810.715 1020.56C817.29 1017.75 837.261 1001.79 840.735 1002.41C844.208 1003.03 883.118 1008.61 898.624 1008.03C914.13 1007.45 926.08 992.275 926.08 992.275C926.08 992.275 1060.26 990.58 1106.16 978.34C1152.06 966.101 1209.08 933.187 1219.42 920.947C1229.75 908.708 1193.2 749.553 1180.17 714.612C1167.15 679.672 1146.68 642.085 1140.85 636.42" stroke="#263238" stroke-linecap="round" stroke-linejoin="round"/>
<path d="M795.54 1025.15C795.54 1025.15 791.984 1027.05 784.086 1022.83C776.188 1018.61 776.808 1015.1 776.808 1015.1L771.433 1010.97C766.016 1006.83 773.748 999.511 773.748 999.511C773.289 999.11 772.914 998.62 772.648 998.071C772.381 997.522 772.228 996.925 772.197 996.315C772.166 995.705 772.258 995.096 772.468 994.522C772.678 993.949 773.001 993.424 773.418 992.978C776.519 989.587 837.675 951.256 844.663 952.456C851.651 953.655 940.76 953.158 940.76 953.158L1096.98 879.473L1060.92 799.255L1189.11 743.929C1204.9 802.025 1227.97 910.94 1219.46 920.947C1209.12 933.352 1152.1 966.101 1106.2 978.34C1060.3 990.58 926.122 992.275 926.122 992.275C926.122 992.275 914.172 1007.45 898.666 1008.03C883.16 1008.61 844.208 1002.98 840.776 1002.41C837.344 1001.83 817.331 1017.75 810.715 1020.56C805.794 1022.51 800.718 1024.05 795.54 1025.15Z" fill="white" stroke="#263238" stroke-linecap="round" stroke-linejoin="round"/>
<path d="M773.749 999.511L822.458 972.924" stroke="#263238" stroke-linecap="round" stroke-linejoin="round"/>
<path d="M778.297 1013.61L824.03 983.054" stroke="#263238" stroke-linecap="round" stroke-linejoin="round"/>
<path d="M789.916 1024.98C789.651 1024.42 789.502 1023.81 789.48 1023.19C789.457 1022.57 789.561 1021.95 789.785 1021.37C790.01 1020.79 790.35 1020.26 790.784 1019.81C791.219 1019.37 791.74 1019.02 792.314 1018.78C796.449 1016.88 829.984 992.813 829.984 992.813" stroke="#263238" stroke-linecap="round" stroke-linejoin="round"/>
<path d="M930.05 572.328L949.94 587.545C949.94 587.545 913.676 657.839 930.05 661.271C946.425 664.703 1002.62 589.902 1023.67 565.299C1044.71 540.696 1055.01 541.812 1055.01 541.812C1055.01 541.812 1029.54 512.867 1020.15 490.414C1010.76 467.962 1006.13 454.151 1006.13 454.151L930.05 572.328Z" fill="white" stroke="#263238" stroke-linecap="round" stroke-linejoin="round"/>
<path d="M862.857 390.307C862.857 390.307 860.872 482.641 863.477 498.933C866.082 515.224 888.618 560.461 897.177 570.219C905.736 579.978 940.76 581.384 953.495 573.775C966.231 566.167 998.649 524.776 1004.4 508.484C1007.88 498.731 1010.01 488.547 1010.72 478.216C1010.72 478.216 1031.07 483.344 1042.56 459.195C1054.06 435.047 1042.56 415.944 1027.43 416.977L1014.49 423.221C1014.49 423.221 1032.23 377.199 1021.06 359.46C1009.9 341.721 910.864 350.57 890.478 353.795C870.093 357.021 862.857 390.307 862.857 390.307Z" fill="white" stroke="#263238" stroke-linecap="round" stroke-linejoin="round"/>
<path d="M936.377 443.441C936.377 443.441 950.229 433.063 964.04 441.126" stroke="#263238" stroke-linecap="round" stroke-linejoin="round"/>
<path d="M869.514 436.495C869.514 436.495 886.798 431.905 890.189 444.764" stroke="#263238" stroke-linecap="round" stroke-linejoin="round"/>
<path d="M884.772 442.035C884.772 443.229 884.418 444.397 883.755 445.389C883.092 446.382 882.149 447.156 881.046 447.613C879.942 448.07 878.729 448.189 877.558 447.956C876.386 447.724 875.311 447.149 874.466 446.304C873.622 445.46 873.047 444.384 872.814 443.213C872.581 442.042 872.701 440.828 873.158 439.725C873.615 438.622 874.389 437.679 875.381 437.016C876.374 436.352 877.541 435.998 878.735 435.998C880.333 436.009 881.862 436.649 882.992 437.779C884.122 438.908 884.762 440.438 884.772 442.035Z" fill="#263238"/>
<path d="M953.578 445.55C953.578 446.744 953.224 447.911 952.561 448.904C951.897 449.897 950.954 450.671 949.851 451.128C948.748 451.585 947.534 451.704 946.363 451.471C945.192 451.238 944.116 450.663 943.272 449.819C942.428 448.975 941.853 447.899 941.62 446.728C941.387 445.557 941.507 444.343 941.963 443.24C942.42 442.137 943.194 441.194 944.187 440.53C945.18 439.867 946.347 439.513 947.541 439.513C949.142 439.513 950.678 440.149 951.81 441.281C952.942 442.413 953.578 443.949 953.578 445.55Z" fill="#263238"/>
<path d="M946.714 395.352L969.953 401.513C970.761 401.717 971.517 402.088 972.172 402.603C972.828 403.118 973.368 403.764 973.757 404.501C974.147 405.238 974.378 406.048 974.435 406.879C974.492 407.711 974.373 408.545 974.087 409.328L973.509 410.899C972.966 412.369 971.873 413.57 970.461 414.249C969.049 414.928 967.428 415.032 965.942 414.538L943.323 406.806C942.566 406.551 941.867 406.147 941.269 405.617C940.671 405.087 940.186 404.442 939.843 403.72C939.5 402.998 939.305 402.215 939.271 401.417C939.236 400.619 939.363 399.821 939.643 399.073C940.151 397.687 941.155 396.538 942.462 395.85C943.768 395.163 945.284 394.985 946.714 395.352Z" fill="#263238" stroke="#263238" stroke-linecap="round" stroke-linejoin="round"/>
<path d="M895.358 397.957V398.329C895.628 398.924 895.775 399.568 895.79 400.222C895.804 400.875 895.686 401.525 895.443 402.132C895.199 402.738 894.836 403.289 894.373 403.752C893.911 404.214 893.359 404.578 892.753 404.821L876.626 411.271C875.947 411.541 875.216 411.654 874.487 411.603C873.759 411.552 873.051 411.338 872.416 410.977C871.781 410.616 871.235 410.116 870.819 409.516C870.402 408.916 870.126 408.23 870.01 407.508C869.849 406.442 870.046 405.353 870.57 404.41C871.093 403.467 871.914 402.725 872.905 402.298L888.866 395.476C889.454 395.208 890.09 395.059 890.736 395.039C891.383 395.019 892.027 395.127 892.631 395.358C893.235 395.589 893.787 395.937 894.255 396.384C894.723 396.83 895.098 397.364 895.358 397.957Z" fill="#263238" stroke="#263238" stroke-linecap="round" stroke-linejoin="round"/>
<path d="M953.123 485.453C953.123 485.453 943.2 506.996 914.751 505.176" stroke="#263238" stroke-linecap="round" stroke-linejoin="round"/>
<path d="M899.575 421.526C899.575 421.526 895.813 477.555 895.44 482.103C895.068 486.652 907.308 499.305 916.653 489.629C921.831 484.919 925.293 478.62 926.494 471.724" fill="white"/>
<path d="M899.575 421.526C899.575 421.526 895.813 477.555 895.44 482.103C895.068 486.652 907.308 499.305 916.653 489.629C921.831 484.919 925.293 478.62 926.494 471.724" stroke="#263238" stroke-linecap="round" stroke-linejoin="round"/>
<path d="M898.914 419.955C895.623 415.773 891.325 412.496 886.421 410.43C881.518 408.363 876.17 407.576 870.879 408.141C865.588 408.707 860.528 410.606 856.172 413.662C851.816 416.717 848.307 420.829 845.974 425.611C843.641 430.394 842.561 435.69 842.834 441.004C843.107 446.318 844.726 451.475 847.537 455.993C850.348 460.511 854.261 464.241 858.908 466.833C863.554 469.425 868.783 470.795 874.104 470.815C878.45 471.06 882.788 470.221 886.729 468.373C890.67 466.525 894.09 463.727 896.681 460.229L898.914 419.955Z" stroke="#263238" stroke-linecap="round" stroke-linejoin="round"/>
<path d="M950.105 470.815C967.461 470.815 981.531 456.745 981.531 439.389C981.531 422.033 967.461 407.963 950.105 407.963C932.749 407.963 918.679 422.033 918.679 439.389C918.679 456.745 932.749 470.815 950.105 470.815Z" stroke="#263238" stroke-linecap="round" stroke-linejoin="round"/>
<path d="M981.655 433.104L1030.57 417.929" stroke="#263238" stroke-linecap="round" stroke-linejoin="round"/>
<path d="M843.133 435.874L861.741 432.401" stroke="#263238" stroke-linecap="round" stroke-linejoin="round"/>
<path d="M898.914 426.901C902.034 425.122 905.612 424.305 909.196 424.555C912.779 424.806 916.209 426.111 919.051 428.307" stroke="#263238" stroke-linecap="round" stroke-linejoin="round"/>
<path d="M1018 305.582C1018 305.582 1059.02 335.271 1050.21 367.358C1041.41 399.445 1016.31 460.601 1016.31 460.601L1009.48 461.677L1007.17 438.355C1007.17 438.355 984.094 433.683 985.128 414C985.677 402.379 988.604 390.994 993.729 380.548C993.729 380.548 973.468 402.092 945.805 402.092C918.142 402.092 900.527 371.658 892.753 384.063C884.979 396.468 871.086 405.648 840.156 395.269C809.227 384.89 759.442 317.532 787.435 292.143C815.429 266.754 870.92 299.71 887.874 301.198C904.827 302.687 912.684 273.536 951.18 278.539C975.275 282.156 998.172 291.423 1018 305.582Z" fill="#263238" stroke="#263238" stroke-linecap="round" stroke-linejoin="round"/>
<path d="M1141.8 992.399H256.423V1805.13H1141.8V992.399Z" fill="white" stroke="#263238" stroke-linecap="round" stroke-linejoin="round"/>
<path d="M1141.8 992.399H256.423V1047.1H1141.8V992.399Z" fill="#263238" stroke="#263238" stroke-linecap="round" stroke-linejoin="round"/>
<path d="M1141.8 992.399H861.658V1805.13H1141.8V992.399Z" stroke="#263238" stroke-linecap="round" stroke-linejoin="round"/>
<path d="M1179.84 992.399H218.381V1023.54H1179.84V992.399Z" fill="white" stroke="#263238" stroke-linecap="round" stroke-linejoin="round"/>
<path d="M1179.8 992.399H827.048V1023.54H1179.8V992.399Z" fill="white" stroke="#263238" stroke-linecap="round" stroke-linejoin="round"/>
<path d="M1341.77 637.785C1341.77 637.785 1340.98 616.696 1332.05 602.1C1323.12 587.503 1290.7 576.959 1273.71 584.278C1265.09 587.81 1256.69 591.87 1248.57 596.435C1265.49 601.74 1281.59 609.38 1296.41 619.136C1310.09 628.399 1325.53 634.747 1341.77 637.785Z" fill="#756CBF" stroke="#263238" stroke-linecap="round" stroke-linejoin="round"/>
<path d="M1375.84 648.412C1375.84 648.412 1356.37 629.763 1353.14 603.795C1349.91 577.828 1377.45 537.346 1377.45 537.346C1386.56 554.656 1393.89 572.847 1399.33 591.638C1407.47 620.831 1375.84 648.412 1375.84 648.412Z" fill="#756CBF" stroke="#263238" stroke-linecap="round" stroke-linejoin="round"/>
<path d="M1413.06 640.307C1413.06 640.307 1408.18 615.993 1417.19 598.957C1426.2 581.921 1449.61 583.534 1473.14 590.687C1496.66 597.841 1503.94 597.965 1503.94 597.965C1487.73 608.831 1470.63 618.319 1452.83 626.331C1439.9 631.879 1426.61 636.549 1413.06 640.307Z" fill="#756CBF" stroke="#263238" stroke-linecap="round" stroke-linejoin="round"/>
<path d="M1376.05 727.679C1375.49 727.679 1374.95 727.457 1374.56 727.061C1374.16 726.666 1373.94 726.129 1373.94 725.57V609.791C1374.03 609.313 1374.29 608.884 1374.67 608.575C1375.05 608.266 1375.52 608.098 1376.01 608.098C1376.49 608.098 1376.97 608.266 1377.34 608.575C1377.72 608.884 1377.98 609.313 1378.07 609.791V725.57C1378.07 726.115 1377.86 726.639 1377.49 727.033C1377.11 727.426 1376.59 727.657 1376.05 727.679Z" fill="#263238"/>
<path d="M1385.81 727.679H1385.48C1384.93 727.597 1384.44 727.304 1384.11 726.863C1383.77 726.423 1383.63 725.869 1383.7 725.322C1384.11 722.427 1393.91 653.746 1427.16 615.58C1427.34 615.371 1427.56 615.2 1427.81 615.076C1428.06 614.953 1428.33 614.879 1428.6 614.86C1428.88 614.841 1429.16 614.876 1429.42 614.964C1429.68 615.052 1429.92 615.191 1430.13 615.373C1430.34 615.555 1430.51 615.776 1430.64 616.024C1430.76 616.273 1430.83 616.542 1430.85 616.819C1430.87 617.095 1430.84 617.373 1430.75 617.636C1430.66 617.898 1430.52 618.141 1430.34 618.35C1397.88 655.565 1387.96 725.198 1387.87 725.859C1387.8 726.357 1387.55 726.811 1387.17 727.144C1386.79 727.476 1386.31 727.665 1385.81 727.679Z" fill="#263238"/>
<path d="M1366.33 726.025C1366.06 726.025 1365.78 725.97 1365.53 725.864C1365.28 725.757 1365.05 725.601 1364.85 725.405C1364.66 725.208 1364.51 724.976 1364.41 724.72C1364.31 724.464 1364.26 724.191 1364.26 723.916C1364.26 723.254 1364.59 657.26 1325.31 625.876C1324.87 625.525 1324.59 625.014 1324.53 624.456C1324.47 623.898 1324.63 623.337 1324.98 622.899C1325.33 622.46 1325.84 622.179 1326.4 622.117C1326.96 622.055 1327.52 622.217 1327.96 622.568C1368.81 655.276 1368.48 721.187 1368.48 723.957C1368.48 724.234 1368.42 724.507 1368.3 724.761C1368.19 725.015 1368.03 725.245 1367.83 725.437C1367.63 725.629 1367.4 725.779 1367.14 725.88C1366.88 725.981 1366.61 726.03 1366.33 726.025Z" fill="#263238"/>
<path d="M1398.75 725.239H1398.21C1397.68 725.094 1397.22 724.743 1396.94 724.263C1396.66 723.783 1396.58 723.213 1396.72 722.676C1400.85 708.525 1407.26 695.144 1415.7 683.063C1416.03 682.615 1416.53 682.316 1417.08 682.23C1417.63 682.145 1418.19 682.281 1418.64 682.608C1419.08 682.945 1419.37 683.438 1419.45 683.984C1419.54 684.531 1419.41 685.09 1419.09 685.544C1410.97 697.213 1404.79 710.114 1400.77 723.751C1400.64 724.183 1400.37 724.562 1400.01 724.83C1399.64 725.098 1399.2 725.241 1398.75 725.239Z" fill="#263238"/>
<path d="M1411.53 692.986C1411.53 692.986 1410.7 670.286 1420.42 667.06C1430.13 663.835 1439.06 671.898 1446.38 676.777C1453.7 681.657 1461.77 686.495 1461.77 701.091C1460.93 714.998 1459.04 728.822 1456.1 742.441C1456.1 742.441 1447.83 717.3 1434.23 705.97C1420.62 694.64 1411.53 692.986 1411.53 692.986Z" fill="#756CBF" stroke="#263238" stroke-linecap="round" stroke-linejoin="round"/>
<path d="M1351.73 726.025C1351.29 726.041 1350.85 725.908 1350.49 725.645C1350.13 725.383 1349.87 725.007 1349.75 724.578C1345.51 712.447 1338.2 701.62 1328.54 693.152C1328.19 692.783 1327.98 692.299 1327.96 691.79C1327.94 691.281 1328.1 690.782 1328.42 690.383C1328.73 689.985 1329.18 689.715 1329.69 689.624C1330.19 689.532 1330.7 689.625 1331.14 689.885C1341.49 698.827 1349.28 710.356 1353.72 723.296C1353.81 723.559 1353.84 723.837 1353.82 724.115C1353.8 724.392 1353.73 724.662 1353.6 724.909C1353.47 725.156 1353.3 725.375 1353.08 725.552C1352.87 725.73 1352.62 725.862 1352.35 725.942C1352.15 726.01 1351.94 726.038 1351.73 726.025Z" fill="#263238"/>
<path d="M1341.77 700.305C1341.77 700.305 1345.04 685.709 1336.93 675.165C1328.83 664.621 1309.35 666.895 1299.72 678.39C1290.08 689.885 1276.19 723.875 1276.19 723.875C1276.19 723.875 1295.66 708.493 1318.37 708.493C1341.07 708.493 1341.77 700.305 1341.77 700.305Z" fill="#756CBF" stroke="#263238" stroke-linecap="round" stroke-linejoin="round"/>
<path d="M1406.4 850.322H1341.69L1309.35 743.309H1438.73L1406.4 850.322Z" fill="white" stroke="#263238" stroke-linecap="round" stroke-linejoin="round"/>
<path d="M1439.11 725.57H1308.98V743.309H1439.11V725.57Z" fill="white" stroke="#263238" stroke-linecap="round" stroke-linejoin="round"/>
<path d="M1688.65 849.412H1530.94V1168.05H1688.65V849.412Z" fill="#263238" stroke="#263238" stroke-linecap="round" stroke-linejoin="round"/>
<path d="M1549.34 849.412H1079.03V1168.05H1549.34V849.412Z" fill="white" stroke="#263238" stroke-linecap="round" stroke-linejoin="round"/>
<path d="M1525.57 871.286H1103.31V1144.03H1525.57V871.286Z" fill="#E5E5E5" stroke="#263238" stroke-linecap="round" stroke-linejoin="round"/>
<path d="M1525.57 871.286H1311.21V1144.03H1525.57V871.286Z" fill="#E5E5E5" stroke="#263238" stroke-linecap="round" stroke-linejoin="round"/>
<path d="M1525.57 998.602H1103.31V1016.67H1525.57V998.602Z" fill="white" stroke="#263238" stroke-linecap="round" stroke-linejoin="round"/>
<path d="M1797.65 1167.76H1639.94V1486.4H1797.65V1167.76Z" fill="#263238" stroke="#263238" stroke-linecap="round" stroke-linejoin="round"/>
<path d="M926.164 1306.66L977.355 1484.96H878.529L926.164 1306.66Z" fill="#263238" stroke="#263238" stroke-linecap="round" stroke-linejoin="round"/>
<path d="M930.092 1287.84L923.558 1281.97L754.149 1484.96H893.621L930.092 1287.84Z" fill="white" stroke="#263238" stroke-linecap="round" stroke-linejoin="round"/>
<path d="M923.558 1281.97H784.086L747.202 1484.96H886.633L923.558 1281.97Z" fill="#756CBF" stroke="#263238" stroke-linecap="round" stroke-linejoin="round"/>
<path d="M801.246 1321.63H890.479" stroke="#263238" stroke-linecap="round" stroke-linejoin="round"/>
<path d="M795.499 1344.66H884.69" stroke="#263238" stroke-linecap="round" stroke-linejoin="round"/>
<path d="M789.751 1367.69H878.942" stroke="#263238" stroke-linecap="round" stroke-linejoin="round"/>
<path d="M1658.3 1167.76H949.774V1486.4H1658.3V1167.76Z" fill="white" stroke="#263238" stroke-linecap="round" stroke-linejoin="round"/>
<path d="M1634.61 1189.64H974.088V1462.38H1634.61V1189.64Z" fill="#E5E5E5" stroke="#263238" stroke-linecap="round" stroke-linejoin="round"/>
<path d="M1634.61 1189.64H1132.5V1462.38H1634.61V1189.64Z" fill="white" stroke="#263238" stroke-linecap="round" stroke-linejoin="round"/>
<path d="M1634.57 1189.64H1156.19V1462.38H1634.57V1189.64Z" fill="#E5E5E5" stroke="#263238" stroke-linecap="round" stroke-linejoin="round"/>
<path d="M1634.61 1189.64H1325.02V1462.38H1634.61V1189.64Z" fill="#E5E5E5" stroke="#263238" stroke-linecap="round" stroke-linejoin="round"/>
<path d="M1634.57 1189.64H1446.18V1462.38H1634.57V1189.64Z" fill="white" stroke="#263238" stroke-linecap="round" stroke-linejoin="round"/>
<path d="M1634.61 1189.64H1469.91V1462.38H1634.61V1189.64Z" fill="#E5E5E5" stroke="#263238" stroke-linecap="round" stroke-linejoin="round"/>
<path d="M1916.24 1485.2H1758.53V1803.84H1916.24V1485.2Z" fill="#263238" stroke="#263238" stroke-linecap="round" stroke-linejoin="round"/>
<path d="M1776.89 1485.2H717.1V1803.84H1776.89V1485.2Z" fill="white" stroke="#263238" stroke-linecap="round" stroke-linejoin="round"/>
<path d="M1753.2 1507.08H741.413V1779.82H1753.2V1507.08Z" fill="#E5E5E5" stroke="#263238" stroke-linecap="round" stroke-linejoin="round"/>
<path d="M1753.2 1507.08H1025.36V1779.82H1753.2V1507.08Z" fill="#E5E5E5" stroke="#263238" stroke-linecap="round" stroke-linejoin="round"/>
<path d="M1753.2 1507.08H1109.88V1779.82H1753.2V1507.08Z" fill="white" stroke="#263238" stroke-linecap="round" stroke-linejoin="round"/>
<path d="M1753.2 1507.08H1133.57V1779.82H1753.2V1507.08Z" fill="#E5E5E5" stroke="#263238" stroke-linecap="round" stroke-linejoin="round"/>
<path d="M1753.2 1507.08H1290.66V1779.82H1753.2V1507.08Z" fill="#E5E5E5" stroke="#263238" stroke-linecap="round" stroke-linejoin="round"/>
<path d="M1753.16 1507.08H1432.99V1779.82H1753.16V1507.08Z" fill="white" stroke="#263238" stroke-linecap="round" stroke-linejoin="round"/>
<path d="M1753.2 1507.08H1459.7V1779.82H1753.2V1507.08Z" fill="#E5E5E5" stroke="#263238" stroke-linecap="round" stroke-linejoin="round"/>
<path d="M1753.2 1507.08H1615.13V1779.82H1753.2V1507.08Z" fill="#E5E5E5" stroke="#263238" stroke-linecap="round" stroke-linejoin="round"/>
<path d="M1740.5 988.058L1791.69 1166.32H1692.87L1740.5 988.058Z" fill="#787878" stroke="#263238" stroke-linecap="round" stroke-linejoin="round"/>
<path d="M1744.43 969.244L1737.9 963.331L1568.49 1166.32H1707.96L1744.43 969.244Z" fill="white" stroke="#263238" stroke-linecap="round" stroke-linejoin="round"/>
<path d="M1737.9 963.331H1598.43L1561.5 1166.32H1700.97L1737.9 963.331Z" fill="#756CBF" stroke="#263238" stroke-linecap="round" stroke-linejoin="round"/>
<path d="M1616.95 995.087H1706.14" stroke="#263238" stroke-linecap="round" stroke-linejoin="round"/>
<path d="M1611.2 1018.08H1700.39" stroke="#263238" stroke-linecap="round" stroke-linejoin="round"/>
<path d="M1605.46 1041.11H1694.65" stroke="#263238" stroke-linecap="round" stroke-linejoin="round"/>
<path d="M1361.08 1281.52L1412.27 1459.82H1313.44L1361.08 1281.52Z" fill="#263238" stroke="#263238" stroke-linecap="round" stroke-linejoin="round"/>
<path d="M1365.01 1262.7L1358.47 1256.79L1189.06 1459.82H1328.54L1365.01 1262.7Z" fill="white" stroke="#263238" stroke-linecap="round" stroke-linejoin="round"/>
<path d="M1358.47 1256.79H1219L1182.08 1459.82H1321.55L1358.47 1256.79Z" fill="#756CBF" stroke="#263238" stroke-linecap="round" stroke-linejoin="round"/>
<path d="M1235.91 1372.11L1236.33 1371.74L1238.19 1374.1L1259.98 1355.95L1255.6 1350.45L1234.38 1368.06L1232.11 1361.94L1227.97 1367.15L1214.95 1350.82L1208.29 1356.32L1222.52 1374.18L1214.25 1384.77L1200.15 1396.51L1204.53 1402.01L1211.77 1396.05L1205.6 1426.28H1232.4L1238.68 1395.19L1244.31 1402.26L1250.97 1396.72L1239.88 1382.78L1235.91 1372.11ZM1242.98 1392.5L1244.76 1391.01L1246.95 1393.74L1245.13 1395.23L1242.98 1392.5ZM1244.14 1396.1L1242.32 1397.58L1240.17 1394.86L1241.95 1393.37L1244.14 1396.1ZM1242.28 1391.67L1240.13 1388.94L1241.95 1387.45L1244.1 1390.18L1242.28 1391.67ZM1214.58 1385.92H1217.6L1215.78 1387.41H1214.83L1214 1386.38L1214.58 1385.92ZM1219.17 1385.92L1220.28 1387.33H1217.47L1219.17 1385.92ZM1213.46 1387.74L1213.09 1389.56L1210.94 1391.38L1209.74 1389.89L1213.01 1387.16L1213.46 1387.74ZM1212.76 1391.26L1212.34 1393.16L1211.6 1392.21L1212.76 1391.26ZM1209.9 1392.21L1206.64 1394.94L1205.44 1393.45L1208.71 1390.72L1209.9 1392.21ZM1210.57 1393.08L1211.77 1394.57L1208.5 1397.3L1207.3 1395.77L1210.57 1393.08ZM1221.36 1386.59L1220.78 1385.84H1222.27L1221.36 1386.59ZM1234.96 1385.84L1233.81 1386.79L1233.02 1385.84H1234.96ZM1236.29 1386.17L1237.24 1387.33H1234.84L1236.29 1386.17ZM1240.42 1387.33H1239.06L1237.86 1385.84H1240.83L1241.37 1386.54L1240.42 1387.33ZM1237.49 1370.79L1240.79 1368.06L1241.99 1369.55L1238.68 1372.32L1237.49 1370.79ZM1250.39 1360.08L1253.65 1357.35L1254.85 1358.84L1251.59 1361.57L1250.39 1360.08ZM1250.39 1362.4L1247.12 1365.13L1245.92 1363.64L1249.23 1360.91L1250.39 1362.4ZM1249.56 1359.21L1248.36 1357.72L1251.63 1354.99L1252.83 1356.52L1249.56 1359.21ZM1248.53 1360.08L1245.26 1362.81L1244.06 1361.28L1247.33 1358.59L1248.53 1360.08ZM1244.39 1363.64L1241.08 1366.37L1239.92 1364.88L1243.19 1362.15L1244.39 1363.64ZM1245.05 1364.46L1246.25 1365.99L1242.98 1368.68L1241.79 1367.19L1245.05 1364.46ZM1255.93 1358.1L1254.73 1356.61L1257.29 1354.46L1258.49 1355.95L1255.93 1358.1ZM1256.59 1353.63L1254.07 1355.74L1252.87 1354.25L1255.43 1352.14L1256.59 1353.63ZM1238.97 1365.79L1240.17 1367.28L1236.86 1370.05L1235.67 1368.56L1238.97 1365.79ZM1225.87 1370.13L1223.88 1367.65L1225.7 1366.16L1227.35 1368.23L1225.87 1370.13ZM1217.6 1359.67L1215.4 1356.94L1217.22 1355.45L1219.37 1358.18L1217.6 1359.67ZM1220.04 1359.01L1222.23 1361.73L1220.41 1363.22L1218.26 1360.54L1220.04 1359.01ZM1216.56 1360.54L1214.74 1362.02L1212.59 1359.29L1214.41 1357.81L1216.56 1360.54ZM1217.22 1361.36L1219.42 1364.09L1217.6 1365.58L1215.45 1362.85L1217.22 1361.36ZM1220.08 1364.92L1222.23 1367.65L1220.45 1369.14L1218.26 1366.41L1220.08 1364.92ZM1221.11 1364.09L1222.89 1362.6L1225.08 1365.29L1223.26 1366.82L1221.11 1364.09ZM1216.52 1354.62L1214.74 1356.11L1213.05 1354L1214.83 1352.47L1216.52 1354.62ZM1212.01 1354.83L1213.71 1356.94L1211.93 1358.47L1210.24 1356.32L1212.01 1354.83ZM1223.3 1372.77L1221.11 1370L1222.93 1368.52L1225.08 1371.2L1224.87 1371.45L1223.3 1372.77ZM1204.41 1394.48L1205.6 1395.97L1203.04 1398.12L1201.88 1396.63L1204.41 1394.48ZM1203.74 1398.95L1206.31 1396.84L1207.47 1398.33L1204.94 1400.48L1203.74 1398.95ZM1222.14 1387.54L1223.96 1386.05H1231.32L1232.52 1387.54H1222.14ZM1239.68 1390.64L1241.29 1392.62L1239.47 1394.15L1239.1 1393.62L1239.68 1390.64ZM1242.98 1398.54L1244.8 1397.05L1246.5 1399.2L1244.68 1400.69L1242.98 1398.54ZM1247.49 1398.33L1245.8 1396.22L1247.66 1394.48L1249.35 1396.63L1247.49 1398.33Z" fill="white"/>
<path d="M1304.84 1352.8L1305.42 1352.31L1307.99 1355.49L1337.55 1330.89L1331.56 1323.4L1302.61 1347.3L1299.47 1339.03L1293.97 1346.15L1276.6 1323.9L1267.59 1331.38L1286.86 1355.61L1275.65 1370L1256.51 1385.88L1262.5 1393.37L1272.26 1385.1L1263.99 1426.12H1300.3L1308.85 1383.94L1316.46 1393.49L1325.48 1386.01L1310.47 1367.11L1304.84 1352.8ZM1314.44 1380.47L1316.88 1378.44L1319.81 1382.16L1317.37 1384.19L1314.44 1380.47ZM1316.01 1385.3L1313.57 1387.33L1310.63 1383.65L1313.07 1381.62L1316.01 1385.3ZM1313.53 1379.35L1310.59 1375.63L1313.03 1373.6L1315.97 1377.32L1313.53 1379.35ZM1275.94 1371.53H1280.08L1277.64 1373.56H1276.35L1275.24 1372.2L1275.94 1371.53ZM1282.14 1371.53L1283.67 1373.44H1279.83L1282.14 1371.53ZM1274.41 1373.97L1273.91 1376.5L1270.98 1378.94L1269.37 1376.91L1273.79 1373.19L1274.41 1373.97ZM1273.42 1378.77L1272.92 1381.38L1271.89 1380.05L1273.42 1378.77ZM1269.57 1380.05L1265.15 1383.77L1263.54 1381.71L1267.96 1378.03L1269.57 1380.05ZM1270.52 1381.21L1272.14 1383.24L1267.67 1386.92L1266.06 1384.89L1270.52 1381.21ZM1285.12 1372.44L1284.33 1371.41H1286.36L1285.12 1372.44ZM1303.56 1371.41L1301.99 1372.73L1300.96 1371.41H1303.56ZM1305.34 1371.82L1306.66 1373.44H1303.4L1305.34 1371.82ZM1310.8 1373.44H1308.94L1307.32 1371.41H1311.46L1312.2 1372.36L1310.8 1373.44ZM1306.66 1351.02L1311.17 1347.26L1312.78 1349.29L1308.28 1353.05L1306.66 1351.02ZM1324.15 1336.47L1328.62 1332.79L1330.23 1334.82L1325.81 1338.5L1324.15 1336.47ZM1324.4 1339.65L1319.98 1343.33L1318.36 1341.31L1322.79 1337.63L1324.4 1339.65ZM1323.24 1335.52L1321.63 1333.49L1326.06 1329.81L1327.71 1331.84L1323.24 1335.52ZM1322.09 1336.59L1317.66 1340.27L1316.05 1338.25L1320.47 1334.57L1322.09 1336.59ZM1316.26 1341.43L1311.83 1345.11L1310.22 1343.09L1314.64 1339.41L1316.26 1341.43ZM1317.17 1342.55L1318.82 1344.62L1314.35 1348.3L1312.74 1346.27L1317.17 1342.55ZM1331.8 1333.78L1330.19 1331.76L1333.66 1328.86L1335.28 1330.89L1331.8 1333.78ZM1332.75 1327.7L1329.28 1330.6L1327.67 1328.57L1331.14 1325.68L1332.75 1327.7ZM1308.85 1344.24L1310.47 1346.27L1305.96 1349.99L1304.35 1347.96L1308.85 1344.24ZM1304.72 1351.15H1304.51L1304.18 1350.28L1304.72 1351.15ZM1291.24 1350.12L1288.55 1346.77L1290.99 1344.74L1293.22 1347.55L1291.24 1350.12ZM1279.91 1335.93L1276.6 1332.46L1279.04 1330.43L1281.98 1334.11L1279.91 1335.93ZM1283.3 1335.06L1286.24 1338.74L1283.8 1340.77L1280.82 1337.09L1283.3 1335.06ZM1278.55 1337.09L1276.11 1339.12L1273.17 1335.44L1275.61 1333.41L1278.55 1337.09ZM1279.45 1338.25L1282.39 1341.93L1279.95 1343.95L1277.02 1340.27L1279.45 1338.25ZM1283.3 1343.04L1286.24 1346.77L1283.8 1348.79L1280.86 1345.11L1283.3 1343.04ZM1284.71 1341.93L1287.15 1339.9L1290.08 1343.58L1287.64 1345.61L1284.71 1341.93ZM1278.5 1329.07L1276.06 1331.09L1273.79 1328.24L1276.23 1326.17L1278.5 1329.07ZM1272.38 1329.36L1274.7 1332.25L1272.26 1334.28L1269.94 1331.38L1272.38 1329.36ZM1287.72 1353.67L1284.71 1349.91L1287.15 1347.88L1290.08 1351.56L1289.79 1351.93L1287.72 1353.67ZM1262.38 1382.99L1263.99 1385.01L1260.52 1387.91L1258.9 1385.88L1262.38 1382.99ZM1261.43 1389.07L1264.9 1386.17L1266.51 1388.2L1263.04 1391.09L1261.43 1389.07ZM1286.24 1373.56L1288.68 1371.53H1298.72L1300.34 1373.56H1286.24ZM1310.01 1377.7L1312.2 1380.38L1309.76 1382.45L1309.19 1381.75L1310.01 1377.7ZM1314.52 1388.4L1316.96 1386.38L1319.27 1389.27L1316.83 1391.3L1314.52 1388.4ZM1320.64 1388.12L1318.32 1385.22L1320.76 1383.19L1323.08 1386.09L1320.64 1388.12Z" fill="white"/>
<path d="M1344.58 1307.24C1344.33 1304.18 1340.16 1301.69 1334.7 1301.28C1334.89 1300.42 1335 1299.55 1335.03 1298.68C1335.03 1289.46 1326.1 1282.14 1315.06 1282.14C1310.71 1281.88 1306.4 1283.1 1302.84 1285.61C1299.28 1288.12 1296.68 1291.77 1295.46 1295.95C1294.75 1295.91 1294.05 1295.91 1293.35 1295.95C1290.74 1295.76 1288.15 1296.48 1286.02 1297.99C1283.88 1299.5 1282.34 1301.7 1281.65 1304.22C1279.63 1302.45 1277.03 1301.47 1274.35 1301.47C1271.66 1301.47 1269.07 1302.45 1267.05 1304.22C1265.17 1303.65 1263.22 1303.37 1261.26 1303.39C1256.55 1303.39 1252.7 1304.75 1252.7 1306.45C1252.74 1306.84 1252.94 1307.19 1253.24 1307.44L1344.58 1307.24Z" fill="white"/>
<path d="M1262.83 1320.88C1262.83 1319.52 1260.89 1318.44 1258.49 1318.23C1258.51 1317.86 1258.51 1317.49 1258.49 1317.12C1258.26 1315 1257.22 1313.05 1255.59 1311.68C1253.95 1310.3 1251.85 1309.62 1249.72 1309.76C1247.81 1309.64 1245.91 1310.18 1244.34 1311.29C1242.77 1312.39 1241.62 1313.99 1241.08 1315.84H1240.17C1239.02 1315.76 1237.88 1316.07 1236.94 1316.74C1236 1317.4 1235.32 1318.37 1235 1319.48C1234.12 1318.69 1232.98 1318.26 1231.8 1318.26C1230.62 1318.26 1229.48 1318.69 1228.6 1319.48C1227.76 1319.24 1226.9 1319.13 1226.03 1319.14C1223.96 1319.14 1222.27 1319.72 1222.27 1320.47C1222.27 1320.56 1222.3 1320.64 1222.34 1320.72C1222.39 1320.8 1222.45 1320.87 1222.52 1320.92L1262.83 1320.88Z" fill="white"/>
<path d="M1350.62 1600.16L1401.81 1778.46H1302.94L1350.62 1600.16Z" fill="#263238" stroke="#263238" stroke-linecap="round" stroke-linejoin="round"/>
<path d="M1354.5 1581.34L1347.97 1575.43L1178.56 1778.46H1318.03L1354.5 1581.34Z" fill="white" stroke="#263238" stroke-linecap="round" stroke-linejoin="round"/>
<path d="M1347.97 1575.43H1208.54L1171.62 1778.46H1311.09L1347.97 1575.43Z" fill="white" stroke="#263238" stroke-linecap="round" stroke-linejoin="round"/>
<path d="M1313.36 1627.49H1218.92L1193.9 1764.98H1288.39L1313.36 1627.49Z" fill="#756CBF"/>
<path d="M1225.74 1597.01L1221.85 1618.27H1316.34L1320.18 1597.01H1225.74Z" fill="#756CBF"/>
<path d="M1046.66 1600.16L1097.85 1778.46H998.98L1046.66 1600.16Z" fill="#263238" stroke="#263238" stroke-linecap="round" stroke-linejoin="round"/>
<path d="M1050.54 1581.34L1044.01 1575.43L874.601 1778.46H1014.07L1050.54 1581.34Z" fill="white" stroke="#263238" stroke-linecap="round" stroke-linejoin="round"/>
<path d="M1044.01 1575.43H904.579L867.654 1778.46H1007.13L1044.01 1575.43Z" fill="white" stroke="#263238" stroke-linecap="round" stroke-linejoin="round"/>
<path d="M992.571 1648.29C990.883 1654.21 988.041 1659.75 984.21 1664.57C980.378 1669.4 975.631 1673.42 970.242 1676.41C952.048 1686.33 923.931 1672.27 901.56 1692.16C879.19 1712.05 878.405 1754.18 925.585 1759.15C972.764 1764.11 982.647 1728.55 982.647 1728.55C982.647 1728.55 1004.19 1732.68 1003.32 1726.07C1002.45 1719.45 988.395 1714.49 988.395 1714.49C994.595 1704.17 998.291 1692.54 999.187 1680.54C999.724 1662.76 999.187 1650.77 999.187 1650.77C999.187 1650.77 1010.76 1653.25 1014.9 1650.77C1019.03 1648.29 1027.3 1625.13 1027.3 1625.13C1027.3 1625.13 1013.25 1635.06 1006.63 1635.06C1000.01 1635.06 982.606 1621 982.606 1621C982.606 1621 979.339 1648.29 992.571 1648.29Z" fill="#756CBF"/>
<path d="M912.683 1595.61L908.838 1616.86H1003.28L1007.17 1595.61H912.683Z" fill="#756CBF"/>
<path d="M907.101 1626.37L903.256 1647.58H959.988L963.833 1626.37H907.101Z" fill="#756CBF"/>
<path d="M1665.04 1600.16L1716.23 1778.46H1617.41L1665.04 1600.16Z" fill="#263238" stroke="#263238" stroke-linecap="round" stroke-linejoin="round"/>
<path d="M1668.97 1581.34L1662.44 1575.43L1493.03 1778.46H1632.46L1668.97 1581.34Z" fill="white" stroke="#263238" stroke-linecap="round" stroke-linejoin="round"/>
<path d="M1662.44 1575.43H1522.96L1486.04 1778.46H1625.51L1662.44 1575.43Z" fill="#756CBF" stroke="#263238" stroke-linecap="round" stroke-linejoin="round"/>
<path d="M1559.85 1634.85C1560.2 1638.43 1559.46 1642.03 1557.72 1645.19C1555.98 1648.34 1553.33 1650.89 1550.12 1652.51C1546.9 1654.12 1543.27 1654.73 1539.71 1654.24C1536.14 1653.76 1532.8 1652.21 1530.14 1649.79C1527.47 1647.37 1525.6 1644.2 1524.77 1640.7C1523.94 1637.2 1524.19 1633.53 1525.48 1630.17C1526.78 1626.81 1529.06 1623.93 1532.03 1621.89C1535 1619.85 1538.51 1618.76 1542.11 1618.76C1546.59 1618.55 1550.98 1620.12 1554.3 1623.14C1557.63 1626.15 1559.62 1630.37 1559.85 1634.85Z" fill="white"/>
<path d="M1597.89 1664.41C1598.26 1668.01 1597.53 1671.63 1595.79 1674.8C1594.06 1677.97 1591.41 1680.54 1588.19 1682.17C1584.97 1683.8 1581.33 1684.42 1577.75 1683.94C1574.17 1683.46 1570.82 1681.9 1568.14 1679.48C1565.46 1677.06 1563.58 1673.88 1562.74 1670.37C1561.9 1666.85 1562.15 1663.17 1563.45 1659.8C1564.76 1656.43 1567.05 1653.53 1570.03 1651.49C1573.01 1649.45 1576.54 1648.36 1580.15 1648.37C1584.63 1648.16 1589.01 1649.72 1592.33 1652.73C1595.65 1655.74 1597.65 1659.94 1597.89 1664.41Z" fill="white"/>
<path d="M1623.94 1640.06C1624.23 1643.04 1623.61 1646.04 1622.17 1648.67C1620.72 1651.29 1618.52 1653.42 1615.84 1654.76C1613.16 1656.11 1610.14 1656.62 1607.17 1656.22C1604.2 1655.81 1601.43 1654.52 1599.2 1652.51C1596.98 1650.5 1595.42 1647.87 1594.73 1644.95C1594.03 1642.04 1594.23 1638.98 1595.31 1636.18C1596.38 1633.39 1598.28 1630.98 1600.75 1629.28C1603.21 1627.58 1606.14 1626.67 1609.14 1626.66C1612.87 1626.48 1616.53 1627.79 1619.31 1630.3C1622.08 1632.81 1623.75 1636.32 1623.94 1640.06Z" fill="white"/>
<path d="M1545.09 1744.22C1563.51 1744.22 1578.45 1730.7 1578.45 1714.03C1578.45 1697.36 1563.51 1683.85 1545.09 1683.85C1526.66 1683.85 1511.72 1697.36 1511.72 1714.03C1511.72 1730.7 1526.66 1744.22 1545.09 1744.22Z" fill="white"/>
<path d="M1001.21 1249.72H982.068V1462.67H1001.21V1249.72Z" fill="#756CBF" stroke="#263238" stroke-linecap="round" stroke-linejoin="round"/>
<path d="M1100.66 1249.72H996.086V1462.67H1100.66V1249.72Z" fill="#756CBF" stroke="#263238" stroke-linecap="round" stroke-linejoin="round"/>
<path d="M1022.88 1249.72H1003.74V1462.67H1022.88V1249.72Z" fill="white" stroke="#263238" stroke-linecap="round" stroke-linejoin="round"/>
<path d="M1122.37 1249.72H1017.79V1462.67H1122.37V1249.72Z" fill="white" stroke="#263238" stroke-linecap="round" stroke-linejoin="round"/>
<path d="M1044.59 1249.72H1025.44V1462.67H1044.59V1249.72Z" fill="white" stroke="#263238" stroke-linecap="round" stroke-linejoin="round"/>
<path d="M1131.26 1249.72H1039.46V1462.67H1131.26V1249.72Z" fill="white" stroke="#263238" stroke-linecap="round" stroke-linejoin="round"/>
<path d="M1066.26 1249.72H1047.11V1462.67H1066.26V1249.72Z" fill="#756CBF" stroke="#263238" stroke-linecap="round" stroke-linejoin="round"/>
<path d="M1132.54 1249.72H1061.13V1462.67H1132.54V1249.72Z" fill="#756CBF" stroke="#263238" stroke-linecap="round" stroke-linejoin="round"/>
<path d="M1492.16 1249.72H1473.01V1462.67H1492.16V1249.72Z" fill="white" stroke="#263238" stroke-linecap="round" stroke-linejoin="round"/>
<path d="M1591.64 1249.72H1487.07V1462.67H1591.64V1249.72Z" fill="white" stroke="#263238" stroke-linecap="round" stroke-linejoin="round"/>
<path d="M1513.87 1249.72H1494.72V1462.67H1513.87V1249.72Z" fill="#756CBF" stroke="#263238" stroke-linecap="round" stroke-linejoin="round"/>
<path d="M1613.31 1249.72H1508.74V1462.67H1613.31V1249.72Z" fill="#756CBF" stroke="#263238" stroke-linecap="round" stroke-linejoin="round"/>
<path d="M1535.53 1249.72H1516.39V1462.67H1535.53V1249.72Z" fill="#756CBF" stroke="#263238" stroke-linecap="round" stroke-linejoin="round"/>
<path d="M1622.2 1249.72H1530.41V1462.67H1622.2V1249.72Z" fill="#756CBF" stroke="#263238" stroke-linecap="round" stroke-linejoin="round"/>
<path d="M1557.2 1249.72H1538.06V1462.67H1557.2V1249.72Z" fill="white" stroke="#263238" stroke-linecap="round" stroke-linejoin="round"/>
<path d="M1635.02 1249.72H1552.11V1462.67H1635.02V1249.72Z" fill="white" stroke="#263238" stroke-linecap="round" stroke-linejoin="round"/>
<path d="M1202.05 1036.93H1133.2V1143.33H1202.05V1036.93Z" fill="white" stroke="#263238" stroke-linecap="round" stroke-linejoin="round"/>
<path d="M1187.37 1036.93H1118.52V1143.33H1187.37V1036.93Z" fill="white" stroke="#263238" stroke-linecap="round" stroke-linejoin="round"/>
<path d="M1372.7 1101.07H1228.76V1143.33H1372.7V1101.07Z" fill="white" stroke="#263238" stroke-linecap="round" stroke-linejoin="round"/>
<path d="M1372.74 1084.94H1223.63V1114.67H1372.74V1084.94Z" fill="#263238" stroke="#263238" stroke-linecap="round" stroke-linejoin="round"/>
<path d="M1460.9 1101.07H1373.28V1143.33H1460.9V1101.07Z" fill="white" stroke="#263238" stroke-linecap="round" stroke-linejoin="round"/>
<path d="M1468.3 1084.94H1373.28V1114.67H1468.3V1084.94Z" fill="#263238" stroke="#263238" stroke-linecap="round" stroke-linejoin="round"/>
<path d="M1377.04 982.393H1129.11V998.643H1377.04V982.393Z" fill="#263238" stroke="#263238" stroke-linecap="round" stroke-linejoin="round"/>
<path d="M1387.34 982.393H1280.24V998.643H1387.34V982.393Z" fill="white" stroke="#263238" stroke-linecap="round" stroke-linejoin="round"/>
<path d="M1377.04 965.811H1129.11V982.062H1377.04V965.811Z" fill="white" stroke="#263238" stroke-linecap="round" stroke-linejoin="round"/>
<path d="M1387.34 965.811H1280.24V982.062H1387.34V965.811Z" fill="white" stroke="#263238" stroke-linecap="round" stroke-linejoin="round"/>
<path d="M1377.04 949.189H1129.11V965.439H1377.04V949.189Z" fill="#756CBF" stroke="#263238" stroke-linecap="round" stroke-linejoin="round"/>
<path d="M1387.34 949.189H1280.24V965.439H1387.34V949.189Z" fill="white" stroke="#263238" stroke-linecap="round" stroke-linejoin="round"/>
<path d="M1377.04 932.608H1129.11V948.858H1377.04V932.608Z" fill="white" stroke="#263238" stroke-linecap="round" stroke-linejoin="round"/>
<path d="M1387.34 932.608H1280.24V948.858H1387.34V932.608Z" fill="white" stroke="#263238" stroke-linecap="round" stroke-linejoin="round"/>
<path d="M1377.04 915.985H1129.11V932.236H1377.04V915.985Z" fill="#756CBF" stroke="#263238" stroke-linecap="round" stroke-linejoin="round"/>
<path d="M1387.34 915.985H1280.24V932.236H1387.34V915.985Z" fill="white" stroke="#263238" stroke-linecap="round" stroke-linejoin="round"/>
<path d="M183.979 1337.75C183.979 1337.75 196.094 1399.32 196.094 1422.39C196.094 1445.47 180.836 1487.23 180.836 1536.73C180.836 1586.22 194.978 1717.01 194.978 1717.01L247.74 1719.2C247.74 1719.2 263.122 1558.72 279.621 1521.34C296.119 1483.96 302.694 1405.9 302.694 1383.9C303.278 1367.87 305.862 1351.98 310.385 1336.59L183.979 1337.75Z" fill="#263238" stroke="#263238" stroke-linecap="round" stroke-linejoin="round"/>
<path d="M170.788 1676.32H258.739L257.622 1744.51C257.622 1744.51 308.193 1776.39 320.308 1780.77C332.424 1785.15 338.998 1795.08 337.882 1798.35C336.766 1801.61 331.307 1803.84 331.307 1803.84H179.596C176.391 1795.07 175.259 1785.67 176.288 1776.39C177.973 1767.39 180.55 1758.58 183.979 1750.09L170.788 1676.32Z" fill="#756CBF" stroke="#263238" stroke-linecap="round" stroke-linejoin="round"/>
<path d="M212.303 1337.75C212.303 1337.75 224.377 1399.32 224.377 1422.39C224.377 1445.47 208.995 1487.23 208.995 1536.73C208.995 1586.22 223.302 1717.01 223.302 1717.01L276.064 1719.2C276.064 1719.2 291.446 1558.72 307.945 1521.34C324.443 1483.96 331.018 1405.9 331.018 1383.9C331.602 1367.87 334.186 1351.98 338.709 1336.59L212.303 1337.75Z" fill="#263238" stroke="#263238" stroke-linecap="round" stroke-linejoin="round"/>
<path d="M340.115 834.237C340.115 834.237 374.187 1059.63 386.303 1101.4C398.418 1143.16 445.474 1325.64 445.474 1325.64C402.622 1344.3 356.89 1355.49 310.261 1358.72C232.234 1364.22 131.092 1357.6 101.403 1344.41C71.7143 1331.22 50.8328 1322.45 50.8328 1322.45L82.7134 1159.74C82.7134 1159.74 151.974 965.15 151.974 921.195C151.974 877.24 147.756 832.128 173.021 799.048C198.286 765.969 227.975 750.669 248.856 757.244C269.738 763.818 340.115 834.237 340.115 834.237Z" fill="#ABABAB"/>
<path d="M408.259 1182.86C407.928 1181.53 407.556 1180.21 407.225 1178.72C399.906 1180.54 392.629 1182.28 385.434 1183.81L395.317 1163.46L406.812 1177.11C405.944 1173.92 405.117 1170.78 404.29 1167.72L397.798 1159.95C399.162 1159.66 400.568 1159.29 401.933 1158.91C401.56 1157.59 401.23 1156.27 400.858 1154.78C257.457 1189.39 143.497 1169.62 84.9462 1153.21C83.5817 1157.14 82.796 1159.33 82.796 1159.33L82.2585 1162.06L91.3554 1180.25C87.2204 1179.13 83.0855 1177.98 79.364 1176.9L78.5784 1181.04C131.998 1196.29 187.306 1203.92 242.861 1203.7C298.641 1203.58 354.194 1196.58 408.259 1182.86ZM391.719 1161.52L381.589 1182.19L364.429 1166.89C373.47 1165.38 382.567 1163.59 391.719 1161.52ZM378.735 1185.42C366.331 1187.98 354.215 1190.13 342.306 1191.95L361.658 1170.2L378.735 1185.42ZM357.771 1168.34L337.923 1190.67L324.733 1173.3C335.594 1171.9 346.634 1170.24 357.854 1168.34H357.771ZM334.574 1193.15C320.887 1195.05 307.614 1196.5 294.672 1197.53L321.425 1175.33L334.574 1193.15ZM316.049 1174.34L290.371 1195.76L268.415 1177.94C283.797 1177.31 299.716 1176.12 316.132 1174.3L316.049 1174.34ZM84.4914 1157.8C94.1258 1160.49 105.166 1163.26 117.571 1165.86L95.449 1179.92L84.4914 1157.8ZM98.9637 1182.61L118.646 1170.2L133.243 1190.09C120.796 1187.74 109.343 1185.09 99.1291 1182.57L98.9637 1182.61ZM121.169 1166.52C133.573 1169.04 147.384 1171.4 162.518 1173.35L138.329 1189.68L121.169 1166.52ZM142.712 1191.58L164.834 1176.65L185.178 1197C170.126 1195.55 156.026 1193.69 142.877 1191.54L142.712 1191.58ZM168.431 1174.01C180.836 1175.5 193.944 1176.65 207.796 1177.44L189.106 1194.76L168.431 1174.01ZM192.29 1197.53L210.691 1180.42L233.061 1199.48C218.63 1199.27 205.026 1198.57 192.125 1197.53H192.29ZM213.916 1177.73C223.343 1178.14 233.061 1178.43 243.109 1178.43C247.822 1178.43 252.619 1178.43 257.498 1178.22L235.831 1196.42L213.916 1177.73ZM263.246 1178.84L286.981 1198.07C270.11 1199.23 253.901 1199.64 238.519 1199.56L263.246 1178.84Z" fill="white"/>
<path d="M433.731 1279.74C433.11 1277.34 432.449 1274.9 431.829 1272.42L420.168 1258.24L427.57 1256.13C427.197 1254.8 426.867 1253.48 426.536 1251.99C423.186 1252.9 419.837 1253.89 416.529 1254.76C416.324 1254.72 416.114 1254.72 415.909 1254.76C415.675 1254.86 415.453 1254.99 415.247 1255.13C246.045 1299.71 115.669 1267.87 64.9744 1251L64.1474 1255.13C68.9026 1256.71 74.2781 1258.4 80.3565 1260.14L60.9222 1275.02H60.3846L59.5576 1279.16C59.8125 1279.4 60.1266 1279.57 60.468 1279.65C60.8094 1279.73 61.1658 1279.72 61.501 1279.61C92.7614 1290.24 156.605 1307.44 243.026 1307.44C307.584 1307.26 371.79 1297.93 433.731 1279.74ZM417.439 1261.46L429.844 1276.51C424.138 1278.17 418.431 1279.74 412.808 1281.19L417.439 1261.46ZM413.552 1259.97L409.417 1277.59L397.839 1263.86C403.049 1262.62 408.259 1261.34 413.552 1259.97ZM408.011 1282.38C400.444 1284.33 392.919 1286.06 385.476 1287.72L395.358 1267.33L408.011 1282.38ZM391.719 1265.22L381.589 1286.15L364.429 1270.85C373.484 1269.19 382.581 1267.29 391.719 1265.22ZM378.736 1289.12C366.331 1291.69 354.215 1293.88 342.307 1295.66L361.658 1273.91L378.736 1289.12ZM357.771 1272.05L337.923 1294.38L324.733 1277.01C335.594 1275.66 346.634 1274 357.854 1272.05H357.771ZM334.574 1296.86C320.887 1298.76 307.614 1300.21 294.672 1301.24L321.425 1279.12L334.574 1296.86ZM316.05 1278.04L290.454 1299.38L268.497 1281.6C283.797 1281.02 299.716 1279.82 316.132 1278L316.05 1278.04ZM65.4706 1276.68L81.597 1264.48L91.4795 1284.29C81.3489 1281.64 72.7068 1278.99 65.5533 1276.64L65.4706 1276.68ZM84.5742 1261.5C94.2086 1264.15 105.249 1266.92 117.654 1269.52L95.5318 1283.58L84.5742 1261.5ZM99.0465 1286.31L118.729 1273.91L133.325 1293.8C120.796 1291.32 109.343 1288.83 99.1292 1286.27L99.0465 1286.31ZM121.251 1270.23C133.656 1272.79 147.467 1275.11 162.601 1277.05L138.411 1293.59L121.251 1270.23ZM142.877 1295.24L164.999 1280.32L185.343 1300.66C170.127 1299.38 156.026 1297.39 142.877 1295.24ZM168.431 1277.71C180.836 1279.2 193.944 1280.4 207.796 1281.14L189.106 1298.47L168.431 1277.71ZM192.29 1301.24L210.691 1284.12L233.061 1303.22C218.63 1302.98 205.026 1302.27 192.125 1301.24H192.29ZM213.916 1281.43C223.344 1281.87 233.075 1282.11 243.109 1282.14C247.823 1282.14 252.619 1282.14 257.498 1282.14L235.831 1300.29L213.916 1281.43ZM263.246 1282.55L286.981 1301.78C270.11 1302.94 253.901 1303.35 238.519 1303.27L263.246 1282.55Z" fill="white"/>
<path d="M442.703 1314.26L441.67 1310.13C282.019 1365.95 102.065 1324.02 53.2723 1310.71L52.4453 1314.84C120.264 1332.86 190.099 1342.17 260.269 1342.55C318.489 1342.59 382.043 1335.39 442.703 1314.26Z" fill="white"/>
<path d="M55.5054 1299.38L54.7197 1303.51C121.83 1321.12 190.888 1330.22 260.269 1330.6C317.579 1330.6 380.183 1323.61 439.809 1303.27C439.478 1301.98 439.147 1300.62 438.775 1299.13C282.226 1352.68 107.068 1313.19 55.5054 1299.38Z" fill="white"/>
<path d="M420.664 1229.91C420.292 1228.59 419.961 1227.27 419.63 1225.78C279.538 1272.5 117.778 1241.82 68.9026 1230.61L68.1169 1234.75C127.219 1248.01 187.583 1254.83 248.153 1255.09C303.272 1255.18 363.767 1248.89 420.664 1229.91Z" fill="white"/>
<path d="M418.473 1221.44C418.142 1220.11 417.77 1218.79 417.439 1217.3C279.455 1262.5 121.293 1233.26 70.6807 1221.81L69.895 1225.94C128.444 1238.95 188.219 1245.65 248.195 1245.91C302.57 1246 362.196 1239.84 418.473 1221.44Z" fill="white"/>
<path d="M340.115 834.237C340.115 834.237 374.187 1059.63 386.303 1101.4C398.418 1143.16 445.474 1325.64 445.474 1325.64C402.622 1344.3 356.89 1355.49 310.261 1358.72C232.234 1364.22 131.092 1357.6 101.403 1344.41C71.7143 1331.22 50.8328 1322.45 50.8328 1322.45L82.7134 1159.74C82.7134 1159.74 151.974 965.15 151.974 921.195C151.974 877.24 147.756 832.128 173.021 799.048C198.286 765.969 227.975 750.669 248.856 757.244C269.738 763.818 340.115 834.237 340.115 834.237Z" stroke="#263238" stroke-linecap="round" stroke-linejoin="round"/>
<path d="M199.113 1676.32H287.063L285.947 1744.51C285.947 1744.51 336.517 1776.39 348.633 1780.77C360.748 1785.15 367.323 1795.08 366.207 1798.35C365.09 1801.61 359.632 1803.84 359.632 1803.84H207.92C204.715 1795.07 203.583 1785.67 204.612 1776.39C206.298 1767.39 208.874 1758.58 212.303 1750.09L199.113 1676.32Z" fill="#756CBF" stroke="#263238" stroke-linecap="round" stroke-linejoin="round"/>
<path d="M215.901 737.52C215.901 737.52 155.447 780.4 141.14 827.662C126.833 874.925 122.45 962.876 119.142 982.682C115.834 1002.49 64.1887 1184.92 64.1887 1184.92C64.1887 1184.92 107.068 1214.61 182.904 1222.14C258.739 1229.66 342.306 1211.14 345.614 1211.14C348.922 1211.14 318.117 832.128 319.233 828.779C320.35 825.429 257.664 752.902 246.665 743.02C235.666 733.137 215.901 737.52 215.901 737.52Z" fill="white" stroke="#263238" stroke-linecap="round" stroke-linejoin="round"/>
<path d="M351.569 664.579C351.569 664.579 353.057 705.474 360.624 719.119C368.191 732.765 366.703 746.369 347.02 741.82C327.338 737.272 301.536 696.336 298.559 672.146C295.581 647.957 339.453 635.8 351.569 664.579Z" fill="#263238" stroke="#263238" stroke-linecap="round" stroke-linejoin="round"/>
<path d="M317.29 791.44L352.727 1089.53L417.149 1081.96L341.604 790.117C341.604 790.117 326.387 770.682 317.29 791.44Z" fill="#756CBF" stroke="#263238" stroke-linecap="round" stroke-linejoin="round"/>
<path d="M352.313 537.47C356.944 546.142 361.005 555.106 364.47 564.306C368.067 575.181 367.447 595.36 368.605 598.668C369.763 601.976 385.93 621.452 386.013 625.38C386.096 629.308 371.334 637.04 371.334 637.04C371.334 637.04 367.447 663.959 364.635 675.33C361.823 686.701 362.32 693.069 347.392 692.821C332.465 692.573 312.162 686.66 286.856 673.552C261.55 660.444 242.736 641.341 237.857 615.249C232.978 589.158 300.75 538.546 310.715 531.764C320.681 524.983 352.313 537.47 352.313 537.47Z" fill="white" stroke="#263238" stroke-linecap="round" stroke-linejoin="round"/>
<path d="M358.846 599.247C358.598 604.374 356.696 608.468 354.711 608.385C352.727 608.302 351.073 604.002 351.321 598.875C351.569 593.747 353.512 589.612 355.456 589.695C357.399 589.778 359.094 594.078 358.846 599.247Z" fill="#263238"/>
<path d="M341.024 586.718C341.024 586.718 348.426 567.78 359.963 574.313" stroke="#263238" stroke-linecap="round" stroke-linejoin="round"/>
<path d="M367.365 646.758C367.365 646.758 353.388 652.505 345.987 641.01" stroke="#263238" stroke-linecap="round" stroke-linejoin="round"/>
<path d="M227.396 690.464C227.396 690.464 356.614 723.875 354.505 739.009C352.396 754.143 349.253 798.263 332.341 800.496C315.429 802.728 186.915 753.564 177.28 750.462C167.646 747.361 185.095 703.2 194.771 692.077C204.447 680.954 227.396 690.464 227.396 690.464Z" fill="#756CBF" stroke="#263238" stroke-linecap="round" stroke-linejoin="round"/>
<path d="M295.292 574.148C295.292 574.148 309.682 669.252 326.635 707.5C343.588 745.749 361.12 756.293 354.67 763.736C348.219 771.179 311.005 747.196 311.005 747.196C311.005 747.196 342.761 792.35 321.673 804.631C300.585 816.911 246.995 790.53 235.624 780.855L224.501 771.179C224.501 771.179 220.945 800.123 184.227 817.573C147.508 835.023 96.8962 804.92 129.893 763.818C162.89 722.717 176.618 675.496 170.788 647.006C164.958 618.516 260.599 542.102 295.292 574.148Z" fill="#263238" stroke="#263238" stroke-linecap="round" stroke-linejoin="round"/>
<path d="M191.67 886.999C199.94 905.606 218.258 922.477 232.151 937.115C254.314 960.477 280.695 978.464 303.851 1000.63C307.986 1004.76 353.719 1044.33 359.177 1041.98C359.177 1041.98 404.662 1021.3 436.708 991.779C468.754 962.255 548.352 870.955 548.352 870.955C568.2 865.787 599.873 839.075 599.873 839.075L629.314 835.188C630.234 834.993 631.049 834.465 631.602 833.704C632.155 832.944 632.407 832.006 632.309 831.071C632.212 830.137 631.771 829.271 631.073 828.641C630.375 828.012 629.469 827.663 628.529 827.662L601.197 829.812L638.411 810.419C638.84 810.197 639.221 809.892 639.532 809.522C639.844 809.152 640.079 808.725 640.225 808.264C640.371 807.803 640.424 807.318 640.383 806.837C640.341 806.355 640.205 805.887 639.983 805.458C639.588 804.743 638.97 804.177 638.223 803.849C637.476 803.52 636.641 803.446 635.848 803.638L595.987 813.976L629.852 795.41C630.844 794.861 631.578 793.941 631.893 792.852C632.207 791.762 632.075 790.592 631.527 789.6C630.978 788.607 630.058 787.873 628.969 787.559C627.879 787.245 626.709 787.377 625.717 787.925L586.848 807.36L606.117 790.82L612.568 782.757C612.945 782.17 613.116 781.476 613.055 780.781C612.994 780.087 612.704 779.433 612.231 778.922C611.757 778.41 611.127 778.071 610.44 777.957C609.752 777.842 609.046 777.96 608.433 778.291L600.742 783.997C586.724 794.624 553.148 820.178 550.006 824.354C545.871 829.647 525.899 852.555 525.899 852.555C525.899 852.555 491.703 879.887 446.094 911.809C424.715 927.38 402.199 941.326 378.736 953.531C364.842 936.04 323.079 882.368 306.622 849.495C294.196 825.462 273.549 806.693 248.443 796.609" fill="white"/>
<path d="M191.67 886.999C199.94 905.606 218.258 922.477 232.151 937.115C254.314 960.477 280.695 978.464 303.851 1000.63C307.986 1004.76 353.719 1044.33 359.177 1041.98C359.177 1041.98 404.662 1021.3 436.708 991.779C468.754 962.255 548.352 870.955 548.352 870.955C568.2 865.787 599.873 839.075 599.873 839.075L629.314 835.188C630.234 834.993 631.049 834.465 631.602 833.704C632.155 832.944 632.407 832.006 632.309 831.071C632.212 830.137 631.771 829.271 631.073 828.641C630.375 828.012 629.469 827.663 628.529 827.662L601.197 829.812L638.411 810.419C638.84 810.197 639.221 809.892 639.532 809.522C639.844 809.152 640.079 808.725 640.225 808.264C640.371 807.803 640.424 807.318 640.383 806.837C640.341 806.355 640.205 805.887 639.983 805.458C639.588 804.743 638.97 804.177 638.223 803.849C637.476 803.52 636.641 803.446 635.848 803.638L595.987 813.976L629.852 795.41C630.844 794.861 631.578 793.941 631.893 792.852C632.207 791.762 632.075 790.592 631.527 789.6C630.978 788.607 630.058 787.873 628.969 787.559C627.879 787.245 626.709 787.377 625.717 787.925L586.848 807.36L606.117 790.82L612.568 782.757C612.945 782.17 613.116 781.476 613.055 780.781C612.994 780.087 612.704 779.433 612.231 778.922C611.757 778.41 611.127 778.071 610.44 777.957C609.752 777.842 609.046 777.96 608.433 778.291L600.742 783.997C586.724 794.624 553.148 820.178 550.006 824.354C545.871 829.647 525.899 852.555 525.899 852.555C525.899 852.555 491.703 879.887 446.094 911.809C424.715 927.38 402.199 941.326 378.736 953.531C364.842 936.04 323.079 882.368 306.622 849.495C294.196 825.462 273.549 806.693 248.443 796.609" stroke="#263238" stroke-linecap="round" stroke-linejoin="round"/>
<path d="M635.682 803.555L595.821 813.893L629.686 795.327C630.679 794.779 631.413 793.858 631.727 792.769C632.041 791.679 631.909 790.51 631.361 789.517C630.813 788.525 629.893 787.791 628.803 787.477C627.714 787.163 626.544 787.294 625.551 787.843L586.683 807.277L605.952 790.737L612.402 782.674C612.779 782.088 612.951 781.393 612.89 780.699C612.829 780.004 612.538 779.35 612.065 778.839C611.592 778.328 610.962 777.988 610.274 777.874C609.587 777.76 608.881 777.877 608.267 778.208L600.576 783.914C586.559 794.541 552.983 820.095 549.84 824.272C545.705 829.564 525.733 852.472 525.733 852.472C525.733 852.472 491.537 879.804 445.929 911.726C428.355 924.131 414.131 933.145 403.214 939.72L431.043 996.7C432.986 995.004 434.93 993.309 436.832 991.531C468.754 961.925 548.476 870.707 548.476 870.707C568.324 865.539 599.997 838.827 599.997 838.827L629.438 834.94C630.358 834.745 631.173 834.216 631.726 833.456C632.279 832.696 632.531 831.758 632.433 830.823C632.335 829.888 631.895 829.023 631.197 828.393C630.499 827.764 629.593 827.415 628.653 827.414L601.321 829.564L638.535 810.171C638.964 809.949 639.345 809.644 639.656 809.274C639.967 808.904 640.203 808.477 640.349 808.016C640.495 807.555 640.548 807.07 640.507 806.589C640.465 806.107 640.329 805.638 640.107 805.209C639.674 804.464 638.997 803.892 638.19 803.59C637.384 803.289 636.497 803.276 635.682 803.555Z" fill="white" stroke="#263238" stroke-linecap="round" stroke-linejoin="round"/>
<path d="M170.788 647.088C170.788 647.088 142.877 651.471 127.785 635.138C112.692 618.805 136.344 598.254 160.533 556.119C184.723 513.984 200.394 474.205 247.368 464.281C294.341 454.358 350.742 492.854 363.395 503.15C376.048 513.446 376.255 522.791 370.176 525.314C370.176 525.314 221.028 584.609 172.194 653.498" fill="#756CBF"/>
<path d="M170.788 647.088C170.788 647.088 142.877 651.471 127.785 635.138C112.692 618.805 136.344 598.254 160.533 556.119C184.723 513.984 200.394 474.205 247.368 464.281C294.341 454.358 350.742 492.854 363.395 503.15C376.048 513.446 376.255 522.791 370.176 525.314C370.176 525.314 221.028 584.609 172.194 653.498" stroke="#263238" stroke-linecap="round" stroke-linejoin="round"/>
<path d="M243.812 584.237L169.382 616.82" stroke="#263238" stroke-linecap="round" stroke-linejoin="round"/>
<path d="M170.747 661.354C170.747 661.354 234.591 605.284 295.375 580.102C356.159 554.92 379.315 552.563 379.315 544.21C379.315 535.858 370.3 525.314 370.3 525.314C370.3 525.314 271.516 562.528 232.441 591.845C193.365 621.162 147.756 643.45 170.747 661.354Z" fill="#756CBF" stroke="#263238" stroke-linecap="round" stroke-linejoin="round"/>
<path d="M40.2471 1803.84H1967.14" stroke="#263238" stroke-linecap="round" stroke-linejoin="round"/>
</svg>
