<svg width="592" height="517" viewBox="0 0 592 517" fill="none" xmlns="http://www.w3.org/2000/svg">
<path d="M526.568 167.652C519.009 163.528 515.575 166.962 512.77 163.528C509.964 160.094 520.328 151.156 499.707 142.218C499.707 142.218 498.343 122.977 470.164 122.287C441.986 121.597 449.651 141.543 441.986 146.342C434.32 151.14 432.358 143.597 424.799 148.411C417.241 153.225 420.675 162.838 414.497 164.218C408.318 165.598 400.07 158.085 392.512 162.838C384.954 167.591 384.954 171.776 381.504 171.776C378.055 171.776 371.202 169.032 367.077 171.776C362.953 174.52 358.139 177.909 358.139 177.909H532.071C532.071 177.909 534.141 171.776 526.568 167.652Z" fill="#59518C"/>
<path opacity="0.5" d="M526.568 167.652C519.009 163.528 515.575 166.962 512.77 163.528C509.964 160.094 520.328 151.156 499.707 142.218C499.707 142.218 498.343 122.977 470.164 122.287C441.986 121.597 449.651 141.543 441.986 146.342C434.32 151.14 432.358 143.597 424.799 148.411C417.241 153.225 420.675 162.838 414.497 164.218C408.318 165.598 400.07 158.085 392.512 162.838C384.954 167.591 384.954 171.776 381.504 171.776C378.055 171.776 371.202 169.032 367.077 171.776C362.953 174.52 358.139 177.909 358.139 177.909H532.071C532.071 177.909 534.141 171.776 526.568 167.652Z" fill="#59518C"/>
<path d="M263.332 79.7432C258.855 77.3055 256.816 79.3446 255.191 77.3055C253.566 75.2665 259.667 69.9772 247.525 64.6727C247.525 64.6727 246.713 53.2663 230.017 52.8676C213.321 52.469 217.752 64.274 213.321 67.1256C208.891 69.9772 207.618 65.5005 203.126 68.3368C198.634 71.1731 200.688 76.8916 196.994 77.7195C193.299 78.5474 188.439 74.04 183.962 76.8916C179.486 79.7432 179.486 82.1962 177.446 82.1962C175.407 82.1962 171.314 80.5557 168.892 82.1962C166.469 83.8366 163.602 85.8603 163.602 85.8603H266.597C266.597 85.8603 267.824 82.2422 263.332 79.7432Z" fill="#59518C"/>
<path opacity="0.5" d="M263.332 79.7432C258.855 77.3055 256.816 79.3446 255.191 77.3055C253.566 75.2665 259.667 69.9772 247.525 64.6727C247.525 64.6727 246.713 53.2663 230.017 52.8676C213.321 52.469 217.752 64.274 213.321 67.1256C208.891 69.9772 207.618 65.5005 203.126 68.3368C198.634 71.1731 200.688 76.8916 196.994 77.7195C193.299 78.5474 188.439 74.04 183.962 76.8916C179.486 79.7432 179.486 82.1962 177.446 82.1962C175.407 82.1962 171.314 80.5557 168.892 82.1962C166.469 83.8366 163.602 85.8603 163.602 85.8603H266.597C266.597 85.8603 267.824 82.2422 263.332 79.7432Z" fill="#59518C"/>
<path d="M326.143 419.374C313.265 412.337 307.409 418.194 302.717 412.337C298.026 406.481 315.596 391.272 280.472 376.049C280.472 376.049 278.126 343.255 230.124 342.09C182.122 340.925 194.985 374.868 182.107 383.07C169.229 391.272 165.718 378.379 152.84 386.581C139.962 394.783 145.803 411.111 135.27 413.518C124.738 415.925 110.741 402.97 97.801 411.172C84.8615 419.374 84.9228 426.396 79.0663 426.396C73.2098 426.396 61.4968 421.705 54.5365 426.396C47.5761 431.088 39.3126 436.929 39.3126 436.929H335.511C335.511 436.929 339.022 426.396 326.143 419.374Z" fill="#59518C"/>
<path opacity="0.5" d="M326.143 419.374C313.265 412.337 307.409 418.194 302.717 412.337C298.026 406.481 315.596 391.272 280.472 376.049C280.472 376.049 278.126 343.255 230.124 342.09C182.122 340.925 194.985 374.868 182.107 383.07C169.229 391.272 165.718 378.379 152.84 386.581C139.962 394.783 145.803 411.111 135.27 413.518C124.738 415.925 110.741 402.97 97.801 411.172C84.8615 419.374 84.9228 426.396 79.0663 426.396C73.2098 426.396 61.4968 421.705 54.5365 426.396C47.5761 431.088 39.3126 436.929 39.3126 436.929H335.511C335.511 436.929 339.022 426.396 326.143 419.374Z" fill="#59518C"/>
<g opacity="0.5">
<path d="M526.568 167.652C519.009 163.528 515.575 166.962 512.77 163.528C509.964 160.094 520.328 151.156 499.707 142.218C499.707 142.218 498.343 122.977 470.164 122.287C441.986 121.597 449.651 141.543 441.986 146.342C434.32 151.14 432.358 143.597 424.799 148.411C417.241 153.225 420.675 162.838 414.497 164.218C408.318 165.598 400.07 158.085 392.512 162.838C384.954 167.591 384.954 171.776 381.504 171.776C378.055 171.776 371.202 169.032 367.077 171.776C362.953 174.52 358.139 177.909 358.139 177.909H532.071C532.071 177.909 534.141 171.776 526.568 167.652Z" fill="white"/>
<path opacity="0.5" d="M526.568 167.652C519.009 163.528 515.575 166.962 512.77 163.528C509.964 160.094 520.328 151.156 499.707 142.218C499.707 142.218 498.343 122.977 470.164 122.287C441.986 121.597 449.651 141.543 441.986 146.342C434.32 151.14 432.358 143.597 424.799 148.411C417.241 153.225 420.675 162.838 414.497 164.218C408.318 165.598 400.07 158.085 392.512 162.838C384.954 167.591 384.954 171.776 381.504 171.776C378.055 171.776 371.202 169.032 367.077 171.776C362.953 174.52 358.139 177.909 358.139 177.909H532.071C532.071 177.909 534.141 171.776 526.568 167.652Z" fill="white"/>
</g>
<g opacity="0.5">
<path d="M263.332 79.7432C258.855 77.3055 256.816 79.3446 255.191 77.3055C253.566 75.2665 259.667 69.9772 247.525 64.6727C247.525 64.6727 246.713 53.2663 230.017 52.8676C213.321 52.469 217.752 64.274 213.321 67.1256C208.891 69.9772 207.618 65.5005 203.126 68.3368C198.634 71.1731 200.688 76.8916 196.994 77.7195C193.299 78.5474 188.439 74.04 183.962 76.8916C179.486 79.7432 179.486 82.1962 177.446 82.1962C175.407 82.1962 171.314 80.5557 168.892 82.1962C166.469 83.8366 163.602 85.8603 163.602 85.8603H266.597C266.597 85.8603 267.824 82.2422 263.332 79.7432Z" fill="white"/>
<path opacity="0.5" d="M263.332 79.7432C258.855 77.3055 256.816 79.3446 255.191 77.3055C253.566 75.2665 259.667 69.9772 247.525 64.6727C247.525 64.6727 246.713 53.2663 230.017 52.8676C213.321 52.469 217.752 64.274 213.321 67.1256C208.891 69.9772 207.618 65.5005 203.126 68.3368C198.634 71.1731 200.688 76.8916 196.994 77.7195C193.299 78.5474 188.439 74.04 183.962 76.8916C179.486 79.7432 179.486 82.1962 177.446 82.1962C175.407 82.1962 171.314 80.5557 168.892 82.1962C166.469 83.8366 163.602 85.8603 163.602 85.8603H266.597C266.597 85.8603 267.824 82.2422 263.332 79.7432Z" fill="white"/>
</g>
<g opacity="0.5">
<path d="M326.143 419.374C313.265 412.337 307.409 418.194 302.717 412.337C298.026 406.481 315.596 391.272 280.472 376.049C280.472 376.049 278.126 343.255 230.124 342.09C182.122 340.925 194.985 374.868 182.107 383.07C169.229 391.272 165.718 378.379 152.84 386.581C139.962 394.783 145.803 411.111 135.27 413.518C124.738 415.925 110.741 402.97 97.801 411.172C84.8615 419.374 84.9228 426.396 79.0663 426.396C73.2098 426.396 61.4968 421.705 54.5365 426.396C47.5761 431.088 39.3126 436.929 39.3126 436.929H335.511C335.511 436.929 339.022 426.396 326.143 419.374Z" fill="white"/>
<path opacity="0.5" d="M326.143 419.374C313.265 412.337 307.409 418.194 302.717 412.337C298.026 406.481 315.596 391.272 280.472 376.049C280.472 376.049 278.126 343.255 230.124 342.09C182.122 340.925 194.985 374.868 182.107 383.07C169.229 391.272 165.718 378.379 152.84 386.581C139.962 394.783 145.803 411.111 135.27 413.518C124.738 415.925 110.741 402.97 97.801 411.172C84.8615 419.374 84.9228 426.396 79.0663 426.396C73.2098 426.396 61.4968 421.705 54.5365 426.396C47.5761 431.088 39.3126 436.929 39.3126 436.929H335.511C335.511 436.929 339.022 426.396 326.143 419.374Z" fill="white"/>
</g>
<path d="M109.713 369.441C109.713 369.441 102.14 362.802 94.3055 360.533C86.4712 358.264 77.4412 358.218 69.6376 356.087C61.8341 353.956 57.1734 352.163 57.1734 352.163L56.7748 359.215L109.391 373.427L145.389 363.462L148.976 356.149C145.054 357.975 140.94 359.358 136.711 360.273C128.877 362.128 120.108 362.128 115.248 363.998C110.388 365.869 109.713 369.441 109.713 369.441Z" fill="white" stroke="#263238" stroke-linecap="round" stroke-linejoin="round"/>
<path d="M56.0389 353.757C66.3241 356.903 76.8668 359.134 87.5445 360.426C95.5754 361.516 103.201 364.617 109.713 369.441C115.011 366.055 121.109 364.13 127.39 363.86C134.945 363.288 142.398 361.768 149.574 359.338L147.321 363.937L108.655 371.511L55.2417 357.559L56.0389 353.757Z" fill="white" stroke="#263238" stroke-linecap="round" stroke-linejoin="round"/>
<path d="M54.5825 355.352C62.7546 358.484 71.3176 360.48 80.0322 361.285C94.2595 362.358 109.315 369.441 109.315 369.441C115.138 366.504 121.531 364.872 128.049 364.658C135.365 364.594 142.643 363.61 149.712 361.729C149.492 362.464 149.437 363.237 149.551 363.996C149.665 364.754 149.945 365.477 150.372 366.114L109.177 374.883L54.3065 358.939L54.5825 355.352Z" fill="white" stroke="#263238" stroke-linecap="round" stroke-linejoin="round"/>
<path d="M53.9079 358.28L107.46 371.695V373.534L111.967 373.657V371.541L151.567 365.286C151.567 365.286 153.3 364.888 151.828 366.819C150.356 368.751 124.861 391.012 124.861 391.012L96.5592 393.925L53.632 384.496L53.9079 358.28Z" fill="#59518C"/>
<mask id="mask0_11_1365" style="mask-type:luminance" maskUnits="userSpaceOnUse" x="53" y="358" width="100" height="36">
<path d="M53.9079 358.28L107.46 371.695V373.534L111.967 373.657V371.541L151.567 365.286C151.567 365.286 153.3 364.888 151.828 366.819C150.356 368.751 124.861 391.012 124.861 391.012L96.5592 393.925L53.632 384.496L53.9079 358.28Z" fill="white"/>
</mask>
<g mask="url(#mask0_11_1365)">
<path opacity="0.3" d="M107.46 373.565V371.695L53.908 358.28L53.6473 384.588L96.5593 394.017L97.3258 393.94L108.656 373.596L107.46 373.565Z" fill="black"/>
</g>
<path d="M53.9079 358.28L107.46 371.695V373.534L111.967 373.657V371.541L151.567 365.286C151.567 365.286 153.3 364.888 151.828 366.819C150.356 368.751 124.861 391.012 124.861 391.012L96.5592 393.925L53.632 384.496L53.9079 358.28Z" stroke="#263238" stroke-linecap="round" stroke-linejoin="round"/>
<path d="M107.46 373.565L95.624 394.017L97.893 394.155L111.967 373.688L107.46 373.565Z" fill="#59518C" stroke="#263238" stroke-linecap="round" stroke-linejoin="round"/>
<path d="M105.559 498.253C105.559 498.253 102.983 503.65 99.5488 506.118C96.1146 508.586 91.7299 509.752 88.265 512.128C86.383 513.401 84.5808 514.789 82.8685 516.283L81.4886 511.591L104.7 495.601L123.941 497.931L126.915 502.408C124.765 501.68 122.527 501.247 120.261 501.12C116.137 500.829 111.86 501.902 109.146 501.243C108.364 501.041 107.637 500.668 107.016 500.151C106.396 499.634 105.898 498.986 105.559 498.253Z" fill="white" stroke="#263238" stroke-linecap="round" stroke-linejoin="round"/>
<path d="M82.0252 515.348C86.4349 512.031 91.2144 509.238 96.2679 507.023C100.175 505.098 103.412 502.043 105.559 498.253C108.498 499.785 111.854 500.323 115.125 499.786C118.976 499.257 122.887 499.371 126.7 500.124L124.815 497.257L104.7 496.95L80.998 512.849L82.0252 515.348Z" fill="white" stroke="#263238" stroke-linecap="round" stroke-linejoin="round"/>
<path d="M81.0441 514.458C84.3994 511.432 88.2671 509.029 92.4658 507.36C99.2116 504.907 105.375 498.299 105.375 498.299C108.534 499.534 111.975 499.858 115.309 499.235C118.929 498.387 122.668 498.164 126.363 498.575C125.899 497.624 125.754 496.549 125.949 495.509L104.393 494.651L80.3082 512.082L81.0441 514.458Z" fill="white" stroke="#263238" stroke-linecap="round" stroke-linejoin="round"/>
<path d="M80.1701 512.573L104.025 496.996L103.703 495.754L105.896 495.11L106.248 496.536L126.608 495.923C126.608 495.923 127.513 495.923 126.47 494.819C125.428 493.715 109.299 481.803 109.299 481.803L94.9954 483.336L75.6475 494.911L80.1701 512.573Z" fill="#59518C"/>
<mask id="mask1_11_1365" style="mask-type:luminance" maskUnits="userSpaceOnUse" x="75" y="481" width="52" height="32">
<path d="M80.1701 512.573L104.025 496.996L103.703 495.754L105.896 495.11L106.248 496.536L126.608 495.923C126.608 495.923 127.513 495.923 126.47 494.819C125.428 493.715 109.299 481.803 109.299 481.803L94.9954 483.336L75.6475 494.911L80.1701 512.573Z" fill="white"/>
</mask>
<g mask="url(#mask1_11_1365)">
<path opacity="0.3" d="M103.765 495.754L104.087 496.996L80.2314 512.573L75.6627 494.865L95.0107 483.29L95.3939 483.244L104.347 495.586L103.765 495.754Z" fill="black"/>
</g>
<path d="M80.1701 512.573L104.025 496.996L103.703 495.754L105.896 495.11L106.248 496.536L126.608 495.923C126.608 495.923 127.513 495.923 126.47 494.819C125.428 493.715 109.299 481.803 109.299 481.803L94.9954 483.336L75.6475 494.911L80.1701 512.573Z" stroke="#263238" stroke-linecap="round" stroke-linejoin="round"/>
<path d="M103.765 495.754L94.5662 483.397L95.6393 483.029L105.957 495.11L103.765 495.754Z" fill="#59518C" stroke="#263238" stroke-linecap="round" stroke-linejoin="round"/>
<path d="M462.253 333.229L505.549 377.076L413.102 403.123L406.985 359.169L462.253 333.229Z" fill="#59518C" stroke="#263238" stroke-linecap="round" stroke-linejoin="round"/>
<path d="M500.566 383.408L404.946 411.51L412.657 360.978L460.904 339.453L500.566 383.408Z" fill="white" stroke="#263238" stroke-linecap="round" stroke-linejoin="round"/>
<path d="M463.173 342.182L498.742 388.175L409.024 414.223L419.449 358.939L463.173 342.182Z" fill="white"/>
<mask id="mask2_11_1365" style="mask-type:luminance" maskUnits="userSpaceOnUse" x="409" y="342" width="90" height="73">
<path d="M463.173 342.182L498.742 388.175L409.024 414.223L419.449 358.939L463.173 342.182Z" fill="white"/>
</mask>
<g mask="url(#mask2_11_1365)">
<path opacity="0.17" d="M463.173 342.182L498.742 388.175L409.024 414.223L419.449 358.939L463.173 342.182Z" fill="black"/>
</g>
<path d="M463.173 342.182L498.742 388.175L409.024 414.223L419.449 358.939L463.173 342.182Z" stroke="#263238" stroke-linecap="round" stroke-linejoin="round"/>
<path d="M463.173 342.182L446.861 398.815L383.191 418.087L407.659 365.961L463.173 342.182Z" fill="white" stroke="#263238" stroke-linecap="round" stroke-linejoin="round"/>
<path d="M442.338 394.293L380.937 414.913L379.113 406.297L435.991 385.906L442.338 394.293Z" fill="white" stroke="#263238" stroke-linecap="round" stroke-linejoin="round"/>
<path d="M461.594 334.47L502.375 376.846L500.566 383.408L463.173 342.182L442.338 394.293L435.991 385.907L461.594 334.47Z" fill="white" stroke="#263238" stroke-linecap="round" stroke-linejoin="round"/>
<path d="M462.253 333.229L436.221 387.501L376.169 407.891L406.985 359.169L462.253 333.229Z" fill="#59518C"/>
<mask id="mask3_11_1365" style="mask-type:luminance" maskUnits="userSpaceOnUse" x="376" y="333" width="87" height="75">
<path d="M462.253 333.229L436.221 387.501L376.169 407.891L406.985 359.169L462.253 333.229Z" fill="white"/>
</mask>
<g mask="url(#mask3_11_1365)">
<path opacity="0.3" d="M462.253 333.229L436.221 387.501L376.169 407.891L406.985 359.169L462.253 333.229Z" fill="black"/>
</g>
<path d="M462.253 333.229L436.221 387.501L376.169 407.891L406.985 359.169L462.253 333.229Z" stroke="#263238" stroke-linecap="round" stroke-linejoin="round"/>
<path d="M404.501 364.167L452.809 342.121" stroke="#263238" stroke-linecap="round" stroke-linejoin="round"/>
<path d="M261.109 490.787L305.446 436.239L213.981 431.946L206.698 477.771L261.109 490.787Z" fill="#59518C" stroke="#263238" stroke-linecap="round" stroke-linejoin="round"/>
<path d="M300.648 431.026L206.07 425.43L212.386 474.597L259.928 484.839L300.648 431.026Z" fill="white" stroke="#263238" stroke-linecap="round" stroke-linejoin="round"/>
<path d="M262.258 481.542L298.961 426.641L210.209 421.705L219.117 475.027L262.258 481.542Z" fill="white"/>
<mask id="mask4_11_1365" style="mask-type:luminance" maskUnits="userSpaceOnUse" x="210" y="421" width="89" height="61">
<path d="M262.258 481.542L298.961 426.641L210.209 421.705L219.117 475.027L262.258 481.542Z" fill="white"/>
</mask>
<g mask="url(#mask4_11_1365)">
<path opacity="0.17" d="M262.258 481.542L298.961 426.641L210.209 421.705L219.117 475.027L262.258 481.542Z" fill="black"/>
</g>
<path d="M262.258 481.542L298.961 426.641L210.209 421.705L219.117 475.027L262.258 481.542Z" stroke="#263238" stroke-linecap="round" stroke-linejoin="round"/>
<path d="M262.258 481.542L247.525 428.251L184.56 423.974L207.557 470.749L262.258 481.542Z" fill="white" stroke="#263238" stroke-linecap="round" stroke-linejoin="round"/>
<path d="M242.88 433.908L182.214 427.715L180.175 436.837L236.333 443.874L242.88 433.908Z" fill="white" stroke="#263238" stroke-linecap="round" stroke-linejoin="round"/>
<path d="M260.465 489.698L302.273 437.22L300.648 431.026L262.258 481.542L242.88 433.908L236.333 443.874L260.465 489.698Z" fill="white" stroke="#263238" stroke-linecap="round" stroke-linejoin="round"/>
<path d="M261.109 490.787L236.594 442.218L177.278 435.932L206.698 477.771L261.109 490.787Z" fill="#59518C"/>
<mask id="mask5_11_1365" style="mask-type:luminance" maskUnits="userSpaceOnUse" x="177" y="435" width="85" height="56">
<path d="M261.109 490.787L236.594 442.218L177.278 435.932L206.698 477.771L261.109 490.787Z" fill="white"/>
</mask>
<g mask="url(#mask5_11_1365)">
<path opacity="0.3" d="M261.109 490.787L236.594 442.218L177.278 435.932L206.698 477.771L261.109 490.787Z" fill="black"/>
</g>
<path d="M261.109 490.787L236.594 442.218L177.278 435.932L206.698 477.771L261.109 490.787Z" stroke="#263238" stroke-linecap="round" stroke-linejoin="round"/>
<path d="M202.176 471.73L250.484 481.895" stroke="#263238" stroke-linecap="round" stroke-linejoin="round"/>
<path d="M297.06 123.989C297.06 123.989 276.976 133.694 268.943 145.453C260.909 157.212 263.255 178.92 275.627 185.942C287.999 192.964 331.187 218.751 361.65 215.071C392.113 211.392 387.422 180.254 372.03 167.867C356.637 155.479 335.879 144.441 335.879 144.441C335.879 144.441 334.882 137.756 333.533 135.411C332.184 133.065 316.807 117.964 297.06 123.989Z" fill="#263238" stroke="#263238" stroke-linecap="round" stroke-linejoin="round"/>
<path d="M378.591 175.195C332.996 161.244 302.963 186.218 293.549 195.785C312.407 205.581 340.187 217.616 361.65 215.025C387.131 211.944 388.005 189.637 378.591 175.195Z" fill="white" stroke="#263238" stroke-linecap="round" stroke-linejoin="round"/>
<path d="M347.592 171.516C347.592 171.516 374.375 192.979 364.993 214.351" stroke="#263238" stroke-linecap="round" stroke-linejoin="round"/>
<path d="M259.683 114.637L248.951 164.693H257.583L278.862 125.246C278.862 125.246 274.707 112.598 259.683 114.637Z" fill="white" stroke="#263238" stroke-linecap="round" stroke-linejoin="round"/>
<path d="M394.566 90.3524C385.782 79.6206 374.176 69.6707 352.912 67.9689C352.912 67.9689 334.79 67.4017 310.138 77.8882C290.866 86.075 270.277 103.951 259.683 114.683C269.158 117.09 274.799 120.969 278.877 125.292C283.078 121.291 286.742 117.811 289.441 115.618C298.517 108.244 311.839 102.019 311.839 102.019C311.839 102.019 297.382 121.843 294.546 126.948C291.71 132.053 293.703 140.271 308.712 142.54C323.721 144.809 327.416 141.972 333.364 138.569C339.313 135.165 346.687 132.053 349.523 132.053C355.191 132.455 360.817 130.824 365.391 127.454C372.75 122.349 375.878 107.907 378.423 106.772C380.17 105.99 395.64 126.166 407.69 141.313L408.732 140.777C413.976 138.078 418.069 132.574 420.875 127.73C411.124 113.487 400.254 97.3127 394.566 90.3524Z" fill="#59518C" stroke="#263238" stroke-linecap="round" stroke-linejoin="round"/>
<path d="M343.774 77.4895C343.774 77.4895 337.764 91.9468 349.799 97.42" stroke="#263238" stroke-linecap="round" stroke-linejoin="round"/>
<path d="M311.839 101.973L324.902 98.1099" stroke="#263238" stroke-linecap="round" stroke-linejoin="round"/>
<path d="M311.671 127.193C311.671 127.193 319.904 134.46 339.175 126.243" stroke="#263238" stroke-linecap="round" stroke-linejoin="round"/>
<path d="M386.87 101.268C382.117 101.897 378.423 106.787 378.423 106.787C383.907 105.619 389.483 104.937 395.088 104.748" stroke="#263238" stroke-linecap="round" stroke-linejoin="round"/>
<path d="M312.269 103.169C312.269 103.169 321.115 103.169 329.654 102.847" stroke="#263238" stroke-linecap="round" stroke-linejoin="round"/>
<path d="M317.006 123.391C317.006 123.391 317.957 129.094 330.283 128.45" stroke="#263238" stroke-linecap="round" stroke-linejoin="round"/>
<path d="M349.799 72.7829C349.799 72.7829 347.822 82.9781 349.232 88.3593C350.642 93.7406 355.748 99.9804 359.443 93.4646C363.137 86.9489 365.1 79.6666 365.1 76.1864C365.1 72.7062 352.344 66.2671 349.799 72.7829Z" fill="white" stroke="#263238" stroke-linecap="round" stroke-linejoin="round"/>
<path d="M378.423 60.0273C378.423 60.0273 386.349 58.3255 393.156 49.5408C399.963 40.756 391.178 39.6369 388.342 31.1434C385.506 22.6499 395.486 25.4709 381.044 10.7376C366.602 -3.99564 343.069 1.10964 331.984 5.92363C320.9 10.7376 321.253 26.8967 313.296 28.0312C305.339 29.1657 301.951 21.5154 292.323 21.5154C282.695 21.5154 272.484 31.7106 276.455 40.2041C280.426 48.6976 288.076 45.0334 288.643 43.6076C289.211 42.1818 284.673 43.8989 284.381 39.6369C284.09 35.3748 294.576 37.6591 297.704 43.3317C300.234 47.931 295.588 54.4621 295.742 59.2914C296.064 68.9807 307.93 75.1745 315.549 76.5083C325.837 78.302 338.347 77.6735 347.668 72.5682C359.121 66.2824 353.801 53.2509 362.233 49.8474C370.665 46.4439 374.988 51.5492 374.988 51.5492L378.423 60.0273Z" fill="#263238" stroke="#263238" stroke-linecap="round" stroke-linejoin="round"/>
<path d="M291.817 26.774C290.357 26.1397 288.75 25.92 287.173 26.1391C285.597 26.3581 284.111 27.0075 282.879 28.0158" stroke="white" stroke-linecap="round" stroke-linejoin="round"/>
<path d="M367.43 34.7156C367.43 34.7156 367.43 17.8513 355.595 14.4171C343.759 10.9829 330.237 26.2528 323.399 35.8808C316.561 45.5087 306.535 43.209 299.161 33.0598C298.467 32.0814 297.698 31.1587 296.861 30.3002" stroke="white" stroke-linecap="round" stroke-linejoin="round"/>
<path d="M300.356 66.3437C306.489 70.2838 311.088 71.4183 320.088 68.5974C329.087 65.7765 327.983 51.1199 335.863 43.2396C343.744 35.3594 357.848 38.165 357.848 38.165C357.848 38.165 342.073 29.7022 329.67 38.717C317.267 47.7317 318.386 62.9555 307.117 65.7765" stroke="white" stroke-linecap="round" stroke-linejoin="round"/>
<path d="M375.326 36.4633C375.326 36.4633 386.058 33.6424 385.475 24.0604" stroke="white" stroke-linecap="round" stroke-linejoin="round"/>
<path d="M287.018 145.1C287.018 145.1 316.148 148.779 330.865 158.898" stroke="white" stroke-linecap="round" stroke-linejoin="round"/>
<path d="M369.178 40.1121C367.364 39.5918 365.438 39.6042 363.63 40.1478C361.823 40.6915 360.209 41.7435 358.983 43.1784C354.169 48.2683 354.383 50.8439 350.367 54.0175C349.169 55.0648 347.659 55.688 346.071 55.7906C344.482 55.8931 342.905 55.4693 341.582 54.5847C339.88 53.7415 337.902 54.3088 337.335 58.2642C336.768 62.2197 342.149 65.3472 343.008 65.3472C343.861 65.3936 344.711 65.4908 345.553 65.6385C345.553 65.6385 345.553 72.7215 350.367 76.9682C355.181 81.215 364.824 88.022 371.34 86.6116C377.856 85.2011 380.4 70.1765 380.4 62.5263C380.162 54.7694 378.634 47.1063 375.878 39.8515C373.885 35.3748 369.178 40.1121 369.178 40.1121Z" fill="white" stroke="#263238" stroke-linecap="round" stroke-linejoin="round"/>
<path d="M363.797 57.3291C363.797 58.8622 363.245 60.1807 362.54 60.1807C361.834 60.1807 361.267 58.9082 361.267 57.3291C361.267 55.75 361.834 54.4928 362.54 54.4928C363.245 54.4928 363.797 55.7653 363.797 57.3291Z" fill="#263238"/>
<path d="M373.9 56.3785C373.9 57.9116 373.333 59.2301 372.643 59.2301C371.953 59.2301 371.37 57.9576 371.37 56.3785C371.37 54.7994 371.938 53.5422 372.643 53.5422C373.348 53.5422 373.9 54.8147 373.9 56.3785Z" fill="#263238"/>
<path d="M357.787 51.5799C357.787 51.5799 359.673 48.7436 364.425 50.0468" stroke="#263238" stroke-linecap="round" stroke-linejoin="round"/>
<path d="M369.791 50.0467C369.791 50.0467 372.949 46.5666 375.801 50.0467" stroke="#263238" stroke-linecap="round" stroke-linejoin="round"/>
<path d="M369.485 56.3785C369.485 56.3785 369.791 62.7103 371.692 62.7103C373.593 62.7103 372.949 65.5466 370.42 66.4971" stroke="#263238" stroke-linecap="round" stroke-linejoin="round"/>
<path d="M367.89 72.8288C367.89 72.8288 362.202 75.3585 359.995 69.6553" stroke="#263238" stroke-linecap="round" stroke-linejoin="round"/>
<path d="M369.224 212.772C369.224 212.772 337.029 184.532 303.668 174.919C270.307 165.306 231.918 169.829 198.573 160.799C165.228 151.769 146.033 139.335 146.033 139.335L144.331 169.277L368.166 229.743L521.294 187.368L536.548 156.292C536.548 156.292 517.906 165.889 484.56 173.8C451.215 181.711 413.853 181.695 392.926 189.56C371.999 197.425 369.224 212.772 369.224 212.772Z" fill="white" stroke="#263238" stroke-linecap="round" stroke-linejoin="round"/>
<path d="M140.943 146.096C140.943 146.096 178.29 168.71 262.427 176.621C317.849 181.818 369.224 212.772 369.224 212.772C391.736 198.379 417.652 190.191 444.347 189.039C488.424 187.353 538.71 169.829 538.71 169.829L529.128 189.56L364.701 221.756L137.555 162.424L140.943 146.096Z" fill="white" stroke="#263238" stroke-linecap="round" stroke-linejoin="round"/>
<path d="M134.734 152.888C166.52 167.245 200.542 176.02 235.306 178.829C295.757 183.351 367.522 212.726 367.522 212.726C367.522 212.726 405.375 192.397 447.244 192.397C478.342 192.131 509.284 187.954 539.339 179.963C538.404 183.086 538.173 186.377 538.66 189.6C539.148 192.824 540.343 195.899 542.16 198.606L366.955 235.937L133.599 168.097L134.734 152.888Z" fill="white" stroke="#263238" stroke-linecap="round" stroke-linejoin="round"/>
<path d="M135.868 166.303L359.611 222.384V230.295L378.821 230.862V221.756L547.203 195.202C547.203 195.202 554.547 193.5 548.338 201.979C542.129 210.457 433.63 304.82 433.63 304.82L313.281 317.254L130.763 277.193L131.852 169.4C131.855 168.911 131.97 168.429 132.187 167.992C132.404 167.554 132.718 167.171 133.105 166.872C133.492 166.574 133.942 166.368 134.421 166.269C134.9 166.17 135.395 166.182 135.868 166.303Z" fill="#59518C"/>
<mask id="mask6_11_1365" style="mask-type:luminance" maskUnits="userSpaceOnUse" x="130" y="166" width="421" height="152">
<path d="M135.868 166.303L359.611 222.384V230.295L378.821 230.862V221.756L547.203 195.202C547.203 195.202 554.547 193.5 548.338 201.979C542.129 210.457 433.63 304.82 433.63 304.82L313.281 317.254L130.763 277.193L131.852 169.4C131.855 168.911 131.97 168.429 132.187 167.992C132.404 167.554 132.718 167.171 133.105 166.872C133.492 166.574 133.942 166.368 134.421 166.269C134.9 166.17 135.395 166.182 135.868 166.303Z" fill="white"/>
</mask>
<g mask="url(#mask6_11_1365)">
<path opacity="0.3" d="M359.611 230.295V222.384L131.898 165.322L130.778 277.193L313.281 317.315L316.546 316.978L364.717 230.449L359.611 230.295Z" fill="black"/>
</g>
<path d="M135.868 166.303L359.611 222.384V230.295L378.821 230.862V221.756L547.203 195.202C547.203 195.202 554.547 193.5 548.338 201.979C542.129 210.457 433.63 304.82 433.63 304.82L313.281 317.254L130.763 277.193L131.852 169.4C131.855 168.911 131.97 168.429 132.187 167.992C132.404 167.554 132.718 167.171 133.105 166.872C133.492 166.574 133.942 166.368 134.421 166.269C134.9 166.17 135.395 166.182 135.868 166.303Z" stroke="#263238" stroke-linecap="round" stroke-linejoin="round"/>
<path d="M359.611 230.295L309.325 317.315L318.938 317.867L378.821 230.862L359.611 230.295Z" fill="#59518C" stroke="#263238" stroke-linecap="round" stroke-linejoin="round"/>
<path d="M527.442 198.759C527.442 198.759 542.451 201.565 539.323 211.576L548.338 202.009C548.338 202.009 552.462 196.873 550.576 195.877C548.691 194.88 527.442 198.759 527.442 198.759Z" fill="#263238"/>
<path d="M156.611 171.991C156.611 171.991 135.378 177.863 132.082 193.73L131.898 169.4C131.898 169.4 132.541 165.736 135.899 166.334C139.257 166.932 156.611 171.991 156.611 171.991Z" fill="#263238"/>
<path d="M130.978 269.742L141.648 279.907L130.778 277.193L130.978 269.742Z" fill="#263238"/>
<path d="M425.949 305.541L440.422 298.427L432.802 305.035L425.949 305.541Z" fill="#263238"/>
<path d="M420.875 127.745L461.594 176.559L451.338 178.185L407.69 141.39C407.69 141.39 418.989 133.985 420.875 127.745Z" fill="white" stroke="#263238" stroke-linecap="round" stroke-linejoin="round"/>
<path d="M240.304 160.216C240.304 160.216 238.265 157.748 237.744 159.956C237.223 162.164 232.608 169.829 236.211 170.366C239.814 170.902 241.853 162.148 241.853 162.148L240.304 160.216Z" fill="white" stroke="#263238" stroke-linecap="round" stroke-linejoin="round"/>
<path d="M245.18 159.925C245.18 159.925 243.125 157.457 242.619 159.649C242.113 161.842 237.483 169.522 241.086 170.074C244.689 170.626 246.743 161.842 246.743 161.842L245.18 159.925Z" fill="white" stroke="#263238" stroke-linecap="round" stroke-linejoin="round"/>
<path d="M250.07 159.741C250.07 159.741 247.633 156.997 247.004 159.435C246.375 161.872 240.872 170.396 245.18 171.01C249.488 171.623 251.879 161.811 251.879 161.811L250.07 159.741Z" fill="white" stroke="#263238" stroke-linecap="round" stroke-linejoin="round"/>
<path d="M254.332 160.661L262.55 168.572H252.814L254.332 160.661Z" fill="white" stroke="#263238" stroke-linecap="round" stroke-linejoin="round"/>
<path d="M254.332 160.661C254.332 160.661 251.895 157.917 251.266 160.354C250.637 162.792 245.134 171.316 249.442 171.914C253.75 172.512 256.141 162.715 256.141 162.715L254.332 160.661Z" fill="white" stroke="#263238" stroke-linecap="round" stroke-linejoin="round"/>
<path d="M472.648 167.759C472.648 167.759 474.288 165 475.147 167.085C476.005 169.17 481.755 176.038 478.305 177.142C474.856 178.246 471.437 169.906 471.437 169.906L472.648 167.759Z" fill="white" stroke="#263238" stroke-linecap="round" stroke-linejoin="round"/>
<path d="M467.834 168.219C467.834 168.219 469.474 165.46 470.333 167.545C471.191 169.63 476.956 176.498 473.491 177.602C470.026 178.706 466.623 170.366 466.623 170.366L467.834 168.219Z" fill="white" stroke="#263238" stroke-linecap="round" stroke-linejoin="round"/>
<path d="M462.989 168.817C462.989 168.817 464.967 165.751 465.948 168.035C466.93 170.32 473.614 177.909 469.566 179.181C465.519 180.454 461.518 171.209 461.518 171.209L462.989 168.817Z" fill="white" stroke="#263238" stroke-linecap="round" stroke-linejoin="round"/>
<path d="M458.927 170.396L452.043 179.503L461.671 177.97L458.927 170.396Z" fill="white" stroke="#263238" stroke-linecap="round" stroke-linejoin="round"/>
<path d="M458.927 170.396C458.927 170.396 460.889 167.33 461.886 169.615C462.882 171.899 469.551 179.472 465.504 180.745C461.456 182.017 457.455 172.788 457.455 172.788L458.927 170.396Z" fill="white" stroke="#263238" stroke-linecap="round" stroke-linejoin="round"/>
<path d="M179.623 252.28L189.435 250.747L179.623 249.214C178.759 249.083 177.96 248.679 177.342 248.061C176.724 247.443 176.32 246.644 176.189 245.78L174.656 235.952L173.123 245.78C172.993 246.642 172.591 247.439 171.976 248.057C171.361 248.675 170.565 249.08 169.704 249.214L159.877 250.747L169.704 252.28C170.563 252.421 171.355 252.828 171.969 253.445C172.582 254.061 172.986 254.855 173.123 255.714L174.656 265.542L176.189 255.714C176.327 254.853 176.733 254.057 177.35 253.441C177.967 252.824 178.762 252.418 179.623 252.28Z" fill="white"/>
<path d="M106.325 318.848L116.153 317.315L106.325 315.782C105.465 315.642 104.67 315.235 104.054 314.619C103.438 314.002 103.031 313.208 102.891 312.348L101.358 302.52L99.8248 312.348C99.6916 313.211 99.2869 314.009 98.6694 314.626C98.0519 315.244 97.2537 315.649 96.3906 315.782L86.5634 317.315L96.3906 318.848C97.2537 318.981 98.0519 319.386 98.6694 320.003C99.2869 320.621 99.6916 321.419 99.8248 322.282L101.358 332.109L102.891 322.282C103.031 321.422 103.438 320.627 104.054 320.011C104.67 319.395 105.465 318.988 106.325 318.848Z" fill="#59518C"/>
<path opacity="0.5" d="M106.325 318.848L116.153 317.315L106.325 315.782C105.465 315.642 104.67 315.235 104.054 314.619C103.438 314.002 103.031 313.208 102.891 312.348L101.358 302.52L99.8248 312.348C99.6916 313.211 99.2869 314.009 98.6694 314.626C98.0519 315.244 97.2537 315.649 96.3906 315.782L86.5634 317.315L96.3906 318.848C97.2537 318.981 98.0519 319.386 98.6694 320.003C99.2869 320.621 99.6916 321.419 99.8248 322.282L101.358 332.109L102.891 322.282C103.031 321.422 103.438 320.627 104.054 320.011C104.67 319.395 105.465 318.988 106.325 318.848Z" fill="white"/>
<path d="M351.011 359.828L360.838 358.295L351.011 356.762C350.15 356.63 349.353 356.227 348.736 355.613C348.119 354.998 347.713 354.203 347.577 353.343L346.043 343.516L344.51 353.343C344.374 354.203 343.968 354.998 343.351 355.613C342.734 356.227 341.937 356.63 341.076 356.762L331.249 358.295L341.076 359.828C341.937 359.96 342.734 360.363 343.351 360.977C343.968 361.592 344.374 362.387 344.51 363.247L346.043 373.074L347.577 363.247C347.713 362.387 348.119 361.592 348.736 360.977C349.353 360.363 350.15 359.96 351.011 359.828Z" fill="#59518C"/>
<path opacity="0.5" d="M351.011 359.828L360.838 358.295L351.011 356.762C350.15 356.63 349.353 356.227 348.736 355.613C348.119 354.998 347.713 354.203 347.577 353.343L346.043 343.516L344.51 353.343C344.374 354.203 343.968 354.998 343.351 355.613C342.734 356.227 341.937 356.63 341.076 356.762L331.249 358.295L341.076 359.828C341.937 359.96 342.734 360.363 343.351 360.977C343.968 361.592 344.374 362.387 344.51 363.247L346.043 373.074L347.577 363.247C347.713 362.387 348.119 361.592 348.736 360.977C349.353 360.363 350.15 359.96 351.011 359.828Z" fill="white"/>
<path d="M93.7536 266.569L100.254 265.542L93.7536 264.514C93.1833 264.427 92.6558 264.159 92.2478 263.751C91.8398 263.343 91.5724 262.816 91.4846 262.245L90.4728 255.76L89.4456 262.245C89.3578 262.816 89.0904 263.343 88.6824 263.751C88.2744 264.159 87.7469 264.427 87.1766 264.514L80.6761 265.542L87.1766 266.569C87.7469 266.657 88.2744 266.924 88.6824 267.332C89.0904 267.74 89.3578 268.267 89.4456 268.838L90.4728 275.323L91.4846 268.838C91.5724 268.267 91.8398 267.74 92.2478 267.332C92.6558 266.924 93.1833 266.657 93.7536 266.569Z" fill="#59518C"/>
<path opacity="0.5" d="M93.7536 266.569L100.254 265.542L93.7536 264.514C93.1833 264.427 92.6558 264.159 92.2478 263.751C91.8398 263.343 91.5724 262.816 91.4846 262.245L90.4728 255.76L89.4456 262.245C89.3578 262.816 89.0904 263.343 88.6824 263.751C88.2744 264.159 87.7469 264.427 87.1766 264.514L80.6761 265.542L87.1766 266.569C87.7469 266.657 88.2744 266.924 88.6824 267.332C89.0904 267.74 89.3578 268.267 89.4456 268.838L90.4728 275.323L91.4846 268.838C91.5724 268.267 91.8398 267.74 92.2478 267.332C92.6558 266.924 93.1833 266.657 93.7536 266.569Z" fill="white"/>
<path d="M515.453 280.919L521.953 279.907L515.453 278.88C514.883 278.79 514.357 278.522 513.949 278.114C513.542 277.706 513.274 277.18 513.184 276.611L512.156 270.11L511.145 276.611C511.055 277.18 510.786 277.706 510.379 278.114C509.971 278.522 509.445 278.79 508.876 278.88L502.375 279.907L508.876 280.919C509.445 281.009 509.971 281.277 510.379 281.684C510.786 282.092 511.055 282.618 511.145 283.188L512.156 289.688L513.184 283.188C513.274 282.618 513.542 282.092 513.949 281.684C514.357 281.277 514.883 281.009 515.453 280.919Z" fill="#59518C"/>
<path opacity="0.5" d="M515.453 280.919L521.953 279.907L515.453 278.88C514.883 278.79 514.357 278.522 513.949 278.114C513.542 277.706 513.274 277.18 513.184 276.611L512.156 270.11L511.145 276.611C511.055 277.18 510.786 277.706 510.379 278.114C509.971 278.522 509.445 278.79 508.876 278.88L502.375 279.907L508.876 280.919C509.445 281.009 509.971 281.277 510.379 281.684C510.786 282.092 511.055 282.618 511.145 283.188L512.156 289.688L513.184 283.188C513.274 282.618 513.542 282.092 513.949 281.684C514.357 281.277 514.883 281.009 515.453 280.919Z" fill="white"/>
<path d="M218.381 226.892L224.743 225.895L218.381 224.899C217.822 224.811 217.306 224.549 216.907 224.149C216.507 223.75 216.245 223.234 216.158 222.676L215.146 216.298L214.149 222.676C214.06 223.233 213.797 223.748 213.397 224.147C212.998 224.546 212.484 224.809 211.926 224.899L205.548 225.895L211.926 226.892C212.484 226.981 212.998 227.244 213.397 227.643C213.797 228.043 214.06 228.557 214.149 229.115L215.084 235.554L216.096 229.176C216.175 228.598 216.441 228.061 216.853 227.649C217.266 227.236 217.802 226.97 218.381 226.892Z" fill="white"/>
<path d="M429.169 289.841L435.547 288.83L429.169 287.833C428.612 287.744 428.097 287.48 427.698 287.081C427.299 286.682 427.035 286.167 426.946 285.61L425.949 279.232L424.953 285.61C424.863 286.167 424.6 286.682 424.201 287.081C423.802 287.48 423.287 287.744 422.73 287.833L416.352 288.83L422.73 289.841C423.288 289.929 423.804 290.191 424.204 290.591C424.603 290.99 424.865 291.506 424.953 292.064L425.949 298.427L426.946 292.064C427.033 291.506 427.296 290.99 427.695 290.591C428.095 290.191 428.611 289.929 429.169 289.841Z" fill="white"/>
</svg>
