<svg width="595" height="528" viewBox="0 0 595 528" fill="none" xmlns="http://www.w3.org/2000/svg">
<path d="M413.275 477.735H338.995V478.118H413.275V477.735Z" fill="#EBEBEB"/>
<path d="M13.1466 457.942L385.709 457.942L385.709 13.2312L13.1466 13.2312L13.1466 457.942Z" fill="#F0F0F0"/>
<path d="M13.1314 457.942H48.9297L48.9297 13.2312H13.1314L13.1314 457.942Z" fill="#E0E0E0"/>
<path d="M54.9087 99.0704L379.761 99.0704V25.8335L54.9087 25.8335V99.0704Z" fill="#EBEBEB"/>
<path d="M343.303 99.0704H379.746V25.8335H343.303V99.0704Z" fill="#E6E6E6"/>
<path d="M54.9087 184.925L379.761 184.925V111.688L54.9087 111.688V184.925Z" fill="#EBEBEB"/>
<path d="M343.303 184.925H379.746V111.688H343.303V184.925Z" fill="#E6E6E6"/>
<path d="M54.9087 270.795L379.761 270.795V197.558L54.9087 197.558V270.795Z" fill="#EBEBEB"/>
<path d="M343.303 270.795H379.746V197.558H343.303V270.795Z" fill="#E6E6E6"/>
<path d="M54.9087 356.649L379.761 356.649V283.412L54.9087 283.412V356.649Z" fill="#EBEBEB"/>
<path d="M343.303 356.649H379.746V283.412H343.303V356.649Z" fill="#E6E6E6"/>
<path d="M54.9087 442.504L379.761 442.504V369.267L54.9087 369.267V442.504Z" fill="#EBEBEB"/>
<path d="M343.303 442.504H379.746V369.267H343.303V442.504Z" fill="#E6E6E6"/>
<path d="M347.857 43.6482H328.447V99.0857H347.857V43.6482Z" fill="#FAFAFA"/>
<path d="M293.063 99.0704H328.447V43.6329L293.063 43.6329V99.0704Z" fill="#E6E6E6"/>
<path d="M327.175 43.6482H313.637V99.0857H327.175V43.6482Z" fill="#FAFAFA"/>
<path d="M278.253 99.0704H313.637V43.6329L278.253 43.6329V99.0704Z" fill="#E6E6E6"/>
<path d="M312.288 43.6482H298.751V99.0857H312.288V43.6482Z" fill="#FAFAFA"/>
<path d="M263.367 99.0704H298.751V43.6329L263.367 43.6329V99.0704Z" fill="#E6E6E6"/>
<path d="M289.614 50.7159H279.71V99.0858H289.614V50.7159Z" fill="#FAFAFA"/>
<path d="M253.831 99.0704H279.71V50.7006H253.831V99.0704Z" fill="#E6E6E6"/>
<path d="M150.836 129.503H137.298V184.94H150.836V129.503Z" fill="#FAFAFA"/>
<path d="M101.914 184.94H137.298V129.503H101.914V184.94Z" fill="#E6E6E6"/>
<path d="M136.026 129.503H122.489V184.94H136.026V129.503Z" fill="#FAFAFA"/>
<path d="M87.1042 184.94H122.489V129.503H87.1042V184.94Z" fill="#E6E6E6"/>
<path d="M121.139 129.503H107.602V184.94H121.139V129.503Z" fill="#FAFAFA"/>
<path d="M72.2177 184.94H107.602V129.503H72.2177V184.94Z" fill="#E6E6E6"/>
<path d="M98.4645 136.57H88.5605V184.94H98.4645V136.57Z" fill="#FAFAFA"/>
<path d="M62.6815 184.94H88.5605V136.57H62.6815L62.6815 184.94Z" fill="#E6E6E6"/>
<path d="M194.913 215.357H181.375V270.795H194.913V215.357Z" fill="#FAFAFA"/>
<path d="M145.991 270.795H181.375V215.357H145.991V270.795Z" fill="#E6E6E6"/>
<path d="M180.103 215.357H166.566V270.795H180.103V215.357Z" fill="#FAFAFA"/>
<path d="M131.181 270.795H166.566V215.357H131.181V270.795Z" fill="#E6E6E6"/>
<path d="M165.216 215.357H151.679V270.795H165.216V215.357Z" fill="#FAFAFA"/>
<path d="M116.295 270.795H151.679V215.357H116.295V270.795Z" fill="#E6E6E6"/>
<path d="M142.542 222.425H132.638V270.795H142.542V222.425Z" fill="#FAFAFA"/>
<path d="M106.759 270.795H132.638V222.425H106.759V270.795Z" fill="#E6E6E6"/>
<path d="M287.268 387.082H273.73V442.519H287.268V387.082Z" fill="#FAFAFA"/>
<path d="M238.346 442.504H273.73V387.066H238.346V442.504Z" fill="#E6E6E6"/>
<path d="M272.443 387.082H258.905V442.519H272.443V387.082Z" fill="#FAFAFA"/>
<path d="M223.521 442.504H258.905V387.066H223.521V442.504Z" fill="#E6E6E6"/>
<path d="M257.556 387.082H244.019V442.519H257.556V387.082Z" fill="#FAFAFA"/>
<path d="M208.634 442.504H244.019V387.066H208.634V442.504Z" fill="#E6E6E6"/>
<path d="M234.897 394.149H224.993V442.519H234.897V394.149Z" fill="#FAFAFA"/>
<path d="M199.114 442.504H224.993V394.134H199.114V442.504Z" fill="#E6E6E6"/>
<path d="M258.016 35.4614H251.255V99.0704H258.016V35.4614Z" fill="#F5F5F5"/>
<path d="M221.144 99.0857H251.255V35.4767L221.144 35.4767V99.0857Z" fill="#E0E0E0"/>
<path d="M249.952 35.4614H243.191V99.0704H249.952V35.4614Z" fill="#F5F5F5"/>
<path d="M213.08 99.0857H243.191V35.4767L213.08 35.4767V99.0857Z" fill="#E0E0E0"/>
<path d="M241.888 35.4614H235.127V99.0704H241.888V35.4614Z" fill="#F5F5F5"/>
<path d="M205.001 99.0857H235.111V35.4767L205.001 35.4767V99.0857Z" fill="#E0E0E0"/>
<path d="M233.824 35.4614H227.062V99.0704H233.824V35.4614Z" fill="#F5F5F5"/>
<path d="M196.937 99.0857H227.047V35.4767L196.937 35.4767V99.0857Z" fill="#E0E0E0"/>
<path d="M225.744 35.4614H218.983V99.0704H225.744V35.4614Z" fill="#F5F5F5"/>
<path d="M188.888 99.0857H218.998V35.4767L188.888 35.4767V99.0857Z" fill="#E0E0E0"/>
<path d="M217.68 35.4614H210.919V99.0704H217.68V35.4614Z" fill="#F5F5F5"/>
<path d="M180.824 99.0857H210.934V35.4767L180.824 35.4767V99.0857Z" fill="#E0E0E0"/>
<path d="M209.616 35.4614H202.854V99.0704H209.616V35.4614Z" fill="#F5F5F5"/>
<path d="M172.744 99.0857H202.854V35.4767L172.744 35.4767V99.0857Z" fill="#E0E0E0"/>
<path d="M201.551 35.4614H194.79V99.0704H201.551V35.4614Z" fill="#F5F5F5"/>
<path d="M164.68 99.0857H194.79V35.4767L164.68 35.4767V99.0857Z" fill="#E0E0E0"/>
<path d="M193.487 35.4614H186.726V99.0704H193.487V35.4614Z" fill="#F5F5F5"/>
<path d="M156.616 99.0857H186.726V35.4767L156.616 35.4767V99.0857Z" fill="#E0E0E0"/>
<path d="M185.423 35.4614H178.662V99.0704H185.423V35.4614Z" fill="#F5F5F5"/>
<path d="M148.551 99.0857H178.662V35.4767L148.551 35.4767V99.0857Z" fill="#E0E0E0"/>
<path d="M177.359 35.4614H170.598V99.0704H177.359V35.4614Z" fill="#F5F5F5"/>
<path d="M140.472 99.0857H170.582V35.4767L140.472 35.4767V99.0857Z" fill="#E0E0E0"/>
<path d="M169.294 35.4614H162.533V99.0704H169.294V35.4614Z" fill="#F5F5F5"/>
<path d="M132.408 99.0857H162.518V35.4767L132.408 35.4767V99.0857Z" fill="#E0E0E0"/>
<path d="M161.215 35.4614H154.454V99.0704H161.215V35.4614Z" fill="#F5F5F5"/>
<path d="M124.359 99.0857H154.469V35.4767L124.359 35.4767V99.0857Z" fill="#E0E0E0"/>
<path d="M153.151 35.4614H146.39V99.0704H153.151V35.4614Z" fill="#F5F5F5"/>
<path d="M116.295 99.0857H146.405V35.4767L116.295 35.4767V99.0857Z" fill="#E0E0E0"/>
<path d="M358.144 293.04H351.383V356.649H358.144V293.04Z" fill="#F5F5F5"/>
<path d="M321.257 356.649H351.367V293.04H321.257V356.649Z" fill="#E0E0E0"/>
<path d="M350.08 293.04H343.319V356.649H350.08V293.04Z" fill="#F5F5F5"/>
<path d="M313.193 356.649H343.303V293.04H313.193V356.649Z" fill="#E0E0E0"/>
<path d="M342 293.04H335.239V356.649H342V293.04Z" fill="#F5F5F5"/>
<path d="M305.144 356.649H335.254V293.04H305.144V356.649Z" fill="#E0E0E0"/>
<path d="M333.936 293.04H327.175V356.649H333.936V293.04Z" fill="#F5F5F5"/>
<path d="M297.08 356.649H327.19V293.04H297.08V356.649Z" fill="#E0E0E0"/>
<path d="M325.872 293.04H319.111V356.649H325.872V293.04Z" fill="#F5F5F5"/>
<path d="M289 356.649H319.111V293.04H289V356.649Z" fill="#E0E0E0"/>
<path d="M317.808 293.04H311.047V356.649H317.808V293.04Z" fill="#F5F5F5"/>
<path d="M280.936 356.649H311.047V293.04H280.936V356.649Z" fill="#E0E0E0"/>
<path d="M309.743 293.04H302.982V356.649H309.743V293.04Z" fill="#F5F5F5"/>
<path d="M272.872 356.649H302.982V293.04H272.872V356.649Z" fill="#E0E0E0"/>
<path d="M301.679 293.04H294.918V356.649H301.679V293.04Z" fill="#F5F5F5"/>
<path d="M264.808 356.649H294.918V293.04H264.808V356.649Z" fill="#E0E0E0"/>
<path d="M293.615 293.04H286.854V356.649H293.615V293.04Z" fill="#F5F5F5"/>
<path d="M256.728 356.649H286.839V293.04H256.728V356.649Z" fill="#E0E0E0"/>
<path d="M285.551 293.04H278.79V356.649H285.551V293.04Z" fill="#F5F5F5"/>
<path d="M248.664 356.649H278.774V293.04H248.664V356.649Z" fill="#E0E0E0"/>
<path d="M277.471 293.04H270.71V356.649H277.471V293.04Z" fill="#F5F5F5"/>
<path d="M240.615 356.649H270.726V293.04H240.615V356.649Z" fill="#E0E0E0"/>
<path d="M269.407 293.04H262.646V356.649H269.407V293.04Z" fill="#F5F5F5"/>
<path d="M232.551 356.649H262.661V293.04H232.551V356.649Z" fill="#E0E0E0"/>
<path d="M261.343 293.04H254.582V356.649H261.343V293.04Z" fill="#F5F5F5"/>
<path d="M224.471 356.649H254.582V293.04H224.471V356.649Z" fill="#E0E0E0"/>
<path d="M253.279 293.04H246.518V356.649H253.279V293.04Z" fill="#F5F5F5"/>
<path d="M216.407 356.649H246.518V293.04H216.407V356.649Z" fill="#E0E0E0"/>
<path d="M190.298 389.182H185.346V442.504H190.298V389.182Z" fill="#F5F5F5"/>
<path d="M163.315 442.504H185.362V389.182H163.315V442.504Z" fill="#E0E0E0"/>
<path d="M184.396 389.182H179.444V442.504H184.396V389.182Z" fill="#F5F5F5"/>
<path d="M157.398 442.504H179.444V389.182H157.398V442.504Z" fill="#E0E0E0"/>
<path d="M178.493 389.182H173.541V442.504H178.493V389.182Z" fill="#F5F5F5"/>
<path d="M151.495 442.504H173.541V389.182H151.495V442.504Z" fill="#E0E0E0"/>
<path d="M172.591 389.182H167.639V442.504H172.591V389.182Z" fill="#F5F5F5"/>
<path d="M145.593 442.504H167.639V389.182H145.593V442.504Z" fill="#E0E0E0"/>
<path d="M166.673 389.182H161.721V442.504H166.673V389.182Z" fill="#F5F5F5"/>
<path d="M139.69 442.504H161.736V389.182H139.69V442.504Z" fill="#E0E0E0"/>
<path d="M160.77 389.182H155.818V442.504H160.77V389.182Z" fill="#F5F5F5"/>
<path d="M133.772 442.504H155.818V389.182H133.772V442.504Z" fill="#E0E0E0"/>
<path d="M154.868 389.182H149.916V442.504H154.868V389.182Z" fill="#F5F5F5"/>
<path d="M127.87 442.504H149.916V389.182H127.87V442.504Z" fill="#E0E0E0"/>
<path d="M148.965 389.182H144.013V442.504H148.965V389.182Z" fill="#F5F5F5"/>
<path d="M121.967 442.504H144.013V389.182H121.967V442.504Z" fill="#E0E0E0"/>
<path d="M143.048 389.182H138.096V442.504H143.048V389.182Z" fill="#F5F5F5"/>
<path d="M116.065 442.504H138.111V389.182H116.065V442.504Z" fill="#E0E0E0"/>
<path d="M137.145 389.182H132.193V442.504H137.145V389.182Z" fill="#F5F5F5"/>
<path d="M110.147 442.504H132.193V389.182H110.147V442.504Z" fill="#E0E0E0"/>
<path d="M131.243 389.182H126.291V442.504H131.243V389.182Z" fill="#F5F5F5"/>
<path d="M104.245 442.504H126.291V389.182H104.245V442.504Z" fill="#E0E0E0"/>
<path d="M125.34 389.182H120.388V442.504H125.34V389.182Z" fill="#F5F5F5"/>
<path d="M98.342 442.504H120.388V389.182H98.342V442.504Z" fill="#E0E0E0"/>
<path d="M119.422 389.182H114.47V442.504H119.422V389.182Z" fill="#F5F5F5"/>
<path d="M92.4394 442.504H114.486V389.182H92.4394V442.504Z" fill="#E0E0E0"/>
<path d="M113.52 389.182H108.568V442.504H113.52V389.182Z" fill="#F5F5F5"/>
<path d="M86.5217 442.504H108.568V389.182H86.5217V442.504Z" fill="#E0E0E0"/>
<path d="M131.335 85.2877H80.2512V99.0704H131.335V85.2877Z" fill="#F5F5F5"/>
<path d="M60.4894 99.0857H80.2512V85.303H60.4894V99.0857Z" fill="#E0E0E0"/>
<path d="M129.342 64.9739H78.2581V74.7245H129.342V64.9739Z" fill="#F5F5F5"/>
<path d="M58.4962 74.7399H78.2581V64.9892H58.4962V74.7399Z" fill="#E0E0E0"/>
<path d="M136.026 74.7245H84.9426V85.2877H136.026V74.7245Z" fill="#F0F0F0"/>
<path d="M65.1808 85.303H84.9426V74.7398H65.1808V85.303Z" fill="#E0E0E0"/>
<path d="M269.208 257.012H221.206V270.795H269.208V257.012Z" fill="#F5F5F5"/>
<path d="M202.64 270.795H221.206V257.012H202.64V270.795Z" fill="#E0E0E0"/>
<path d="M267.337 236.698H219.335V246.449H267.337V236.698Z" fill="#F5F5F5"/>
<path d="M200.769 246.449H219.335V236.698H200.769V246.449Z" fill="#E0E0E0"/>
<path d="M273.608 246.449H225.606V257.012H273.608V246.449Z" fill="#F0F0F0"/>
<path d="M207.055 257.012H225.621V246.449H207.055V257.012Z" fill="#E0E0E0"/>
<path d="M131.626 348.938H83.624V356.649H131.626V348.938Z" fill="#F5F5F5"/>
<path d="M65.0734 356.665H83.6394V348.953H65.0734V356.665Z" fill="#E0E0E0"/>
<path d="M129.756 337.593H81.7537V343.051H129.756V337.593Z" fill="#F5F5F5"/>
<path d="M63.1876 343.035H81.7537V337.577H63.1876V343.035Z" fill="#E0E0E0"/>
<path d="M136.026 343.035H88.0242V348.938H136.026V343.035Z" fill="#F0F0F0"/>
<path d="M69.4581 348.953H88.0242V343.051H69.4581V348.953Z" fill="#E0E0E0"/>
<path d="M342.767 175.19H287.329V184.94H342.767V175.19Z" fill="#F5F5F5"/>
<path d="M265.881 184.925H287.329V175.174H265.881V184.925Z" fill="#E0E0E0"/>
<path d="M340.605 160.824H285.167V167.723H340.605V160.824Z" fill="#F5F5F5"/>
<path d="M263.719 167.708H285.167V160.809H263.719V167.708Z" fill="#E0E0E0"/>
<path d="M347.857 167.723H292.419V175.19H347.857V167.723Z" fill="#F0F0F0"/>
<path d="M270.971 175.19H292.419V167.723H270.971V175.19Z" fill="#E0E0E0"/>
<path d="M364.154 222.931H360.766V270.795H364.154V222.931Z" fill="#FAFAFA"/>
<path d="M339.195 270.795H360.766V222.931H339.195V270.795Z" fill="#E0E0E0"/>
<path d="M359.984 227.576H351.735V270.795H359.984V227.576Z" fill="#F5F5F5"/>
<path d="M330.164 270.795H351.735V227.576H330.164V270.795Z" fill="#E0E0E0"/>
<path d="M350.908 224.939H342.659V270.795H350.908V224.939Z" fill="#F0F0F0"/>
<path d="M321.088 270.795H342.659V224.939H321.088V270.795Z" fill="#E0E0E0"/>
<path d="M333.645 227.959H341.908L335.561 270.795H327.313L333.645 227.959Z" fill="#FAFAFA"/>
<path d="M333.645 227.959H312.074L305.742 270.795H327.313L333.645 227.959Z" fill="#E6E6E6"/>
<path d="M246.518 127.295H243.129V184.68H246.518V127.295Z" fill="#FAFAFA"/>
<path d="M221.574 184.68H243.129V127.295H221.574V184.68Z" fill="#E0E0E0"/>
<path d="M242.363 132.86H234.115V184.68H242.363V132.86Z" fill="#F5F5F5"/>
<path d="M212.544 184.68H234.099V132.86H212.544V184.68Z" fill="#E0E0E0"/>
<path d="M233.287 129.687H225.039V184.68H233.287V129.687Z" fill="#F0F0F0"/>
<path d="M203.498 184.695H225.054V129.702H203.498V184.695Z" fill="#E0E0E0"/>
<path d="M216.039 133.32H224.287L217.956 184.68H209.708L216.039 133.32Z" fill="#FAFAFA"/>
<path d="M216.039 133.32H194.484L188.152 184.68H209.707L216.039 133.32Z" fill="#E6E6E6"/>
<path d="M241.075 300.246H237.687V357.631H241.075V300.246Z" fill="#FAFAFA"/>
<path d="M216.131 357.615H237.687V300.231H216.131V357.615Z" fill="#E0E0E0"/>
<path d="M236.905 305.811H228.657V357.63H236.905V305.811Z" fill="#F5F5F5"/>
<path d="M207.116 357.63H228.672V305.811H207.116V357.63Z" fill="#E0E0E0"/>
<path d="M227.844 302.638H219.596V357.63H227.844V302.638Z" fill="#F0F0F0"/>
<path d="M198.041 357.63H219.596V302.638H198.041V357.63Z" fill="#E0E0E0"/>
<path d="M210.582 306.271H218.83L212.498 357.631H204.25L210.582 306.271Z" fill="#FAFAFA"/>
<path d="M210.582 306.271H189.041L182.709 357.631H204.25L210.582 306.271Z" fill="#E6E6E6"/>
<path d="M483.338 323.519H432.699V343.143H483.338V323.519Z" fill="#E0E0E0"/>
<path d="M443.86 343.143H432.699V457.927H443.86V343.143Z" fill="#E0E0E0"/>
<path d="M453.58 343.143H443.86V457.927H453.58V343.143Z" fill="#E6E6E6"/>
<path d="M503.238 343.143H492.077V457.927H503.238V343.143Z" fill="#E0E0E0"/>
<path d="M512.943 343.143H503.223V457.927H512.943V343.143Z" fill="#E6E6E6"/>
<path d="M483.354 343.158H552.451V323.534H483.354V343.158Z" fill="#F0F0F0"/>
<path d="M483.338 343.143H472.192L502.563 457.942H513.709L483.338 343.143Z" fill="#E0E0E0"/>
<path d="M483.338 343.143H493.073L523.444 457.942H513.709L483.338 343.143Z" fill="#F0F0F0"/>
<path d="M542.716 343.143H531.555L561.926 457.942H573.087L542.716 343.143Z" fill="#E0E0E0"/>
<path d="M542.716 343.143H552.436L582.807 457.942H573.087L542.716 343.143Z" fill="#F0F0F0"/>
<path d="M493.365 367.58H555.548L554.26 362.398H492.077L493.365 367.58Z" fill="#F0F0F0"/>
<path d="M499.298 391.328H561.481L560.193 386.146H498.01L499.298 391.328Z" fill="#F0F0F0"/>
<path d="M505.216 415.076H567.399L566.111 409.91H503.928L505.216 415.076Z" fill="#F0F0F0"/>
<path d="M511.149 438.824H573.332L572.044 433.658H509.846L511.149 438.824Z" fill="#F0F0F0"/>
<path d="M510.704 51.9424C502.379 51.9424 495.603 47.4963 495.603 42.0385C495.603 36.5806 505.676 32.1345 510.704 32.1345C515.733 32.1345 525.821 36.4119 525.821 42.0385C525.821 47.665 519.044 51.9424 510.704 51.9424ZM510.704 33.361C506.105 33.361 496.906 37.3778 496.906 42.0385C496.906 46.6991 503.131 50.7159 510.704 50.7159C518.278 50.7159 524.594 46.8218 524.594 42.0385C524.594 37.2551 515.273 33.361 510.704 33.361Z" fill="#E6E6E6"/>
<path d="M575.785 40.8273H445.639V236.683H575.785V40.8273Z" fill="#F0F0F0"/>
<path d="M443.937 236.698H445.639V40.8426H443.937V236.698Z" fill="#E6E6E6"/>
<path d="M561.726 55.0547H459.698V222.456H561.726V55.0547Z" fill="#FAFAFA"/>
<path d="M561.726 55.0547H560.101V222.456H561.726V55.0547Z" fill="#E6E6E6"/>
<path d="M297.279 527.178C461.449 527.178 594.535 519.408 594.535 509.823C594.535 500.238 461.449 492.468 297.279 492.468C133.109 492.468 0.0231934 500.238 0.0231934 509.823C0.0231934 519.408 133.109 527.178 297.279 527.178Z" fill="#F5F5F5"/>
<path d="M308.149 2.28476C306.818 1.58263 305.361 1.15017 303.862 1.01217C302.363 0.874167 300.852 1.03334 299.415 1.48056C297.978 1.92779 296.643 2.65427 295.488 3.61836C294.332 4.58244 293.378 5.76518 292.68 7.09875C290.001 5.75648 286.902 5.51913 284.05 6.43772C281.198 7.35631 278.82 9.35748 277.428 12.0109C276.036 14.6643 275.741 17.758 276.607 20.6267C277.472 23.4954 279.428 25.91 282.055 27.3512L302.308 37.9757L312.932 17.7232C313.633 16.3957 314.065 14.943 314.204 13.4483C314.342 11.9537 314.185 10.4463 313.741 9.0125C313.297 7.57866 312.574 6.24644 311.615 5.09204C310.655 3.93764 309.477 2.98371 308.149 2.28476Z" fill="#59518C"/>
<path d="M288.249 47.619C287.405 46.0231 285.962 44.8278 284.237 44.2959C282.512 43.764 280.646 43.9391 279.05 44.7827C278.174 43.2506 276.737 42.1188 275.042 41.626C273.347 41.1331 271.527 41.3179 269.966 42.1413C268.405 42.9646 267.225 44.3622 266.674 46.0392C266.124 47.7161 266.246 49.5414 267.015 51.1298L273.362 63.1495L285.397 56.8024C286.992 55.9612 288.188 54.522 288.722 52.8003C289.257 51.0787 289.087 49.2153 288.249 47.619Z" fill="#59518C"/>
<path d="M214.583 68.5767C205.001 80.2744 206.703 90.9296 209.416 100.772C197.565 93.6278 187.37 109.68 190.636 116.103C175.534 126.437 188.596 145.478 204.725 140.863C212.39 158.54 250.059 160.042 249.875 149.832C280.844 156.777 267.506 122.634 258.123 119.507C271.047 117.054 269.146 101.263 260.3 95.9582C270.634 83.6933 265.513 68.8834 252.359 66.9823C240.37 53.2456 222.386 59.0561 214.583 68.5767Z" fill="#263238"/>
<path d="M274.528 159.291C274.528 165.424 274.773 171.771 275.233 177.934C275.587 183.984 276.417 189.998 277.717 195.917C277.855 196.638 278.054 197.313 278.253 197.987L278.759 199.75C278.847 200.135 279.008 200.5 279.234 200.823C279.572 201.406 281.703 202.05 284.278 201.897C290.148 201.302 295.9 199.861 301.357 197.619L305.098 203.951C303.565 205.085 302.262 206.005 300.775 207.017C299.287 208.029 297.8 208.811 296.175 209.608C292.906 211.314 289.427 212.582 285.827 213.38C283.738 213.83 281.598 214 279.464 213.886C276.827 213.732 274.268 212.932 272.013 211.555C269.575 210.006 267.641 207.779 266.448 205.147L266.065 204.273L265.82 203.629L265.329 202.326C265.007 201.467 264.685 200.593 264.44 199.735C262.445 193.056 261.12 186.194 260.484 179.252C260.147 175.88 259.856 172.522 259.748 169.149C259.641 165.776 259.549 162.495 259.672 158.954L274.528 159.291Z" fill="#7F3E3B"/>
<path d="M267.644 142.565C280.185 153.557 278.376 172.568 278.376 172.568L254.352 176.661C254.352 176.661 248.373 157.038 251.776 150.215C255.364 143.04 260.576 136.387 267.644 142.565Z" fill="#59518C"/>
<path opacity="0.3" d="M267.644 142.565C280.185 153.557 278.376 172.568 278.376 172.568L254.352 176.661C254.352 176.661 248.373 157.038 251.776 150.215C255.364 143.04 260.576 136.387 267.644 142.565Z" fill="white"/>
<path opacity="0.4" d="M260.929 160.15L251.914 166.39C252.972 171.97 254.398 176.661 254.398 176.661L262.615 175.266C262.572 170.183 262.007 165.118 260.929 160.15Z" fill="#59518C"/>
<path d="M299.962 198.938L309.161 190.812L312.963 204.717C312.963 204.717 305.297 208.182 298.597 203.997L299.962 198.938Z" fill="#7F3E3B"/>
<path d="M321.334 190.26L322.223 201.115L313.024 204.718L309.222 190.812L321.334 190.26Z" fill="#7F3E3B"/>
<path d="M170.904 498.064L184.396 499.367L193.671 467.678L180.164 466.375L170.904 498.064Z" fill="#7F3E3B"/>
<path d="M84.9731 444.665L94.3252 454.692L117.429 432.431L108.062 422.405L84.9731 444.665Z" fill="#7F3E3B"/>
<path d="M96.5481 454.646L89.9404 440.649C89.827 440.409 89.6323 440.217 89.3908 440.108C89.1494 439.998 88.8769 439.978 88.6219 440.051L76.7862 443.684C76.4901 443.787 76.219 443.952 75.9909 444.167C75.7628 444.382 75.5827 444.643 75.4625 444.932C75.3423 445.222 75.2848 445.533 75.2936 445.847C75.3024 446.16 75.3775 446.468 75.5137 446.751C77.9054 451.595 79.3005 453.803 82.2135 459.966C83.9919 463.753 87.3954 472.4 89.879 477.628C92.3627 482.855 97.6519 480.694 97.1 478.302C94.5857 467.57 95.5669 461.714 96.7781 457.114C96.9999 456.291 96.9183 455.415 96.5481 454.646Z" fill="#263238"/>
<path d="M185.821 495.258H169.463C169.169 495.261 168.884 495.361 168.652 495.54C168.419 495.72 168.252 495.971 168.175 496.255L164.618 509.179C164.532 509.485 164.519 509.806 164.579 510.118C164.639 510.429 164.772 510.723 164.965 510.974C165.159 511.226 165.408 511.429 165.694 511.567C165.98 511.705 166.294 511.775 166.611 511.77C172.376 511.77 175.105 511.77 182.295 511.77H204.28C210.259 511.77 211.501 505.73 209.033 505.178C197.948 502.725 191.555 499.352 188.136 496.117C187.503 495.546 186.674 495.239 185.821 495.258Z" fill="#263238"/>
<path opacity="0.2" d="M193.671 467.678L188.888 484.021H174.998L180.149 466.39L193.671 467.678Z" fill="black"/>
<path opacity="0.2" d="M108.062 422.405L117.429 432.431L105.517 443.899L96.1494 433.872L108.062 422.405Z" fill="black"/>
<path d="M263.781 140.357C263.781 140.357 269.576 143.424 244.341 221.336L188.995 212.858C193.38 190.475 195.526 176.6 191.831 128.736C199.825 128.32 207.839 128.484 215.809 129.227C224.266 129.914 232.663 131.2 240.937 133.075C248.67 135.113 256.295 137.543 263.781 140.357Z" fill="#59518C"/>
<path opacity="0.3" d="M263.781 140.357C263.781 140.357 269.576 143.424 244.341 221.336L188.995 212.858C193.38 190.475 195.526 176.6 191.831 128.736C199.825 128.32 207.839 128.484 215.809 129.227C224.266 129.914 232.663 131.2 240.937 133.075C248.67 135.113 256.295 137.543 263.781 140.357Z" fill="white"/>
<path d="M222.632 101.324C222.984 109.649 222.294 124.704 215.809 129.227C215.809 129.227 228.733 145.708 234.713 162.173C242.256 152.745 240.937 133.044 240.937 133.044C232.244 129.518 233.501 122.864 236.046 116.824L222.632 101.324Z" fill="#7F3E3B"/>
<path opacity="0.2" d="M228.09 107.656L236.031 116.855C235.401 118.256 234.888 119.707 234.498 121.193C231.125 120.166 226.418 116.287 226.602 112.623C226.802 110.893 227.306 109.211 228.09 107.656Z" fill="black"/>
<path d="M216.208 87.9247C218.783 101.355 219.596 107.089 227.323 113.16C238.975 122.358 254.919 116.226 256.452 102.244C257.786 89.7031 253.386 69.8339 239.389 66.1697C236.312 65.3273 233.071 65.2882 229.975 66.0563C226.88 66.8243 224.033 68.3738 221.707 70.5566C219.381 72.7393 217.654 75.4823 216.691 78.5232C215.729 81.564 215.562 84.8011 216.208 87.9247Z" fill="#7F3E3B"/>
<path d="M213.31 74.8318C208.021 83.5246 247.346 73.0227 249.875 69.3892C245.429 63.4408 237.718 62.1376 229.945 63.8547C222.172 65.5718 215.579 71.1063 213.31 74.8318Z" fill="#263238"/>
<path d="M223.475 72.0263C227.614 77.2389 230.788 91.5735 218.37 98.5339C210.597 90.7916 210.781 86.5296 210.597 82.3595C210.413 78.1894 218.937 66.3844 223.475 72.0263Z" fill="#263238"/>
<path d="M214.384 99.055C215.465 101.464 217.454 103.349 219.918 104.298C223.199 105.525 225.146 102.658 224.517 99.4076C223.919 96.4794 221.451 92.3093 218.078 92.478C217.33 92.5246 216.605 92.758 215.969 93.1569C215.334 93.5557 214.809 94.1072 214.441 94.7612C214.074 95.4152 213.876 96.1507 213.866 96.9008C213.856 97.6508 214.034 98.3914 214.384 99.055Z" fill="#7F3E3B"/>
<path d="M244.341 221.336C244.341 221.336 257.694 305.857 241.274 363.763C230.267 402.536 194.698 480.004 194.698 480.004L170.996 477.827C170.996 477.827 199.451 395.958 206.35 363.487C218.17 307.927 203.759 215.097 203.759 215.097L244.341 221.336Z" fill="#263238"/>
<path opacity="0.2" d="M221.528 236.729L208.358 254.666C210.478 277.086 211.277 299.61 210.75 322.124C229.469 293.378 224.195 252.796 221.528 236.729Z" fill="black"/>
<path d="M198.086 480.525L168.697 479.774L170.398 470.744L200.386 472.154L198.086 480.525Z" fill="#59518C"/>
<path d="M232.229 219.696C232.229 219.696 212.068 304.017 188.504 352.617C169.463 391.819 111.113 443.654 111.113 443.654L98.8477 429.196C98.8477 429.196 139.322 373.652 153.503 347.589C188.259 283.688 167.531 234.843 189.026 212.858L232.229 219.696Z" fill="#263238"/>
<path d="M112.339 445.57L96.3948 427.847L102.558 420.534L119.422 439.744L112.339 445.57Z" fill="#59518C"/>
<path d="M188.673 209.486L185.423 214.085C185.162 214.437 185.561 214.913 186.205 215.005L244.233 223.881C244.739 223.881 245.184 223.774 245.26 223.468L246.518 218.592C246.61 218.255 246.211 217.902 245.674 217.81L189.639 209.24C189.47 209.194 189.293 209.193 189.124 209.236C188.954 209.279 188.799 209.365 188.673 209.486Z" fill="#59518C"/>
<path d="M195.235 216.906L193.702 216.676C193.41 216.676 193.196 216.446 193.257 216.262L194.944 209.93C194.944 209.746 195.281 209.623 195.572 209.669L197.105 209.899C197.412 209.899 197.611 210.145 197.565 210.329L195.863 216.63C195.817 216.844 195.541 216.952 195.235 216.906Z" fill="#263238"/>
<path d="M239.941 223.743L238.407 223.513C238.101 223.513 237.902 223.284 237.948 223.1L239.634 216.768C239.634 216.584 239.971 216.476 240.278 216.522L241.811 216.737C242.118 216.737 242.317 216.982 242.271 217.166L240.584 223.498C240.554 223.682 240.232 223.789 239.941 223.743Z" fill="#263238"/>
<path d="M217.557 220.325L216.024 220.095C215.717 220.095 215.518 219.865 215.564 219.681L217.266 213.349C217.266 213.165 217.588 213.042 217.894 213.088L219.427 213.318C219.719 213.318 219.933 213.564 219.872 213.748L218.186 220.079C218.17 220.263 217.879 220.371 217.557 220.325Z" fill="#263238"/>
<path d="M238.591 88.9365C238.729 90.0403 239.435 90.8529 240.125 90.7609C240.814 90.6689 241.32 89.7031 241.167 88.5992C241.014 87.4954 240.324 86.6828 239.634 86.7748C238.944 86.8668 238.453 87.848 238.591 88.9365Z" fill="#263238"/>
<path d="M251.056 87.3268C251.194 88.4306 251.899 89.2432 252.589 89.1512C253.279 89.0592 253.784 88.0933 253.631 86.9895C253.478 85.8856 252.788 85.0731 252.098 85.1651C251.408 85.257 250.918 86.2229 251.056 87.3268Z" fill="#263238"/>
<path d="M251.792 85.257L254.336 84.1532C254.336 84.1532 253.248 86.4069 251.792 85.257Z" fill="#263238"/>
<path d="M246.686 89.7644C247.999 92.1504 249.628 94.3474 251.531 96.2955C251.022 96.7706 250.415 97.128 249.753 97.3426C249.09 97.5572 248.389 97.6237 247.698 97.5373L246.686 89.7644Z" fill="#630F0F"/>
<path d="M242.271 102.397C239.978 102.271 237.819 101.279 236.23 99.6224C236.199 99.5967 236.174 99.5645 236.157 99.5281C236.14 99.4917 236.131 99.452 236.131 99.4118C236.13 99.3716 236.139 99.3318 236.156 99.2952C236.172 99.2586 236.197 99.2261 236.228 99.2C236.258 99.1739 236.294 99.1549 236.333 99.1441C236.372 99.1334 236.412 99.1313 236.452 99.1379C236.492 99.1446 236.53 99.1598 236.563 99.1826C236.596 99.2054 236.624 99.2351 236.644 99.2698C237.633 100.264 238.843 101.009 240.175 101.446C241.508 101.883 242.924 101.999 244.31 101.784C244.345 101.778 244.382 101.778 244.417 101.787C244.452 101.795 244.485 101.81 244.513 101.832C244.542 101.853 244.566 101.881 244.584 101.912C244.602 101.944 244.613 101.978 244.616 102.014C244.623 102.049 244.622 102.086 244.614 102.121C244.606 102.156 244.59 102.189 244.569 102.218C244.547 102.247 244.52 102.271 244.488 102.288C244.457 102.306 244.422 102.317 244.386 102.321C243.685 102.409 242.977 102.435 242.271 102.397Z" fill="#263238"/>
<path d="M232.352 83.3254C232.252 83.3154 232.156 83.2783 232.076 83.218C232.017 83.1781 231.967 83.1269 231.928 83.0673C231.889 83.0078 231.862 82.9412 231.85 82.8713C231.837 82.8014 231.838 82.7297 231.853 82.6602C231.868 82.5908 231.897 82.5251 231.938 82.4668C232.499 81.6179 233.255 80.9159 234.143 80.4198C235.032 79.9236 236.026 79.6477 237.043 79.6152C237.115 79.6172 237.187 79.6335 237.253 79.6631C237.319 79.6926 237.379 79.735 237.429 79.7877C237.479 79.8403 237.518 79.9023 237.543 79.9701C237.569 80.0378 237.582 80.11 237.58 80.1825C237.572 80.3262 237.508 80.4611 237.402 80.5585C237.296 80.6558 237.156 80.708 237.012 80.7037C236.186 80.7517 235.382 80.9932 234.666 81.4086C233.949 81.824 233.34 82.4017 232.888 83.0954C232.829 83.1801 232.748 83.2465 232.653 83.2871C232.558 83.3278 232.454 83.341 232.352 83.3254Z" fill="#263238"/>
<path d="M255.686 79.6152C255.6 79.6372 255.51 79.6372 255.425 79.6152C254.734 79.1406 253.941 78.8351 253.11 78.7232C252.279 78.6114 251.434 78.6964 250.642 78.9713C250.509 79.0285 250.36 79.0317 250.225 78.9801C250.09 78.9285 249.981 78.8263 249.921 78.6953C249.864 78.5651 249.862 78.4179 249.913 78.2857C249.965 78.1535 250.067 78.0472 250.197 77.9901C251.151 77.6301 252.177 77.5062 253.189 77.629C254.201 77.7518 255.168 78.1177 256.007 78.6953C256.128 78.7739 256.213 78.8964 256.244 79.0367C256.276 79.177 256.251 79.324 256.176 79.4465C256.114 79.5127 256.037 79.5627 255.952 79.5921C255.866 79.6215 255.775 79.6294 255.686 79.6152Z" fill="#263238"/>
<path d="M198.439 150.093C196.139 153.419 193.702 156.823 191.417 160.242C189.133 163.661 186.818 167.034 184.534 170.483C182.249 173.933 180.149 177.351 178.202 180.801C177.221 182.518 176.285 184.235 175.473 185.906L174.89 187.148L174.737 187.455V187.608C174.782 187.474 174.813 187.335 174.829 187.194C174.852 187.011 174.852 186.825 174.829 186.642C174.883 185.861 174.702 185.081 174.308 184.404C173.986 183.913 173.848 183.836 173.832 183.836C174.14 184.136 174.498 184.38 174.89 184.557C175.607 184.916 176.344 185.234 177.098 185.508C178.868 186.117 180.669 186.629 182.495 187.041C186.297 188.022 190.313 188.727 194.361 189.402C202.456 190.69 210.781 191.778 219.013 192.729L218.891 200.088C210.337 200.665 201.758 200.737 193.196 200.302C188.812 200.095 184.443 199.665 180.103 199.014C177.796 198.637 175.513 198.125 173.265 197.481C172.006 197.147 170.772 196.727 169.57 196.224C168.01 195.609 166.553 194.762 165.247 193.71C164.231 192.886 163.373 191.883 162.717 190.751C161.808 189.16 161.387 187.336 161.506 185.508C161.536 185.054 161.598 184.603 161.69 184.158C161.782 183.775 161.89 183.377 162.012 182.993L162.135 182.641L162.227 182.426L162.38 182.012L163.009 180.341C163.898 178.179 164.818 176.11 165.814 174.117C167.807 170.146 169.892 166.313 172.131 162.618C174.369 158.923 176.653 155.29 178.999 151.718C181.345 148.146 183.798 144.665 186.435 141.185L198.439 150.093Z" fill="#7F3E3B"/>
<path d="M214.859 194.231L226.081 189.187L225.698 201.314C225.698 201.314 217.925 203.568 213.663 199.781L214.859 194.231Z" fill="#7F3E3B"/>
<path d="M232.643 190.49L230.312 201.115L225.698 201.314L226.081 189.187L232.643 190.49Z" fill="#7F3E3B"/>
<path opacity="0.4" d="M199.742 154.416L193.61 159.491C193.748 164.09 193.778 168.199 193.732 172.001C197.442 169.486 200.309 159.337 199.742 154.416Z" fill="#59518C"/>
<path d="M191.831 128.736C184.932 129.487 174.093 148.437 174.093 148.437L193.272 168.137C193.272 168.137 204.924 151.089 204.786 142.074C204.663 134.562 200.693 127.709 191.831 128.736Z" fill="#59518C"/>
<path opacity="0.3" d="M191.831 128.736C184.932 129.487 174.093 148.437 174.093 148.437L193.272 168.137C193.272 168.137 204.924 151.089 204.786 142.074C204.663 134.562 200.693 127.709 191.831 128.736Z" fill="white"/>
<path d="M98.7099 462.082C98.5292 462.079 98.3514 462.037 98.1886 461.959C96.6555 461.3 95.7203 458.218 95.337 456.425C95.3224 456.373 95.3249 456.318 95.3443 456.269C95.3637 456.219 95.3988 456.177 95.4443 456.149C95.4873 456.12 95.5381 456.104 95.59 456.104C95.6419 456.104 95.6926 456.12 95.7356 456.149C96.2262 456.44 100.427 459.046 100.458 460.748C100.462 460.936 100.416 461.122 100.324 461.286C100.232 461.451 100.099 461.588 99.9363 461.683C99.5841 461.95 99.1519 462.091 98.7099 462.082ZM96.0116 456.961C96.6095 459.429 97.5447 461.085 98.3879 461.453C98.5929 461.534 98.8155 461.56 99.0334 461.527C99.2514 461.495 99.457 461.406 99.6297 461.269C99.7161 461.223 99.7886 461.155 99.8398 461.071C99.891 460.988 99.919 460.892 99.921 460.794C99.8903 459.736 97.4527 457.896 96.0116 456.961Z" fill="#59518C"/>
<path d="M99.6602 457.881C98.1757 457.775 96.7343 457.335 95.4441 456.593C95.4044 456.567 95.3731 456.53 95.3541 456.486C95.335 456.443 95.329 456.395 95.3368 456.348C95.3373 456.301 95.3522 456.255 95.3796 456.216C95.4071 456.178 95.4456 456.149 95.4901 456.133C95.6434 456.057 99.2156 454.385 101.025 455.167C101.25 455.257 101.452 455.396 101.616 455.573C101.781 455.751 101.903 455.963 101.975 456.195C102.082 456.418 102.108 456.671 102.049 456.911C101.99 457.151 101.851 457.364 101.653 457.513C101.05 457.858 100.347 457.988 99.6602 457.881ZM96.1954 456.348C97.6365 457.084 100.473 457.651 101.331 457.022C101.469 456.915 101.607 456.746 101.469 456.302C101.419 456.144 101.334 456 101.219 455.881C101.105 455.761 100.965 455.669 100.81 455.612C99.5836 455.137 97.2072 455.995 96.1954 456.409V456.348Z" fill="#59518C"/>
<path d="M193.027 497.895C191.524 497.859 190.029 497.669 188.566 497.328C188.511 497.316 188.461 497.288 188.422 497.247C188.384 497.206 188.359 497.154 188.351 497.098C188.343 497.042 188.354 496.984 188.381 496.934C188.409 496.884 188.452 496.845 188.504 496.822C189.179 496.5 195.112 493.756 196.599 494.783C196.736 494.87 196.846 494.994 196.916 495.14C196.987 495.287 197.015 495.45 196.998 495.611C196.987 495.911 196.908 496.205 196.767 496.471C196.626 496.736 196.428 496.966 196.185 497.144C195.237 497.717 194.132 497.98 193.027 497.895ZM189.501 496.975C191.264 497.297 194.514 497.727 195.863 496.715C196.041 496.583 196.186 496.412 196.287 496.216C196.388 496.019 196.442 495.801 196.446 495.58C196.446 495.366 196.446 495.274 196.308 495.228C195.511 494.66 192 495.887 189.547 496.975H189.501Z" fill="#59518C"/>
<path d="M188.673 497.343C188.612 497.357 188.55 497.357 188.489 497.343C188.465 497.302 188.452 497.254 188.452 497.205C188.452 497.157 188.465 497.109 188.489 497.068C188.489 496.822 189.884 490.935 193.088 491.349C193.901 491.441 194.116 491.84 194.162 492.162C194.361 493.695 190.62 496.654 188.826 497.374L188.673 497.343ZM192.736 491.809C190.681 491.809 189.486 495.212 189.087 496.577C191.019 495.565 193.686 493.127 193.564 492.162C193.564 492.162 193.564 491.886 192.966 491.824L192.736 491.809Z" fill="#59518C"/>
<path d="M239.327 86.8668L241.872 85.7629C241.872 85.7629 240.784 88.0166 239.327 86.8668Z" fill="#263238"/>
<path d="M328.202 63.4101L494.591 87.3267C495.388 87.4413 496.155 87.7119 496.848 88.123C497.541 88.5341 498.146 89.0776 498.629 89.7225C499.111 90.3675 499.462 91.1012 499.661 91.8818C499.86 92.6623 499.903 93.4745 499.788 94.2718L439.859 510.988C439.744 511.785 439.474 512.552 439.063 513.245C438.651 513.938 438.108 514.543 437.463 515.026C436.818 515.508 436.084 515.859 435.304 516.058C434.523 516.257 433.711 516.3 432.914 516.185L266.617 492.345C265.819 492.231 265.052 491.96 264.36 491.549C263.667 491.138 263.062 490.595 262.579 489.95C262.097 489.305 261.746 488.571 261.547 487.79C261.348 487.01 261.304 486.198 261.419 485.4L321.318 68.6074C321.55 67.0092 322.403 65.5671 323.692 64.594C324.981 63.621 326.601 63.1955 328.202 63.4101Z" fill="#59518C"/>
<path opacity="0.2" d="M328.202 63.4101L494.591 87.3267C495.388 87.4413 496.155 87.7119 496.848 88.123C497.541 88.5341 498.146 89.0776 498.629 89.7225C499.111 90.3675 499.462 91.1012 499.661 91.8818C499.86 92.6623 499.903 93.4745 499.788 94.2718L439.859 510.988C439.744 511.785 439.474 512.552 439.063 513.245C438.651 513.938 438.108 514.543 437.463 515.026C436.818 515.508 436.084 515.859 435.304 516.058C434.523 516.257 433.711 516.3 432.914 516.185L266.617 492.345C265.819 492.231 265.052 491.96 264.36 491.549C263.667 491.138 263.062 490.595 262.579 489.95C262.097 489.305 261.746 488.571 261.547 487.79C261.348 487.01 261.304 486.198 261.419 485.4L321.318 68.6074C321.55 67.0092 322.403 65.5671 323.692 64.594C324.981 63.621 326.601 63.1955 328.202 63.4101Z" fill="black"/>
<path opacity="0.3" d="M493.809 87.2195L494.591 87.3268C495.388 87.4414 496.155 87.712 496.848 88.123C497.541 88.5341 498.146 89.0777 498.628 89.7226C499.111 90.3675 499.462 91.1013 499.661 91.8818C499.86 92.6624 499.903 93.4745 499.788 94.2718L439.859 510.988C439.744 511.786 439.474 512.552 439.062 513.245C438.651 513.938 438.108 514.543 437.463 515.026C436.818 515.508 436.084 515.859 435.304 516.058C434.523 516.257 433.711 516.3 432.914 516.185L432.132 516.078C431.334 515.964 430.568 515.693 429.875 515.282C429.182 514.871 428.577 514.327 428.094 513.682C427.612 513.037 427.261 512.304 427.062 511.523C426.863 510.743 426.82 509.93 426.935 509.133L486.864 92.4474C486.975 91.6473 487.243 90.8771 487.652 90.1808C488.062 89.4846 488.605 88.8761 489.25 88.3903C489.896 87.9046 490.631 87.5511 491.413 87.3501C492.195 87.1492 493.01 87.1048 493.809 87.2195Z" fill="black"/>
<path d="M493.47 95.077L334.3 72.5681L276.181 483.554L435.351 506.063L493.47 95.077Z" fill="white"/>
<path opacity="0.2" d="M333.752 73.4061L488.597 95.6516L429.878 504.197L274.696 484.327L333.752 73.4061Z" fill="#59518C"/>
<path d="M333.752 73.4061L485.484 90.1784L426.429 501.1L274.696 484.327L333.752 73.4061Z" fill="white"/>
<path opacity="0.2" d="M333.752 73.4061L481.284 89.5805L421.216 498.447L274.696 484.327L333.752 73.4061Z" fill="#59518C"/>
<path d="M333.752 73.4061L479.797 87.4035L419.238 496.27L274.696 484.327L333.752 73.4061Z" fill="white"/>
<path opacity="0.2" d="M333.752 73.4061L473.863 86.8362L414.409 493.679L274.696 484.327L333.752 73.4061Z" fill="#59518C"/>
<path d="M333.752 73.4061L469.325 85.1498L409.197 492.039L274.696 484.327L333.752 73.4061Z" fill="white"/>
<path opacity="0.2" d="M333.752 73.4061L459.59 84.3066L399.446 491.472L274.696 484.327L333.752 73.4061Z" fill="#59518C"/>
<path d="M365.223 58.6442L365.112 60.2655L375.177 60.9516L375.287 59.3303L365.223 58.6442Z" fill="#59518C"/>
<path d="M384.91 59.9877L384.799 61.609L414.534 63.6361L414.645 62.0148L384.91 59.9877Z" fill="#59518C"/>
<path d="M448.245 70.0025L315.324 60.9571C313.134 60.8148 310.972 61.5026 309.267 62.8835C307.562 64.2644 306.441 66.237 306.125 68.4081L246.947 480.034C246.777 481.221 246.855 482.43 247.173 483.586C247.492 484.742 248.046 485.819 248.8 486.752C249.553 487.684 250.491 488.451 251.555 489.004C252.618 489.558 253.784 489.886 254.98 489.969L387.901 499.03C390.093 499.172 392.258 498.482 393.963 497.098C395.668 495.714 396.788 493.737 397.1 491.563L456.263 79.9524C456.432 78.7659 456.356 77.5573 456.038 76.4017C455.72 75.2461 455.168 74.1682 454.416 73.235C453.664 72.3018 452.728 71.5333 451.667 70.9772C450.605 70.4211 449.44 70.0893 448.245 70.0025Z" fill="#59518C"/>
<path opacity="0.2" d="M378.442 486.32H378.074L259.886 478.271C259.136 478.218 258.404 478.01 257.737 477.662C257.07 477.314 256.482 476.832 256.009 476.247C255.536 475.662 255.188 474.986 254.988 474.261C254.787 473.535 254.738 472.777 254.842 472.032L311.905 75.0311C312.117 73.6796 312.828 72.4569 313.899 71.6051C314.969 70.7533 316.32 70.3346 317.685 70.4318L435.873 78.4806C436.625 78.5298 437.359 78.7342 438.028 79.0811C438.697 79.4279 439.288 79.9096 439.761 80.4958C440.235 81.082 440.583 81.76 440.781 82.4871C440.98 83.2142 441.026 83.9746 440.917 84.7204L383.869 481.614C383.679 482.918 383.026 484.111 382.03 484.974C381.034 485.838 379.761 486.316 378.442 486.32ZM317.317 71.9496C316.394 71.9542 315.503 72.2891 314.806 72.8938C314.108 73.4984 313.65 74.3327 313.515 75.2458L256.452 472.323C256.382 472.847 256.419 473.38 256.562 473.889C256.705 474.398 256.951 474.872 257.284 475.283C257.617 475.694 258.031 476.032 258.499 476.277C258.968 476.522 259.482 476.668 260.009 476.708L378.182 484.756C379.15 484.814 380.104 484.507 380.859 483.898C381.613 483.288 382.112 482.419 382.26 481.46L439.307 84.4751C439.385 83.9525 439.352 83.4195 439.212 82.91C439.073 82.4006 438.828 81.9259 438.494 81.5162C438.162 81.1035 437.748 80.7638 437.279 80.5185C436.809 80.2731 436.294 80.1274 435.765 80.0904L317.578 72.0415L317.317 71.9496Z" fill="white"/>
</svg>
