<svg width="708" height="647" viewBox="0 0 708 647" fill="none" xmlns="http://www.w3.org/2000/svg">
<path d="M353.69 646.868C549.028 646.868 707.38 555.446 707.38 442.672C707.38 329.898 549.028 238.476 353.69 238.476C158.352 238.476 0 329.898 0 442.672C0 555.446 158.352 646.868 353.69 646.868Z" fill="#F5F5F5"/>
<path d="M362.812 610.027L483.545 539.948L392.784 487.546L384.521 474.653C384.521 474.653 340.061 465.117 325.557 472.368C311.054 479.62 234.674 507.063 234.674 507.063C234.674 507.063 106 404.988 96.8469 399.745C87.6942 394.502 33.8512 427.847 57.6605 450.69C81.4698 473.534 129.717 501.85 151.84 511.494C173.963 521.137 211.907 530.305 211.907 530.305C211.907 530.305 205.898 538.768 223.544 551.769C241.19 564.769 317.999 600.046 328.501 603.557C340.367 607.513 354.656 605.382 354.656 605.382L362.812 610.027Z" fill="#E0E0E0"/>
<path d="M685.594 422.266L603.174 469.793C602.536 470.111 601.833 470.277 601.12 470.277C600.407 470.277 599.703 470.111 599.065 469.793L425.915 369.665C424.781 369.006 424.781 367.948 425.915 367.304L508.351 319.777C508.984 319.452 509.686 319.282 510.397 319.282C511.109 319.282 511.811 319.452 512.444 319.777L685.686 419.89C686.729 420.564 686.729 421.622 685.594 422.266Z" fill="#E0E0E0"/>
<path d="M516.461 207.983L444.788 249.07V370.616L516.461 329.528V207.983Z" fill="#59518C"/>
<path opacity="0.35" d="M516.461 207.983L444.788 249.07V370.616L516.461 329.528V207.983Z" fill="black"/>
<path d="M446.827 251.094L516.461 211.417C519.619 215.096 524.3 217.651 530.504 219.082L461.407 258.667C461.407 258.667 457.466 257.748 446.827 251.094Z" fill="#F5F5F5"/>
<path d="M467.309 258.453C465.48 259.382 463.458 259.866 461.407 259.866C459.355 259.866 457.333 259.382 455.504 258.453L445.156 252.474C441.89 250.603 441.89 247.552 445.156 245.667L513.885 206.495L516.461 208.029L448.713 246.832C446.75 247.951 446.765 249.791 448.713 250.91L458.341 256.398C459.437 256.958 460.651 257.25 461.882 257.25C463.113 257.25 464.327 256.958 465.423 256.398L533.141 217.657L536.054 219.343L467.309 258.453Z" fill="#59518C"/>
<path opacity="0.25" d="M467.309 258.453C465.48 259.382 463.458 259.866 461.407 259.866C459.355 259.866 457.333 259.382 455.504 258.453L445.156 252.474C441.89 250.603 441.89 247.552 445.156 245.667L513.885 206.495L516.461 208.029L448.713 246.832C446.75 247.951 446.765 249.791 448.713 250.91L458.341 256.398C459.437 256.958 460.651 257.25 461.882 257.25C463.113 257.25 464.327 256.958 465.423 256.398L533.141 217.657L536.054 219.343L467.309 258.453Z" fill="black"/>
<path d="M536.039 219.297V340.842L467.309 379.998C465.478 380.92 463.457 381.401 461.407 381.401C459.357 381.401 457.335 380.92 455.504 379.998L445.14 374.019C444.469 373.718 443.89 373.245 443.461 372.647C443.033 372.049 442.771 371.348 442.703 370.616V249.07C442.771 249.802 443.033 250.503 443.461 251.101C443.89 251.699 444.469 252.173 445.14 252.474L455.504 258.468C457.335 259.39 459.357 259.87 461.407 259.87C463.457 259.87 465.478 259.39 467.309 258.468L536.039 219.297Z" fill="#59518C"/>
<path opacity="0.05" d="M536.039 219.297V340.842L467.309 379.998C465.478 380.92 463.457 381.401 461.407 381.401C459.357 381.401 457.335 380.92 455.504 379.998L445.14 374.019C444.469 373.718 443.89 373.245 443.461 372.647C443.033 372.049 442.771 371.348 442.703 370.616V249.07C442.771 249.802 443.033 250.503 443.461 251.101C443.89 251.699 444.469 252.173 445.14 252.474L455.504 258.468C457.335 259.39 459.357 259.87 461.407 259.87C463.457 259.87 465.478 259.39 467.309 258.468L536.039 219.297Z" fill="black"/>
<path d="M461.407 259.879C459.351 259.918 457.32 259.432 455.504 258.468L445.14 252.474C444.469 252.173 443.89 251.699 443.461 251.101C443.033 250.503 442.771 249.802 442.703 249.07V370.616C442.771 371.348 443.033 372.049 443.461 372.647C443.89 373.245 444.469 373.718 445.14 374.019L455.504 379.998C457.32 380.962 459.351 381.448 461.407 381.409V259.879Z" fill="#59518C"/>
<path opacity="0.2" d="M461.407 259.879C459.351 259.918 457.32 259.432 455.504 258.468L445.14 252.474C444.469 252.173 443.89 251.699 443.461 251.101C443.033 250.503 442.771 249.802 442.703 249.07V370.616C442.771 371.348 443.033 372.049 443.461 372.647C443.89 373.245 444.469 373.718 445.14 374.019L455.504 379.998C457.32 380.962 459.351 381.448 461.407 381.409V259.879Z" fill="black"/>
<path d="M533.908 235.579L473.871 270.472V385.379L533.908 350.501V235.579Z" fill="#59518C"/>
<path opacity="0.55" d="M533.908 235.579L473.871 270.472V385.379L533.908 350.501V235.579Z" fill="white"/>
<path d="M475.803 272.373L533.908 238.829C537.451 242.615 542.106 245.176 547.2 246.142L489.585 279.518C489.585 279.518 485.86 278.675 475.803 272.373Z" fill="#F5F5F5"/>
<path d="M495.166 279.349C493.438 280.232 491.526 280.692 489.585 280.692C487.645 280.692 485.733 280.232 484.005 279.349L474.224 273.692C471.157 271.913 471.157 269.093 474.224 267.253L531.485 234.183L533.908 235.579L477.581 268.311C477.177 268.447 476.826 268.707 476.577 269.054C476.328 269.4 476.195 269.816 476.195 270.242C476.195 270.669 476.328 271.085 476.577 271.431C476.826 271.778 477.177 272.038 477.581 272.174L486.672 277.356C487.71 277.885 488.858 278.161 490.022 278.161C491.187 278.161 492.335 277.885 493.372 277.356L549.668 244.701L552.428 246.234L495.166 279.349Z" fill="#59518C"/>
<path opacity="0.8" d="M495.166 279.349C493.438 280.232 491.526 280.692 489.585 280.692C487.645 280.692 485.733 280.232 484.005 279.349L474.224 273.692C471.157 271.913 471.157 269.093 474.224 267.253L531.485 234.183L533.908 235.579L477.581 268.311C477.177 268.447 476.826 268.707 476.577 269.054C476.328 269.4 476.195 269.816 476.195 270.242C476.195 270.669 476.328 271.085 476.577 271.431C476.826 271.778 477.177 272.038 477.581 272.174L486.672 277.356C487.71 277.885 488.858 278.161 490.022 278.161C491.187 278.161 492.335 277.885 493.372 277.356L549.668 244.701L552.428 246.234L495.166 279.349Z" fill="white"/>
<path d="M552.428 246.28V361.187L495.166 394.256C493.438 395.139 491.526 395.599 489.585 395.599C487.645 395.599 485.733 395.139 484.005 394.256L474.208 388.599C473.572 388.317 473.023 387.869 472.619 387.303C472.215 386.737 471.969 386.073 471.908 385.379V270.396C471.972 271.088 472.219 271.751 472.623 272.316C473.027 272.882 473.574 273.33 474.208 273.615L484.005 279.272C485.733 280.155 487.645 280.616 489.585 280.616C491.526 280.616 493.438 280.155 495.166 279.272L552.428 246.28Z" fill="#59518C"/>
<path opacity="0.7" d="M552.428 246.28V361.187L495.166 394.256C493.438 395.139 491.526 395.599 489.585 395.599C487.645 395.599 485.733 395.139 484.005 394.256L474.208 388.599C473.572 388.317 473.023 387.869 472.619 387.303C472.215 386.737 471.969 386.073 471.908 385.379V270.396C471.972 271.088 472.219 271.751 472.623 272.316C473.027 272.882 473.574 273.33 474.208 273.615L484.005 279.272C485.733 280.155 487.645 280.616 489.585 280.616C491.526 280.616 493.438 280.155 495.166 279.272L552.428 246.28Z" fill="white"/>
<path d="M489.585 280.683C487.642 280.722 485.72 280.263 484.005 279.349L474.208 273.692C473.574 273.407 473.027 272.959 472.623 272.393C472.219 271.827 471.972 271.165 471.908 270.472V385.456C471.969 386.149 472.215 386.814 472.619 387.38C473.023 387.946 473.572 388.393 474.208 388.676L484.005 394.333C485.72 395.247 487.642 395.706 489.585 395.667V280.683Z" fill="#59518C"/>
<path opacity="0.55" d="M489.585 280.683C487.642 280.722 485.72 280.263 484.005 279.349L474.208 273.692C473.574 273.407 473.027 272.959 472.623 272.393C472.219 271.827 471.972 271.165 471.908 270.472V385.456C471.969 386.149 472.215 386.814 472.619 387.38C473.023 387.946 473.572 388.393 474.208 388.676L484.005 394.333C485.72 395.247 487.642 395.706 489.585 395.667V280.683Z" fill="white"/>
<path d="M609.184 255.908L609.828 264.647L532.559 306.102L530.811 301.012L609.184 255.908Z" fill="#59518C"/>
<path opacity="0.35" d="M609.184 255.908L609.828 264.647L532.559 306.102L530.811 301.012L609.184 255.908Z" fill="black"/>
<path d="M531.838 303.036L606.685 259.833L619.701 267.345L543.382 311.989L531.838 303.036Z" fill="#F5F5F5"/>
<path d="M557.441 307.359L566.747 382.114C566.694 383.075 566.415 384.011 565.933 384.845C565.451 385.678 564.779 386.387 563.972 386.913L520.554 412.04C519.86 412.418 519.09 412.638 518.301 412.684L543.382 314.779C544.171 314.741 544.941 314.526 545.636 314.151L548.702 312.342L557.441 307.359Z" fill="#59518C"/>
<path opacity="0.35" d="M557.441 307.359L566.747 382.114C566.694 383.075 566.415 384.011 565.933 384.845C565.451 385.678 564.779 386.387 563.972 386.913L520.554 412.04C519.86 412.418 519.09 412.638 518.301 412.684L543.382 314.779C544.171 314.741 544.941 314.526 545.636 314.151L548.702 312.342L557.441 307.359Z" fill="black"/>
<path d="M540.086 314.182L532.344 307.558L526.656 302.683C526.073 301.763 525.399 301.073 525.767 300.307L501.038 397.384V397.476C500.67 398.242 500.562 399.959 501.62 400.542L515.035 412.025C516.049 412.568 517.203 412.792 518.347 412.669L543.382 314.779C542.249 314.912 541.101 314.704 540.086 314.182Z" fill="#59518C"/>
<path opacity="0.25" d="M540.086 314.182L532.344 307.558L526.656 302.683C526.073 301.763 525.399 301.073 525.767 300.307L501.038 397.384V397.476C500.67 398.242 500.562 399.959 501.62 400.542L515.035 412.025C516.049 412.568 517.203 412.792 518.347 412.669L543.382 314.779C542.249 314.912 541.101 314.704 540.086 314.182Z" fill="black"/>
<path d="M526.656 299.448C525.123 300.337 525.506 301.319 526.656 302.652L540.086 314.151C540.946 314.587 541.897 314.815 542.861 314.815C543.825 314.815 544.776 314.587 545.636 314.151L557.441 307.328C558.974 306.455 559.25 305.167 558.039 304.477C557.245 304.149 556.386 304.009 555.529 304.071C554.672 304.132 553.841 304.392 553.102 304.829L543.781 310.18C543.493 310.323 543.175 310.398 542.853 310.398C542.532 310.398 542.214 310.323 541.926 310.18L532.114 301.656C531.608 301.365 531.608 300.889 532.114 300.583L609.184 255.846L605.489 253.715L526.656 299.448Z" fill="#59518C"/>
<path opacity="0.15" d="M526.656 299.448C525.123 300.337 525.506 301.319 526.656 302.652L540.086 314.151C540.946 314.587 541.897 314.815 542.861 314.815C543.825 314.815 544.776 314.587 545.636 314.151L557.441 307.328C558.974 306.455 559.25 305.167 558.039 304.477C557.245 304.149 556.386 304.009 555.529 304.071C554.672 304.132 553.841 304.392 553.102 304.829L543.781 310.18C543.493 310.323 543.175 310.398 542.853 310.398C542.532 310.398 542.214 310.323 541.926 310.18L532.114 301.656C531.608 301.365 531.608 300.889 532.114 300.583L609.184 255.846L605.489 253.715L526.656 299.448Z" fill="black"/>
<path d="M624.116 257.226L553.93 298.007V432.308L624.116 391.543V257.226Z" fill="#455A64"/>
<path d="M556.23 300.23L624.147 261.028C627.643 265.117 632.819 267.963 639.677 269.568L572.297 308.647C572.297 308.647 567.958 307.589 556.23 300.23Z" fill="#F5F5F5"/>
<path d="M578.828 308.371C576.807 309.398 574.572 309.934 572.305 309.934C570.037 309.934 567.802 309.398 565.781 308.371L554.344 301.779C550.741 299.694 550.741 296.321 554.344 294.236L621.28 255.586L624.116 257.226L558.284 295.478C556.123 296.719 556.123 298.743 558.284 299.985L568.909 306.117C570.124 306.729 571.465 307.048 572.826 307.048C574.186 307.048 575.528 306.729 576.743 306.117L642.56 267.943L645.764 269.798L578.828 308.371Z" fill="#263238"/>
<path d="M645.764 269.721V404.037L578.828 442.672C576.807 443.699 574.572 444.235 572.305 444.235C570.038 444.235 567.802 443.699 565.781 442.672L554.344 436.08C553.601 435.746 552.959 435.221 552.485 434.559C552.011 433.896 551.721 433.119 551.646 432.308V298.007C551.724 298.816 552.015 299.589 552.489 300.249C552.963 300.909 553.603 301.431 554.344 301.763L565.781 308.386C567.805 309.407 570.039 309.938 572.305 309.938C574.571 309.938 576.805 309.407 578.828 308.386L645.764 269.721Z" fill="#455A64"/>
<path d="M572.297 309.95C570.03 310.005 567.786 309.477 565.781 308.417L554.344 301.794C553.603 301.462 552.963 300.939 552.489 300.28C552.015 299.62 551.724 298.846 551.646 298.038V432.339C551.721 433.15 552.011 433.927 552.485 434.59C552.959 435.252 553.601 435.777 554.344 436.11L565.781 442.703C567.786 443.762 570.03 444.29 572.297 444.236V309.95Z" fill="#37474F"/>
<path d="M652.816 273.799L582.63 314.58V448.896L652.816 408.116V273.799Z" fill="#59518C"/>
<path opacity="0.35" d="M652.816 273.799L582.63 314.58V448.896L652.816 408.116V273.799Z" fill="black"/>
<path d="M584.899 316.803L652.816 277.601C656.312 281.69 661.489 284.536 668.347 286.141L600.997 325.189C600.997 325.189 596.643 324.162 584.899 316.803Z" fill="#EBEBEB"/>
<path d="M584.899 316.803L652.816 277.601C656.312 281.69 661.489 284.536 668.347 286.141L600.997 325.189C600.997 325.189 596.643 324.162 584.899 316.803Z" fill="#F5F5F5"/>
<path d="M607.528 324.944C605.507 325.971 603.272 326.507 601.005 326.507C598.737 326.507 596.502 325.971 594.481 324.944L583.044 318.352C579.441 316.267 579.441 312.894 583.044 310.809L649.98 272.174L652.816 273.799L586.984 312.127C584.823 313.369 584.823 315.393 586.984 316.634L597.609 322.767C598.824 323.379 600.165 323.698 601.526 323.698C602.886 323.698 604.228 323.379 605.443 322.767L671.214 284.454L674.433 286.309L607.528 324.944Z" fill="#59518C"/>
<path opacity="0.25" d="M607.528 324.944C605.507 325.971 603.272 326.507 601.005 326.507C598.737 326.507 596.502 325.971 594.481 324.944L583.044 318.352C579.441 316.267 579.441 312.894 583.044 310.809L649.98 272.174L652.816 273.799L586.984 312.127C584.823 313.369 584.823 315.393 586.984 316.634L597.609 322.767C598.824 323.379 600.165 323.698 601.526 323.698C602.886 323.698 604.228 323.379 605.443 322.767L671.214 284.454L674.433 286.309L607.528 324.944Z" fill="black"/>
<path d="M674.448 286.294V420.564L607.528 459.214C605.505 460.235 603.27 460.766 601.004 460.766C598.739 460.766 596.504 460.235 594.481 459.214L583.044 452.607C582.3 452.273 581.659 451.748 581.185 451.086C580.711 450.423 580.421 449.646 580.346 448.835V314.534C580.424 315.343 580.714 316.116 581.188 316.776C581.662 317.436 582.303 317.958 583.044 318.29L594.481 324.913C596.502 325.941 598.737 326.476 601.004 326.476C603.272 326.476 605.507 325.941 607.528 324.913L674.448 286.294Z" fill="#59518C"/>
<path opacity="0.15" d="M600.997 326.523C598.73 326.578 596.486 326.05 594.481 324.99L583.044 318.367C582.303 318.035 581.662 317.512 581.188 316.853C580.714 316.193 580.424 315.419 580.346 314.611V448.912C580.421 449.723 580.711 450.5 581.185 451.162C581.659 451.825 582.3 452.35 583.044 452.683L594.481 459.291C596.489 460.344 598.73 460.872 600.997 460.824V326.523Z" fill="black"/>
<path d="M278.046 73.8809V63.9923C277.969 63.4203 277.747 62.8775 277.401 62.4158C277.055 61.9541 276.596 61.5889 276.068 61.3553L216.277 27.0595C214.85 26.341 213.275 25.9668 211.677 25.9668C210.08 25.9668 208.505 26.341 207.078 27.0595L35.2617 125.67C34.7331 125.902 34.2734 126.267 33.9269 126.729C33.5805 127.191 33.359 127.734 33.2839 128.307V138.195C33.359 138.768 33.5805 139.311 33.9269 139.773C34.2734 140.235 34.7331 140.6 35.2617 140.832L95.0532 175.143C96.4799 175.862 98.0551 176.236 99.6525 176.236C101.25 176.236 102.825 175.862 104.252 175.143L276.084 76.5178C276.612 76.2855 277.072 75.9207 277.418 75.4588C277.765 74.9969 277.986 74.4534 278.061 73.8809H278.046Z" fill="#F0F0F0"/>
<path d="M35.2617 130.943L95.0533 165.239C96.48 165.958 98.0552 166.332 99.6526 166.332C101.25 166.332 102.825 165.958 104.252 165.239L276.068 66.6292C278.598 65.0961 278.598 62.8118 276.068 61.3553L216.277 27.0595C214.85 26.341 213.275 25.9668 211.677 25.9668C210.08 25.9668 208.505 26.341 207.078 27.0595L35.2617 125.67C32.7321 127.126 32.7321 129.487 35.2617 130.943Z" fill="#FAFAFA"/>
<path d="M99.6219 166.343V176.232C98.0224 176.254 96.4423 175.88 95.0226 175.143L35.231 140.847C34.7058 140.61 34.2491 140.244 33.9034 139.783C33.5576 139.322 33.334 138.781 33.2533 138.21V128.307C33.2896 127.908 33.4211 127.524 33.6366 127.187C32.9467 128.46 33.4679 129.932 35.1697 130.944L94.9612 165.239C96.3901 166.012 97.9981 166.393 99.6219 166.343Z" fill="#E0E0E0"/>
<path d="M107.425 91.5117L158.08 120.38L241.742 72.3631L191.103 43.4945L107.425 91.5117Z" fill="#E0E0E0"/>
<path d="M158.647 118.188L109.802 90.1472C111.068 86.0063 110.977 81.569 109.541 77.4836L158.08 105.218C158.08 105.218 158.999 108.269 158.647 118.188Z" fill="white"/>
<path d="M155.581 101.262C156.944 102.144 158.08 103.336 158.895 104.74C159.71 106.144 160.182 107.721 160.272 109.342V118.786C160.272 121.76 158.172 122.956 155.581 121.469L107.441 93.8728V91.5424L154.967 118.633C156.501 119.522 157.773 118.801 157.773 117.007V108.253C157.723 107.281 157.443 106.335 156.955 105.492C156.467 104.65 155.786 103.936 154.967 103.409L107.441 76.2879V73.6356L155.581 101.262Z" fill="#EBEBEB"/>
<path d="M107.441 73.6356L191.103 25.6184L239.243 53.2145C240.606 54.0963 241.742 55.2878 242.557 56.6919C243.372 58.096 243.844 59.6729 243.934 61.294V70.738C244.004 71.3262 243.912 71.9223 243.669 72.4624C243.426 73.0025 243.041 73.4663 242.554 73.8043L158.892 121.821C159.379 121.484 159.764 121.02 160.007 120.48C160.25 119.939 160.342 119.343 160.272 118.755V109.342C160.179 107.72 159.704 106.142 158.886 104.738C158.069 103.334 156.931 102.143 155.565 101.262L107.441 73.6356Z" fill="#E0E0E0"/>
<path d="M158.907 104.743C159.752 106.133 160.227 107.716 160.287 109.342V118.786C160.357 119.374 160.265 119.97 160.022 120.51C159.779 121.05 159.394 121.514 158.907 121.852L242.57 73.8349C243.056 73.497 243.441 73.0332 243.685 72.493C243.928 71.9529 244.019 71.3569 243.949 70.7687V61.3247C243.893 59.6983 243.418 58.114 242.57 56.7253L158.907 104.743Z" fill="#EBEBEB"/>
<path d="M107.441 67.8097L158.08 96.6783L241.742 48.6764L191.103 19.7925L107.441 67.8097Z" fill="#E0E0E0"/>
<path d="M158.647 94.4859L109.802 66.4146C111.068 62.2685 110.977 57.8263 109.541 53.7357L158.08 81.4698C158.08 81.4698 158.999 84.582 158.647 94.4859Z" fill="white"/>
<path d="M155.581 77.5603C156.944 78.4421 158.08 79.6337 158.895 81.0378C159.71 82.4419 160.182 84.0188 160.272 85.6399V95.0839C160.272 98.0581 158.172 99.2693 155.581 97.7822L107.441 70.1861V67.8097L154.967 94.8999C156.501 95.7891 157.788 95.0685 157.788 93.3668V84.6127C157.737 83.6391 157.454 82.6917 156.964 81.8491C156.473 81.0066 155.789 80.2932 154.967 79.768L107.441 52.6165V49.9336L155.581 77.5603Z" fill="#EBEBEB"/>
<path d="M107.441 49.9336L191.103 1.93176L239.243 29.5279C240.606 30.4097 241.742 31.6012 242.557 33.0053C243.372 34.4094 243.844 35.9863 243.934 37.6074V47.0514C244.002 47.6394 243.91 48.2349 243.667 48.7747C243.424 49.3145 243.04 49.7785 242.554 50.1176L158.892 98.1195C159.379 97.7816 159.764 97.3177 160.007 96.7776C160.25 96.2375 160.342 95.6414 160.272 95.0533V85.6093C160.182 83.9881 159.71 82.4112 158.895 81.0071C158.08 79.6031 156.944 78.4115 155.581 77.5297L107.441 49.9336Z" fill="#FAFAFA"/>
<path d="M158.907 81.0406C159.749 82.4323 160.224 84.0148 160.287 85.6399V95.0839C160.357 95.6721 160.265 96.2681 160.022 96.8083C159.779 97.3484 159.394 97.8122 158.907 98.1501L242.554 50.1023C243.04 49.7632 243.424 49.2992 243.667 48.7593C243.91 48.2195 244.002 47.6241 243.934 47.036V37.638C243.88 36.0113 243.405 34.4265 242.554 33.0387L158.907 81.0406Z" fill="#F0F0F0"/>
<path d="M85.9618 1.24182L139.835 32.3641V134.853L85.9618 103.746V1.24182Z" fill="#E0E0E0"/>
<path d="M138.103 34.0658L85.9772 4.1394C82.7934 7.52479 78.6168 9.81171 74.0496 10.6705L125.762 40.4589C125.762 40.4589 129.073 39.677 138.103 34.0658Z" fill="white"/>
<path d="M120.733 40.3516C122.284 41.1382 123.999 41.5481 125.739 41.5481C127.478 41.5481 129.193 41.1382 130.744 40.3516L139.529 35.323C142.289 33.7899 142.289 31.1529 139.529 29.5738L88.1389 0L85.9619 1.24183L136.555 30.371C136.914 30.4948 137.225 30.7275 137.445 31.0367C137.666 31.3458 137.784 31.7161 137.784 32.0958C137.784 32.4755 137.666 32.8457 137.445 33.1549C137.225 33.4641 136.914 33.6968 136.555 33.8205L128.383 38.4199C127.451 38.889 126.422 39.1334 125.378 39.1334C124.335 39.1334 123.306 38.889 122.373 38.4199L71.7652 9.38267L69.2969 10.7931L120.733 40.3516Z" fill="#FAFAFA"/>
<path d="M69.3429 10.7931V113.282L120.733 142.764C122.284 143.55 123.999 143.96 125.739 143.96C127.478 143.96 129.193 143.55 130.744 142.764L139.529 137.735C140.099 137.482 140.591 137.081 140.955 136.575C141.319 136.068 141.541 135.474 141.599 134.853V32.364C141.543 32.9837 141.321 33.5769 140.957 34.0814C140.593 34.5859 140.1 34.983 139.529 35.231L130.744 40.3516C129.19 41.1299 127.476 41.5352 125.739 41.5352C124.001 41.5352 122.287 41.1299 120.733 40.3516L69.3429 10.7931Z" fill="#E0E0E0"/>
<path d="M125.731 41.4709C127.475 41.5041 129.199 41.0982 130.744 40.2903L139.529 35.2311C140.099 34.983 140.593 34.5859 140.957 34.0815C141.321 33.577 141.543 32.9838 141.599 32.3641V134.853C141.541 135.474 141.318 136.068 140.955 136.575C140.591 137.081 140.099 137.482 139.529 137.735L130.744 142.764C129.203 143.584 127.477 143.996 125.731 143.96V41.4709Z" fill="#EBEBEB"/>
<path d="M63.9309 13.89L117.805 45.0123V147.501L63.9309 116.394V13.89Z" fill="#EBEBEB"/>
<path d="M116.072 46.714L63.9463 16.7876C60.7625 20.173 56.5859 22.4599 52.0187 23.3187L103.7 53.1071C103.7 53.1071 107.027 52.3252 116.072 46.714Z" fill="white"/>
<path d="M98.7021 52.9232C100.253 53.7097 101.968 54.1196 103.708 54.1196C105.447 54.1196 107.162 53.7097 108.713 52.9232L117.498 47.8945C120.258 46.3614 120.258 43.7245 117.498 42.1454L66.108 12.6482L63.931 13.89L114.524 43.0192C114.89 43.1352 115.21 43.3649 115.437 43.6751C115.665 43.9852 115.787 44.3596 115.787 44.744C115.787 45.1284 115.665 45.5028 115.437 45.8129C115.21 46.123 114.89 46.3527 114.524 46.4687L106.368 51.0681C105.435 51.5372 104.406 51.7816 103.363 51.7816C102.319 51.7816 101.29 51.5372 100.358 51.0681L49.8417 21.9389L47.312 23.4873L98.7021 52.9232Z" fill="#FAFAFA"/>
<path d="M47.312 23.4873V125.976L98.7021 155.458C100.253 156.245 101.968 156.654 103.708 156.654C105.447 156.654 107.162 156.245 108.713 155.458L117.498 150.429C118.068 150.176 118.56 149.776 118.924 149.269C119.288 148.762 119.51 148.168 119.568 147.547V44.9509C119.512 45.5706 119.29 46.1638 118.926 46.6683C118.562 47.1727 118.069 47.5698 117.498 47.8179L108.713 52.8771C107.159 53.6555 105.446 54.0608 103.708 54.0608C101.97 54.0608 100.256 53.6555 98.7021 52.8771L47.312 23.4873Z" fill="#EBEBEB"/>
<path d="M103.7 54.1496C105.444 54.1829 107.168 53.777 108.713 52.9691L117.498 47.9098C118.082 47.6546 118.584 47.2433 118.949 46.7213C119.314 46.1993 119.528 45.5867 119.568 44.9509V147.44C119.51 148.061 119.288 148.655 118.924 149.162C118.56 149.668 118.068 150.069 117.498 150.322L108.713 155.351C107.172 156.171 105.446 156.582 103.7 156.546V54.1496Z" fill="#F0F0F0"/>
<path d="M444.312 73.8809V63.9923C444.389 63.4203 444.611 62.8775 444.957 62.4158C445.304 61.9541 445.762 61.589 446.29 61.3553L506.082 27.0595C507.508 26.3387 509.083 25.9631 510.681 25.9631C512.279 25.9631 513.854 26.3387 515.28 27.0595L687.112 125.67C687.641 125.902 688.1 126.267 688.447 126.729C688.793 127.191 689.015 127.734 689.09 128.307V138.195C689.015 138.768 688.793 139.311 688.447 139.773C688.1 140.235 687.641 140.6 687.112 140.832L627.321 175.143C625.895 175.864 624.319 176.24 622.721 176.24C621.123 176.24 619.548 175.864 618.122 175.143L446.275 76.5179C445.746 76.2855 445.287 75.9207 444.94 75.4588C444.594 74.9969 444.372 74.4534 444.297 73.8809H444.312Z" fill="#F0F0F0"/>
<path d="M687.066 130.943L627.275 165.239C625.849 165.96 624.273 166.336 622.675 166.336C621.077 166.336 619.502 165.96 618.076 165.239L446.275 66.6293C443.745 65.0962 443.745 62.8118 446.275 61.3553L506.066 27.0595C507.492 26.3387 509.068 25.9631 510.666 25.9631C512.264 25.9631 513.839 26.3387 515.265 27.0595L687.097 125.67C689.611 127.126 689.611 129.487 687.066 130.943Z" fill="#FAFAFA"/>
<path d="M622.706 166.343V176.232C624.305 176.254 625.885 175.88 627.305 175.143L687.097 140.847C687.625 140.615 688.085 140.25 688.431 139.788C688.778 139.326 688.999 138.783 689.074 138.21V128.307C689.044 127.909 688.918 127.525 688.706 127.187C689.396 128.46 688.875 129.932 687.097 130.944L627.305 165.239C625.896 166.006 624.309 166.387 622.706 166.343Z" fill="#E0E0E0"/>
<path d="M614.902 91.5117L564.263 120.38L480.601 72.3631L531.24 43.4945L614.902 91.5117Z" fill="#E0E0E0"/>
<path d="M563.681 118.188L612.541 90.1473C611.275 86.0064 611.366 81.5691 612.802 77.4838L564.263 105.218C564.263 105.218 563.328 108.269 563.681 118.188Z" fill="white"/>
<path d="M566.762 101.262C565.394 102.141 564.255 103.331 563.436 104.736C562.618 106.14 562.145 107.719 562.056 109.342V118.786C562.056 121.76 564.156 122.956 566.762 121.469L614.902 93.8727V91.5424L567.376 118.633C565.842 119.522 564.555 118.801 564.555 117.007V108.253C564.606 107.28 564.889 106.332 565.379 105.49C565.87 104.647 566.554 103.934 567.376 103.409L614.826 76.3185V73.6663L566.762 101.262Z" fill="#EBEBEB"/>
<path d="M614.902 73.6356L531.24 25.6184L483.1 53.2145C481.737 54.0963 480.601 55.2878 479.786 56.6919C478.971 58.096 478.499 59.6729 478.409 61.294V70.738C478.339 71.3246 478.429 71.9191 478.669 72.4588C478.91 72.9985 479.291 73.4633 479.773 73.8043L563.436 121.821C562.953 121.481 562.572 121.016 562.332 120.476C562.091 119.936 562.001 119.342 562.071 118.755V109.342C562.161 107.721 562.633 106.144 563.448 104.74C564.264 103.336 565.399 102.144 566.762 101.262L614.902 73.6356Z" fill="#E0E0E0"/>
<path d="M563.436 104.743C562.585 106.13 562.11 107.715 562.056 109.342V118.786C561.986 119.372 562.076 119.967 562.316 120.507C562.557 121.046 562.938 121.511 563.42 121.852L479.758 73.8349C479.276 73.494 478.894 73.0292 478.654 72.4895C478.414 71.9498 478.324 71.3553 478.394 70.7687V61.3247C478.451 59.7007 478.921 58.118 479.758 56.7253L563.436 104.743Z" fill="#EBEBEB"/>
<path d="M614.902 67.8097L564.263 96.6783L480.601 48.6764L531.24 19.7925L614.902 67.8097Z" fill="#E0E0E0"/>
<path d="M563.681 94.4859L612.541 66.4146C611.267 62.2695 611.359 57.8249 612.802 53.7357L564.263 81.4698C564.263 81.4698 563.328 84.582 563.681 94.4859Z" fill="white"/>
<path d="M566.747 77.5603C565.384 78.4421 564.248 79.6337 563.433 81.0378C562.618 82.4419 562.146 84.0188 562.056 85.6399V95.0839C562.056 98.0581 564.156 99.2693 566.747 97.7822L614.902 70.1861V67.8097L567.376 94.8999C565.842 95.7891 564.555 95.0685 564.555 93.3668V84.6127C564.606 83.6391 564.889 82.6917 565.379 81.8491C565.87 81.0066 566.554 80.2932 567.376 79.768L614.902 52.6165V49.9336L566.747 77.5603Z" fill="#EBEBEB"/>
<path d="M614.902 49.9336L531.24 1.93176L483.1 29.6198C481.735 30.5008 480.597 31.6918 479.779 33.0958C478.961 34.4998 478.487 36.0772 478.394 37.6994V47.1434C478.329 47.7311 478.423 48.3254 478.665 48.8646C478.908 49.4038 479.291 49.8682 479.773 50.2096L563.436 98.2115C562.952 97.8712 562.568 97.407 562.325 96.8675C562.083 96.328 561.989 95.7331 562.056 95.1452V85.7013C562.146 84.0801 562.618 82.5032 563.433 81.0991C564.248 79.695 565.384 78.5035 566.747 77.6217L614.902 49.9336Z" fill="#FAFAFA"/>
<path d="M563.436 81.0406C562.587 82.4292 562.112 84.0135 562.056 85.6399V95.0839C561.989 95.6718 562.083 96.2667 562.325 96.8062C562.568 97.3457 562.952 97.8099 563.436 98.1501L479.773 50.1023C479.291 49.7609 478.908 49.2965 478.665 48.7573C478.423 48.2181 478.329 47.6238 478.394 47.036V37.638C478.454 36.0124 478.929 34.4293 479.773 33.0387L563.436 81.0406Z" fill="#F0F0F0"/>
<path d="M636.381 1.24182L582.508 32.3641V134.853L636.381 103.746V1.24182Z" fill="#E0E0E0"/>
<path d="M584.24 34.0658L636.366 4.1394C639.544 7.52451 643.715 9.81169 648.278 10.6705L596.597 40.4589C596.597 40.4589 593.255 39.677 584.24 34.0658Z" fill="white"/>
<path d="M601.61 40.3516C600.056 41.1383 598.339 41.5483 596.597 41.5483C594.855 41.5483 593.138 41.1383 591.584 40.3516L582.814 35.323C580.039 33.7899 580.039 31.1529 582.814 29.5738L634.189 0.0766602L636.381 1.31849L585.788 30.4477C585.429 30.5715 585.118 30.8042 584.898 31.1133C584.677 31.4225 584.559 31.7927 584.559 32.1725C584.559 32.5522 584.677 32.9224 584.898 33.2316C585.118 33.5407 585.429 33.7734 585.788 33.8972L593.945 38.4966C594.879 38.9659 595.911 39.2102 596.957 39.2102C598.003 39.2102 599.035 38.9659 599.97 38.4966L650.486 9.36735L652.954 10.7778L601.61 40.3516Z" fill="#FAFAFA"/>
<path d="M652.985 10.7931V113.282L601.61 142.764C600.056 143.55 598.339 143.96 596.597 143.96C594.855 143.96 593.138 143.55 591.584 142.764L582.814 137.735C582.244 137.482 581.752 137.081 581.388 136.575C581.025 136.068 580.802 135.474 580.744 134.853V32.364C580.8 32.9837 581.022 33.5769 581.386 34.0814C581.75 34.5859 582.243 34.983 582.814 35.231L591.584 40.2902C593.14 41.0688 594.856 41.4741 596.597 41.4741C598.337 41.4741 600.054 41.0688 601.61 40.2902L652.985 10.7931Z" fill="#E0E0E0"/>
<path d="M596.597 41.4709C594.854 41.5002 593.131 41.0945 591.584 40.2903L582.814 35.2311C582.246 34.9809 581.756 34.5829 581.395 34.0786C581.033 33.5743 580.814 32.9822 580.76 32.3641V134.853C580.818 135.474 581.04 136.068 581.404 136.575C581.767 137.081 582.26 137.482 582.829 137.735L591.599 142.764C593.142 143.58 594.867 143.992 596.612 143.96L596.597 41.4709Z" fill="#EBEBEB"/>
<path d="M658.412 13.89L604.539 45.0123V147.501L658.412 116.394V13.89Z" fill="#EBEBEB"/>
<path d="M606.271 46.714L658.397 16.7876C661.577 20.1693 665.748 22.4559 670.309 23.3187L618.628 53.1071C618.628 53.1071 615.286 52.3252 606.271 46.714Z" fill="white"/>
<path d="M623.687 52.9232C622.133 53.7099 620.416 54.1198 618.674 54.1198C616.932 54.1198 615.215 53.7099 613.66 52.9232L604.891 47.8945C602.116 46.3614 602.116 43.7245 604.891 42.1454L656.281 12.6482L658.458 13.89L607.865 43.0192C607.506 43.143 607.195 43.3757 606.974 43.6849C606.754 43.994 606.636 44.3643 606.636 44.744C606.636 45.1237 606.754 45.4939 606.974 45.8031C607.195 46.1123 607.506 46.345 607.865 46.4687L616.021 51.0681C616.956 51.5374 617.988 51.7818 619.034 51.7818C620.08 51.7818 621.112 51.5374 622.047 51.0681L672.563 21.9389L675.031 23.3494L623.687 52.9232Z" fill="#FAFAFA"/>
<path d="M675.016 23.4873V125.976L623.687 155.412C622.133 156.199 620.416 156.609 618.674 156.609C616.932 156.609 615.214 156.199 613.66 155.412L604.891 150.383C604.321 150.13 603.829 149.73 603.465 149.223C603.101 148.716 602.879 148.122 602.821 147.501V44.9509C602.877 45.5706 603.099 46.1638 603.463 46.6683C603.827 47.1727 604.32 47.5698 604.891 47.8179L613.66 52.8771C615.217 53.6557 616.933 54.061 618.674 54.061C620.414 54.061 622.13 53.6557 623.687 52.8771L675.016 23.4873Z" fill="#EBEBEB"/>
<path d="M618.628 54.1496C616.885 54.179 615.162 53.7733 613.615 52.9691L604.845 47.9098C604.261 47.6546 603.759 47.2433 603.394 46.7213C603.029 46.1993 602.815 45.5867 602.775 44.9509V147.44C602.833 148.061 603.056 148.655 603.419 149.162C603.783 149.668 604.275 150.069 604.845 150.322L613.615 155.351C615.158 156.167 616.883 156.578 618.628 156.546V54.1496Z" fill="#F0F0F0"/>
<path d="M348.508 223.084L341.149 209.286L347.082 192.13V181.659L328.93 192.13V202.617L336.733 216.123C336.851 216.335 337.034 216.502 337.255 216.599L348.508 223.084Z" fill="#59518C"/>
<path opacity="0.2" d="M348.508 223.084L341.149 209.286L347.082 192.13V181.659L328.93 192.13V202.617L336.733 216.123C336.851 216.335 337.034 216.502 337.255 216.599L348.508 223.084Z" fill="black"/>
<path d="M391.849 98.3494C391.748 96.4604 391.202 94.6219 390.257 92.9836C389.311 91.3452 387.992 89.9532 386.407 88.9208L381.976 86.3451C380.289 85.491 378.424 85.046 376.533 85.046C374.642 85.046 372.778 85.491 371.091 86.3451L303.158 125.639C301.575 126.672 300.259 128.065 299.315 129.703C298.372 131.342 297.829 133.18 297.731 135.068V209.807C297.831 211.695 298.374 213.532 299.317 215.17C300.26 216.809 301.576 218.202 303.158 219.236L307.589 221.796C309.276 222.65 311.141 223.095 313.032 223.095C314.923 223.095 316.787 222.65 318.474 221.796L340.321 209.163L348.109 222.655C348.222 222.845 348.386 223 348.584 223.1C348.781 223.201 349.003 223.243 349.223 223.222C349.443 223.201 349.653 223.118 349.828 222.982C350.003 222.846 350.135 222.664 350.21 222.455L358.443 198.692L386.407 182.502C387.991 181.469 389.309 180.077 390.255 178.438C391.201 176.8 391.747 174.962 391.849 173.074V98.3494Z" fill="#59518C"/>
<path opacity="0.2" d="M297.731 209.822C297.831 211.71 298.374 213.548 299.317 215.186C300.26 216.824 301.576 218.217 303.158 219.251L307.589 221.811C309.123 222.582 310.803 223.019 312.518 223.093C314.233 223.167 315.944 222.876 317.539 222.24C314.979 223.206 313.032 221.765 313.032 218.668V143.914C313.081 142.029 313.608 140.188 314.565 138.563L299.234 129.717C298.276 131.347 297.748 133.193 297.7 135.083L297.731 209.822Z" fill="black"/>
<path opacity="0.5" d="M391.665 96.801C391.037 94.4859 388.936 93.7347 386.422 95.2678L318.474 134.562C316.86 135.554 315.538 136.956 314.641 138.624L299.31 129.794C300.207 128.125 301.529 126.723 303.143 125.731L371.091 86.3451C372.78 85.4981 374.644 85.057 376.533 85.057C378.423 85.057 380.287 85.4981 381.976 86.3451L386.422 88.9207C387.787 89.8076 388.956 90.9641 389.858 92.3192C390.759 93.6744 391.374 95.1995 391.665 96.801Z" fill="white"/>
<path d="M329.543 162.449C329.595 157.823 330.564 153.253 332.395 149.004V148.912C334.495 144.052 337.561 139.943 340.98 137.935C346.852 134.47 351.712 141.491 352.509 149.77C353.215 140.571 358.013 127.908 363.87 124.474C367.289 122.465 370.385 122.941 372.516 125.332C374.326 127.402 375.445 130.852 375.475 135.374C375.475 149.356 367.12 162.05 360.144 175.404L352.479 188.297L345.15 184.173C338.098 179.206 329.605 176.446 329.543 162.449Z" fill="#FAFAFA"/>
<path d="M388.277 453.281C388.277 453.281 383.386 426.62 376.641 398.396C370.922 374.54 354.778 358.075 324.883 366.752L353.169 463.139C354.172 467.246 356.213 471.027 359.096 474.119C361.979 477.212 365.608 479.512 369.634 480.801L388.277 486.734L445.094 507.569L450.843 489.662C443.101 485.109 388.277 453.281 388.277 453.281Z" fill="#FFA8A7"/>
<path d="M319.118 366.752C319.118 366.752 338.297 361.877 347.619 364.406C356.94 366.936 368.914 370.432 375.384 391.144C381.853 411.856 386.422 439.345 386.422 439.345C386.422 439.345 377.438 455.627 348.845 452.745L319.118 366.752Z" fill="#59518C"/>
<path d="M363.717 596.597L483.162 527.637L406.858 483.591L287.413 552.55L363.717 596.597Z" fill="#59518C"/>
<path opacity="0.15" d="M363.717 596.597L483.162 527.637L406.858 483.591L287.413 552.55L363.717 596.597Z" fill="black"/>
<path d="M421.852 561.213V559.066C421.852 556.445 426.544 548.932 432.4 545.544L479.85 518.163V527.729L421.852 561.213Z" fill="#F5F5F5"/>
<path d="M479.835 518.163L432.385 545.559C426.528 548.932 421.822 556.445 421.837 559.066V561.213L348.845 519.067V516.936C348.845 514.299 353.537 506.787 359.393 503.414L406.812 476.033L479.835 518.163Z" fill="#FAFAFA"/>
<path d="M479.835 518.163L432.385 545.559C426.528 548.932 421.822 556.445 421.837 559.066V561.213L348.845 519.067V516.936C348.845 514.299 353.537 506.787 359.393 503.414L406.843 476.017L479.835 518.163Z" fill="#FAFAFA"/>
<path d="M421.837 559.22L417.238 556.598L411.243 553.133C413.751 552.677 416.339 553.048 418.617 554.191C419.538 554.685 420.317 555.407 420.881 556.287C421.444 557.167 421.773 558.176 421.837 559.22Z" fill="#F0F0F0"/>
<path d="M421.837 559.22L417.238 556.598L411.243 553.133C413.751 552.677 416.339 553.048 418.617 554.191C419.538 554.685 420.317 555.407 420.881 556.287C421.444 557.167 421.773 558.176 421.837 559.22Z" fill="#E0E0E0"/>
<path d="M363.732 598.59L363.717 596.597L287.413 552.55V554.528L363.732 598.59Z" fill="#59518C"/>
<path opacity="0.3" d="M363.732 598.59L363.717 596.597L287.413 552.55V554.528L363.732 598.59Z" fill="black"/>
<path d="M363.732 598.59L483.177 529.63L483.162 527.637L363.717 596.597L363.732 598.59Z" fill="#59518C"/>
<path d="M421.837 559.22C421.837 556.598 417.008 554.406 411.105 557.763L363.686 584.945V594.773L421.822 561.213C421.822 561.213 421.868 561.857 421.837 559.22Z" fill="#F5F5F5"/>
<path d="M363.717 594.773V584.945L290.725 542.8V552.627L363.717 594.773Z" fill="#EBEBEB"/>
<path d="M411.151 557.763L409.02 558.99L363.717 584.945L299.234 547.721L290.725 542.8L338.159 515.618C342.452 513.149 344.859 513.333 346.561 514.299L420.549 557.012C417.882 555.479 414.754 555.847 411.151 557.763Z" fill="#FAFAFA"/>
<path d="M360.39 577.54L400.787 554.237L402.918 553.01L404.467 553.915L402.336 555.126L361.953 578.429L360.39 577.54Z" fill="#E0E0E0"/>
<path d="M356.664 575.379L397.062 552.075L399.177 550.864L400.741 551.753L398.61 552.98L358.213 576.283L356.664 575.379Z" fill="#E0E0E0"/>
<path d="M352.939 573.232L393.321 549.929L395.452 548.702L397.001 549.607L394.885 550.818L354.487 574.121L352.939 573.232Z" fill="#E0E0E0"/>
<path d="M349.198 571.071L389.596 547.767L391.727 546.556L393.275 547.445L391.144 548.672L350.762 571.975L349.198 571.071Z" fill="#E0E0E0"/>
<path d="M345.472 568.924L385.87 545.621L387.986 544.394L389.55 545.299L387.418 546.51L347.021 569.813L345.472 568.924Z" fill="#E0E0E0"/>
<path d="M341.747 566.762L382.129 543.459L384.26 542.248L385.824 543.137L383.693 544.364L343.296 567.667L341.747 566.762Z" fill="#E0E0E0"/>
<path d="M338.006 564.616L378.404 541.313L380.535 540.086L382.083 540.991L379.967 542.202L339.57 565.505L338.006 564.616Z" fill="#E0E0E0"/>
<path d="M334.281 562.454L374.678 539.151L376.809 537.94L378.358 538.829L376.227 540.056L335.845 563.359L334.281 562.454Z" fill="#E0E0E0"/>
<path d="M330.555 560.308L370.953 537.005L373.068 535.778L374.632 536.683L372.501 537.894L332.104 561.213L330.555 560.308Z" fill="#E0E0E0"/>
<path d="M326.83 558.162L367.212 534.843L369.343 533.632L370.892 534.521L368.776 535.748L328.378 559.051L326.83 558.162Z" fill="#E0E0E0"/>
<path d="M323.089 556L363.486 532.697L365.618 531.485L367.166 532.375L365.035 533.586L324.653 556.905L323.089 556Z" fill="#E0E0E0"/>
<path d="M319.364 553.854L359.761 530.535L361.877 529.324L363.441 530.228L361.31 531.439L320.912 554.743L319.364 553.854Z" fill="#E0E0E0"/>
<path d="M315.638 551.692L356.02 528.389L358.151 527.177L359.7 528.067L357.584 529.278L317.186 552.596L315.638 551.692Z" fill="#E0E0E0"/>
<path d="M311.897 549.546L352.295 526.227L354.426 525.016L355.974 525.92L353.859 527.131L313.461 550.435L311.897 549.546Z" fill="#E0E0E0"/>
<path d="M308.172 547.384L348.569 524.081L350.7 522.869L352.249 523.759L350.118 524.97L309.735 548.288L308.172 547.384Z" fill="#E0E0E0"/>
<path d="M304.446 545.238L344.844 521.919L346.96 520.708L348.508 521.612L346.392 522.823L305.995 546.127L304.446 545.238Z" fill="#E0E0E0"/>
<path d="M300.721 543.076L341.103 519.772L343.234 518.561L344.782 519.451L342.667 520.677L302.269 543.98L300.721 543.076Z" fill="#E0E0E0"/>
<path opacity="0.1" d="M411.596 555.218C410.722 555.31 408.867 555.908 407.84 556.138C403.532 557.104 395.927 560.584 388.63 564.233C378.894 569.108 369.726 574.305 369.726 574.305L302.944 535.794L338.206 515.633C339.548 514.806 341.012 514.195 342.544 513.824C343.619 513.99 344.657 514.343 345.61 514.867L346.086 514.054L346.622 514.315L420.549 557.012C417.915 555.264 414.7 554.62 411.596 555.218Z" fill="black"/>
<path d="M363.671 587.092L370.907 583.412L363.717 587.797L356.48 583.627L363.671 587.092Z" fill="#E6E6E6"/>
<path d="M363.717 591.998L376.993 584.347L363.732 591.492L348.799 583.381L363.717 591.998Z" fill="#E6E6E6"/>
<path d="M290.725 544.977L301.886 551.707L290.725 546.004V544.977Z" fill="#E6E6E6"/>
<path d="M290.74 548.81L307.313 558.944L290.725 549.73L290.74 548.81Z" fill="#E6E6E6"/>
<path d="M411.304 553.133C410.35 553.235 409.403 553.394 408.468 553.608C404.145 554.59 396.54 558.054 389.258 561.703C379.523 566.578 370.339 571.791 370.339 571.791L297.317 529.661C297.317 529.661 325.097 513.671 335.998 511.555C341.118 510.574 344.261 511.264 346.162 512.352L418.663 554.206C416.391 553.062 413.809 552.685 411.304 553.133Z" fill="#F5F5F5"/>
<path d="M410.385 549.346C408.106 548.205 405.52 547.829 403.01 548.273C402.057 548.388 401.11 548.552 400.174 548.764C396.066 549.93 392.074 551.469 388.246 553.363C385.87 554.452 383.402 555.647 380.964 556.874C375.108 559.802 369.45 562.853 365.878 564.831L367.534 565.781C371.106 563.819 376.733 560.768 382.62 557.84C385.057 556.613 387.526 555.417 389.902 554.314C393.729 552.418 397.721 550.879 401.83 549.714C402.768 549.487 403.721 549.323 404.681 549.224C407.184 548.784 409.762 549.155 412.04 550.281L410.385 549.346Z" fill="#E0E0E0"/>
<path d="M406.659 547.246C404.378 546.112 401.793 545.741 399.285 546.188C398.326 546.292 397.374 546.45 396.433 546.663C392.328 547.836 388.336 549.376 384.506 551.263C382.129 552.351 379.661 553.562 377.223 554.774C371.367 557.717 365.71 560.768 362.137 562.73L363.793 563.681C367.365 561.719 372.992 558.668 378.879 555.739C381.317 554.513 383.8 553.317 386.177 552.229C389.999 550.335 393.986 548.796 398.089 547.629C399.029 547.411 399.982 547.248 400.941 547.139C403.45 546.694 406.036 547.07 408.315 548.212L406.659 547.246Z" fill="#E0E0E0"/>
<path d="M402.918 545.1C400.64 543.958 398.054 543.582 395.544 544.026C394.585 544.135 393.633 544.299 392.692 544.517C388.589 545.682 384.602 547.221 380.78 549.116C378.404 550.22 375.936 551.416 373.498 552.642C367.657 555.479 361.984 558.545 358.458 560.553L360.129 561.519C363.701 559.541 369.328 556.491 375.215 553.562C377.653 552.336 380.121 551.14 382.497 550.051C386.323 548.155 390.316 546.615 394.425 545.452C395.361 545.241 396.308 545.077 397.261 544.962C399.771 544.517 402.357 544.893 404.635 546.035L402.918 545.1Z" fill="#E0E0E0"/>
<path d="M399.178 542.938C396.899 541.796 394.313 541.42 391.803 541.865C390.85 541.98 389.903 542.144 388.967 542.355C384.858 543.519 380.865 545.058 377.039 546.955C374.663 548.043 372.195 549.239 369.757 550.465C363.9 553.394 358.243 556.445 354.671 558.422L356.327 559.373C359.899 557.41 365.526 554.36 371.413 551.416C373.85 550.205 376.319 549.009 378.695 547.905C382.525 546.018 386.517 544.479 390.623 543.306C391.558 543.092 392.505 542.933 393.459 542.831C395.967 542.382 398.552 542.753 400.833 543.888L399.178 542.938Z" fill="#E0E0E0"/>
<path d="M395.437 540.776C393.163 539.636 390.582 539.26 388.078 539.703C387.119 539.817 386.168 539.981 385.226 540.194C381.118 541.359 377.126 542.899 373.299 544.793C370.922 545.881 368.454 547.093 366.016 548.304C360.16 551.247 354.503 554.298 350.93 556.261L352.586 557.211C356.158 555.249 361.785 552.198 367.672 549.27C370.11 548.043 372.578 546.847 374.954 545.743C378.781 543.848 382.774 542.308 386.882 541.144C387.822 540.926 388.774 540.763 389.734 540.653C392.243 540.21 394.829 540.586 397.108 541.727L395.437 540.776Z" fill="#E0E0E0"/>
<path d="M391.711 538.614C389.428 537.487 386.845 537.116 384.337 537.557C383.377 537.658 382.424 537.822 381.485 538.047C377.377 539.212 373.384 540.751 369.558 542.647C367.197 543.75 364.713 544.946 362.275 546.157C356.419 549.101 350.762 552.152 347.189 554.114L348.845 555.08C352.433 553.102 358.044 550.052 363.946 547.123C366.384 545.897 368.852 544.701 371.229 543.612C375.051 541.719 379.038 540.18 383.141 539.013C384.168 538.783 385.119 538.63 385.993 538.522C388.502 538.078 391.088 538.454 393.367 539.596L391.711 538.614Z" fill="#E0E0E0"/>
<path d="M387.97 536.468C385.692 535.327 383.106 534.95 380.596 535.395C379.637 535.504 378.685 535.668 377.745 535.886C373.644 537.057 369.657 538.597 365.832 540.485C363.456 541.589 360.988 542.785 358.55 544.011C352.678 546.939 347.036 549.99 343.464 551.953L345.12 552.918C348.692 550.956 354.319 547.905 360.206 544.962C362.643 543.75 365.112 542.539 367.488 541.451C371.314 539.554 375.307 538.015 379.416 536.851C380.352 536.64 381.299 536.476 382.252 536.361C384.761 535.916 387.347 536.293 389.626 537.434L387.97 536.468Z" fill="#E0E0E0"/>
<path d="M384.23 534.306C381.951 533.165 379.365 532.789 376.855 533.233C375.902 533.349 374.955 533.512 374.019 533.724C369.91 534.887 365.917 536.427 362.091 538.323C359.715 539.412 357.247 540.607 354.809 541.834C348.952 544.762 343.295 547.813 339.723 549.791L341.379 550.741C344.951 548.779 350.578 545.728 356.465 542.8C358.902 541.573 361.371 540.377 363.747 539.274C367.574 537.378 371.566 535.839 375.675 534.674C376.613 534.447 377.566 534.283 378.526 534.184C381.029 533.744 383.607 534.115 385.885 535.242L384.23 534.306Z" fill="#E0E0E0"/>
<path d="M374.786 532.037C373.826 532.146 372.874 532.31 371.934 532.528C367.626 533.494 360.022 536.974 352.724 540.623C346.868 543.551 341.21 546.602 337.638 548.564L335.982 547.614C339.555 545.651 345.181 542.601 351.068 539.657C358.351 536.008 365.97 532.543 370.278 531.562C371.219 531.348 372.171 531.189 373.13 531.087C375.633 530.64 378.213 531.011 380.489 532.145L382.16 533.111C379.881 531.969 377.295 531.593 374.786 532.037Z" fill="#E0E0E0"/>
<path d="M371.045 529.876C370.171 529.983 369.22 530.136 368.193 530.366C363.885 531.332 356.281 534.812 348.999 538.461C343.127 541.389 337.485 544.44 333.913 546.418L332.242 545.452C335.829 543.49 341.44 540.439 347.328 537.511C354.625 533.862 362.229 530.382 366.538 529.416C367.478 529.198 368.43 529.034 369.389 528.925C371.899 528.481 374.485 528.857 376.763 529.998L378.389 530.949C376.119 529.814 373.545 529.438 371.045 529.876Z" fill="#E0E0E0"/>
<path d="M367.304 527.729C366.35 527.832 365.403 527.99 364.468 528.205C360.144 529.186 352.54 532.651 345.258 536.299C339.401 539.243 333.744 542.294 330.172 544.256L328.516 543.306C332.088 541.328 337.715 538.277 343.602 535.349C350.884 531.7 358.489 528.22 362.812 527.254C363.748 527.043 364.695 526.879 365.648 526.763C368.158 526.319 370.744 526.695 373.022 527.837L374.678 528.787C372.397 527.652 369.812 527.281 367.304 527.729Z" fill="#E0E0E0"/>
<path d="M363.579 525.568C362.619 525.675 361.667 525.839 360.727 526.058C356.419 527.024 348.799 530.504 341.517 534.153C335.661 537.081 330.003 540.132 326.431 542.095L324.775 541.144C328.348 539.182 333.974 536.131 339.861 533.187C347.144 529.538 354.748 526.074 359.071 525.092C360.008 524.881 360.954 524.717 361.907 524.602C364.417 524.157 367.003 524.534 369.282 525.675L370.953 526.641C368.673 525.502 366.088 525.125 363.579 525.568Z" fill="#E0E0E0"/>
<path d="M359.838 523.406C358.964 523.513 358.013 523.667 356.986 523.897C352.678 524.862 345.074 528.343 337.776 531.991C331.92 534.92 326.278 537.971 322.69 539.948L321.035 538.982C324.607 537.02 330.233 533.969 336.121 531.041C343.403 527.377 351.022 523.912 355.33 522.946C356.269 522.721 357.222 522.557 358.182 522.455C360.69 522.016 363.273 522.386 365.556 523.513L367.212 524.479C364.933 523.338 362.347 522.961 359.838 523.406Z" fill="#E0E0E0"/>
<path d="M356.097 521.244C355.144 521.36 354.197 521.523 353.261 521.735C348.937 522.716 341.333 526.181 334.051 529.83C328.179 532.773 322.537 535.824 318.965 537.787L317.294 536.821C320.881 534.858 326.492 531.807 332.395 528.879C339.677 525.23 347.281 521.75 351.59 520.784C352.53 520.567 353.482 520.403 354.441 520.294C356.951 519.849 359.537 520.226 361.815 521.367L363.471 522.317C361.192 521.176 358.606 520.8 356.097 521.244Z" fill="#E0E0E0"/>
<path d="M352.325 519.098C351.365 519.197 350.412 519.361 349.474 519.588C345.15 520.554 337.546 524.019 330.264 527.683C324.407 530.612 318.75 533.662 315.178 535.625L313.522 534.674C317.094 532.697 322.721 529.646 328.608 526.717C335.89 523.069 343.495 519.588 347.818 518.623C348.755 518.411 349.701 518.247 350.654 518.132C353.164 517.688 355.75 518.064 358.029 519.205L359.684 520.156C357.406 519.029 354.828 518.659 352.325 519.098Z" fill="#E0E0E0"/>
<path d="M348.631 516.936C347.671 517.045 346.719 517.209 345.779 517.427C341.471 518.393 333.851 521.873 326.569 525.522C320.713 528.45 315.055 531.501 311.483 533.463L309.827 532.513C313.4 530.55 319.026 527.499 324.913 524.556C332.196 520.907 339.815 517.442 344.123 516.461C345.063 516.245 346.016 516.087 346.975 515.986C349.478 515.539 352.058 515.91 354.334 517.044L356.005 518.009C353.726 516.869 351.14 516.493 348.631 516.936Z" fill="#E0E0E0"/>
<path d="M344.89 514.775C344.016 514.882 343.065 515.035 342.038 515.265C337.73 516.231 330.126 519.711 322.844 523.36C316.972 526.288 311.33 529.339 307.742 531.317L306.087 530.351C309.659 528.389 315.285 525.338 321.173 522.409C328.47 518.761 336.074 515.28 340.383 514.315C341.323 514.097 342.275 513.933 343.234 513.824C345.744 513.379 348.33 513.756 350.608 514.897L352.264 515.848C349.985 514.706 347.399 514.33 344.89 514.775Z" fill="#E0E0E0"/>
<path d="M425.562 541.681C423.326 543.032 421.327 544.741 419.645 546.74L418.112 545.866C419.794 543.867 421.793 542.158 424.029 540.807L466.543 516.277L468.076 517.166L425.562 541.681Z" fill="#E0E0E0"/>
<path d="M421.822 539.458C419.59 540.809 417.596 542.518 415.919 544.517L414.386 543.643C416.058 541.64 418.053 539.93 420.288 538.584L462.817 514.054L464.35 514.928L421.822 539.458Z" fill="#E0E0E0"/>
<path d="M418.096 537.296C415.863 538.651 413.865 540.36 412.178 542.355L410.645 541.481C412.331 539.486 414.33 537.778 416.563 536.422L459.076 511.892L460.61 512.781L418.096 537.296Z" fill="#E0E0E0"/>
<path d="M414.355 535.15C412.12 536.496 410.125 538.206 408.453 540.209L406.92 539.32C408.597 537.326 410.591 535.621 412.822 534.276L455.351 509.746L456.884 510.62L414.355 535.15Z" fill="#E0E0E0"/>
<path d="M410.584 532.988C408.351 534.343 406.352 536.052 404.666 538.047L403.133 537.173C404.819 535.178 406.818 533.47 409.051 532.114L451.579 507.584L453.113 508.458L410.584 532.988Z" fill="#E0E0E0"/>
<path d="M406.889 530.842C404.654 532.188 402.659 533.898 400.986 535.901L399.453 535.012C401.13 533.018 403.125 531.313 405.356 529.968L447.885 505.438L449.418 506.312L406.889 530.842Z" fill="#E0E0E0"/>
<path d="M403.164 528.68C400.932 530.032 398.938 531.741 397.261 533.739L395.728 532.865C397.401 530.863 399.396 529.153 401.631 527.806L444.159 503.276L445.692 504.15L403.164 528.68Z" fill="#E0E0E0"/>
<path d="M399.423 526.533C397.192 527.879 395.197 529.583 393.52 531.577L391.987 530.704C393.668 528.709 395.661 527 397.89 525.644L440.418 501.114L441.952 501.988L399.423 526.533Z" fill="#E0E0E0"/>
<path d="M395.697 524.372C393.463 525.719 391.468 527.429 389.795 529.431L388.262 528.557C389.935 526.555 391.93 524.845 394.164 523.498L436.693 498.968L438.226 499.842L395.697 524.372Z" fill="#E0E0E0"/>
<path d="M391.972 522.225C389.736 523.571 387.737 525.275 386.054 527.269L384.521 526.396C386.204 524.397 388.203 522.688 390.439 521.336L432.952 496.806L434.485 497.68L391.972 522.225Z" fill="#E0E0E0"/>
<path d="M388.231 520.064C385.999 521.415 384.005 523.124 382.329 525.123L380.795 524.249C382.468 522.246 384.463 520.536 386.698 519.19L429.227 494.66L430.76 495.534L388.231 520.064Z" fill="#E0E0E0"/>
<path d="M384.521 517.902C382.288 519.257 380.289 520.966 378.603 522.961L377.07 522.087C378.756 520.092 380.755 518.384 382.988 517.028L425.517 492.498L427.05 493.388L384.521 517.902Z" fill="#E0E0E0"/>
<path d="M380.765 515.756C378.529 517.102 376.535 518.812 374.862 520.815L373.329 519.926C375.006 517.932 377 516.227 379.232 514.882L421.76 490.352L423.293 491.226L380.765 515.756Z" fill="#E0E0E0"/>
<path d="M377.039 513.594C374.806 514.949 372.808 516.658 371.121 518.653L369.588 517.779C371.275 515.784 373.273 514.076 375.506 512.72L418.035 488.19L419.568 489.064L377.039 513.594Z" fill="#E0E0E0"/>
<path d="M373.298 511.448C371.063 512.794 369.068 514.504 367.396 516.507L365.863 515.618C367.54 513.624 369.534 511.919 371.765 510.574L414.294 486.044L415.827 486.918L373.298 511.448Z" fill="#E0E0E0"/>
<path d="M369.573 509.286C367.342 510.638 365.348 512.347 363.671 514.345L362.137 513.471C363.81 511.469 365.805 509.759 368.04 508.412L410.569 483.882L412.102 484.756L369.573 509.286Z" fill="#E0E0E0"/>
<path d="M365.847 507.14C363.608 508.481 361.608 510.185 359.93 512.184L358.396 511.31C360.075 509.311 362.075 507.607 364.314 506.266L406.828 481.736L408.361 482.61L365.847 507.14Z" fill="#E0E0E0"/>
<path d="M469.885 526.534L479.819 521.275L479.835 520.462L469.885 526.534Z" fill="#E6E6E6"/>
<path d="M479.835 524.203L463.246 533.478L479.835 523.605V524.203Z" fill="#E6E6E6"/>
<path opacity="0.02" d="M308.693 523.421C317.662 518.684 329.666 512.781 335.998 511.555C341.118 510.574 344.261 511.264 346.162 512.352L418.663 554.206C416.385 553.064 413.797 552.692 411.289 553.148C411.289 553.148 375.414 531.24 352.325 523.759C338.138 519.31 322.947 519.193 308.693 523.421Z" fill="black"/>
<path d="M143.07 267.636C141.596 273.337 139.599 278.89 137.107 284.224C135.573 287.505 133.534 292.703 129.763 292.442C130.024 291.553 130.254 290.679 130.437 289.851C130.437 289.851 130.192 286.309 118.694 283.443C107.195 280.576 104.145 283.443 104.145 283.443L103.639 285.359C101.627 284.738 99.6514 284.006 97.7208 283.167C95.0378 281.971 90.7298 279.978 89.2886 277.264C88.795 276.24 88.4738 275.142 88.3381 274.014C87.9548 271.822 87.5562 269.645 87.1729 267.452C86.4699 264.44 86.2372 261.337 86.483 258.253C86.541 257.159 86.8557 256.093 87.4017 255.142C87.9476 254.191 88.7096 253.382 89.6259 252.78C90.733 252.283 91.9394 252.047 93.1521 252.09C97.3375 251.891 102.642 250.097 106.797 249.699C110.676 249.315 114.462 248.411 118.311 248.074C122.275 247.89 126.24 248.409 130.024 249.607C138.18 252.182 145.247 259.587 143.07 267.636Z" fill="#455A64"/>
<path d="M97.6441 272.113C98.334 264.202 98.5947 252.443 98.5947 252.443L97.9201 252.581C93.8113 253.255 88.6294 255.402 84.4747 255.908C83.2624 255.944 82.0756 256.264 81.0098 256.843C80.1354 257.508 79.4298 258.369 78.9504 259.357C78.4709 260.345 78.2311 261.433 78.2502 262.531C78.2212 265.647 78.671 268.75 79.584 271.73L81.1171 278.184C81.339 279.301 81.732 280.376 82.2823 281.373C83.9227 283.964 88.4148 285.65 91.1131 286.662C93.0965 287.369 95.1184 287.962 97.1689 288.441L97.5522 286.493C97.1607 281.707 97.1915 276.894 97.6441 272.113Z" fill="#37474F"/>
<path d="M71.7652 289.774L66.5833 270.534L96.5097 269.752L102.949 287.505C102.949 287.505 100.189 290.311 98.6101 292.197C95.9668 295.448 92.3055 297.713 88.2167 298.629C84.1279 299.544 79.8501 299.055 76.0732 297.241C75.2408 296.869 74.4824 296.349 73.8349 295.707L71.7652 289.774Z" fill="#FFA8A7"/>
<path d="M10.0572 212.996C9.42861 218.883 10.2258 231.209 17.8761 238.384C25.5263 245.559 43.6171 255.111 51.0374 259.403C60.6347 264.953 67.0738 276.789 67.0738 276.789C67.0738 276.789 71.6731 282.216 84.72 280.238C93.9187 278.843 98.0121 275.179 99.2999 272.573C99.2999 272.573 99.6678 268.311 99.9438 265.904C100.933 258.786 100.969 251.568 100.051 244.44L10.0572 212.996Z" fill="#455A64"/>
<path d="M95.6205 251.922C88.0622 257.548 75.3373 258.913 60.6041 250.389C45.8708 241.864 26.109 232.865 18.428 226.963C8.04885 218.99 2.5143 202.433 31.0456 204.134C52.2793 205.33 63.9003 221.167 74.4481 225.184C84.996 229.201 110.231 240.96 95.6205 251.922Z" fill="#37474F"/>
<path d="M121.438 423.048C104.574 415.137 100.266 412.224 96.0036 405.019C88.6294 392.478 80.1512 332.579 70.8452 286.616C75.2913 291.737 99.4378 285.957 100.557 279.978C100.557 279.978 139.82 361.693 145.508 390.684C164.626 393.551 193.541 397.905 202.831 399.883C248.993 410.017 260.17 430.729 270.12 448.13L238.032 480.525C206.265 462.649 138.21 430.944 121.438 423.048Z" fill="#59518C"/>
<path opacity="0.4" d="M121.438 423.048C104.574 415.137 100.266 412.224 96.0036 405.019C88.6294 392.478 80.1512 332.579 70.8452 286.616C75.2913 291.737 99.4378 285.957 100.557 279.978C100.557 279.978 139.82 361.693 145.508 390.684C164.626 393.551 193.541 397.905 202.831 399.883C248.993 410.017 260.17 430.729 270.12 448.13L238.032 480.525C206.265 462.649 138.21 430.944 121.438 423.048Z" fill="black"/>
<path d="M130.437 289.851C130.254 290.679 130.024 291.553 129.763 292.442C128.23 298.436 126.528 305.305 126.497 305.826L100.572 297.072L103.639 285.374L104.145 283.458C104.145 283.458 107.211 280.591 118.694 283.458C130.177 286.325 130.437 289.851 130.437 289.851Z" fill="#FFA8A7"/>
<path d="M190.95 505.101C138.578 487.163 78.1276 455.888 66.5065 440.403C54.8855 424.919 99.1773 295.769 99.1773 295.769C102.795 292.35 128.414 297.808 127.954 304.968C125.44 341.195 127.663 388.967 116.793 410.446C135.531 412.653 154.081 416.24 172.292 421.178C200.486 412.148 224.632 426.62 224.632 426.62L190.95 505.101Z" fill="#59518C"/>
<path opacity="0.3" d="M190.95 505.101C138.578 487.163 78.1276 455.888 66.5065 440.403C54.8855 424.919 99.1773 295.769 99.1773 295.769C102.795 292.35 128.414 297.808 127.954 304.968C125.44 341.195 127.663 388.967 116.793 410.446C135.531 412.653 154.081 416.24 172.292 421.178C200.486 412.148 224.632 426.62 224.632 426.62L190.95 505.101Z" fill="black"/>
<path opacity="0.05" d="M91.7723 413.972C107.931 415.291 116.793 410.431 116.793 410.431C119.404 404.888 121.241 399.012 122.251 392.968C117.437 407.042 91.7723 413.972 91.7723 413.972Z" fill="black"/>
<path d="M303.634 366.905C285.65 374.264 278.23 376.273 269.598 380.703C259.986 385.64 257.088 392.401 250.588 401.876C244.302 408.484 237.878 411.366 234.245 410.507C227.974 409.94 203.904 419.706 191.977 443.086C179.298 467.876 181.828 492.882 190.076 506.71C209.194 512.643 231.884 520.508 270.012 517.749C287.413 516.461 313.216 500.225 323.886 489.754C347.864 466.251 356.189 447.164 362.122 418.433C369.404 383.034 352.847 346.684 303.634 366.905Z" fill="#455A64"/>
<path d="M380.069 351.419C397.304 342.01 403.648 320.412 394.24 303.177C384.832 285.943 363.233 279.598 345.999 289.007C328.764 298.415 322.42 320.013 331.828 337.248C341.236 354.482 362.835 360.827 380.069 351.419Z" fill="#263238"/>
<path d="M313.675 353.751L305.381 373.682C303.143 379.814 304.829 391.405 319.747 397.062C322.452 398.215 325.412 398.64 328.333 398.296C331.253 397.952 334.033 396.85 336.396 395.099L345.181 382.421L313.675 353.751Z" fill="#FFA8A7"/>
<path d="M303.634 337.776C303.634 337.776 305.458 347.435 307.436 351.743C308.463 353.754 309.949 355.496 311.773 356.827C313.597 358.159 315.709 359.043 317.938 359.408L319.118 346.009L303.634 337.776Z" fill="#263238"/>
<path d="M312.802 301.533C310.898 301.188 308.94 301.285 307.079 301.817C305.218 302.349 303.504 303.301 302.07 304.6C297.302 308.892 298.896 323.38 303.603 337.776L313.783 339.616L312.802 301.533Z" fill="#263238"/>
<path d="M304.063 347.849C304.652 348.267 305.291 348.612 305.964 348.876C308.04 349.771 310.281 350.22 312.541 350.194C313.941 350.281 315.332 349.922 316.516 349.17C317.7 348.419 318.616 347.312 319.133 346.009L318.152 356.955L315.623 385.701C317.025 385.658 318.423 385.525 319.808 385.303C323.827 384.639 327.793 383.686 331.674 382.451C335.323 381.332 337.699 380.351 337.699 380.351C342.377 382.261 347.182 383.844 352.08 385.088C352.08 385.088 362.137 387.265 367.151 386.821C375.475 386.085 381.102 379.891 384.184 371.121C389.105 357.017 391.374 345.534 389.764 317.079C387.986 285.896 352.034 283.274 331.828 294.282C311.621 305.289 318.443 331.552 318.443 331.552C317.125 327.382 316.22 324.622 313.844 321.816C311.468 319.011 301.932 317.217 297.271 325.603C292.963 333.33 298.314 344.031 304.063 347.849Z" fill="#FFA8A7"/>
<path d="M341.057 311.085C341.019 312.249 340.854 313.405 340.566 314.534C340.566 314.795 340.49 315.055 340.459 315.301C338.964 323.967 334.484 331.837 327.795 337.546C326.84 338.375 325.814 339.119 324.729 339.769C323.579 340.459 321.663 341.456 320.452 340.72C319.241 339.984 319.271 338.849 319.164 337.516C319.026 335.514 318.77 333.523 318.397 331.552C315.331 322.46 312.541 320.421 309.199 319.639C309.674 316.65 310.303 313.691 310.809 310.916C311.314 308.141 311.836 305.535 312.342 302.852C313.032 299.479 311.621 296.167 311.728 292.687C311.724 289.838 312.674 287.069 314.427 284.822C315.804 283.331 317.467 282.132 319.317 281.296C326.983 277.494 335.706 276.697 344 274.55C348.722 273.385 353.322 271.806 357.967 270.442C361.033 269.507 364.452 268.679 367.58 269.614C370.707 270.549 373.298 273.983 372.179 277.049C376.641 274.183 381.01 273.769 385.625 276.314C387.587 277.346 389.174 278.972 390.157 280.96C391.14 282.948 391.469 285.196 391.098 287.383C394.078 286.954 397.115 287.548 399.714 289.069C400.999 289.851 402.021 290.997 402.652 292.363C403.283 293.728 403.493 295.25 403.255 296.735C402.675 298.681 401.528 300.411 399.959 301.702C395.866 305.565 390.408 307.957 385.211 310.011C379.315 312.276 373.114 313.651 366.813 314.09C358.113 314.842 349.35 313.82 341.057 311.085Z" fill="#263238"/>
<path d="M312.664 303.802L300.675 296.382C301.124 295.57 301.733 294.858 302.465 294.289C303.197 293.719 304.038 293.305 304.935 293.069C305.832 292.834 306.768 292.784 307.685 292.921C308.603 293.058 309.483 293.38 310.272 293.868C311.865 294.904 313 296.512 313.445 298.359C313.89 300.207 313.61 302.154 312.664 303.802Z" fill="#263238"/>
<path d="M319.747 362.444C319.747 362.444 321.387 372.241 324.929 377.407C326.109 379.124 331.736 384.414 341.793 387.449L344.859 383.018L337.73 380.336C334.803 379.189 332.023 377.697 329.451 375.889C325.542 372.885 320.62 365.05 319.747 362.444Z" fill="#F28F8F"/>
<path d="M359.531 345.334C359.457 346.059 359.172 346.745 358.711 347.309C358.25 347.872 357.633 348.287 356.938 348.503C356.242 348.718 355.499 348.724 354.8 348.52C354.101 348.316 353.478 347.911 353.007 347.355C352.537 346.799 352.241 346.117 352.156 345.394C352.07 344.671 352.199 343.939 352.527 343.289C352.855 342.638 353.367 342.099 353.999 341.738C354.631 341.376 355.355 341.209 356.082 341.256C356.576 341.297 357.058 341.435 357.499 341.662C357.94 341.889 358.332 342.201 358.653 342.58C358.973 342.958 359.216 343.397 359.366 343.869C359.517 344.342 359.573 344.84 359.531 345.334Z" fill="#263238"/>
<path d="M356.572 331.644L347.803 333.805C347.54 332.61 347.75 331.359 348.386 330.314C349.023 329.269 350.039 328.509 351.222 328.194C351.8 328.055 352.401 328.035 352.988 328.134C353.575 328.234 354.135 328.452 354.635 328.774C355.135 329.097 355.565 329.517 355.898 330.01C356.231 330.504 356.46 331.059 356.572 331.644Z" fill="#263238"/>
<path d="M353.629 367.626L361.862 371.336C361.642 371.89 361.313 372.393 360.894 372.817C360.476 373.241 359.976 373.576 359.425 373.802C358.874 374.028 358.283 374.14 357.688 374.133C357.092 374.126 356.504 373.998 355.959 373.758C354.852 373.237 353.99 372.307 353.555 371.163C353.12 370.019 353.147 368.751 353.629 367.626Z" fill="#F28F8F"/>
<path d="M388.89 332.748L380.673 328.792C380.906 328.246 381.248 327.753 381.677 327.343C382.106 326.932 382.615 326.614 383.171 326.406C383.727 326.198 384.32 326.105 384.913 326.133C385.506 326.161 386.087 326.31 386.621 326.569C387.719 327.113 388.565 328.057 388.988 329.206C389.41 330.355 389.375 331.623 388.89 332.748Z" fill="#263238"/>
<path d="M385.088 344.154C385.011 344.877 384.724 345.562 384.261 346.123C383.798 346.684 383.181 347.097 382.486 347.31C381.79 347.523 381.047 347.527 380.35 347.322C379.652 347.116 379.03 346.71 378.562 346.154C378.093 345.598 377.798 344.916 377.714 344.193C377.629 343.471 377.759 342.74 378.087 342.09C378.415 341.441 378.926 340.903 379.558 340.542C380.189 340.181 380.913 340.013 381.639 340.061C382.135 340.101 382.618 340.239 383.06 340.467C383.502 340.695 383.895 341.009 384.215 341.389C384.536 341.77 384.778 342.21 384.928 342.684C385.078 343.159 385.132 343.658 385.088 344.154Z" fill="#263238"/>
<path d="M369.113 341.21L365.618 363.379L379.186 362.827L369.113 341.21Z" fill="#F28F8F"/>
<path d="M464.35 514.958C462.817 511.233 463.323 505.07 460.916 499.627C459.26 495.917 455.887 493.004 450.844 489.647L447.379 499.459L451.518 501.85C453.051 504.15 453.649 508.228 455.811 512.184C459.429 518.684 465.776 518.27 464.35 514.958Z" fill="#FFA8A7"/>
<path d="M272.91 381.547C248.733 387.418 243.781 398.411 233.907 433.673C227.545 456.47 216.645 507.584 215.51 517.641C213.977 531.118 214.146 532.267 227.637 541.42C240.178 549.929 307.85 587.613 323.212 592.856C338.573 598.099 357.017 594.757 357.017 594.757L329.329 578.705C329.329 578.705 331.659 577.893 338.604 575.838C345.549 573.784 349.045 572.665 351.59 570.135C354.134 567.606 352.065 564.861 343.832 565.536C335.599 566.211 325.435 561.259 314.841 562.623L260.246 517.641L277.433 443.301C277.433 443.301 292.12 392.079 272.91 381.547Z" fill="#FFA8A7"/>
<path d="M277.693 376.947C252.918 383.463 242.432 391.819 236.974 407.303C231.592 422.481 221.934 469.839 221.934 469.839C221.934 469.839 229.599 477.75 244.578 481.766C259.557 485.783 269.322 481.766 269.322 481.766C269.322 481.766 282.676 433.09 285.221 421.975C292.197 391.65 277.693 376.947 277.693 376.947Z" fill="#59518C"/>
</svg>
