<svg width="733" height="645" viewBox="0 0 733 645" fill="none" xmlns="http://www.w3.org/2000/svg">
<path d="M521.582 185.844H480.985V203H521.582V185.844Z" fill="#EBEBEB"/>
<path d="M498.937 207.477H458.34V224.632H498.937V207.477Z" fill="#EBEBEB"/>
<path d="M544.241 207.477H503.644V224.632H544.241V207.477Z" fill="#EBEBEB"/>
<path d="M689.979 348.37H649.382V365.526H689.979V348.37Z" fill="#EBEBEB"/>
<path d="M689.979 23.2881H649.382V40.4437H689.979V23.2881Z" fill="#EBEBEB"/>
<path d="M712.623 44.9203H672.026V62.0759H712.623V44.9203Z" fill="#EBEBEB"/>
<path d="M66.0925 73.4823H25.4956V90.6379H66.0925V73.4823Z" fill="#EBEBEB"/>
<path d="M22.5828 399.653H63.1797V382.497H22.5828V399.653Z" fill="#EBEBEB"/>
<path d="M45.2422 378.021H85.8391V360.865H45.2422V378.021Z" fill="#EBEBEB"/>
<path d="M647.496 126.451H375.322V138.379H647.496V126.451Z" fill="#EBEBEB"/>
<path d="M402.52 138.394H390.577V177.872H402.52V138.394Z" fill="#EBEBEB"/>
<path d="M402.52 138.394H390.577V150.598H402.52V138.394Z" fill="#DBDBDB"/>
<path d="M632.242 138.394H620.299V177.872H632.242V138.394Z" fill="#EBEBEB"/>
<path d="M632.242 138.394H620.299V150.598H632.242V138.394Z" fill="#DBDBDB"/>
<path d="M445.278 126.451V50.3936H426.13V126.451H445.278Z" fill="#C7C7C7"/>
<path d="M445.294 54.6863V46.3308H426.145V54.6863H445.294Z" fill="#DBDBDB"/>
<path d="M445.278 68.4844V65.3875H426.13V68.4844H445.278Z" fill="#DBDBDB"/>
<path d="M447.67 116.486V108.131H426.13V116.486H447.67Z" fill="#DBDBDB"/>
<path d="M458.662 126.467V37.73H445.278V126.467H458.662Z" fill="#DBDBDB"/>
<path d="M455.933 80.1974V46.0702H447.9V80.1974H455.933Z" fill="#EBEBEB"/>
<path d="M553.885 116.987L490.778 54.6033L481.369 64.1216L544.475 126.506L553.885 116.987Z" fill="#C7C7C7"/>
<path d="M537.201 104.208L512.93 80.2162L507.283 85.9294L531.553 109.922L537.201 104.208Z" fill="#DBDBDB"/>
<path d="M481.383 126.467V59.071H458.647V126.467H481.383Z" fill="#A6A6A6"/>
<path d="M481.398 119.322V113.037H458.662V119.322H481.398Z" fill="#C7C7C7"/>
<path d="M481.383 108.928V106.49H458.647V108.928H481.383Z" fill="#C7C7C7"/>
<path d="M426.13 126.467V63.1338H410.431V126.467H426.13Z" fill="#A6A6A6"/>
<path d="M426.114 119.752V113.849H410.415V119.752H426.114Z" fill="#C7C7C7"/>
<path d="M426.114 82.0984V76.1959H410.415V82.0984H426.114Z" fill="#C7C7C7"/>
<path d="M426.114 88.4149V86.1305H410.415V88.4149H426.114Z" fill="#C7C7C7"/>
<path d="M618.873 96.939L617.156 101.462L616.114 104.221L614.412 108.744L607.712 126.467H571.561L564.846 108.744L563.144 104.221L562.102 101.462L560.385 96.939L573.723 77.499L566.809 64.6669H612.48L605.535 77.499L618.873 96.939Z" fill="#DBDBDB"/>
<path d="M618.873 96.939L617.156 101.462H562.102L560.385 96.939H618.873Z" fill="#A6A6A6"/>
<path d="M616.113 104.221L614.412 108.744H564.846L563.144 104.221H616.113Z" fill="#A6A6A6"/>
<path d="M300.966 0H97.031V312.694H300.966V0Z" fill="#EBEBEB"/>
<path d="M194.246 12.5256H108.131V151.61H194.246V12.5256Z" fill="white"/>
<path d="M289.836 12.5256H203.72V151.61H289.836V12.5256Z" fill="white"/>
<path d="M194.246 161.085H108.131V300.169H194.246V161.085Z" fill="white"/>
<path d="M289.836 161.085H203.72V300.169H289.836V161.085Z" fill="white"/>
<path d="M145.339 0H97.031V447.363H145.339V0Z" fill="#DBDBDB"/>
<path d="M136.171 21.2643L136.539 69.6341L136.677 118.004L136.938 214.744L136.677 311.483L136.539 359.853L136.171 408.223L135.788 359.853L135.65 311.483L135.405 214.744L135.665 118.004L135.788 69.6341L136.171 21.2643Z" fill="#EBEBEB"/>
<path d="M113.987 32.4868L114.355 75.6747L114.57 118.863L114.754 205.238L114.57 291.629L114.355 334.817L113.987 378.005L113.619 334.817L113.405 291.629L113.221 205.238L113.405 118.863L113.619 75.6747L113.987 32.4868Z" fill="#EBEBEB"/>
<path d="M125.072 42.682L125.455 93.2595L125.593 143.822L125.838 244.977L125.593 346.116L125.455 396.694L125.072 447.256L124.704 396.694L124.566 346.116L124.32 244.977L124.566 143.822L124.704 93.2595L125.072 42.682Z" fill="#EBEBEB"/>
<path d="M105.739 23.8247L106.107 76.7479L106.245 129.686L106.506 235.533L106.245 341.394L106.122 394.333L105.739 447.256L105.371 394.333L105.233 341.394L104.972 235.533L105.233 129.686L105.371 76.7479L105.739 23.8247Z" fill="#EBEBEB"/>
<path d="M252.642 447.363H300.951L300.951 3.05176e-05H252.642L252.642 447.363Z" fill="#DBDBDB"/>
<path d="M261.81 21.2643L262.178 69.6341L262.316 118.004L262.577 214.744L262.316 311.483L262.194 359.853L261.81 408.223L261.442 359.853L261.304 311.483L261.044 214.744L261.304 118.004L261.442 69.6341L261.81 21.2643Z" fill="#EBEBEB"/>
<path d="M283.994 32.4868L284.362 75.6747L284.577 118.863L284.761 205.238L284.577 291.629L284.362 334.817L283.994 378.005L283.611 334.817L283.396 291.629L283.228 205.238L283.396 118.863L283.611 75.6747L283.994 32.4868Z" fill="#EBEBEB"/>
<path d="M272.895 42.682L273.278 93.2595L273.416 143.822L273.661 244.977L273.416 346.116L273.278 396.694L272.895 447.256L272.527 396.694L272.389 346.116L272.128 244.977L272.389 143.822L272.527 93.2595L272.895 42.682Z" fill="#EBEBEB"/>
<path d="M292.243 23.8247L292.611 76.7479L292.749 129.686L293.009 235.533L292.749 341.394L292.611 394.333L292.243 447.256L291.859 394.333L291.721 341.394L291.476 235.533L291.737 129.686L291.859 76.7479L292.243 23.8247Z" fill="#EBEBEB"/>
<path d="M0 467.922L91.527 467.539L183.039 467.416L366.078 467.156L549.116 467.416L640.628 467.539L732.155 467.922L640.628 468.29L549.116 468.428L366.078 468.689L183.039 468.428L91.527 468.29L0 467.922Z" fill="#263238"/>
<path d="M611.131 644.675C665.151 644.675 708.944 637.503 708.944 628.654C708.944 619.806 665.151 612.633 611.131 612.633C557.11 612.633 513.318 619.806 513.318 628.654C513.318 637.503 557.11 644.675 611.131 644.675Z" fill="#EBEBEB"/>
<path d="M358.964 603.818C531.923 603.818 672.134 586.363 672.134 564.831C672.134 543.299 531.923 525.844 358.964 525.844C186.005 525.844 45.7942 543.299 45.7942 564.831C45.7942 586.363 186.005 603.818 358.964 603.818Z" fill="#EBEBEB"/>
<path d="M519.144 492.713H211.769L308.279 267.437H615.669L519.144 492.713Z" fill="#263238"/>
<path d="M310.548 272.235H613.615L519.144 492.713H217.227L310.548 272.235Z" fill="#EBEBEB"/>
<path d="M310.548 272.235C311.774 293.477 309.337 314.77 303.342 335.185C293.454 367.534 244.455 432.323 234.919 476.017L217.227 492.713H519.144L613.615 272.235H310.548Z" fill="#DBDBDB"/>
<path d="M310.548 272.235C309.457 290.342 306.675 308.306 302.239 325.895C300.007 334.72 296.878 343.294 292.902 351.482C288.946 359.669 284.623 367.626 280.269 375.583C271.454 391.405 262.546 407.18 254.375 423.324C250.251 431.388 246.448 439.59 242.876 447.854C239.337 456.186 236.23 464.696 233.57 473.35C235.954 464.6 238.826 455.991 242.171 447.563C245.621 439.177 249.315 430.898 253.317 422.757C261.289 406.46 270.181 390.669 278.935 374.801C283.32 366.875 287.674 358.949 291.645 350.823C295.6 342.718 298.767 334.252 301.104 325.542C303.501 316.818 305.44 307.976 306.915 299.05C308.463 290.234 309.644 281.25 310.548 272.235Z" fill="#DBDBDB"/>
<path d="M307.451 285.313C305.146 302.757 300.755 319.861 294.374 336.258C291.173 344.451 287.523 352.46 283.442 360.252C279.456 368.086 275.317 375.828 271.178 383.586C262.883 399.04 254.865 414.647 247.859 430.698C246.05 434.7 244.44 438.778 242.754 442.825C241.067 446.873 239.565 450.982 238.154 455.09C235.088 463.323 232.727 471.755 230.366 480.218C234.344 463.092 239.828 446.352 246.755 430.192C253.562 413.987 261.611 398.334 269.752 382.819C273.891 375.154 278.077 367.365 282.017 359.577C285.957 351.789 289.836 343.893 293.101 335.783C296.362 327.654 299.177 319.352 301.533 310.916C304.024 302.51 306 293.96 307.451 285.313Z" fill="#DBDBDB"/>
<path d="M406.444 505.208H701.661L601.733 272.174H310.548C310.548 272.174 309.398 307.436 328.715 358.489C346.913 406.628 380.581 435.528 406.444 505.208Z" fill="white"/>
<path d="M404.712 505.208C400.511 495.396 395.942 485.768 390.837 476.416C385.732 467.064 380.197 458.019 374.433 448.988C362.934 431.066 350.041 414.049 338.834 395.774C333.187 386.63 328.242 377.072 324.039 367.181C320.03 357.178 317.12 346.768 315.362 336.136C313.438 325.599 312.107 314.963 311.376 304.278C310.556 293.618 310.28 282.923 310.548 272.235C311.858 293.489 314.417 314.647 318.213 335.599C319.225 340.812 320.467 345.963 321.801 351.084C323.108 356.193 324.731 361.216 326.661 366.124C330.754 375.903 335.582 385.359 341.103 394.41C352.065 412.623 364.606 429.947 375.889 448.069C387.324 466.137 396.976 485.273 404.712 505.208Z" fill="white"/>
<path d="M313.43 278.966C314.871 287.996 316.696 296.965 318.842 305.841C320.988 314.718 323.441 323.534 326.216 332.211C331.636 349.65 338.779 366.506 347.542 382.528C351.978 390.51 356.475 398.467 361.033 406.399L374.755 430.146C379.354 438.088 383.77 446.076 387.94 454.232C392.11 462.388 395.912 470.713 399.315 479.206C391.791 462.544 383.251 446.36 373.743 430.744C364.406 415.015 355.146 399.224 346.147 383.218C337.388 367.089 330.319 350.099 325.051 332.518C319.673 315.027 315.785 297.112 313.43 278.966Z" fill="#EBEBEB"/>
<path d="M412.531 510.006H719.905L615.868 267.437H308.478L412.531 510.006Z" fill="#37474F"/>
<path d="M610.932 510.006H678.557L574.52 267.437H506.894L610.932 510.006Z" fill="#455A64"/>
<path d="M444.496 510.006H468.98L364.943 267.437H340.444L444.496 510.006Z" fill="#455A64"/>
<path d="M310.548 272.235H617.922L621.188 264.555H305.075L310.548 272.235Z" fill="#37474F"/>
<path d="M577.172 575.44H562.991V604.063H577.172V575.44Z" fill="#37474F"/>
<path d="M588.349 575.44H582.431V604.063H588.349V575.44Z" fill="#37474F"/>
<path d="M695.176 575.44H550.082V604.063H695.176V575.44Z" fill="#59518C"/>
<path d="M681.991 575.44H667.81V604.063H681.991V575.44Z" fill="#37474F"/>
<path d="M627.734 554.084H527.085V575.44H627.734V554.084Z" fill="#455A64"/>
<path d="M671.152 554.084H627.734V575.44H671.152V554.084Z" fill="#455A64"/>
<path d="M627.734 556.291H527.085V573.217H627.734V556.291Z" fill="white"/>
<path d="M533.601 559.771C541.44 559.669 549.285 559.587 557.134 559.526L580.668 559.449L604.201 559.526C612.04 559.526 619.885 559.608 627.734 559.771C619.885 559.894 612.04 559.981 604.201 560.032L580.668 560.109L557.134 560.032C549.285 559.991 541.44 559.904 533.601 559.771Z" fill="#DBDBDB"/>
<path d="M533.601 563.098C541.44 562.976 549.285 562.894 557.134 562.853L580.668 562.776L604.201 562.853C612.04 562.853 619.885 562.935 627.734 563.098C619.885 563.221 612.04 563.303 604.201 563.344L580.714 563.42L557.18 563.344C549.3 563.303 541.44 563.221 533.601 563.098Z" fill="#DBDBDB"/>
<path d="M533.601 566.425C541.44 566.303 549.285 566.216 557.134 566.165H580.668H604.201C612.04 566.165 619.885 566.251 627.734 566.425C619.885 566.538 612.04 566.619 604.201 566.671L580.714 566.793L557.18 566.716C549.3 566.645 541.44 566.548 533.601 566.425Z" fill="#DBDBDB"/>
<path d="M533.601 569.737C541.44 569.614 549.285 569.532 557.134 569.491L580.668 569.415L604.201 569.491C612.04 569.491 619.885 569.573 627.734 569.737C619.885 569.859 612.04 569.946 604.201 569.997H580.668L557.134 569.921C549.285 569.931 541.44 569.87 533.601 569.737Z" fill="#DBDBDB"/>
<path d="M577.908 633.422H662.229V604.063H577.908V633.422Z" fill="#263238"/>
<path d="M541.512 633.422H577.893V604.063H541.512V633.422Z" fill="#263238"/>
<path d="M577.908 630.371H662.229V607.114H577.908V630.371Z" fill="white"/>
<path d="M656.756 625.588C650.194 625.711 643.622 625.793 637.04 625.833L617.324 625.91L597.578 625.833C591.016 625.833 584.444 625.752 577.862 625.588C584.434 625.466 591.006 625.384 597.578 625.343L617.294 625.266L637.01 625.343C643.602 625.374 650.184 625.455 656.756 625.588Z" fill="#DBDBDB"/>
<path d="M656.756 621.019C650.195 621.142 643.623 621.229 637.04 621.28H617.325H597.609C591.047 621.28 584.475 621.193 577.893 621.019C584.465 620.897 591.037 620.815 597.609 620.774H617.325H637.04C643.612 620.825 650.184 620.907 656.756 621.019Z" fill="#DBDBDB"/>
<path d="M656.756 616.466C650.194 616.579 643.622 616.66 637.04 616.711L617.324 616.788L597.578 616.711C591.016 616.711 584.444 616.63 577.862 616.466C584.434 616.343 591.006 616.257 597.578 616.205L617.294 616.129L637.01 616.205C643.602 616.257 650.184 616.343 656.756 616.466Z" fill="#DBDBDB"/>
<path d="M656.756 611.897C650.194 612.02 643.622 612.102 637.04 612.143L617.324 612.219L597.578 612.143C591.016 612.143 584.444 612.061 577.862 611.897C584.434 611.775 591.006 611.688 597.578 611.637H617.294L637.01 611.713C643.602 611.703 650.184 611.765 656.756 611.897Z" fill="#DBDBDB"/>
<path d="M678.143 534.153H545.544V554.16H678.143V534.153Z" fill="#59518C"/>
<path opacity="0.2" d="M678.143 534.153H545.544V554.16H678.143V534.153Z" fill="black"/>
<path d="M609.015 538.247H558.008V550.251H609.015V538.247Z" fill="white"/>
<path d="M672.992 500.103H572.266V534.076H672.992V500.103Z" fill="#59518C"/>
<path d="M662.306 500.103H652.924V534.076H662.306V500.103Z" fill="#263238"/>
<path d="M646.76 500.103H643.127V534.076H646.76V500.103Z" fill="#263238"/>
<path d="M174.913 589.897L57.3386 558.928L2.63696 588.257L117.651 626.585L174.913 589.897Z" fill="#59518C"/>
<path d="M167.631 589.361L115.198 623.089L7.40503 587.23L60.2975 559.128C60.2975 559.128 92.493 563.374 94.0261 563.85C95.5592 564.325 109.741 570.212 109.741 570.212C109.741 570.212 129.671 573.692 131.066 574.152C132.461 574.612 167.631 589.361 167.631 589.361Z" fill="white"/>
<path d="M109.771 570.227C105.683 573.202 101.533 576.14 97.3222 579.043L84.7353 587.674L72.0565 596.168C67.8251 598.968 63.563 601.738 59.2703 604.477C63.3586 601.503 67.5133 598.57 71.7345 595.677L84.3061 587.046L96.9849 578.552C101.216 575.747 105.448 572.926 109.771 570.227Z" fill="#DBDBDB"/>
<path d="M156.04 589.054C152.208 587.551 148.39 586.018 144.588 584.455L133.212 579.702L130.361 578.506L128.966 577.954C128.475 577.816 127.969 577.724 127.433 577.602L121.438 576.191C117.452 575.241 113.466 574.229 109.48 573.125C113.568 573.891 117.605 574.704 121.591 575.563L127.632 576.866C128.138 576.988 128.628 577.065 129.165 577.218C129.702 577.372 130.161 577.586 130.698 577.77L133.565 578.935C137.352 580.561 141.123 582.17 144.879 583.841C148.636 585.512 152.361 587.291 156.04 589.054Z" fill="#DBDBDB"/>
<path d="M152.422 591.216C148.61 589.713 144.798 588.18 140.985 586.616L129.594 581.879L126.758 580.683C126.283 580.499 125.807 580.285 125.347 580.131C124.888 579.978 124.366 579.886 123.814 579.763L117.82 578.353C113.834 577.402 109.848 576.406 105.862 575.363C109.909 576.13 113.941 576.896 117.973 577.786L124.014 579.104C124.504 579.211 125.01 579.303 125.547 579.441C126.083 579.579 126.528 579.809 127.08 580.009L129.947 581.174C133.718 582.784 137.505 584.393 141.261 586.08C145.017 587.766 148.712 589.453 152.422 591.216Z" fill="#DBDBDB"/>
<path d="M148.774 593.362C145.033 591.829 141.292 590.403 137.582 588.855L126.467 584.255L123.692 583.09C122.791 582.676 121.858 582.338 120.902 582.078L115.045 580.591C111.131 579.671 107.231 578.705 103.347 577.694C107.303 578.419 111.248 579.191 115.183 580.009C117.145 580.407 119.108 580.867 121.07 581.312C122.061 581.573 123.03 581.911 123.968 582.324L126.758 583.473C130.453 585.007 134.148 586.632 137.812 588.287C141.476 589.943 145.14 591.645 148.774 593.362Z" fill="#DBDBDB"/>
<path d="M145.125 595.508C141.435 594.067 137.761 592.59 134.102 591.078L123.124 586.478C121.315 585.742 119.476 584.869 117.667 584.271L111.902 582.891C108.054 581.956 104.237 581.005 100.373 580.009C104.267 580.714 108.156 581.475 112.04 582.293C113.987 582.691 115.904 583.121 117.851 583.596C119.798 584.071 121.576 585.022 123.416 585.773C127.065 587.306 130.713 588.839 134.316 590.526C137.919 592.212 141.537 593.822 145.125 595.508Z" fill="#DBDBDB"/>
<path d="M141.461 597.67C137.802 596.229 134.143 594.757 130.484 593.255L119.552 588.655C117.743 587.92 115.904 587.122 114.11 586.432C112.316 585.742 110.277 585.528 108.376 585.053C104.528 584.133 100.71 583.182 96.8777 582.186C100.772 582.891 104.651 583.647 108.514 584.455C110.446 584.853 112.362 585.283 114.294 585.758C116.226 586.233 118.004 587.199 119.844 587.95C123.477 589.483 127.111 591.016 130.714 592.672C134.316 594.328 137.904 595.922 141.461 597.67Z" fill="#DBDBDB"/>
<path d="M137.812 599.816C134.148 598.375 130.499 596.919 126.865 595.416L115.965 590.817C114.156 590.081 112.331 589.284 110.553 588.594C108.775 587.904 106.736 587.689 104.834 587.214C101.002 586.294 97.1842 585.339 93.3821 584.347C97.2455 585.053 101.104 585.809 104.957 586.616C106.889 587.015 108.805 587.444 110.737 587.919C112.669 588.395 114.432 589.361 116.256 590.112C119.874 591.645 123.492 593.178 127.08 594.834C130.667 596.49 134.255 598.13 137.812 599.816Z" fill="#DBDBDB"/>
<path d="M134.163 602.055C130.545 600.629 126.942 599.188 123.431 597.701L112.699 593.224C110.921 592.488 109.127 591.691 107.349 591.001C105.57 590.311 103.608 590.081 101.738 589.606C97.9661 588.701 94.1946 587.766 90.4385 586.77C94.2508 587.454 98.0632 588.201 101.876 589.008C103.777 589.422 105.647 589.79 107.579 590.326C109.51 590.863 111.197 591.768 113.006 592.534C116.563 594.067 120.135 595.6 123.738 597.134C127.341 598.667 130.652 600.307 134.163 602.055Z" fill="#DBDBDB"/>
<path d="M130.514 604.125C126.896 602.699 123.278 601.258 119.69 599.771L108.959 595.294C107.165 594.573 105.371 593.761 103.608 593.086C101.845 592.412 99.8518 592.151 97.9814 591.691C94.21 590.771 90.4385 589.836 86.6824 588.855C90.5152 589.529 94.348 590.281 98.1194 591.078C100.036 591.507 101.906 591.86 103.838 592.412C105.77 592.963 107.456 593.837 109.25 594.604C112.822 596.137 116.394 597.67 119.982 599.203C123.569 600.736 126.988 602.469 130.514 604.125Z" fill="#DBDBDB"/>
<path d="M127.479 606.654C123.815 605.121 120.15 603.726 116.517 602.208L105.616 597.609L100.174 595.34C98.3801 594.742 96.3871 594.374 94.486 593.899C90.6532 592.963 86.8204 592.028 83.0183 591.016C86.8971 591.706 90.7759 592.473 94.624 593.285C96.5557 593.73 98.4568 594.052 100.419 594.665C102.382 595.278 104.099 596.198 105.908 596.919C109.526 598.452 113.144 599.985 116.732 601.656C120.319 603.327 123.845 604.906 127.479 606.654Z" fill="#DBDBDB"/>
<path d="M123.845 608.831C120.196 607.375 116.548 605.903 112.914 604.37L102.06 599.77L96.6018 597.455C94.8234 596.842 92.8303 596.49 90.9446 596.014C87.1271 595.079 83.279 594.144 79.4922 593.147C83.3659 593.832 87.2293 594.583 91.0825 595.401C93.0143 595.846 94.9 596.152 96.8624 596.796C98.8248 597.44 100.511 598.329 102.32 599.05C105.923 600.583 109.541 602.116 113.052 603.818C116.563 605.52 120.258 607.145 123.845 608.831Z" fill="#DBDBDB"/>
<path d="M120.15 611.254C116.609 609.812 113.067 608.341 109.557 606.838C106.046 605.336 102.55 603.772 99.024 602.239L93.7654 599.97C92.9209 599.566 92.0302 599.268 91.1131 599.081L88.3229 598.406C84.6127 597.501 80.9026 596.582 77.2078 595.6C80.9792 596.244 84.72 596.98 88.4762 597.777L91.2664 598.406C91.7417 598.513 92.2016 598.605 92.6769 598.759C93.1522 598.912 93.5968 599.111 94.0567 599.295C95.8198 600.016 97.5829 600.828 99.3306 601.549C102.811 603.082 106.322 604.615 109.786 606.271C113.251 607.927 116.701 609.567 120.15 611.254Z" fill="#DBDBDB"/>
<path d="M116.502 613.231C112.899 611.928 109.311 610.61 105.77 609.23C102.228 607.85 98.6407 606.455 95.0379 605.09C93.2442 604.431 91.4504 603.665 89.6874 603.067L84.1835 601.442C80.5193 600.322 76.8552 599.188 73.2217 597.961C76.9472 598.866 80.6573 599.832 84.3521 600.828L89.8867 602.361C91.7571 602.975 93.5048 603.68 95.2986 604.385C98.8554 605.811 102.428 607.206 105.954 608.693C109.48 610.18 112.991 611.698 116.502 613.231Z" fill="#DBDBDB"/>
<path d="M63.7011 595.784C60.2669 594.589 56.894 593.301 53.5212 591.967L51.0069 590.986C50.1723 590.663 49.3169 590.396 48.4466 590.189L43.2186 588.747L32.7475 585.804C29.2673 584.838 25.8024 583.78 22.3223 582.738C25.8331 583.611 29.3593 584.439 32.8701 585.344L43.3873 588.073L48.6305 589.453C49.5237 589.669 50.4041 589.935 51.2675 590.25C52.126 590.572 52.9539 590.924 53.7971 591.262C57.1547 592.672 60.4509 594.159 63.7011 595.784Z" fill="#DBDBDB"/>
<path d="M67.2424 593.009C63.8695 591.987 60.5273 590.924 57.2158 589.821C55.5601 589.284 53.9043 588.671 52.2485 588.195L47.1892 586.724L37.086 583.811C33.7131 582.845 30.371 581.787 27.0134 580.745C30.4169 581.618 33.8205 582.431 37.2087 583.335L47.3579 586.034C50.7713 586.881 54.1385 587.904 57.4458 589.1C60.7573 590.326 64.0535 591.63 67.2424 593.009Z" fill="#DBDBDB"/>
<path d="M70.6614 590.541C67.3192 589.56 63.9923 588.533 60.6961 587.398L55.7595 585.758L50.7156 584.485L40.6123 581.879C37.2395 581.02 33.8819 580.07 30.5244 579.165C33.9279 579.917 37.3314 580.698 40.7196 581.434L50.8842 583.811L55.9741 585.053C57.6606 585.543 59.2857 586.156 60.9261 586.739C64.207 587.904 67.4419 589.192 70.6614 590.541Z" fill="#DBDBDB"/>
<path d="M73.5895 588.717C70.278 587.551 67.0584 586.156 63.8236 584.869C63.0429 584.52 62.2321 584.243 61.4012 584.041L58.8409 583.458L53.7203 582.324C46.9031 580.801 40.0858 579.227 33.2686 577.602C40.1471 578.889 47.0104 580.249 53.8583 581.68L58.9943 582.768L61.5546 583.335C62.4277 583.528 63.28 583.806 64.0995 584.163C67.3379 585.519 70.5054 587.039 73.5895 588.717Z" fill="#DBDBDB"/>
<path d="M76.7939 586.478C73.4823 585.328 70.2628 583.933 67.0279 582.645C66.2476 582.292 65.4368 582.01 64.6056 581.802L62.0453 581.235L56.9247 580.101C50.0972 578.567 43.2799 576.993 36.4729 575.379C43.3617 576.666 50.225 578.026 57.0627 579.457L62.1986 580.545L64.7742 581.097C65.6467 581.299 66.4986 581.582 67.3192 581.94C70.5539 583.288 73.7164 584.803 76.7939 586.478Z" fill="#DBDBDB"/>
<path d="M79.998 584.255C76.6864 583.09 73.4669 581.695 70.232 580.407C69.4513 580.059 68.6405 579.781 67.8097 579.579L65.2494 579.058L60.1288 577.924C53.3115 576.401 46.4943 574.832 39.677 573.217C46.5658 574.505 53.4291 575.859 60.2668 577.28L65.4027 578.384L67.9783 578.935C68.8527 579.131 69.7053 579.413 70.5233 579.779C73.7594 581.1 76.9222 582.595 79.998 584.255Z" fill="#DBDBDB"/>
<path d="M83.2023 582.032C79.8908 580.867 76.6712 579.472 73.4364 578.184C72.6556 577.835 71.8449 577.558 71.014 577.356L68.4537 576.774L63.3331 575.639C56.5108 574.106 49.6884 572.573 42.8813 570.917C49.7702 572.205 56.6334 573.564 63.4711 574.995L68.607 576.084L71.1827 576.651C72.0572 576.839 72.9101 577.116 73.7277 577.479C76.9624 578.832 80.1249 580.352 83.2023 582.032Z" fill="#DBDBDB"/>
<path d="M87.3417 580.239C84.0302 579.073 80.8106 577.678 77.5758 576.39C76.7942 576.044 75.9836 575.767 75.1534 575.563L72.5931 574.98L67.4725 573.845C60.6553 572.323 53.838 570.754 47.0208 569.139C53.9096 570.427 60.7728 571.781 67.6105 573.202L72.7464 574.305L75.3067 574.857C76.1799 575.05 77.0322 575.327 77.8517 575.685C81.0901 577.041 84.2576 578.561 87.3417 580.239Z" fill="#DBDBDB"/>
<path d="M91.3583 578.46C88.0468 577.295 84.8426 575.9 81.5924 574.612C80.809 574.27 79.9988 573.993 79.17 573.784L76.6097 573.217L71.4891 572.082C64.6616 570.549 57.8444 568.975 51.0374 567.36C57.9262 568.648 64.7894 570.008 71.6271 571.438L76.763 572.527L79.3387 573.079C80.2118 573.279 81.0639 573.561 81.8837 573.922C85.121 575.264 88.2838 576.779 91.3583 578.46Z" fill="#DBDBDB"/>
<path d="M94.5626 576.237C91.251 575.072 88.0468 573.677 84.8119 572.404C84.0383 572.051 83.2322 571.774 82.405 571.576L79.8446 571.04L74.7854 569.997C67.9477 568.587 61.11 567.161 54.2876 565.659C61.1764 566.814 68.055 568.045 74.9233 569.353L80.0593 570.35L82.6349 570.871C83.5095 571.059 84.3623 571.336 85.1799 571.699C88.3849 573.046 91.5168 574.561 94.5626 576.237Z" fill="#DBDBDB"/>
<path d="M97.7821 574.014C94.4859 572.849 91.2817 571.454 88.0468 570.181C87.2784 569.828 86.4774 569.551 85.6552 569.353L83.0796 568.863L77.9436 567.928C71.0906 566.655 64.2222 565.367 57.3845 564.018C64.2835 565.04 71.1723 566.124 78.0509 567.268L83.2175 568.173L85.7932 568.648C86.6683 568.834 87.5214 569.111 88.3381 569.476C91.5641 570.821 94.7166 572.336 97.7821 574.014Z" fill="#DBDBDB"/>
<path d="M100.971 571.776C97.675 570.626 94.4861 569.231 91.2665 567.958C90.4986 567.608 89.6973 567.336 88.8749 567.146L86.2992 566.793L81.148 566.011C74.2643 564.984 67.3499 563.942 60.5122 562.822C67.4317 563.589 74.3409 564.437 81.2399 565.367L86.4065 566.088L88.9975 566.502C89.8769 566.663 90.7321 566.936 91.5425 567.314C94.7605 568.637 97.9077 570.126 100.971 571.776Z" fill="#DBDBDB"/>
<path d="M112.776 616.328C109.097 615.112 105.433 613.865 101.784 612.587L90.8526 608.693C89.0282 608.065 87.2037 607.344 85.41 606.746L79.8755 604.983C76.1806 603.787 72.5165 602.561 68.8677 601.273C72.6085 602.295 76.334 603.317 80.0441 604.339L85.6093 606.01C87.4797 606.623 89.2888 607.267 91.0979 607.942C94.7313 609.291 98.3802 610.61 101.983 612.02C105.586 613.431 109.189 614.872 112.776 616.328Z" fill="#DBDBDB"/>
<path d="M61.0641 598.498C57.3387 597.363 53.6439 596.198 49.949 594.987L38.8953 591.323L33.3914 589.468L27.7955 587.827C24.0854 586.708 20.3752 585.558 16.6804 584.347C20.4519 585.252 24.208 586.233 27.9642 587.23L33.5754 588.763C35.4611 589.345 37.2855 589.943 39.1406 590.587C42.8047 591.86 46.4842 593.101 50.133 594.435C53.7818 595.769 57.4307 597.118 61.0641 598.498Z" fill="#DBDBDB"/>
<path d="M631.153 387.296C628.087 385.027 527.315 353.797 522.731 355.024C522.225 355.162 521.198 359.7 516.599 370.938C516.384 371.459 468.474 429.549 468.474 429.549L534.046 464.151L571.515 411.396C571.515 411.396 618.336 402.52 623.227 400.665C628.118 398.81 634.373 389.565 631.153 387.296Z" fill="#AD6359"/>
<path d="M631.153 387.296C628.087 385.027 527.315 353.797 522.731 355.024C522.225 355.162 521.198 359.7 516.599 370.938C516.384 371.459 509.823 379.078 506.618 383.202C510.788 386.79 551.079 415.183 562.071 424.597L571.469 411.35C571.469 411.35 618.291 402.474 623.181 400.619C628.072 398.764 634.373 389.565 631.153 387.296Z" fill="#59518C"/>
<path d="M541.911 364.805C541.399 365.956 540.745 367.037 539.964 368.025C538.427 369.986 536.453 371.561 534.199 372.624C531.901 373.691 529.367 374.151 526.84 373.958C524.336 373.709 521.912 372.936 519.726 371.689C519.604 371.689 519.726 371.428 519.834 371.505C522.01 372.563 524.406 373.091 526.825 373.046C529.245 373.001 531.619 372.383 533.754 371.244C535.793 370.189 537.561 368.678 538.921 366.829C539.578 365.924 540.138 364.953 540.592 363.931C540.828 363.435 541.028 362.923 541.19 362.398C541.359 361.861 541.405 361.417 541.926 361.11C542.048 361.043 542.192 361.027 542.327 361.064C542.461 361.101 542.576 361.189 542.647 361.31C543.229 362.229 542.279 363.977 541.911 364.805Z" fill="white"/>
<path d="M609.966 403.654C607.752 402.827 605.85 401.332 604.523 399.377C603.043 397.391 601.817 395.228 600.874 392.938C599.926 390.699 599.261 388.35 598.896 385.947C598.728 384.778 598.62 383.601 598.574 382.421C598.468 381.216 598.54 380.002 598.789 378.818C598.802 378.772 598.829 378.732 598.866 378.704C598.903 378.675 598.949 378.66 598.996 378.66C599.043 378.66 599.089 378.675 599.126 378.704C599.164 378.732 599.191 378.772 599.203 378.818C599.418 379.845 599.372 380.964 599.494 382.007C599.617 383.186 599.801 384.358 600.046 385.517C600.518 387.772 601.195 389.979 602.07 392.11C603.671 396.427 606.562 400.146 610.349 402.765C610.447 402.828 610.519 402.923 610.553 403.034C610.588 403.146 610.581 403.266 610.535 403.372C610.489 403.479 610.406 403.566 610.302 403.618C610.198 403.669 610.078 403.682 609.966 403.654Z" fill="white"/>
<path d="M562.117 412.454C549.852 403.624 537.694 394.701 525.322 385.993C521.827 383.524 518.362 381.01 514.836 378.603C514.713 378.526 514.836 378.358 514.958 378.435C527.921 386.22 540.449 394.706 552.489 403.854C555.893 406.475 559.189 409.219 562.47 411.979C562.511 412.032 562.534 412.097 562.535 412.164C562.536 412.232 562.515 412.297 562.475 412.351C562.435 412.406 562.378 412.445 562.313 412.463C562.249 412.482 562.18 412.479 562.117 412.454Z" fill="white"/>
<path d="M516.001 380.566C515.959 380.656 515.902 380.739 515.832 380.811L515.556 380.995L515.02 381.347C514.652 381.593 514.268 381.838 513.885 382.053C513.119 382.482 512.352 382.881 511.555 383.264C511.448 383.264 511.34 383.141 511.448 383.08C512.183 382.62 512.904 382.145 513.625 381.654L514.667 380.933L515.219 380.55C515.386 380.414 515.579 380.315 515.786 380.259C515.824 380.255 515.862 380.262 515.897 380.277C515.932 380.293 515.961 380.318 515.983 380.349C516.005 380.381 516.018 380.417 516.021 380.455C516.024 380.493 516.017 380.531 516.001 380.566Z" fill="white"/>
<path d="M521.719 384.766C521.681 384.863 521.618 384.948 521.535 385.012L521.259 385.211L520.738 385.563C520.355 385.809 519.987 386.054 519.588 386.269C518.837 386.698 518.055 387.097 517.273 387.48C517.151 387.48 517.059 387.357 517.166 387.296C517.902 386.836 518.622 386.345 519.328 385.855L520.386 385.149L520.938 384.766C521.1 384.625 521.295 384.525 521.505 384.475C521.541 384.472 521.577 384.479 521.609 384.494C521.642 384.51 521.671 384.533 521.692 384.562C521.713 384.591 521.727 384.625 521.732 384.66C521.737 384.696 521.732 384.733 521.719 384.766Z" fill="white"/>
<path d="M527.423 388.952C527.385 389.044 527.327 389.128 527.254 389.197L526.978 389.381L526.442 389.734C526.074 389.994 525.69 390.224 525.307 390.454C524.54 390.883 523.774 391.282 522.977 391.65C522.869 391.65 522.762 391.543 522.869 391.466C523.605 391.021 524.403 390.531 525.046 390.04C525.384 389.795 525.736 389.565 526.089 389.335L526.641 388.952C526.8 388.804 526.996 388.704 527.208 388.66C527.245 388.653 527.284 388.656 527.32 388.67C527.355 388.683 527.386 388.707 527.409 388.737C527.431 388.768 527.444 388.804 527.447 388.842C527.45 388.88 527.441 388.918 527.423 388.952Z" fill="white"/>
<path d="M533.187 393.198C533.145 393.293 533.082 393.377 533.003 393.444L532.727 393.628L532.206 393.98C531.823 394.226 531.455 394.471 531.056 394.685C530.305 395.115 529.523 395.513 528.741 395.897C528.717 395.907 528.69 395.908 528.665 395.9C528.64 395.892 528.619 395.875 528.606 395.852C528.593 395.829 528.589 395.803 528.594 395.777C528.599 395.751 528.613 395.729 528.634 395.713C529.37 395.253 530.09 394.777 530.795 394.287L531.853 393.566L532.405 393.183C532.572 393.047 532.765 392.948 532.972 392.892C533.009 392.892 533.045 392.901 533.077 392.918C533.11 392.935 533.138 392.96 533.159 392.99C533.18 393.02 533.193 393.054 533.198 393.091C533.203 393.127 533.199 393.164 533.187 393.198Z" fill="white"/>
<path d="M538.86 397.399C538.811 397.49 538.749 397.572 538.676 397.644L538.4 397.844L537.863 398.196C537.495 398.442 537.112 398.687 536.729 398.902C535.962 399.331 535.196 399.729 534.398 400.113C534.291 400.113 534.184 399.99 534.291 399.929C535.027 399.469 535.748 398.994 536.468 398.488L537.511 397.782L538.062 397.399C538.225 397.258 538.42 397.158 538.63 397.108C538.667 397.102 538.705 397.107 538.74 397.121C538.775 397.135 538.805 397.158 538.829 397.187C538.852 397.217 538.867 397.252 538.872 397.289C538.878 397.326 538.874 397.364 538.86 397.399Z" fill="white"/>
<path d="M544.563 401.615C544.525 401.712 544.461 401.797 544.379 401.861L544.103 402.044L543.582 402.412L542.432 403.118C541.681 403.547 540.899 403.946 540.117 404.329C540.093 404.331 540.069 404.326 540.047 404.315C540.026 404.304 540.008 404.286 539.997 404.265C539.985 404.244 539.98 404.219 539.983 404.195C539.985 404.171 539.994 404.148 540.01 404.129C540.745 403.685 541.466 403.194 542.171 402.704L543.229 401.998L543.781 401.615C543.94 401.468 544.136 401.367 544.348 401.324C544.384 401.321 544.42 401.328 544.453 401.343C544.486 401.359 544.514 401.382 544.535 401.411C544.557 401.44 544.571 401.474 544.575 401.509C544.58 401.545 544.576 401.582 544.563 401.615Z" fill="white"/>
<path d="M550.282 405.816C550.229 405.904 550.167 405.986 550.098 406.061L549.822 406.245L549.285 406.598C548.917 406.843 548.534 407.088 548.151 407.303C547.384 407.748 546.617 408.131 545.82 408.514C545.713 408.514 545.606 408.392 545.713 408.33C546.449 407.87 547.169 407.395 547.89 406.904L548.932 406.184L549.484 405.801C549.65 405.666 549.844 405.572 550.052 405.525C550.089 405.519 550.127 405.524 550.162 405.538C550.196 405.552 550.227 405.575 550.25 405.604C550.274 405.634 550.289 405.669 550.294 405.706C550.3 405.743 550.295 405.781 550.282 405.816Z" fill="white"/>
<path d="M555.985 410.032C555.95 410.131 555.886 410.217 555.801 410.277C555.715 410.352 555.623 410.419 555.525 410.477L555.003 410.829C554.635 411.074 554.252 411.32 553.854 411.534C553.102 411.964 552.32 412.362 551.538 412.746C551.431 412.746 551.324 412.623 551.431 412.562C552.167 412.102 552.964 411.626 553.593 411.12L554.651 410.415L555.203 410.032C555.369 409.896 555.563 409.797 555.77 409.741C555.807 409.733 555.846 409.736 555.881 409.75C555.917 409.764 555.948 409.787 555.97 409.818C555.993 409.848 556.006 409.885 556.009 409.923C556.011 409.961 556.003 409.999 555.985 410.032Z" fill="white"/>
<path d="M561.703 414.248C561.654 414.339 561.592 414.421 561.519 414.493L561.243 414.693C561.063 414.801 560.889 414.919 560.722 415.045L559.572 415.751C558.805 416.18 558.039 416.578 557.242 416.962C557.134 416.962 557.042 416.839 557.134 416.762C557.886 416.318 558.668 415.827 559.311 415.337L560.354 414.631L560.906 414.248C561.071 414.109 561.264 414.01 561.473 413.957C561.51 413.951 561.548 413.956 561.583 413.97C561.618 413.984 561.649 414.007 561.672 414.036C561.695 414.066 561.71 414.101 561.716 414.138C561.721 414.175 561.717 414.213 561.703 414.248Z" fill="white"/>
<path d="M553.363 438.41L495.534 392.892C495.534 392.892 436.141 468.781 435.129 469.302C435.129 469.302 394.011 469.793 356.342 477.29C349.612 478.624 313.798 461.146 273.738 494.844L279.763 557.594C342.759 566.609 430.637 552.995 468.091 540.73C503.46 529.216 553.363 438.41 553.363 438.41Z" fill="#263238"/>
<path d="M545.268 444.343C532.252 433.611 519.128 423.002 505.407 413.098C501.513 410.277 497.511 407.625 493.679 404.727C493.556 404.62 493.418 404.835 493.541 404.942C496.883 407.533 500.041 410.354 503.322 413.022C506.603 415.689 509.868 418.357 513.18 420.978C519.788 426.206 526.61 431.143 533.386 436.126C537.265 438.977 541.175 441.767 545.084 444.558C545.268 444.65 545.452 444.45 545.268 444.343Z" fill="#455A64"/>
<path d="M500.869 418.203C490.459 432.001 480.003 445.8 469.639 459.736C464.458 466.676 459.265 473.615 454.063 480.555C451.763 483.622 449.464 486.427 445.662 487.5C443.767 487.969 441.84 488.291 439.897 488.466L433.458 489.248C416.369 491.364 399.269 493.469 382.16 495.565C377.898 496.165 373.601 496.482 369.297 496.515C365.001 496.342 360.726 495.829 356.511 494.982C348.853 493.672 341.069 493.255 333.315 493.74C317.947 494.932 302.942 499.009 289.084 505.76C287.321 506.603 285.574 507.462 283.841 508.351C283.703 508.427 283.841 508.627 283.979 508.565C298.259 501.573 313.665 497.166 329.482 495.549C337.271 494.774 345.125 494.929 352.877 496.009C357.017 496.607 361.11 497.542 365.28 497.925C369.567 498.253 373.876 498.15 378.143 497.619C386.729 496.714 395.299 495.534 403.869 494.476L429.625 491.302C433.903 490.766 438.195 490.321 442.442 489.693C445.923 489.41 449.207 487.963 451.763 485.584C454.342 482.659 456.709 479.555 458.846 476.293C461.453 472.721 464.09 469.164 466.711 465.561C476.998 451.641 487.194 437.659 497.374 423.707L501.206 418.464C501.406 418.265 500.992 417.989 500.869 418.203Z" fill="#455A64"/>
<path d="M467.616 277.724C464.381 279.87 399.837 363.241 399.392 367.963C399.392 368.485 403.21 371.029 412.148 379.262C412.577 379.646 413.006 382.896 413.42 387.771C414.953 406.092 416.21 447.486 416.21 447.486L483.821 430.852L472.261 360.328L469.272 342.008C469.272 342.008 477.351 295.048 477.305 289.79C477.259 284.531 470.851 275.501 467.616 277.724Z" fill="#AD6359"/>
<path d="M467.616 277.724C464.381 279.87 399.837 363.241 399.392 367.963C399.392 368.485 403.21 371.03 412.148 379.262C412.577 379.646 413.006 382.896 413.42 387.771C424.489 382.436 458.463 366.737 472.261 360.374L469.272 342.054C469.272 342.054 477.351 295.094 477.305 289.836C477.259 284.577 470.851 275.501 467.616 277.724Z" fill="#59518C"/>
<path d="M415.275 353.429C416.173 354.309 416.956 355.298 417.606 356.373C418.933 358.501 419.742 360.912 419.967 363.41C420.149 365.936 419.69 368.467 418.633 370.769C417.528 373.027 415.961 375.028 414.033 376.641C413.926 376.733 413.788 376.564 413.895 376.472C415.636 374.797 416.959 372.737 417.758 370.458C418.557 368.179 418.809 365.743 418.495 363.349C418.211 361.074 417.414 358.893 416.164 356.971C415.549 356.034 414.834 355.165 414.033 354.38C413.645 353.984 413.23 353.615 412.792 353.276C412.332 352.923 411.933 352.724 411.826 352.126C411.808 351.988 411.844 351.849 411.927 351.737C412.01 351.626 412.133 351.551 412.27 351.528C413.328 351.298 414.631 352.785 415.275 353.429Z" fill="white"/>
<path d="M475.511 303.296C473.955 305.084 471.882 306.343 469.578 306.899C467.203 307.586 464.752 307.977 462.281 308.064C459.852 308.167 457.421 307.961 455.044 307.451C453.887 307.208 452.745 306.896 451.625 306.516C450.46 306.199 449.348 305.708 448.329 305.06C448.294 305.032 448.268 304.993 448.256 304.95C448.243 304.907 448.245 304.861 448.26 304.818C448.275 304.776 448.304 304.739 448.341 304.714C448.378 304.688 448.422 304.675 448.467 304.676C449.51 304.83 450.537 305.274 451.533 305.519C452.676 305.795 453.833 306.01 454.998 306.163C457.274 306.523 459.579 306.662 461.882 306.577C466.487 306.606 470.988 305.202 474.76 302.561C475.251 302.3 475.849 302.852 475.511 303.296Z" fill="white"/>
<path d="M467.784 353.383C454.186 359.945 440.556 366.43 427.019 373.13C423.186 375.031 419.353 376.886 415.536 378.864C415.398 378.864 415.321 378.726 415.444 378.649C428.458 370.958 441.877 363.972 455.642 357.722C459.567 355.974 463.553 354.38 467.539 352.816C467.614 352.784 467.699 352.782 467.776 352.812C467.852 352.843 467.913 352.902 467.945 352.977C467.978 353.052 467.979 353.137 467.949 353.214C467.919 353.29 467.86 353.351 467.784 353.383Z" fill="white"/>
<path d="M417.805 378.772C417.861 378.856 417.903 378.949 417.928 379.048C417.934 379.16 417.934 379.273 417.928 379.385C417.928 379.6 417.928 379.814 417.928 380.014C417.928 380.474 418.004 380.918 418.02 381.363C418.02 382.237 418.02 383.11 418.02 383.984C418.02 384.107 417.805 384.107 417.805 383.984C417.805 383.126 417.667 382.252 417.575 381.393C417.575 380.979 417.483 380.55 417.452 380.136C417.422 379.722 417.452 379.692 417.376 379.462C417.322 379.256 417.322 379.039 417.376 378.833C417.385 378.786 417.409 378.744 417.443 378.711C417.478 378.678 417.522 378.657 417.569 378.651C417.616 378.644 417.664 378.652 417.706 378.674C417.748 378.695 417.783 378.73 417.805 378.772Z" fill="white"/>
<path d="M424.213 375.752C424.28 375.832 424.327 375.926 424.351 376.027C424.351 376.135 424.351 376.257 424.351 376.365C424.351 376.472 424.351 376.779 424.351 376.993C424.4 377.441 424.426 377.892 424.428 378.342C424.428 379.216 424.428 380.09 424.428 380.964C424.428 381.087 424.213 381.087 424.213 380.964C424.213 380.09 424.075 379.232 423.983 378.373L423.845 377.116C423.845 376.886 423.845 376.671 423.845 376.441C423.791 376.235 423.791 376.019 423.845 375.813C423.853 375.773 423.873 375.737 423.902 375.708C423.931 375.68 423.968 375.662 424.008 375.655C424.048 375.648 424.089 375.654 424.126 375.671C424.162 375.688 424.193 375.716 424.213 375.752Z" fill="white"/>
<path d="M430.637 372.731C430.698 372.815 430.745 372.908 430.775 373.007C430.775 373.115 430.775 373.237 430.775 373.345C430.775 373.452 430.775 373.758 430.775 373.973C430.824 374.421 430.849 374.871 430.852 375.322C430.852 376.201 430.852 377.075 430.852 377.944C430.852 378.051 430.652 378.067 430.637 377.944C430.637 377.07 430.514 376.211 430.422 375.353L430.284 374.096C430.284 373.866 430.284 373.651 430.208 373.421C430.169 373.213 430.169 373 430.208 372.793C430.204 372.764 430.205 372.736 430.212 372.708C430.219 372.681 430.232 372.655 430.249 372.632C430.266 372.609 430.287 372.59 430.312 372.575C430.336 372.561 430.364 372.551 430.392 372.547C430.42 372.543 430.449 372.545 430.476 372.552C430.504 372.559 430.53 372.571 430.552 372.588C430.575 372.606 430.594 372.627 430.609 372.651C430.623 372.676 430.633 372.703 430.637 372.731Z" fill="white"/>
<path d="M437.061 369.711C437.123 369.792 437.165 369.887 437.183 369.987C437.192 370.099 437.192 370.212 437.183 370.324C437.183 370.524 437.183 370.738 437.183 370.953C437.183 371.397 437.183 371.842 437.26 372.287C437.26 373.166 437.26 374.04 437.26 374.908C437.26 374.937 437.249 374.964 437.229 374.984C437.209 375.004 437.181 375.016 437.153 375.016C437.124 375.016 437.097 375.004 437.077 374.984C437.057 374.964 437.045 374.937 437.045 374.908C437.045 374.034 436.923 373.176 436.816 372.317C436.816 371.888 436.739 371.474 436.693 371.045C436.647 370.616 436.693 370.6 436.616 370.386C436.571 370.173 436.571 369.954 436.616 369.742C436.612 369.683 436.632 369.625 436.67 369.58C436.709 369.535 436.764 369.508 436.823 369.504C436.882 369.5 436.94 369.52 436.985 369.558C437.029 369.597 437.057 369.652 437.061 369.711Z" fill="white"/>
<path d="M443.484 366.691C443.541 366.775 443.582 366.868 443.607 366.967V367.304C443.607 367.503 443.607 367.718 443.607 367.933C443.607 368.147 443.607 368.822 443.684 369.266C443.684 370.14 443.684 371.014 443.684 371.888C443.684 372.011 443.469 372.026 443.469 371.888C443.469 371.029 443.331 370.171 443.239 369.312C443.239 368.883 443.163 368.469 443.117 368.04C443.071 367.611 443.117 367.595 443.04 367.381C442.986 367.169 442.986 366.948 443.04 366.737C443.034 366.678 443.051 366.619 443.089 366.573C443.126 366.527 443.18 366.498 443.239 366.491C443.298 366.485 443.357 366.503 443.403 366.54C443.449 366.578 443.478 366.632 443.484 366.691Z" fill="white"/>
<path d="M449.893 363.671C449.96 363.751 450.007 363.845 450.031 363.947C450.039 364.054 450.039 364.161 450.031 364.268C450.031 364.483 450.031 364.698 450.031 364.912C450.079 365.355 450.105 365.801 450.108 366.246C450.108 367.12 450.108 367.994 450.108 368.868C450.108 368.99 449.893 368.99 449.893 368.868C449.893 368.009 449.755 367.151 449.663 366.277C449.663 365.863 449.571 365.449 449.54 365.02C449.51 364.59 449.54 364.575 449.464 364.36C449.41 364.149 449.41 363.928 449.464 363.717C449.458 363.66 449.474 363.603 449.51 363.558C449.546 363.514 449.598 363.485 449.655 363.479C449.712 363.473 449.769 363.49 449.814 363.526C449.858 363.561 449.887 363.614 449.893 363.671Z" fill="white"/>
<path d="M456.317 360.65C456.381 360.732 456.428 360.826 456.455 360.926C456.455 361.034 456.455 361.141 456.455 361.248C456.455 361.356 456.455 361.677 456.455 361.877C456.455 362.337 456.531 362.781 456.531 363.226C456.531 364.105 456.531 364.979 456.531 365.848C456.531 365.97 456.332 365.97 456.317 365.848C456.317 364.989 456.194 364.115 456.102 363.257L455.964 361.999C455.964 361.785 455.964 361.555 455.964 361.34C455.919 361.128 455.919 360.909 455.964 360.696C456.01 360.558 456.24 360.512 456.317 360.65Z" fill="white"/>
<path d="M462.741 357.615C462.803 357.696 462.845 357.79 462.863 357.891C462.87 358.003 462.87 358.116 462.863 358.228C462.863 358.443 462.863 358.657 462.863 358.857C462.863 359.317 462.863 359.761 462.94 360.206C462.94 361.085 462.94 361.959 462.94 362.827C462.94 362.95 462.741 362.95 462.725 362.827C462.725 361.969 462.603 361.095 462.495 360.236C462.495 359.822 462.419 359.393 462.373 358.979C462.327 358.565 462.373 358.535 462.296 358.305C462.253 358.097 462.253 357.883 462.296 357.676C462.3 357.624 462.322 357.575 462.358 357.537C462.394 357.499 462.442 357.475 462.494 357.467C462.545 357.46 462.598 357.471 462.643 357.498C462.688 357.525 462.722 357.566 462.741 357.615Z" fill="white"/>
<path d="M469.164 354.595C469.226 354.675 469.268 354.77 469.287 354.87V355.208C469.287 355.422 469.287 355.622 469.287 355.836C469.287 356.281 469.287 356.726 469.364 357.185C469.364 358.064 469.364 358.938 469.364 359.807C469.364 359.93 469.149 359.93 469.149 359.807C469.149 358.933 469.011 358.075 468.919 357.216C468.919 356.802 468.842 356.373 468.796 355.959C468.75 355.545 468.796 355.514 468.72 355.284C468.666 355.078 468.666 354.862 468.72 354.656C468.711 354.597 468.727 354.537 468.763 354.49C468.799 354.442 468.852 354.411 468.911 354.403C468.97 354.395 469.03 354.41 469.077 354.446C469.125 354.482 469.156 354.536 469.164 354.595Z" fill="white"/>
<path d="M475.711 380.121L407.472 394.609C407.472 394.609 415.659 490.153 415.352 491.195C415.352 491.195 380.519 495.794 352.632 494.261C352.632 494.261 305.734 473.871 273.707 509.056L269.108 570.779C358.32 581.603 477.78 576.59 493.617 546.249C510.88 513.134 475.711 380.121 475.711 380.121Z" fill="#263238"/>
<path d="M415.229 490.797C407.656 490.797 394.961 492.222 387.388 492.529C379.814 492.836 372.379 493.25 364.882 493.648C360.574 493.863 356.956 493.648 352.617 494.016C352.584 494.016 352.553 494.029 352.53 494.052C352.507 494.075 352.494 494.106 352.494 494.139C352.494 494.171 352.507 494.202 352.53 494.225C352.553 494.248 352.584 494.261 352.617 494.261C367.438 495.064 382.299 494.772 397.077 493.387C401.401 493.004 411.013 491.977 415.306 491.333C415.613 491.302 415.965 490.797 415.229 490.797Z" fill="#455A64"/>
<path d="M348.401 487.761C345.603 484.658 342.454 481.89 339.018 479.513C338.911 479.421 338.773 479.62 338.865 479.712C341.857 482.526 344.669 485.526 347.281 488.696C350.118 491.75 352.727 495.01 355.085 498.447C355.085 498.523 355.238 498.447 355.192 498.37C353.313 494.602 351.036 491.045 348.401 487.761Z" fill="#455A64"/>
<path d="M498.431 500.256C498.355 496.883 498.048 493.51 497.787 490.137C497.281 483.468 496.622 476.815 495.733 470.207C493.939 456.838 491.609 443.577 488.635 430.438C487.792 426.758 486.933 423.094 485.998 419.445C485.15 415.709 484.091 412.023 482.824 408.407C482.717 408.116 482.196 408.146 482.257 408.484C482.732 411.718 483.606 414.938 484.311 418.127C485.017 421.316 485.768 424.597 486.458 427.847C487.853 434.455 489.141 441.108 490.306 447.777C492.636 461.023 494.507 474.331 496.086 487.638C496.53 491.394 496.898 495.151 497.297 498.907C497.511 500.777 498.263 515.771 498.293 517.733C498.293 517.902 498.569 517.887 498.554 517.733C498.401 516.078 498.554 505.269 498.431 500.256Z" fill="#455A64"/>
<path d="M415.214 480.433C415.061 478.578 414.447 471.449 413.681 470.069C413.674 470.052 413.662 470.038 413.647 470.029C413.632 470.019 413.614 470.014 413.596 470.014C413.579 470.014 413.561 470.019 413.546 470.029C413.531 470.038 413.519 470.052 413.512 470.069C413.006 471.602 413.696 478.976 413.865 480.801C414.033 482.625 415.03 490.551 415.398 491.18C415.41 491.199 415.428 491.214 415.448 491.225C415.468 491.236 415.49 491.242 415.513 491.242C415.536 491.242 415.558 491.236 415.578 491.225C415.598 491.214 415.615 491.199 415.628 491.18C415.682 487.593 415.544 484.005 415.214 480.433Z" fill="#455A64"/>
<path d="M478.087 510.911C477.842 498.891 477.014 486.887 475.803 474.929C473.411 451.334 469.517 427.908 465.347 404.574C464.825 401.707 464.32 398.856 463.814 395.989C463.814 395.835 463.553 395.897 463.584 396.065C467.478 419.399 471.479 442.749 474.131 466.282C475.435 477.964 476.446 489.677 476.937 501.421C477.182 507.124 477.336 512.827 477.305 518.546C477.38 523.332 476.938 528.113 475.987 532.804C475.053 537.454 472.881 541.765 469.701 545.284C466.286 548.615 462.138 551.099 457.589 552.535C452.654 554.164 447.607 555.429 442.488 556.322C436.846 557.436 431.174 558.346 425.47 559.051C402.642 561.918 379.569 561.948 356.603 561.489C333.054 561.013 309.505 560.139 285.957 559.879C283.013 559.879 280.054 559.802 277.111 559.741C277.078 559.741 277.047 559.754 277.024 559.777C277.001 559.8 276.988 559.831 276.988 559.863C276.988 559.896 277.001 559.927 277.024 559.95C277.047 559.973 277.078 559.986 277.111 559.986C289.253 560.369 301.395 560.891 313.538 561.274C325.68 561.657 337.607 562.01 349.642 562.332C372.884 562.976 396.203 563.298 419.353 560.799C430.577 559.735 441.704 557.818 452.637 555.065C457.245 553.985 461.657 552.196 465.715 549.76C469.576 547.312 472.664 543.819 474.622 539.688C478.792 530.872 478.302 520.447 478.087 510.911Z" fill="#455A64"/>
<path d="M475.818 390.807C459.138 393.398 442.503 396.173 426.022 399.821C421.331 400.849 416.686 402.09 411.964 403.026C411.81 403.026 411.872 403.286 412.04 403.256C416.195 402.489 420.396 401.998 424.566 401.324C428.736 400.649 432.906 399.975 437.061 399.239C445.355 397.706 453.573 395.943 461.805 394.195C466.512 393.183 471.203 392.125 475.879 391.052C476.048 391.021 475.971 390.776 475.818 390.807Z" fill="#455A64"/>
<path d="M127.126 477.872C128.015 473.396 132.691 457.267 139.391 447.21C142.626 442.335 153.358 429.334 157.298 431.511C161.238 433.688 158.417 437.781 158.417 437.781C158.417 437.781 163.783 432.967 167.539 435.528C171.295 438.088 166.726 444.297 166.726 444.297C166.726 444.297 172.583 439.698 176.155 442.58C179.727 445.462 174.07 450.874 174.07 450.874C174.07 450.874 179.237 446.474 181.199 450.031C183.545 454.324 173.104 461.361 169.808 466.895C169.057 468.168 156.454 493.602 156.454 493.602L127.126 477.872Z" fill="#AD6359"/>
<path d="M173.993 451.043C166.328 456.24 163.859 459.843 160.195 468.198C160.195 468.367 159.858 468.306 159.919 468.122C162.756 459.613 165.193 454.646 173.717 450.66C174.177 450.46 174.438 450.798 173.993 451.043Z" fill="#263238"/>
<path d="M166.895 444.021C159.398 450.154 156.7 454.002 152.223 462.419C152.206 462.438 152.183 462.452 152.158 462.458C152.133 462.463 152.106 462.461 152.082 462.451C152.059 462.441 152.039 462.423 152.025 462.401C152.012 462.378 152.006 462.352 152.009 462.327C155.703 453.634 158.233 448.743 166.527 443.638C166.91 443.469 167.248 443.745 166.895 444.021Z" fill="#263238"/>
<path d="M157.773 438.349C150.935 444.772 147.792 448.912 144.511 457.697C144.489 457.73 144.457 457.755 144.419 457.769C144.381 457.782 144.34 457.782 144.302 457.77C144.264 457.758 144.231 457.734 144.208 457.701C144.185 457.669 144.173 457.629 144.174 457.589C146.658 448.391 150.537 443.132 157.543 438.165C158.034 437.827 158.202 438.011 157.773 438.349Z" fill="#263238"/>
<path d="M155.673 500.241C155.673 500.241 164.779 493.035 168.091 488.987C171.402 484.94 178.179 465.331 174.024 463.63C168.658 461.437 162.526 471.985 160.226 477.55C160.226 477.55 147.838 472.445 141.829 479.084C135.819 485.722 155.673 500.241 155.673 500.241Z" fill="#AD6359"/>
<path d="M172.353 463.522C166.021 465.056 163.415 472.537 160.763 477.75C160.725 477.828 160.67 477.897 160.602 477.95C160.533 478.003 160.453 478.039 160.368 478.055C160.283 478.072 160.195 478.068 160.112 478.044C160.029 478.02 159.952 477.977 159.889 477.918C154.553 476.125 146.505 475.159 141.721 478.7C141.71 478.719 141.694 478.735 141.676 478.747C141.657 478.758 141.636 478.765 141.614 478.767C141.592 478.769 141.57 478.765 141.55 478.757C141.53 478.749 141.512 478.735 141.497 478.719C141.483 478.702 141.473 478.682 141.468 478.661C141.463 478.639 141.464 478.617 141.469 478.596C141.474 478.574 141.485 478.555 141.499 478.538C141.514 478.522 141.532 478.509 141.553 478.501C146.152 473.994 154.14 474.3 159.858 476.646C162.51 471.249 165.439 463.844 172.338 463.446C172.384 463.446 172.384 463.507 172.353 463.522Z" fill="#263238"/>
<path d="M199.321 500.992C184.646 523.061 164.798 541.208 141.507 553.854C126.559 562.04 110.844 552.489 108.33 546.449C102.811 533.509 122.036 483.33 128.966 473.212C131.036 470.145 134.117 476.278 143.776 484.649C148.375 488.635 165.899 487.608 164.657 492.56C163.768 496.086 158.034 506.082 158.831 506.02C160.824 505.852 175.327 495.289 190.689 485.415C211.846 471.817 204.257 493.755 199.321 500.992Z" fill="#AD6359"/>
<path d="M158.861 505.622C157.942 506.848 144.68 533.938 141.522 539.519C141.506 539.547 141.501 539.581 141.51 539.613C141.519 539.644 141.539 539.671 141.568 539.688C141.596 539.704 141.63 539.708 141.662 539.7C141.693 539.691 141.72 539.67 141.737 539.642C145.109 534.184 148.605 528.802 151.594 523.13C153.128 520.324 154.661 517.519 155.795 514.59C156.362 513.18 156.899 511.77 157.451 510.359C158.149 508.884 158.698 507.343 159.091 505.76C159.107 505.622 158.953 505.468 158.861 505.622Z" fill="#263238"/>
<path d="M160.103 503.46L193.832 516.384C193.832 516.384 204.196 501.452 208.78 492.376C214.82 480.356 211.846 475.297 196.515 481.491C186.366 485.645 160.103 503.46 160.103 503.46Z" fill="#59518C"/>
<path d="M164.764 501.559C169.808 503.092 174.821 504.717 179.773 506.557C182.242 507.462 184.695 508.427 187.147 509.409C189.6 510.39 191.915 511.647 194.368 512.597C194.506 512.597 194.368 512.858 194.276 512.797C191.885 511.724 189.325 510.957 186.872 510.006C184.419 509.056 181.966 508.121 179.497 507.201C174.561 505.361 169.639 503.506 164.672 501.774C164.534 501.728 164.626 501.528 164.764 501.559Z" fill="#263238"/>
<path d="M226.656 504.303H220.263C219.849 501.237 218.914 496.101 217.381 493.388C218.14 496.973 218.429 500.643 218.239 504.303H212.628C212.137 499.949 210.803 492.038 207.385 486.504C207.538 487.086 210.359 497.742 209.684 504.303H160.257C158.064 493.863 159.766 482.518 158.907 485.001C156.983 491.259 155.95 497.757 155.841 504.303H150.337C150.181 501.668 150.331 499.024 150.782 496.423C151.503 492.958 148.666 499.811 148.298 504.303H144.803C144.803 504.303 144.098 489.432 149.54 478.854C156.761 464.749 152.606 459.536 155.504 444.113C158.862 426.559 181.935 405.325 204.993 427.51C208.946 430.945 212.122 435.183 214.311 439.941C216.5 444.699 217.651 449.868 217.687 455.106C217.794 467.662 214.943 474.285 219.22 480.739C224.014 487.667 226.605 495.879 226.656 504.303Z" fill="#263238"/>
<path d="M142.518 502.203C141.938 496.849 142.46 491.434 144.052 486.289C144.79 483.7 145.744 481.177 146.903 478.746C147.455 477.535 148.145 476.339 148.728 475.174C149.329 474.035 149.842 472.851 150.261 471.633C151.814 466.606 152.811 461.423 153.235 456.179C153.557 453.526 153.925 450.874 154.461 448.253C154.984 445.616 155.796 443.045 156.884 440.587C155.461 445.697 154.638 450.955 154.431 456.255C154.231 458.892 153.971 461.56 153.603 464.212C153.218 466.896 152.587 469.539 151.717 472.108C151.245 473.386 150.687 474.631 150.046 475.833C149.402 477.045 148.774 478.148 148.191 479.344C146.999 481.691 145.974 484.12 145.125 486.611C144.283 489.113 143.632 491.676 143.178 494.277C142.932 495.58 142.779 496.883 142.656 498.202C142.541 499.532 142.495 500.868 142.518 502.203Z" fill="#263238"/>
<path d="M217.657 455.029C217.764 457.16 217.657 459.291 217.657 461.407C217.657 463.522 217.657 465.638 217.887 467.738C218.068 469.809 218.422 471.86 218.944 473.871C219.067 474.377 219.236 474.867 219.374 475.404L219.496 475.772L219.604 476.079L219.941 476.738C220.432 477.627 220.999 478.532 221.566 479.436C222.655 481.261 223.743 483.131 224.632 485.078C225.574 487.022 226.364 489.037 226.993 491.103C227.61 493.171 228.036 495.29 228.266 497.435C228.488 499.565 228.488 501.713 228.266 503.843C228.117 499.62 227.31 495.446 225.874 491.471C224.402 487.536 222.516 483.769 220.248 480.233C219.696 479.313 219.144 478.424 218.607 477.443C218.484 477.198 218.362 476.937 218.239 476.661C218.239 476.523 218.117 476.37 218.071 476.232L217.963 475.833C217.81 475.312 217.641 474.791 217.534 474.3C217.048 472.191 216.766 470.04 216.691 467.876C216.632 465.728 216.703 463.577 216.905 461.437C217.12 459.245 217.365 457.145 217.657 455.029Z" fill="#263238"/>
<path d="M268.188 573.079C268.188 573.079 305.105 539.044 279.717 489.877C279.717 489.877 263.65 492.422 259.434 491.594C246.648 489.11 237.066 482.027 222.332 476.539C207.599 471.05 197.45 475.373 191.593 485.369C190.137 487.853 182.962 524.311 188.205 537.25C192.329 547.415 209.04 550.358 209.04 550.358C209.04 550.358 240.086 576.176 268.188 573.079Z" fill="#59518C"/>
<path d="M210.543 483.683C210.436 485.354 204.518 497.006 197.143 497.88C194.752 498.156 192.636 485.124 192.636 485.124L192.268 484.189L187.01 471.219L201.16 458.417L203.215 456.7C203.215 456.7 204.426 460.349 205.882 464.902C205.882 465.117 206.02 465.316 206.081 465.546C206.143 465.776 206.265 466.037 206.327 466.282C206.557 466.957 206.787 467.662 207.001 468.352C207.216 469.042 207.323 469.394 207.477 469.885C207.63 470.375 207.783 470.989 207.952 471.556C209.094 475.534 209.959 479.586 210.543 483.683Z" fill="#AD6359"/>
<path d="M205.882 464.902C205.145 468.911 203.545 472.712 201.195 476.042C198.844 479.372 195.798 482.151 192.268 484.189L187.01 471.219L201.16 458.417L203.215 456.7C203.215 456.7 204.426 460.349 205.882 464.902Z" fill="#263238"/>
<path d="M163.706 456.792C169.195 480.739 184.158 480.157 189.325 478.961C194.016 477.888 209.838 473.61 206.848 449.218C203.858 424.827 190.98 419.813 180.141 421.714C169.302 423.615 158.218 432.845 163.706 456.792Z" fill="#AD6359"/>
<path d="M167.294 452.131C167.819 451.89 168.331 451.618 168.827 451.319C169.394 451.101 169.874 450.702 170.191 450.184C170.26 450.006 170.268 449.809 170.212 449.626C170.156 449.442 170.041 449.283 169.885 449.172C169.541 448.994 169.155 448.913 168.769 448.937C168.383 448.962 168.011 449.091 167.692 449.31C166.996 449.656 166.45 450.245 166.159 450.966C166.113 451.125 166.11 451.293 166.15 451.453C166.19 451.614 166.272 451.76 166.387 451.879C166.503 451.997 166.647 452.083 166.806 452.127C166.966 452.172 167.134 452.173 167.294 452.131Z" fill="#263238"/>
<path d="M183.729 447.685C183.146 447.777 182.609 447.777 182.027 447.823C181.442 447.97 180.825 447.91 180.279 447.655C180.121 447.542 180.005 447.38 179.95 447.194C179.894 447.008 179.902 446.808 179.973 446.627C180.162 446.294 180.436 446.016 180.767 445.822C181.098 445.628 181.475 445.525 181.858 445.524C182.644 445.403 183.447 445.578 184.112 446.014C184.258 446.122 184.37 446.271 184.433 446.442C184.496 446.612 184.508 446.798 184.468 446.975C184.427 447.153 184.335 447.314 184.204 447.44C184.073 447.567 183.908 447.652 183.729 447.685Z" fill="#263238"/>
<path d="M182.395 454.569C182.395 454.492 182.548 454.569 182.563 454.676C182.962 456.301 183.683 458.095 185.292 458.218V458.31C183.453 458.555 182.517 456.163 182.395 454.569Z" fill="#263238"/>
<path d="M183.361 452.484C185.906 451.564 187.562 456.7 185.201 457.559C182.84 458.417 181.245 453.251 183.361 452.484Z" fill="#263238"/>
<path d="M184.465 452.423C185.001 452.576 185.614 452.944 186.166 452.821C186.718 452.699 187.117 451.993 187.362 451.288C187.362 451.212 187.362 451.288 187.469 451.288C187.701 451.732 187.753 452.248 187.616 452.73C187.479 453.211 187.164 453.623 186.734 453.879C186.259 454.034 185.743 454.004 185.289 453.797C184.835 453.59 184.475 453.22 184.281 452.76C184.173 452.683 184.25 452.361 184.465 452.423Z" fill="#263238"/>
<path d="M172.184 457.053C172.184 457.053 172.077 457.16 172.184 457.221C172.752 458.754 173.15 460.701 171.893 461.698C171.893 461.698 171.893 461.805 171.893 461.79C173.534 461.008 172.982 458.448 172.184 457.053Z" fill="#263238"/>
<path d="M170.222 455.857C167.6 456.501 169.087 461.698 171.51 461.1C173.932 460.502 172.414 455.305 170.222 455.857Z" fill="#263238"/>
<path d="M169.225 456.516C168.903 456.899 168.643 457.513 168.152 457.697C167.662 457.88 167.018 457.451 166.496 457.022C166.496 457.022 166.496 457.022 166.496 457.099C166.757 458.095 167.386 459.03 168.382 458.954C169.379 458.877 169.701 457.834 169.655 456.792C169.578 456.593 169.363 456.409 169.225 456.516Z" fill="#263238"/>
<path d="M177.075 463.323C177.075 463.323 177.474 465.807 177.826 466.941C177.826 467.049 178.148 466.941 178.531 466.941C179.556 466.824 180.528 466.426 181.34 465.79C182.152 465.154 182.772 464.305 183.131 463.338C183.131 463.2 182.993 463.139 182.916 463.231C181.784 464.66 180.219 465.683 178.455 466.144C178.286 465.853 177.903 461.867 177.719 461.897C176.868 462.247 176.068 462.711 175.343 463.277C174.346 458.111 174.177 452.837 173.12 447.701C173.12 447.517 172.798 447.547 172.798 447.701C172.796 453.364 173.361 459.014 174.484 464.565C174.622 465.209 176.676 463.645 177.075 463.323Z" fill="#263238"/>
<path d="M206.986 450.782C200.854 452.499 193.188 434.516 192.299 432.293C192.805 433.719 195.365 441.292 194.967 441.783C194.316 441.98 193.637 442.063 192.958 442.028C192.665 441.117 192.301 440.23 191.87 439.376C191.686 438.962 191.992 440.342 192.299 442.059H191.072C190.52 440.088 189.706 438.201 188.65 436.448C188.251 435.773 189.095 439.085 189.309 442.135C183.683 442.266 178.088 443.022 172.629 444.389C171.096 444.818 169.808 445.248 168.674 445.662C167.953 443.423 167.447 440.94 167.447 441.507C167.43 443.008 167.559 444.507 167.83 445.984L166.159 446.673C164.994 443.531 164.887 437.965 164.626 438.916C163.877 441.791 163.679 444.782 164.044 447.731C162.02 448.835 161.545 449.464 161.315 448.912C159.961 442.436 160.961 435.69 164.136 429.886C169.409 420.381 183.882 413.803 195.856 422.036C195.856 422.036 204.288 424.367 207.722 431.358C211.156 438.349 210.497 449.801 206.986 450.782Z" fill="#263238"/>
<path d="M203.475 451.932C203.475 451.932 206.219 442.979 210.129 443.73C214.038 444.481 213.594 456.301 210.129 459.061C209.714 459.437 209.228 459.725 208.699 459.909C208.17 460.092 207.609 460.167 207.051 460.128C206.493 460.089 205.948 459.938 205.449 459.684C204.951 459.429 204.509 459.077 204.15 458.647L203.475 451.932Z" fill="#AD6359"/>
<path d="M209.914 447.118V447.225C207.538 449.203 206.848 452.193 206.756 455.136C206.827 454.813 206.966 454.509 207.166 454.245C207.365 453.982 207.619 453.764 207.911 453.608C208.202 453.452 208.524 453.361 208.854 453.342C209.184 453.323 209.515 453.375 209.822 453.496C209.914 453.496 209.822 453.649 209.822 453.664C209.295 453.665 208.78 453.83 208.349 454.134C207.919 454.439 207.592 454.869 207.415 455.366C207.136 456.209 206.941 457.076 206.833 457.957C206.833 458.233 206.312 458.248 206.312 457.957V457.942C205.1 454.416 206.296 448.743 209.914 447.118Z" fill="#263238"/>
<path d="M231.562 487.991C251.63 512.919 279.088 555.264 267.59 565.137C248.748 581.373 192.805 591.829 179.957 593.684C174.423 594.497 162.403 558.422 165.99 553.624C169.578 548.825 228.848 544.072 229.216 540.424C229.4 538.354 224.142 520.738 217.81 498.83C210.497 473.549 225.813 480.939 231.562 487.991Z" fill="#AD6359"/>
<path d="M175.649 550.404C175.649 550.404 158.616 550.68 147.471 551.385C141.338 551.784 130.606 553.424 126.237 555.801C119.614 559.357 94.164 578.46 98.6407 584.731C102.719 590.418 122.496 571.209 122.496 571.209C122.496 571.209 100.848 588.824 106.981 594.757C113.113 600.69 132.63 575.992 132.63 575.992C132.63 575.992 110.783 594.589 118.096 599.694C123.631 603.557 142.519 582.216 142.519 582.216C142.519 582.216 123.845 598.36 129.364 602.576C135.497 607.175 154.124 588.625 154.124 588.625C169.961 596.98 180.923 594.481 188.512 591.783C190.352 591.124 175.649 550.404 175.649 550.404Z" fill="#AD6359"/>
<path d="M129.625 564.647C127.003 566.625 124.336 568.602 121.96 570.779C119.583 572.956 117.161 575.271 114.953 577.694C112.017 580.8 109.446 584.23 107.288 587.919C111.642 581.649 120.227 573.631 122.619 571.423C125.01 569.215 127.371 566.824 129.809 564.708C129.778 564.677 129.686 564.601 129.625 564.647Z" fill="#263238"/>
<path d="M137.735 573.294C134.5 575.961 131.189 578.491 128.061 581.312C124.934 584.133 122.266 587.03 119.353 590.035C119.138 590.265 119.353 590.311 119.568 590.035C122.634 587.153 125.608 584.715 128.659 581.864C131.71 579.012 134.654 576.053 137.858 573.324C137.858 573.324 137.781 573.263 137.735 573.294Z" fill="#263238"/>
<path d="M146.029 579.472C140.983 583.443 136.359 587.923 132.231 592.841C132.017 593.086 132.231 593.117 132.507 592.841C137.03 588.241 140.541 584.715 146.213 579.595C146.259 579.564 146.137 579.395 146.029 579.472Z" fill="#263238"/>
<path d="M188.328 548.227C185.936 548.227 180.923 549.377 175.327 549.76C162.74 550.588 144.925 550.956 138.532 551.431C121.392 552.719 111.274 565.613 106.567 570.151C103.749 572.891 101.212 575.906 98.9933 579.15C97.8281 580.913 96.7549 583.412 98.3954 585.283C100.388 587.567 107.594 584.915 115.014 577.893C115.275 577.632 115.106 577.479 114.83 577.724C104.421 586.57 100.174 585.681 99.024 584.24C98.2881 583.305 98.932 581.649 99.5452 580.361C100.541 578.517 101.767 576.806 103.194 575.271C107.927 569.93 113.192 565.086 118.908 560.814C125.044 555.992 132.424 553.014 140.188 552.229C145.692 551.646 162.679 551.385 175.358 550.45C180.908 550.036 185.89 548.81 188.297 548.518C188.527 548.503 188.497 548.227 188.328 548.227Z" fill="#263238"/>
<path d="M257.226 519.619L221.045 520.309C221.045 520.309 216.353 502.74 215.127 492.636C213.517 479.283 218.101 475.557 230.366 486.58C238.538 493.955 257.226 519.619 257.226 519.619Z" fill="#59518C"/>
<path d="M225.429 520.232C225.031 520.232 221.321 520.125 221.045 520.232C220.554 518.147 218.086 508.443 217.795 507.446C217.795 507.278 217.549 507.324 217.58 507.446C217.687 508.044 218.086 510.282 218.561 512.781V512.689C218.316 512.245 218.024 511.831 217.749 511.402C217.473 510.972 217.243 510.482 216.997 510.022C216.921 509.869 216.706 510.022 216.783 510.144C217.043 510.589 217.319 511.018 217.534 511.478C217.749 511.938 217.932 512.337 218.147 512.766L218.837 514.023C219.374 516.844 219.941 519.711 220.248 520.754C221.993 520.713 223.733 520.565 225.46 520.309C225.506 520.355 225.491 520.248 225.429 520.232Z" fill="#263238"/>
<path d="M253.455 516.2C248.181 515.94 242.922 515.756 237.633 515.802C235.011 515.802 232.375 515.894 229.738 516.001C227.101 516.108 224.494 516.476 221.857 516.538C221.719 516.538 221.735 516.768 221.857 516.768C224.479 516.553 227.147 516.768 229.768 516.645C232.39 516.522 235.042 516.538 237.679 516.507C242.938 516.507 248.196 516.369 253.455 516.43C253.624 516.476 253.593 516.2 253.455 516.2Z" fill="#263238"/>
<path d="M243.689 501.544C243.689 501.544 243.566 501.544 243.597 501.544C247.694 507.686 252.099 513.617 256.797 519.313C255.856 519.357 254.918 519.464 253.991 519.634C255.226 519.728 256.467 519.728 257.702 519.634C257.778 519.696 245.038 502.709 243.689 501.544Z" fill="#263238"/>
<path d="M203.169 376.901C198.983 386.836 187.96 393.244 187.96 393.244C187.96 393.244 176.247 388.216 170.897 378.864C166.42 371.076 168.413 362.229 174.576 359.96C183.422 356.68 186.688 372.225 186.688 372.225C186.688 372.225 188.037 356.404 197.22 358.565C203.567 360.083 206.633 368.623 203.169 376.901Z" fill="#59518C"/>
<path d="M159.107 349.811C160.103 358.565 154.814 367.549 154.814 367.549C154.814 367.549 144.465 368.653 136.907 364.146C130.591 360.374 128.475 353.276 131.955 349.183C136.938 343.311 145.493 353.077 145.493 353.077C145.493 353.077 140.127 341.272 147.532 339.141C152.652 337.654 158.233 342.514 159.107 349.811Z" fill="#59518C"/>
<path d="M215.556 267.835C216.553 276.59 211.263 285.558 211.263 285.558C211.263 285.558 200.915 286.677 193.357 282.155C187.04 278.399 184.925 271.3 188.405 267.207C193.387 261.335 201.942 271.101 201.942 271.101C201.942 271.101 196.576 259.296 203.981 257.165C209.148 255.739 214.728 260.599 215.556 267.835Z" fill="#59518C"/>
<path d="M191.962 313.231C188.573 318.643 181.506 321.341 181.506 321.341C181.506 321.341 175.143 317.294 172.89 311.315C171.019 306.317 173.028 301.334 176.86 300.583C182.334 299.51 182.763 308.908 182.763 308.908C182.763 308.908 185.063 299.709 190.229 301.932C193.832 303.45 194.798 308.724 191.962 313.231Z" fill="#59518C"/>
<path d="M167.033 241.772C166.516 244.423 165.268 246.876 163.43 248.855C160.751 248.475 158.233 247.349 156.163 245.605C153.879 243.367 153.695 240.147 155.581 238.768C158.279 236.775 160.931 241.834 160.931 241.834C160.931 241.834 159.843 236.284 163.2 236.131C165.546 235.901 167.416 238.522 167.033 241.772Z" fill="#59518C"/>
</svg>
