<svg width="292" height="60" viewBox="0 0 292 60" fill="none" xmlns="http://www.w3.org/2000/svg">
<path d="M0 48V0H6V43H44V48H0ZM52 12H58V48H52V12ZM58 6H52V0H58V6ZM90 48.6875C87.125 48.6875 84.7292 48.4896 82.8125 48.0938C80.9167 47.7188 79.3646 47.3125 78.1562 46.875C76.9479 46.4167 76.0312 45.7083 75.4062 44.75C74.7812 43.7708 74.3125 43.0104 74 42.4688V48H68V0H74V15.4062C74.2708 14.9688 74.7188 14.5 75.3438 14C75.9896 13.4792 76.9167 13 78.125 12.5625C79.3542 12.1042 80.9271 11.7292 82.8438 11.4375C84.7604 11.1458 87.1458 11 90 11C94 11 97.3958 11.3021 100.188 11.9062C102.979 12.5104 105.25 13.5417 107 15C108.75 16.4583 110.021 18.4167 110.812 20.875C111.604 23.3125 112 26.375 112 30.0625C112 33.6875 111.604 36.6979 110.812 39.0938C110.021 41.4896 108.75 43.3958 107 44.8125C105.25 46.2292 102.979 47.2292 100.188 47.8125C97.3958 48.3958 94 48.6875 90 48.6875ZM90 44C92.3333 44 94.3438 43.9271 96.0312 43.7812C97.7396 43.6354 99.1875 43.375 100.375 43C101.562 42.625 102.521 42.1042 103.25 41.4375C104 40.7708 104.573 39.9271 104.969 38.9062C105.385 37.8646 105.656 36.625 105.781 35.1875C105.927 33.7292 106 32.0208 106 30.0625C106 28.1042 105.927 26.3958 105.781 24.9375C105.656 23.4792 105.385 22.2396 104.969 21.2188C104.573 20.1771 104 19.3229 103.25 18.6562C102.521 17.9688 101.562 17.4375 100.375 17.0625C99.1875 16.6667 97.7396 16.3958 96.0312 16.25C94.3438 16.1042 92.3333 16.0312 90 16.0312C88 16.0312 86.2188 16.0833 84.6562 16.1875C83.0938 16.2708 81.7188 16.4792 80.5312 16.8125C79.3438 17.1458 78.3333 17.625 77.5 18.25C76.6875 18.875 76.0208 19.7083 75.5 20.75C74.9792 21.7917 74.5938 23.0833 74.3438 24.625C74.1146 26.1667 74 28.0104 74 30.1562C74 32.2812 74.1146 34.1042 74.3438 35.625C74.5938 37.125 74.9792 38.3854 75.5 39.4062C76.0208 40.4271 76.6875 41.25 77.5 41.875C78.3333 42.4792 79.3438 42.9375 80.5312 43.25C81.7188 43.5625 83.0938 43.7708 84.6562 43.875C86.2188 43.9583 88 44 90 44ZM150 23.7188C150 22.2188 149.885 20.9792 149.656 20C149.448 19 148.938 18.2083 148.125 17.625C147.312 17.0208 146.104 16.6042 144.5 16.375C142.917 16.125 140.75 16 138 16C135.312 16 133.125 16.2396 131.438 16.7188C129.75 17.1771 128.427 17.8333 127.469 18.6875C126.51 19.5417 125.854 20.5625 125.5 21.75C125.167 22.9375 125 24.2604 125 25.7188V48H119V12H125V17.7188C125.208 17.0729 125.594 16.3646 126.156 15.5938C126.719 14.8021 127.573 14.0729 128.719 13.4062C129.865 12.7188 131.344 12.1458 133.156 11.6875C134.99 11.2292 137.271 11 140 11C143.125 11 145.667 11.2812 147.625 11.8438C149.583 12.3854 151.104 13.1979 152.188 14.2812C153.292 15.3438 154.031 16.6667 154.406 18.25C154.802 19.8333 155 21.6562 155 23.7188H150ZM194.844 43.0625C194.781 43.3125 194.312 43.9375 193.438 44.9375C192.812 45.6875 191.979 46.3542 190.938 46.9375C189.896 47.5 188.5 47.9375 186.75 48.25C185.021 48.5833 182.74 48.75 179.906 48.75C176.135 48.75 172.917 48.5521 170.25 48.1562C167.583 47.7812 165.406 47.1979 163.719 46.4062C162.031 45.5938 160.792 44.5625 160 43.3125C159.229 42.0625 158.844 40.5729 158.844 38.8438C158.844 37.0312 159.052 35.5 159.469 34.25C159.906 32.9792 160.531 31.9167 161.344 31.0625C162.177 30.2083 163.177 29.5417 164.344 29.0625C165.51 28.5833 166.833 28.2188 168.312 27.9688C169.812 27.7188 171.448 27.5625 173.219 27.5C174.99 27.4375 176.875 27.4062 178.875 27.4062C181.729 27.4062 184.115 27.5312 186.031 27.7812C187.948 28.0104 189.51 28.3125 190.719 28.6875C191.948 29.0417 192.875 29.4271 193.5 29.8438C194.125 30.2604 194.573 30.6458 194.844 31C194.844 28.6667 194.74 26.6771 194.531 25.0312C194.344 23.3854 194.021 22.0104 193.562 20.9062C193.125 19.8021 192.552 18.9271 191.844 18.2812C191.135 17.6146 190.26 17.1146 189.219 16.7812C188.198 16.4479 187 16.2396 185.625 16.1562C184.25 16.0521 182.677 16 180.906 16C178.156 16 175.875 16.0729 174.062 16.2188C172.25 16.3438 170.812 16.6042 169.75 17C168.688 17.3958 167.938 17.9479 167.5 18.6562C167.062 19.3438 166.844 20.25 166.844 21.375H160.844C160.844 19.4792 161.177 17.875 161.844 16.5625C162.531 15.25 163.656 14.1875 165.219 13.375C166.802 12.5417 168.875 11.9375 171.438 11.5625C174 11.1875 177.156 11 180.906 11C184.573 11 187.677 11.3021 190.219 11.9062C192.76 12.5104 194.812 13.5729 196.375 15.0938C197.958 16.6146 199.094 18.6667 199.781 21.25C200.49 23.8125 200.844 27.0625 200.844 31V48H194.844V43.0625ZM180.906 44C183.552 44 185.76 43.875 187.531 43.625C189.323 43.375 190.76 43 191.844 42.5C192.927 42 193.698 41.375 194.156 40.625C194.615 39.875 194.844 39 194.844 38C194.844 37 194.573 36.1562 194.031 35.4688C193.51 34.7604 192.625 34.1875 191.375 33.75C190.146 33.3125 188.51 33 186.469 32.8125C184.427 32.6042 181.906 32.5 178.906 32.5C175.906 32.5 173.479 32.5521 171.625 32.6562C169.792 32.7604 168.375 33 167.375 33.375C166.375 33.75 165.698 34.3021 165.344 35.0312C165.01 35.7604 164.844 36.75 164.844 38C164.844 39.25 165.021 40.2708 165.375 41.0625C165.75 41.8333 166.5 42.4375 167.625 42.875C168.75 43.3125 170.365 43.6146 172.469 43.7812C174.594 43.9271 177.406 44 180.906 44ZM239.875 23.7188C239.875 22.2188 239.76 20.9792 239.531 20C239.323 19 238.812 18.2083 238 17.625C237.188 17.0208 235.979 16.6042 234.375 16.375C232.792 16.125 230.625 16 227.875 16C225.188 16 223 16.2396 221.312 16.7188C219.625 17.1771 218.302 17.8333 217.344 18.6875C216.385 19.5417 215.729 20.5625 215.375 21.75C215.042 22.9375 214.875 24.2604 214.875 25.7188V48H208.875V12H214.875V17.7188C215.083 17.0729 215.469 16.3646 216.031 15.5938C216.594 14.8021 217.448 14.0729 218.594 13.4062C219.74 12.7188 221.219 12.1458 223.031 11.6875C224.865 11.2292 227.146 11 229.875 11C233 11 235.542 11.2812 237.5 11.8438C239.458 12.3854 240.979 13.1979 242.062 14.2812C243.167 15.3438 243.906 16.6667 244.281 18.25C244.677 19.8333 244.875 21.6562 244.875 23.7188H239.875ZM265.875 48L246.875 12H253.875L269.875 44L284.875 12H291.875L273.875 48L272.875 50C272.375 51 271.875 51.9375 271.375 52.8125C270.896 53.7083 270.344 54.5208 269.719 55.25C269.094 56 268.354 56.6667 267.5 57.25C266.646 57.8333 265.594 58.3229 264.344 58.7188C263.115 59.1354 261.646 59.4479 259.938 59.6562C258.229 59.8854 256.208 60 253.875 60V55C255.875 55 257.562 54.9167 258.938 54.75C260.312 54.6042 261.458 54.375 262.375 54.0625C263.312 53.7708 264.062 53.4167 264.625 53C265.188 52.5833 265.656 52.1146 266.031 51.5938C266.406 51.0729 266.719 50.5104 266.969 49.9062C267.24 49.3021 267.542 48.6667 267.875 48H265.875Z" fill="white"/>
</svg>
