<svg width="1703" height="1534" viewBox="0 0 1703 1534" fill="none" xmlns="http://www.w3.org/2000/svg">
<path d="M1308.81 1392.95H1159.92V1394.04H1308.81V1392.95Z" fill="#EBEBEB"/>
<path d="M573.312 1392.38H328.858V1393.47H573.312V1392.38Z" fill="#EBEBEB"/>
<path d="M1226.95 36.7932H46.7783V712.914H1226.95V36.7932Z" fill="#E6E6E6"/>
<path d="M1244.52 36.7932H54.9995V712.914H1244.52V36.7932Z" fill="#F0F0F0"/>
<path d="M1219.94 685.293V64.3704L79.5754 64.3704V685.293L1219.94 685.293Z" fill="#FAFAFA"/>
<path d="M219.549 685.293L363.743 64.3704H552.825L408.588 685.293H219.549Z" fill="white"/>
<path d="M439.21 685.293L583.404 64.3704H668.789L524.596 685.293H439.21Z" fill="white"/>
<path d="M777.967 685.293L922.204 64.3704H1068.05L923.813 685.293H777.967Z" fill="white"/>
<path d="M1219.94 685.337V64.4138H1216.81V685.337H1219.94Z" fill="#E6E6E6"/>
<path d="M685.231 36.7932H614.331V712.914H685.231V36.7932Z" fill="#F0F0F0"/>
<path d="M614.33 685.293V64.3704H611.198V685.293H614.33Z" fill="#E6E6E6"/>
<path d="M650.999 36.7932H648.52V712.914H650.999V36.7932Z" fill="#E6E6E6"/>
<g opacity="0.7">
<path d="M1155 545.406H1268.44V0.994873H1155V545.406Z" fill="#EBEBEB"/>
<path d="M1155 0.951416H1081.53V481.813H1155V0.951416Z" fill="#E0E0E0"/>
<path d="M968.093 545.406H1081.53V0.994873H968.093L968.093 545.406Z" fill="#EBEBEB"/>
<path d="M968.094 0.951416H894.627V481.813H968.094V0.951416Z" fill="#E0E0E0"/>
<path d="M781.186 545.406H894.626L894.626 0.994873H781.186L781.186 545.406Z" fill="#EBEBEB"/>
<path d="M781.186 0.951416H707.719V481.813H781.186V0.951416Z" fill="#E0E0E0"/>
<path d="M594.278 545.406H707.719L707.719 0.994873H594.278L594.278 545.406Z" fill="#EBEBEB"/>
<path d="M594.278 0.951416H520.812V481.813H594.278V0.951416Z" fill="#E0E0E0"/>
<path d="M407.371 545.406H520.812L520.812 0.994873H407.371L407.371 545.406Z" fill="#EBEBEB"/>
<path d="M407.371 0.951416H333.904V481.813H407.371V0.951416Z" fill="#E0E0E0"/>
<path d="M220.463 545.406H333.904L333.904 0.994873H220.463L220.463 545.406Z" fill="#EBEBEB"/>
<path d="M33.5553 545.406H146.996L146.996 0.994873H33.5553L33.5553 545.406Z" fill="#EBEBEB"/>
<path d="M220.463 0.951416H146.996V481.813H220.463V0.951416Z" fill="#E0E0E0"/>
</g>
<path d="M1641.26 910.522H1495.32V1337.1H1641.26V910.522Z" fill="#E6E6E6"/>
<path d="M1602.24 1337.1H1641.21V1263.5H1561.4L1602.24 1337.1Z" fill="#F5F5F5"/>
<path d="M748.78 910.522H602.847V1337.1H748.78V910.522Z" fill="#E6E6E6"/>
<path d="M1641.21 910.522H714.766V1311.74H1641.21V910.522Z" fill="#F5F5F5"/>
<path d="M753.696 1337.1H714.766V1263.5H794.583L753.696 1337.1Z" fill="#F5F5F5"/>
<path d="M1611.03 945.711H744.996V1094.21H1611.03V945.711Z" fill="#E6E6E6"/>
<path d="M1611.03 1126.01H744.996V1274.51H1611.03V1126.01Z" fill="#E6E6E6"/>
<path d="M1479.62 268.068H1702.63V232.313L1479.62 232.313V268.068Z" fill="#F0F0F0"/>
<path d="M1479.66 232.313H1373.31V268.068H1479.66V232.313Z" fill="#E6E6E6"/>
<path d="M1483.75 268.068H1591.15L1512.85 319.177H1483.75V268.068Z" fill="#EBEBEB"/>
<path d="M1472.53 268.068H1579.93L1501.63 319.177H1472.53V268.068Z" fill="#E0E0E0"/>
<path d="M1563.44 232.313H1633.25V79.203H1563.44V232.313Z" fill="#E6E6E6"/>
<path d="M1653.44 79.1594H1633.25V232.27H1653.44V79.1594Z" fill="#F0F0F0"/>
<path d="M1473.49 92.687H1563.44L1585.15 232.313H1495.15L1473.49 92.687Z" fill="#E6E6E6"/>
<path d="M1589.45 92.687H1563.44L1585.15 232.313H1611.16L1589.45 92.687Z" fill="#F0F0F0"/>
<path d="M1431.99 232.313H1533.95V74.0703H1431.99V232.313Z" fill="#EBEBEB"/>
<path d="M1563.44 74.0703H1533.95V232.313H1563.44V74.0703Z" fill="#F5F5F5"/>
<path d="M1510.29 232.313H1505.94V137.054C1505.94 133.119 1505.16 129.221 1503.66 125.585C1502.15 121.949 1499.94 118.645 1497.16 115.862C1494.38 113.08 1491.07 110.872 1487.44 109.366C1483.8 107.86 1479.9 107.085 1475.97 107.085C1472.03 107.085 1468.13 107.86 1464.5 109.366C1460.86 110.872 1457.56 113.08 1454.78 115.862C1451.99 118.645 1449.78 121.949 1448.28 125.585C1446.77 129.221 1446 133.119 1446 137.054V232.313H1441.65V137.054C1441.65 132.547 1442.54 128.085 1444.26 123.921C1445.98 119.757 1448.51 115.974 1451.7 112.787C1454.89 109.6 1458.67 107.072 1462.83 105.347C1467 103.623 1471.46 102.735 1475.97 102.735C1480.47 102.735 1484.94 103.623 1489.1 105.347C1493.26 107.072 1497.05 109.6 1500.23 112.787C1503.42 115.974 1505.95 119.757 1507.67 123.921C1509.4 128.085 1510.29 132.547 1510.29 137.054V232.313Z" fill="#E0E0E0"/>
<path d="M1479.62 578.247H1702.63V542.492H1479.62V578.247Z" fill="#F0F0F0"/>
<path d="M1479.66 542.448H1373.31V578.203H1479.66V542.448Z" fill="#E6E6E6"/>
<path d="M1483.75 578.203H1591.15L1512.85 629.356H1483.75V578.203Z" fill="#EBEBEB"/>
<path d="M1472.53 578.203H1579.93L1501.63 629.356H1472.53V578.203Z" fill="#E0E0E0"/>
<path d="M1539.65 542.448H1641.6V429.225H1539.65V542.448Z" fill="#E0E0E0"/>
<path d="M1667.75 429.225H1641.6V542.448H1667.75V429.225Z" fill="#F0F0F0"/>
<path d="M1508.11 542.448H1595.5V397.211H1508.11V542.448Z" fill="#E0E0E0"/>
<path d="M1613.29 397.211H1595.5V542.448H1613.29V397.211Z" fill="#EBEBEB"/>
<path d="M1479.93 542.448H1556.52V411.739H1479.93V542.448Z" fill="#E6E6E6"/>
<path d="M1578.66 411.783H1556.52V542.492H1578.66V411.783Z" fill="#F0F0F0"/>
<path d="M1431.99 542.448H1533.95V429.225H1431.99V542.448Z" fill="#F0F0F0"/>
<path d="M1548.69 429.225H1533.95V542.448H1548.69V429.225Z" fill="#FAFAFA"/>
<path d="M1510.29 542.449H1505.94V447.233C1505.94 439.285 1502.78 431.662 1497.16 426.041C1491.54 420.421 1483.92 417.264 1475.97 417.264C1468.02 417.264 1460.4 420.421 1454.78 426.041C1449.15 431.662 1446 439.285 1446 447.233V542.449H1441.65V447.233C1441.65 438.131 1445.26 429.402 1451.7 422.966C1458.14 416.53 1466.86 412.914 1475.97 412.914C1485.07 412.914 1493.8 416.53 1500.23 422.966C1506.67 429.402 1510.29 438.131 1510.29 447.233V542.449Z" fill="#E0E0E0"/>
<path d="M416.853 981.814H379.315V1337.1H416.853V981.814Z" fill="#F5F5F5"/>
<path d="M433.208 981.814H400.542V1337.1H433.208V981.814Z" fill="#F0F0F0"/>
<path d="M38.3836 981.814H0.845459V1337.1H38.3836V981.814Z" fill="#F5F5F5"/>
<path d="M54.7384 981.814H22.072V1337.1H54.7384V981.814Z" fill="#F0F0F0"/>
<path d="M559.176 981.814H521.638V1337.1H559.176V981.814Z" fill="#F5F5F5"/>
<path d="M575.487 981.814H542.821V1337.1H575.487V981.814Z" fill="#F0F0F0"/>
<path d="M180.707 981.814H143.168V1337.1H180.707V981.814Z" fill="#F5F5F5"/>
<path d="M0.888855 990.774L575.531 990.774V945.711L0.888855 945.711V990.774Z" fill="#F0F0F0"/>
<path d="M0.888931 990.774H164.395V945.711H0.888931V990.774Z" fill="#E6E6E6"/>
<path d="M197.061 981.814H164.395V1337.1H197.061V981.814Z" fill="#F0F0F0"/>
<path d="M844.431 1533.53C1310.21 1533.53 1687.8 1511.49 1687.8 1484.29C1687.8 1457.1 1310.21 1435.06 844.431 1435.06C378.652 1435.06 1.06299 1457.1 1.06299 1484.29C1.06299 1511.49 378.652 1533.53 844.431 1533.53Z" fill="#F5F5F5"/>
<path d="M1443.08 1485.38H573.399V1267.29H1443.08C1447.56 1267.29 1451.85 1269.06 1455.02 1272.23C1458.18 1275.39 1459.96 1279.69 1459.96 1284.16V1468.5C1459.96 1472.98 1458.18 1477.27 1455.02 1480.44C1451.85 1483.6 1447.56 1485.38 1443.08 1485.38Z" fill="#756CBF"/>
<path opacity="0.2" d="M1443.08 1485.38H573.399V1267.29H1443.08C1447.56 1267.29 1451.85 1269.06 1455.02 1272.23C1458.18 1275.39 1459.96 1279.69 1459.96 1284.16V1468.5C1459.96 1472.98 1458.18 1477.27 1455.02 1480.44C1451.85 1483.6 1447.56 1485.38 1443.08 1485.38Z" fill="black"/>
<path opacity="0.2" d="M786.623 1485.38H919.681V1267.29H786.623V1485.38Z" fill="black"/>
<path opacity="0.2" d="M976.837 1485.38H1044.3V1267.29H976.837V1485.38Z" fill="black"/>
<path d="M285.317 1267.29H573.356V1485.38H285.317C280.818 1485.38 276.504 1483.59 273.322 1480.41C270.141 1477.23 268.354 1472.92 268.354 1468.42V1284.25C268.354 1279.75 270.141 1275.44 273.322 1272.25C276.504 1269.07 280.818 1267.29 285.317 1267.29Z" fill="#756CBF"/>
<path opacity="0.9" d="M268.354 1290.73H520.333C526.205 1290.73 531.836 1293.06 535.988 1297.22C540.14 1301.37 542.473 1307 542.473 1312.87V1439.75C542.473 1445.62 540.14 1451.26 535.988 1455.41C531.836 1459.56 526.205 1461.89 520.333 1461.89H268.354V1290.73Z" fill="white"/>
<path opacity="0.2" d="M1338.08 1438.71C1372.53 1438.71 1400.46 1410.78 1400.46 1376.33C1400.46 1341.89 1372.53 1313.96 1338.08 1313.96C1303.63 1313.96 1275.71 1341.89 1275.71 1376.33C1275.71 1410.78 1303.63 1438.71 1338.08 1438.71Z" fill="black"/>
<path d="M1506.07 1267.11L636.123 1267.11V1108.83H1506.07C1510.54 1108.83 1514.84 1110.6 1518 1113.77C1521.17 1116.93 1522.94 1121.23 1522.94 1125.7V1250.41C1522.9 1254.86 1521.1 1259.1 1517.94 1262.23C1514.78 1265.36 1510.51 1267.11 1506.07 1267.11Z" fill="#263238"/>
<path opacity="0.2" d="M1506.07 1267.11L636.123 1267.11V1108.83H1506.07C1510.54 1108.83 1514.84 1110.6 1518 1113.77C1521.17 1116.93 1522.94 1121.23 1522.94 1125.7V1250.41C1522.9 1254.86 1521.1 1259.1 1517.94 1262.23C1514.78 1265.36 1510.51 1267.11 1506.07 1267.11Z" fill="black"/>
<path d="M348.258 1109.17H636.297V1267.46H348.258C343.759 1267.46 339.444 1265.67 336.263 1262.49C333.081 1259.31 331.294 1255 331.294 1250.5V1125.96C331.34 1121.49 333.147 1117.22 336.324 1114.08C339.5 1110.94 343.789 1109.17 348.258 1109.17Z" fill="#263238"/>
<path opacity="0.9" d="M331.164 1132.44H583.448C589.319 1132.44 594.951 1134.78 599.103 1138.93C603.255 1143.08 605.588 1148.71 605.588 1154.59V1221.79C605.599 1224.7 605.035 1227.59 603.927 1230.29C602.82 1232.98 601.191 1235.43 599.134 1237.5C597.077 1239.57 594.632 1241.2 591.94 1242.32C589.248 1243.44 586.362 1244.02 583.448 1244.02H331.164V1132.44Z" fill="white"/>
<path opacity="0.3" d="M818.376 1229.79H1426.9C1436.97 1229.79 1445.13 1221.63 1445.13 1211.57V1164.68C1445.13 1154.61 1436.97 1146.45 1426.9 1146.45H818.376C808.31 1146.45 800.151 1154.61 800.151 1164.68V1211.57C800.151 1221.63 808.31 1229.79 818.376 1229.79Z" fill="#756CBF"/>
<path opacity="0.3" d="M669.311 1267.29H692.408V1109H669.311V1267.29Z" fill="#756CBF"/>
<path opacity="0.3" d="M711.46 1267.29H734.557V1109H711.46V1267.29Z" fill="#756CBF"/>
<path d="M1409.76 1109H540.124V945.537L1409.76 945.537C1414.24 945.537 1418.53 947.315 1421.7 950.48C1424.86 953.645 1426.64 957.938 1426.64 962.414V1092.12C1426.64 1096.6 1424.86 1100.89 1421.7 1104.06C1418.53 1107.22 1414.24 1109 1409.76 1109Z" fill="#756CBF"/>
<path opacity="0.3" d="M1409.76 1109H540.124V945.537L1409.76 945.537C1414.24 945.537 1418.53 947.315 1421.7 950.48C1424.86 953.645 1426.64 957.938 1426.64 962.414V1092.12C1426.64 1096.6 1424.86 1100.89 1421.7 1104.06C1418.53 1107.22 1414.24 1109 1409.76 1109Z" fill="black"/>
<path opacity="0.9" d="M753.348 1109H1055.31V945.711H753.348V1109Z" fill="white"/>
<path opacity="0.9" d="M1185.01 1109H1338.12V945.711H1185.01V1109Z" fill="white"/>
<path d="M252.086 945.711H539.95V1109.17H252.086C249.858 1109.17 247.652 1108.74 245.594 1107.88C243.536 1107.03 241.665 1105.78 240.09 1104.21C238.515 1102.63 237.265 1100.76 236.413 1098.7C235.56 1096.64 235.122 1094.44 235.122 1092.21V962.675C235.122 960.447 235.56 958.242 236.413 956.183C237.265 954.125 238.515 952.255 240.09 950.68C241.665 949.105 243.536 947.855 245.594 947.002C247.652 946.15 249.858 945.711 252.086 945.711Z" fill="#756CBF"/>
<path opacity="0.9" d="M235.122 969.113H487.101C492.973 969.113 498.604 971.445 502.756 975.598C506.909 979.75 509.241 985.381 509.241 991.253V1063.41C509.241 1069.29 506.909 1074.92 502.756 1079.07C498.604 1083.22 492.973 1085.55 487.101 1085.55H235.122V969.113Z" fill="white"/>
<path d="M1472.66 945.711L603.021 945.711V837.403L1472.66 837.403C1477.14 837.403 1481.43 839.181 1484.59 842.346C1487.76 845.511 1489.54 849.804 1489.54 854.28V928.834C1489.54 933.31 1487.76 937.603 1484.59 940.768C1481.43 943.933 1477.14 945.711 1472.66 945.711Z" fill="#756CBF"/>
<path opacity="0.3" d="M1472.66 945.711L603.021 945.711V837.403L1472.66 837.403C1477.14 837.403 1481.43 839.181 1484.59 842.346C1487.76 845.511 1489.54 849.804 1489.54 854.28V928.834C1489.54 933.31 1487.76 937.603 1484.59 940.768C1481.43 943.933 1477.14 945.711 1472.66 945.711Z" fill="white"/>
<path opacity="0.2" d="M1472.66 945.711L603.021 945.711V837.403L1472.66 837.403C1477.14 837.403 1481.43 839.181 1484.59 842.346C1487.76 845.511 1489.54 849.804 1489.54 854.28V928.834C1489.54 933.31 1487.76 937.603 1484.59 940.768C1481.43 943.933 1477.14 945.711 1472.66 945.711Z" fill="black"/>
<path d="M314.982 837.403H603.021V945.711H314.982C310.483 945.711 306.169 943.924 302.987 940.743C299.806 937.561 298.019 933.246 298.019 928.747V854.367C298.019 849.868 299.806 845.553 302.987 842.372C306.169 839.19 310.483 837.403 314.982 837.403Z" fill="#756CBF"/>
<path opacity="0.3" d="M314.982 837.403H603.021V945.711H314.982C310.483 945.711 306.169 943.924 302.987 940.743C299.806 937.561 298.019 933.246 298.019 928.747V854.367C298.019 849.868 299.806 845.553 302.987 842.372C306.169 839.19 310.483 837.403 314.982 837.403Z" fill="white"/>
<path opacity="0.9" d="M298.019 860.848H549.955C555.826 860.848 561.458 863.181 565.61 867.333C569.762 871.485 572.095 877.116 572.095 882.988V900.387C571.992 906.191 569.614 911.722 565.473 915.79C561.332 919.858 555.759 922.137 549.955 922.136H298.019V860.848Z" fill="white"/>
<path opacity="0.4" d="M680.838 917.177H1075.01V865.981H680.838V917.177Z" fill="#263238"/>
<path d="M752.651 801.561H877.01V837.447H752.651C751.913 837.447 751.205 837.153 750.683 836.631C750.161 836.109 749.868 835.401 749.868 834.663V804.215C749.901 803.499 750.209 802.824 750.728 802.33C751.246 801.836 751.935 801.561 752.651 801.561Z" fill="#756CBF"/>
<path opacity="0.2" d="M752.651 801.561H877.01V837.447H752.651C751.913 837.447 751.205 837.153 750.683 836.631C750.161 836.109 749.868 835.401 749.868 834.663V804.215C749.901 803.499 750.209 802.824 750.728 802.33C751.246 801.836 751.935 801.561 752.651 801.561Z" fill="black"/>
<path d="M924.422 837.49H877.184V801.605H924.596C925.334 801.605 926.042 801.898 926.564 802.42C927.087 802.942 927.38 803.65 927.38 804.389V834.837C927.363 835.206 927.273 835.569 927.115 835.903C926.956 836.238 926.733 836.537 926.458 836.784C926.182 837.031 925.861 837.221 925.511 837.342C925.161 837.463 924.791 837.514 924.422 837.49Z" fill="#756CBF"/>
<path opacity="0.9" d="M927.25 833.619H885.797C884.828 833.619 883.898 833.234 883.213 832.549C882.528 831.864 882.143 830.934 882.143 829.965V809.087C882.143 808.117 882.528 807.188 883.213 806.503C883.898 805.818 884.828 805.433 885.797 805.433H927.25V833.619Z" fill="white"/>
<path d="M742.299 775.507H866.658V801.605H742.299C741.561 801.605 740.853 801.312 740.331 800.79C739.809 800.267 739.515 799.559 739.515 798.821V778.334C739.51 777.965 739.577 777.598 739.715 777.255C739.852 776.912 740.056 776.6 740.315 776.337C740.574 776.074 740.883 775.865 741.224 775.723C741.564 775.58 741.93 775.507 742.299 775.507Z" fill="#263238"/>
<path opacity="0.2" d="M742.299 775.507H866.658V801.605H742.299C741.561 801.605 740.853 801.312 740.331 800.79C739.809 800.267 739.515 799.559 739.515 798.821V778.334C739.51 777.965 739.577 777.598 739.715 777.255C739.852 776.912 740.056 776.6 740.315 776.337C740.574 776.074 740.883 775.865 741.224 775.723C741.564 775.58 741.93 775.507 742.299 775.507Z" fill="black"/>
<path d="M914.07 801.605L866.658 801.605V775.507H914.07C914.808 775.507 915.516 775.8 916.038 776.322C916.56 776.844 916.854 777.552 916.854 778.29V798.778C916.859 799.147 916.792 799.514 916.654 799.856C916.517 800.199 916.313 800.511 916.054 800.774C915.795 801.037 915.486 801.246 915.145 801.389C914.805 801.532 914.439 801.605 914.07 801.605Z" fill="#263238"/>
<path opacity="0.9" d="M916.897 797.734H875.445C874.965 797.734 874.49 797.639 874.046 797.455C873.603 797.272 873.2 797.003 872.861 796.663C872.522 796.324 872.253 795.921 872.069 795.478C871.885 795.035 871.791 794.56 871.791 794.08V783.032C871.791 782.063 872.176 781.133 872.861 780.448C873.546 779.763 874.476 779.378 875.445 779.378H916.897V797.734Z" fill="white"/>
<path d="M758.132 748.669H882.491V775.55H758.132C757.394 775.55 756.686 775.257 756.164 774.735C755.642 774.213 755.349 773.505 755.349 772.766V751.453C755.349 751.087 755.421 750.725 755.56 750.387C755.7 750.05 755.906 749.743 756.164 749.484C756.423 749.226 756.729 749.021 757.067 748.881C757.405 748.741 757.767 748.669 758.132 748.669Z" fill="#756CBF"/>
<path opacity="0.3" d="M758.132 748.669H882.491V775.55H758.132C757.394 775.55 756.686 775.257 756.164 774.735C755.642 774.213 755.349 773.505 755.349 772.766V751.453C755.349 751.087 755.421 750.725 755.56 750.387C755.7 750.05 755.906 749.743 756.164 749.484C756.423 749.226 756.729 749.021 757.067 748.881C757.405 748.741 757.767 748.669 758.132 748.669Z" fill="black"/>
<path d="M929.903 775.507L882.491 775.507V748.625H929.903C930.641 748.625 931.349 748.919 931.871 749.441C932.393 749.963 932.687 750.671 932.687 751.409V772.679C932.692 773.048 932.625 773.415 932.487 773.758C932.35 774.101 932.146 774.413 931.887 774.676C931.628 774.939 931.319 775.148 930.978 775.291C930.638 775.433 930.272 775.507 929.903 775.507Z" fill="#756CBF"/>
<path opacity="0.9" d="M932.687 771.679H891.234C890.265 771.679 889.335 771.294 888.65 770.609C887.965 769.923 887.58 768.994 887.58 768.025V756.15C887.58 755.181 887.965 754.252 888.65 753.567C889.335 752.881 890.265 752.497 891.234 752.497H932.687V771.679Z" fill="white"/>
<path d="M747.78 730.748H872.138V748.582H747.78C747.042 748.582 746.334 748.289 745.811 747.766C745.289 747.244 744.996 746.536 744.996 745.798V733.532C744.996 732.793 745.289 732.085 745.811 731.563C746.334 731.041 747.042 730.748 747.78 730.748Z" fill="#756CBF"/>
<path opacity="0.3" d="M747.78 730.748H872.138V748.582H747.78C747.042 748.582 746.334 748.289 745.811 747.766C745.289 747.244 744.996 746.536 744.996 745.798V733.532C744.996 732.793 745.289 732.085 745.811 731.563C746.334 731.041 747.042 730.748 747.78 730.748Z" fill="white"/>
<path opacity="0.2" d="M747.78 730.748H872.138V748.582H747.78C747.042 748.582 746.334 748.289 745.811 747.766C745.289 747.244 744.996 746.536 744.996 745.798V733.532C744.996 732.793 745.289 732.085 745.811 731.563C746.334 731.041 747.042 730.748 747.78 730.748Z" fill="black"/>
<path d="M919.594 748.756H872.182V730.922H919.594C920.333 730.922 921.041 731.215 921.563 731.737C922.085 732.259 922.378 732.967 922.378 733.706V745.929C922.384 746.298 922.316 746.664 922.179 747.007C922.041 747.35 921.837 747.662 921.578 747.925C921.319 748.188 921.01 748.397 920.67 748.54C920.329 748.682 919.963 748.756 919.594 748.756Z" fill="#756CBF"/>
<path opacity="0.3" d="M919.594 748.756H872.182V730.922H919.594C920.333 730.922 921.041 731.215 921.563 731.737C922.085 732.259 922.378 732.967 922.378 733.706V745.929C922.384 746.298 922.316 746.664 922.179 747.007C922.041 747.35 921.837 747.662 921.578 747.925C921.319 748.188 921.01 748.397 920.67 748.54C920.329 748.682 919.963 748.756 919.594 748.756Z" fill="white"/>
<path opacity="0.9" d="M922.334 744.797H880.882C879.913 744.797 878.983 744.413 878.298 743.727C877.613 743.042 877.228 742.113 877.228 741.144V738.316C877.228 737.347 877.613 736.418 878.298 735.733C878.983 735.048 879.913 734.663 880.882 734.663H922.334V744.754V744.797Z" fill="white"/>
<path d="M742.299 704.65H866.658V730.748H742.299C741.561 730.748 740.853 730.455 740.331 729.933C739.809 729.411 739.515 728.702 739.515 727.964V707.477C739.51 707.108 739.577 706.741 739.715 706.398C739.852 706.055 740.056 705.743 740.315 705.48C740.574 705.217 740.883 705.008 741.224 704.866C741.564 704.723 741.93 704.65 742.299 704.65Z" fill="#263238"/>
<path opacity="0.2" d="M742.299 704.65H866.658V730.748H742.299C741.561 730.748 740.853 730.455 740.331 729.933C739.809 729.411 739.515 728.702 739.515 727.964V707.477C739.51 707.108 739.577 706.741 739.715 706.398C739.852 706.055 740.056 705.743 740.315 705.48C740.574 705.217 740.883 705.008 741.224 704.866C741.564 704.723 741.93 704.65 742.299 704.65Z" fill="black"/>
<path d="M898.281 730.965H866.789V704.867H898.411C899.149 704.867 899.857 705.16 900.38 705.682C900.902 706.205 901.195 706.913 901.195 707.651V728.138C901.201 728.519 901.13 728.896 900.984 729.248C900.839 729.6 900.623 729.918 900.35 730.183C900.077 730.448 899.752 730.654 899.396 730.788C899.04 730.923 898.661 730.983 898.281 730.965Z" fill="#263238"/>
<path opacity="0.9" d="M901.108 726.964H875.445C874.476 726.964 873.546 726.579 872.861 725.894C872.176 725.208 871.791 724.279 871.791 723.31V712.262C871.791 711.293 872.176 710.363 872.861 709.678C873.546 708.993 874.476 708.608 875.445 708.608H901.108V726.964Z" fill="white"/>
<path d="M758.132 677.899H882.491V704.65H758.132C757.394 704.65 756.686 704.356 756.164 703.834C755.642 703.312 755.349 702.604 755.349 701.866V680.552C755.382 679.837 755.69 679.162 756.209 678.667C756.727 678.173 757.416 677.898 758.132 677.899Z" fill="#756CBF"/>
<path opacity="0.3" d="M758.132 677.899H882.491V704.65H758.132C757.394 704.65 756.686 704.356 756.164 703.834C755.642 703.312 755.349 702.604 755.349 701.866V680.552C755.382 679.837 755.69 679.162 756.209 678.667C756.727 678.173 757.416 677.898 758.132 677.899Z" fill="black"/>
<path d="M914.114 704.78H882.491V678.029H914.114C914.852 678.029 915.56 678.323 916.082 678.845C916.604 679.367 916.897 680.075 916.897 680.813V702.083C916.875 702.806 916.572 703.492 916.052 703.996C915.532 704.499 914.837 704.781 914.114 704.78Z" fill="#756CBF"/>
<path opacity="0.9" d="M916.897 700.909H891.234C890.265 700.909 889.335 700.524 888.65 699.839C887.965 699.153 887.58 698.224 887.58 697.255V685.38C887.58 684.411 887.965 683.482 888.65 682.797C889.335 682.111 890.265 681.727 891.234 681.727H916.897V700.909Z" fill="white"/>
<path d="M747.78 660.108H872.138V677.942H747.78C747.042 677.942 746.334 677.649 745.811 677.127C745.289 676.605 744.996 675.897 744.996 675.158V662.892C744.996 662.154 745.289 661.446 745.811 660.924C746.334 660.402 747.042 660.108 747.78 660.108Z" fill="#756CBF"/>
<path opacity="0.3" d="M747.78 660.108H872.138V677.942H747.78C747.042 677.942 746.334 677.649 745.811 677.127C745.289 676.605 744.996 675.897 744.996 675.158V662.892C744.996 662.154 745.289 661.446 745.811 660.924C746.334 660.402 747.042 660.108 747.78 660.108Z" fill="white"/>
<path opacity="0.2" d="M747.78 660.108H872.138V677.942H747.78C747.042 677.942 746.334 677.649 745.811 677.127C745.289 676.605 744.996 675.897 744.996 675.158V662.892C744.996 662.154 745.289 661.446 745.811 660.924C746.334 660.402 747.042 660.108 747.78 660.108Z" fill="black"/>
<path d="M903.804 677.899H872.182V660.065H903.804C904.543 660.065 905.251 660.358 905.773 660.88C906.295 661.402 906.588 662.11 906.588 662.849V675.115C906.588 675.853 906.295 676.561 905.773 677.083C905.251 677.605 904.543 677.899 903.804 677.899Z" fill="#756CBF"/>
<path opacity="0.3" d="M903.804 677.899H872.182V660.065H903.804C904.543 660.065 905.251 660.358 905.773 660.88C906.295 661.402 906.588 662.11 906.588 662.849V675.115C906.588 675.853 906.295 676.561 905.773 677.083C905.251 677.605 904.543 677.899 903.804 677.899Z" fill="white"/>
<path opacity="0.9" d="M906.545 674.071H880.882C879.913 674.071 878.983 673.686 878.298 673.001C877.613 672.316 877.228 671.386 877.228 670.417V667.59C877.228 666.621 877.613 665.692 878.298 665.006C878.983 664.321 879.913 663.936 880.882 663.936H906.545V674.028V674.071Z" fill="white"/>
<path d="M221.333 1137.45L192.625 1123.05L215.939 1051.71L244.647 1066.11L221.333 1137.45Z" fill="#FFC3BD"/>
<path d="M195.148 1111.83L230.38 1119.22C230.982 1119.33 231.518 1119.66 231.875 1120.16C232.232 1120.66 232.383 1121.27 232.294 1121.88L227.944 1150.1C227.631 1151.56 226.756 1152.83 225.51 1153.65C224.265 1154.46 222.748 1154.75 221.289 1154.45C209.067 1151.67 203.325 1149.71 187.84 1146.45C178.314 1144.45 145.387 1137.75 132.686 1133.4C119.984 1129.05 124.639 1116.57 130.424 1117.31C156.522 1120.53 178.836 1117.61 189.145 1112.52C191.009 1111.62 193.126 1111.37 195.148 1111.83Z" fill="#263238"/>
<path opacity="0.2" d="M244.647 1066.16L215.939 1051.76L202.585 1092.69L232.642 1102.91L244.647 1066.16Z" fill="black"/>
<path d="M535.6 706.52C535.6 706.52 289.45 730.356 268.875 820.004C239.254 948.8 199.28 1071.2 199.28 1071.2L254.347 1080.9C262.786 1044.23 325.552 915.611 355 828.921C421.681 818.96 599.933 856.803 626.64 806.085C639.886 780.328 647.156 751.916 647.91 722.962L535.6 706.52Z" fill="#756CBF"/>
<path opacity="0.3" d="M535.6 706.52C535.6 706.52 289.45 730.356 268.875 820.004C239.254 948.8 199.28 1071.2 199.28 1071.2L254.347 1080.9C262.786 1044.23 325.552 915.611 355 828.921C421.681 818.96 599.933 856.803 626.64 806.085C639.886 780.328 647.156 751.916 647.91 722.962L535.6 706.52Z" fill="black"/>
<path d="M257.609 1100.39L193.233 1077.07L196.322 1051.19L263.699 1068.94L257.609 1100.39Z" fill="#756CBF"/>
<path d="M182.881 1114.96C185.748 1115.5 188.667 1115.7 191.581 1115.57C191.726 1115.57 191.867 1115.53 191.99 1115.45C192.113 1115.37 192.212 1115.26 192.277 1115.13C192.341 1115.01 192.375 1114.88 192.375 1114.74C192.375 1114.6 192.341 1114.47 192.277 1114.35C191.407 1113.44 183.577 1105.65 179.663 1106.17C179.184 1106.26 178.734 1106.46 178.354 1106.77C177.974 1107.07 177.676 1107.46 177.488 1107.91C177.078 1108.56 176.861 1109.32 176.861 1110.09C176.861 1110.86 177.078 1111.61 177.488 1112.26C178.907 1113.78 180.819 1114.73 182.881 1114.96ZM189.667 1114.09C183.838 1114.09 179.75 1113 178.575 1111.22C178.33 1110.81 178.2 1110.35 178.2 1109.87C178.2 1109.39 178.33 1108.93 178.575 1108.52C178.645 1108.3 178.775 1108.1 178.952 1107.94C179.129 1107.79 179.345 1107.69 179.576 1107.65C181.881 1107.26 186.535 1111 189.667 1114.09Z" fill="#756CBF"/>
<path d="M191.32 1115.57H191.668C191.785 1115.53 191.89 1115.46 191.974 1115.37C192.057 1115.28 192.117 1115.17 192.146 1115.05C192.146 1114.7 194.887 1105.78 192.146 1102C191.825 1101.51 191.394 1101.11 190.887 1100.82C190.381 1100.53 189.814 1100.37 189.232 1100.34C188.606 1100.22 187.957 1100.32 187.395 1100.62C186.833 1100.92 186.391 1101.41 186.144 1102C184.708 1105.26 188.014 1112.78 190.711 1115.31L191.32 1115.57ZM189.667 1101.95C189.958 1102.01 190.235 1102.12 190.482 1102.29C190.728 1102.45 190.939 1102.66 191.102 1102.91C192.214 1106.29 192.214 1109.93 191.102 1113.31C188.605 1110.34 187.358 1106.52 187.623 1102.65C187.623 1102.26 188.145 1101.82 189.232 1101.91L189.667 1101.95Z" fill="#756CBF"/>
<path d="M562.133 481.161C560.655 497.342 558.306 512.566 555.783 528.181C553.26 543.797 549.954 559.195 545.909 574.723C541.965 590.638 536.847 606.238 530.598 621.396C527.228 629.67 523.138 637.631 518.375 645.189C515.682 649.498 512.611 653.56 509.197 657.325C505.091 661.95 500.293 665.912 494.974 669.069L493.147 670.113L492.146 670.461C482.703 673.696 472.507 674.029 462.873 671.418C455.72 669.583 448.824 666.865 442.342 663.327C436.482 660.126 430.87 656.491 425.552 652.453C422.942 650.496 420.506 648.364 418.071 646.233C415.547 644.099 413.136 641.834 410.85 639.447L424.508 619.656C429.597 621.309 435.078 623.44 440.341 625.006C445.604 626.572 450.824 628.269 455.826 629.356C460.299 630.475 464.877 631.116 469.484 631.27C473.356 631.27 476.096 630.226 475.4 629.921L472.573 631.313C475.504 628.533 477.932 625.266 479.75 621.657C482.776 616.06 485.379 610.244 487.536 604.258C492.225 590.875 496.103 577.221 499.149 563.371C502.325 549.147 505.065 534.663 507.457 519.873C509.85 505.084 511.807 490.295 513.808 476.115L562.133 481.161Z" fill="#FFC3BD"/>
<path d="M519.158 457.324C489.232 483.423 490.885 546.929 490.885 546.929L569.963 575.463C586.709 549.365 594.93 499.517 593.451 478.116C591.146 445.232 554.652 426.267 519.158 457.324Z" fill="#263238"/>
<path opacity="0.2" d="M593.495 479.334C579.272 472.505 559.829 474.68 540.603 491.47C523.204 506.65 516.462 534.619 513.939 555.28L569.963 575.463C586.405 549.799 594.626 501.3 593.495 479.334Z" fill="black"/>
<path d="M107.892 1061.41L98.3228 1030.79L164.873 994.689L174.399 1025.31L107.892 1061.41Z" fill="#FFC3BD"/>
<path d="M100.628 1027.92L124.726 1054.67C124.939 1054.88 125.108 1055.13 125.223 1055.41C125.339 1055.69 125.398 1055.98 125.398 1056.28C125.398 1056.58 125.339 1056.88 125.223 1057.15C125.108 1057.43 124.939 1057.68 124.726 1057.89L104.717 1078.29C104.169 1078.79 103.527 1079.19 102.828 1079.44C102.129 1079.7 101.386 1079.81 100.643 1079.78C99.8992 1079.75 99.1693 1079.57 98.495 1079.25C97.8207 1078.94 97.2152 1078.49 96.7133 1077.94C88.4923 1068.5 85.0125 1063.55 74.3992 1051.84C67.8746 1044.62 44.9516 1020.74 35.9476 1010.74C26.9437 1000.74 37.0786 992.123 41.7763 995.559C62.9159 1010.91 84.0991 1023.22 95.4519 1025.18C97.4272 1025.51 99.2424 1026.47 100.628 1027.92Z" fill="#263238"/>
<path opacity="0.2" d="M174.399 1025.31L164.873 994.689L116.331 1021.05L136.557 1045.89L174.399 1025.31Z" fill="black"/>
<path d="M591.277 715.524C591.277 715.524 422.507 738.143 387.71 784.337C327.118 864.763 135.426 997.473 135.426 997.473L152.825 1053.54C152.825 1053.54 414.069 943.362 460.524 851.235C545.866 844.667 684.709 872.766 706.588 819.787C721.159 784.511 714.026 731.835 714.026 731.835L591.277 715.524Z" fill="#756CBF"/>
<path opacity="0.2" d="M591.277 715.524C591.277 715.524 422.507 738.143 387.71 784.337C327.118 864.763 135.426 997.473 135.426 997.473L152.825 1053.54C152.825 1053.54 414.069 943.362 460.524 851.235C545.866 844.667 684.709 872.766 706.588 819.787C721.159 784.511 714.026 731.835 714.026 731.835L591.277 715.524Z" fill="black"/>
<path d="M156.217 1061.67L119.071 1001.78L142.82 982.249L178.575 1046.71L156.217 1061.67Z" fill="#756CBF"/>
<path d="M88.6227 1023.22C90.6089 1025.31 92.8106 1027.17 95.1908 1028.79C95.3129 1028.87 95.4568 1028.92 95.604 1028.92C95.7512 1028.92 95.8951 1028.87 96.0172 1028.79C96.1458 1028.72 96.2487 1028.61 96.3112 1028.48C96.3737 1028.34 96.3926 1028.2 96.3652 1028.05C96.3652 1026.83 94.7558 1015.92 90.9715 1014.05C90.5522 1013.81 90.0807 1013.69 89.6014 1013.69C89.122 1013.69 88.6505 1013.81 88.2312 1014.05C87.5813 1014.37 87.022 1014.85 86.6042 1015.44C86.1863 1016.03 85.9233 1016.72 85.8389 1017.44C85.9953 1019.65 86.9911 1021.72 88.6227 1023.22ZM94.6253 1026.57C89.9276 1023.05 87.2308 1019.83 87.3613 1017.87C87.4142 1017.4 87.5909 1016.95 87.8735 1016.57C88.1561 1016.19 88.5346 1015.89 88.9707 1015.7C89.1757 1015.58 89.4082 1015.52 89.6449 1015.52C89.8816 1015.52 90.1141 1015.58 90.3191 1015.7C92.3199 1016.44 93.8859 1022.18 94.6253 1026.53V1026.57Z" fill="#756CBF"/>
<path d="M95.0603 1028.7H95.3648C95.4642 1028.78 95.5867 1028.82 95.7128 1028.82C95.8389 1028.82 95.9614 1028.78 96.0608 1028.7C96.4087 1028.7 103.716 1022.83 103.89 1018.35C103.904 1017.77 103.79 1017.19 103.557 1016.66C103.324 1016.13 102.978 1015.65 102.542 1015.26C102.086 1014.81 101.496 1014.52 100.86 1014.44C100.225 1014.35 99.5783 1014.47 99.0186 1014.78C95.9303 1016.57 94.1904 1024.62 94.8864 1028.27C94.9035 1028.43 94.9637 1028.58 95.0603 1028.7ZM101.802 1016.74C101.998 1016.96 102.149 1017.21 102.246 1017.49C102.343 1017.77 102.384 1018.06 102.368 1018.35C102.368 1021.05 98.5401 1024.79 96.2348 1026.75C96.0182 1022.9 97.2786 1019.12 99.7581 1016.18C100.045 1016.02 100.379 1015.96 100.704 1016.01C101.028 1016.07 101.324 1016.23 101.541 1016.48L101.802 1016.74Z" fill="#756CBF"/>
<path d="M432.903 625.659L407.327 600.952L389.58 635.75C389.58 635.75 420.637 652.757 428.423 644.971L432.903 625.659Z" fill="#FFC3BD"/>
<path d="M373.356 600.691L368.745 629.225L389.58 635.533L407.327 600.952L373.356 600.691Z" fill="#FFC3BD"/>
<path d="M712.286 435.837C709.067 427.355 703.325 418.96 694.235 419.09C692.364 419.09 681.185 419.09 679.184 419.351C668.745 419.612 655.696 420.308 643.082 421.918C618.924 424.699 594.947 428.867 571.268 434.401C560.394 437.359 549.954 441.056 541.603 444.232H541.298C536.554 446.085 532.546 449.438 529.883 453.781C527.221 458.123 526.052 463.217 526.553 468.286C530.902 514.262 541.69 641.927 535.252 708.042L713.591 731.531C724.291 697.516 728.554 619.613 728.641 556.107C728.989 517.96 725.553 470.504 712.286 435.837Z" fill="#263238"/>
<path opacity="0.2" d="M728.032 523.44L724.509 523.701L701.89 543.275L678.489 623.875L598.106 637.925C617.636 647.799 674.444 649.8 708.023 640.883C713.525 639.374 718.401 636.146 721.938 631.67C725.475 627.194 727.488 621.704 727.684 616.002C728.511 595.863 728.902 575.419 728.902 556.237C728.902 545.841 728.685 534.749 728.032 523.44Z" fill="black"/>
<path d="M439.428 549.756C439.428 549.756 455.13 541.057 484.578 549.495C500.975 554.712 518.658 554.206 534.73 548.06L545.735 568.677L445.691 572.157L439.428 549.756Z" fill="#756CBF"/>
<path opacity="0.8" d="M439.428 549.756C439.428 549.756 455.13 541.057 484.578 549.495C500.975 554.712 518.658 554.206 534.73 548.06L545.735 568.677L445.691 572.157L439.428 549.756Z" fill="white"/>
<path d="M439.428 549.756C439.428 549.756 438.775 543.449 419.767 542.796C381.533 541.535 365.395 531.748 365.395 531.748L363.83 541.622L445.648 572.07L439.428 549.756Z" fill="#756CBF"/>
<path opacity="0.8" d="M439.428 549.756C439.428 549.756 438.775 543.449 419.767 542.796C381.533 541.535 365.395 531.748 365.395 531.748L363.83 541.622L445.648 572.07L439.428 549.756Z" fill="white"/>
<path d="M471.572 696.516L400.759 676.333C399.874 676.054 399.071 675.564 398.42 674.904C397.768 674.245 397.287 673.436 397.018 672.549L360.785 541.361C360.582 540.755 360.552 540.105 360.698 539.483C360.845 538.861 361.162 538.292 361.613 537.84C362.065 537.388 362.634 537.071 363.256 536.925C363.878 536.778 364.529 536.808 365.135 537.011L432.599 556.281L471.572 696.516Z" fill="#756CBF"/>
<path d="M581.751 702.649L488.667 697.473L449.911 557.151L544.3 562.414C545.366 562.507 546.379 562.923 547.203 563.607C548.027 564.291 548.622 565.21 548.91 566.241L585.361 698.125C585.573 698.671 585.637 699.263 585.549 699.842C585.46 700.421 585.221 700.967 584.856 701.424C584.49 701.882 584.011 702.236 583.467 702.451C582.922 702.666 582.33 702.734 581.751 702.649Z" fill="#756CBF"/>
<path d="M471.572 696.516L488.667 697.473L449.911 557.151L432.816 556.194L471.572 696.516Z" fill="#756CBF"/>
<path opacity="0.3" d="M471.572 696.516L488.667 697.473L449.911 557.151L432.816 556.194L471.572 696.516Z" fill="black"/>
<path d="M721.029 467.72C721.943 473.984 722.552 479.29 722.987 485.119C723.422 490.948 723.726 496.341 723.987 501.996C724.379 513.218 724.292 524.484 723.596 535.793C722.488 559.004 718.26 581.959 711.025 604.041C711.025 604.432 710.242 606.302 709.72 607.694C709.109 609.091 708.426 610.456 707.676 611.783C706.287 614.218 704.654 616.506 702.804 618.612C699.694 622.11 696.071 625.117 692.06 627.529C685.892 631.205 679.247 634.015 672.312 635.881C660.765 638.925 648.924 640.719 636.993 641.231C614.77 642.276 592.499 641.037 570.529 637.533L571.66 613.479C592.092 611.611 612.417 608.707 632.556 604.78C641.762 603.045 650.789 600.467 659.524 597.081C662.763 595.852 665.809 594.168 668.572 592.079C669.485 591.296 669.92 590.643 669.833 590.556C669.746 590.469 669.616 590.556 669.485 590.861C669.358 591.012 669.242 591.172 669.137 591.339C668.876 592.122 669.137 591.339 669.137 591.339C671.267 582.087 672.865 572.719 673.922 563.284C674.835 553.627 675.488 543.84 675.618 533.923C675.749 524.006 675.618 514.001 675.183 503.997C674.966 498.995 674.705 493.993 674.313 489.034L673.704 481.596L673.052 474.636L721.029 467.72Z" fill="#FFC3BD"/>
<path d="M721.029 429.269C699.889 413.131 670.702 413.61 658.741 456.106C650.911 483.945 655.087 539.969 655.087 539.969L739.515 538.273C748.954 493.732 742.429 445.624 721.029 429.269Z" fill="#263238"/>
<path d="M634.774 350.93L617.027 371.765L592.843 400.169C594.356 403.79 595.62 407.511 596.627 411.304C600.977 426.354 587.275 429.399 574.878 437.011C574.878 437.011 556.305 461.587 600.977 454.41C645.648 447.233 651.999 423.962 651.999 423.962C631.947 410.347 633.382 376.942 634.774 350.93Z" fill="#FFC3BD"/>
<path d="M614.417 451.496C609.917 452.783 605.341 453.785 600.716 454.497C594.75 455.592 588.674 455.958 582.621 455.584L581.577 460.761C579.967 461.892 579.576 467.938 589.754 475.115C600.498 472.896 617.158 463.718 614.417 451.496Z" fill="#756CBF"/>
<path d="M644.083 416.48C644.083 416.48 635.644 439.056 604.935 447.32C609.285 459.282 602.151 472.896 602.151 472.896C602.151 472.896 644.996 458.238 653.913 443.579C662.83 428.921 659.002 420.352 659.002 420.352C654.356 418.029 649.272 416.71 644.083 416.48Z" fill="#263238"/>
<path d="M583.447 471.896C583.447 471.896 583.752 453.192 589.232 446.929C586.361 438.49 587.884 433.879 592.321 426.528C582.967 428.376 574.691 433.768 569.224 441.578C563.351 451.365 567.44 472.157 583.447 471.896Z" fill="#263238"/>
<path opacity="0.2" d="M592.843 400.169C594.356 403.79 595.621 407.511 596.627 411.304C606.805 407.346 618.941 393.645 618.376 382.596C618.264 378.941 617.754 375.309 616.853 371.765L592.843 400.169Z" fill="black"/>
<path d="M533.904 300.995C525.509 318.612 532.729 360.456 572.529 343.797C612.329 327.137 547.562 272.418 533.904 300.995Z" fill="#263238"/>
<path d="M621.246 337.577C617.593 345.189 620.725 363.283 637.906 356.106C655.087 348.929 626.945 325.223 621.246 337.577Z" fill="#263238"/>
<path d="M626.075 349.756C620.507 356.106 618.637 374.375 637.166 372.07C655.696 369.765 635.079 339.273 626.075 349.756Z" fill="#263238"/>
<path d="M630.424 302.257C637.645 335.967 643.474 355.236 631.773 377.463C628.023 384.723 622.36 390.819 615.396 395.092C608.432 399.365 600.432 401.652 592.261 401.705C584.091 401.759 576.061 399.578 569.041 395.397C562.021 391.216 556.278 385.195 552.434 377.985C537.123 350.495 527.858 299.995 556.218 276.68C562.229 271.479 569.5 267.948 577.305 266.442C585.11 264.935 593.173 265.505 600.688 268.095C608.203 270.685 614.905 275.204 620.124 281.2C625.343 287.195 628.895 294.457 630.424 302.257Z" fill="#FFC3BD"/>
<path d="M624.422 263.066C617.549 233.14 577.445 243.535 557.001 261.63C536.557 279.725 531.294 293.949 514.069 304.649C545.866 308.999 590.885 296.385 599.324 285.684C599.303 290.986 600.537 296.217 602.926 300.95C605.315 305.682 608.791 309.782 613.069 312.914C612.473 322.285 612.473 331.685 613.069 341.056L627.597 333.662L644.517 326.876C669.485 284.684 654.739 258.629 624.422 263.066Z" fill="#263238"/>
<path d="M588.189 325.441C587.916 325.444 587.652 325.349 587.445 325.173C587.237 324.998 587.1 324.753 587.058 324.484C587.026 324.335 587.025 324.182 587.054 324.032C587.084 323.883 587.143 323.741 587.228 323.615C587.313 323.49 587.423 323.382 587.551 323.3C587.678 323.217 587.821 323.161 587.971 323.135L635.122 315.088C635.428 315.038 635.741 315.11 635.993 315.289C636.246 315.469 636.417 315.74 636.471 316.045C636.495 316.194 636.49 316.346 636.455 316.493C636.42 316.64 636.356 316.778 636.267 316.899C636.178 317.021 636.065 317.123 635.936 317.201C635.806 317.278 635.663 317.329 635.514 317.35L588.363 325.397L588.189 325.441Z" fill="white"/>
<path d="M581.882 353.41C573.182 353.41 563.613 344.058 560.524 332.705C559.532 329.923 559.193 326.95 559.532 324.017C559.871 321.083 560.881 318.266 562.482 315.784C563.472 314.41 564.781 313.297 566.296 312.54C567.812 311.782 569.488 311.403 571.181 311.435C579.881 311.435 589.494 320.787 592.582 332.139C593.555 334.934 593.881 337.913 593.534 340.852C593.188 343.79 592.178 346.612 590.581 349.103C589.588 350.472 588.278 351.579 586.762 352.329C585.247 353.079 583.572 353.45 581.882 353.41ZM570.964 313.914C569.662 313.888 568.374 314.171 567.202 314.738C566.03 315.304 565.009 316.14 564.222 317.176C562.864 319.389 562.019 321.877 561.748 324.459C561.477 327.04 561.787 329.65 562.656 332.096C565.483 342.535 574.096 351.061 581.838 351.104C583.152 351.174 584.463 350.912 585.649 350.342C586.835 349.772 587.858 348.912 588.624 347.842C589.988 345.633 590.841 343.146 591.119 340.564C591.398 337.983 591.095 335.372 590.233 332.922C587.406 322.483 578.793 313.958 571.051 313.914H570.964Z" fill="white"/>
<path d="M554.957 339.273C554.756 339.318 554.548 339.318 554.348 339.273C554.212 339.197 554.094 339.094 554 338.97C553.906 338.846 553.838 338.704 553.802 338.553C553.765 338.402 553.76 338.245 553.786 338.092C553.813 337.939 553.871 337.793 553.956 337.663C554.96 336.369 556.309 335.384 557.848 334.822C559.388 334.26 561.054 334.145 562.656 334.488C562.948 334.57 563.2 334.758 563.361 335.016C563.521 335.273 563.58 335.581 563.526 335.88C563.453 336.178 563.267 336.436 563.007 336.599C562.747 336.761 562.434 336.816 562.134 336.75C562.134 336.75 557.784 335.793 555.74 338.881C555.644 338.997 555.524 339.092 555.389 339.159C555.255 339.227 555.107 339.265 554.957 339.273Z" fill="white"/>
<path d="M650.651 328.051C648.636 336.673 643.549 344.266 636.34 349.408C626.901 355.845 619.507 347.842 619.898 336.62C620.246 326.528 625.553 311.043 636.123 309.086C646.692 307.128 653.043 317.524 650.651 328.051Z" fill="#FFC3BD"/>
<path d="M576.662 330.573C577.923 333.053 577.619 335.793 576.009 336.663C574.4 337.533 572.095 336.228 570.833 333.705C569.572 331.182 569.92 328.486 571.486 327.616C573.052 326.746 575.401 328.051 576.662 330.573Z" fill="#263238"/>
<path d="M549.085 341.883C550.216 344.449 549.781 347.146 548.128 347.929C546.475 348.712 544.213 347.276 543.126 344.71C542.038 342.144 542.473 339.403 544.126 338.664C545.779 337.924 547.997 339.273 549.085 341.883Z" fill="#263238"/>
<path d="M535.165 326.528C535.429 326.455 535.671 326.317 535.868 326.127C536.066 325.937 536.213 325.701 536.296 325.441C536.915 323.468 537.971 321.66 539.388 320.153C540.804 318.647 542.543 317.48 544.474 316.741C544.887 316.611 545.232 316.324 545.435 315.941C545.639 315.559 545.684 315.112 545.561 314.697C545.507 314.491 545.411 314.298 545.279 314.13C545.147 313.963 544.983 313.824 544.795 313.722C544.608 313.62 544.402 313.557 544.189 313.538C543.977 313.519 543.763 313.543 543.56 313.609C541.08 314.503 538.846 315.969 537.04 317.889C535.233 319.809 533.906 322.128 533.165 324.658C533.091 324.86 533.059 325.076 533.072 325.291C533.085 325.506 533.143 325.716 533.241 325.908C533.339 326.1 533.475 326.269 533.642 326.406C533.808 326.543 534.001 326.643 534.208 326.702C534.538 326.754 534.875 326.692 535.165 326.528Z" fill="#263238"/>
<path d="M548.345 362.37C540.429 362.37 531.686 353.67 528.858 343.492C527.964 340.942 527.664 338.222 527.98 335.538C528.297 332.854 529.222 330.279 530.685 328.007C531.596 326.8 532.782 325.827 534.143 325.169C535.504 324.511 537.003 324.187 538.515 324.223C546.475 324.223 555.218 332.922 558.045 343.101C558.933 345.644 559.229 348.357 558.913 351.032C558.596 353.707 557.675 356.276 556.218 358.542C555.308 359.763 554.117 360.748 552.747 361.414C551.378 362.08 549.868 362.408 548.345 362.37ZM538.428 326.485C537.263 326.46 536.11 326.716 535.066 327.231C534.021 327.746 533.115 328.504 532.425 329.442C531.185 331.428 530.412 333.67 530.164 335.998C529.915 338.326 530.197 340.68 530.99 342.883C533.556 352.322 541.299 360.021 548.389 360.064C549.555 360.093 550.712 359.844 551.764 359.338C552.815 358.831 553.731 358.081 554.435 357.15C555.663 355.159 556.429 352.919 556.677 350.593C556.926 348.267 556.65 345.915 555.87 343.709C553.304 334.271 545.518 326.572 538.471 326.311L538.428 326.485Z" fill="white"/>
<path d="M558.219 337.881C557.989 345.788 556.702 353.63 554.391 361.195C556.317 361.69 558.329 361.756 560.283 361.388C562.237 361.02 564.087 360.226 565.7 359.064L558.219 337.881Z" fill="#ED847E"/>
<path d="M571.355 369.068C574.477 368.189 577.388 366.688 579.915 364.655C582.441 362.622 584.531 360.099 586.057 357.237C586.1 357.137 586.123 357.03 586.125 356.921C586.126 356.812 586.106 356.704 586.066 356.603C586.025 356.502 585.965 356.41 585.889 356.332C585.813 356.254 585.722 356.192 585.622 356.15C585.425 356.071 585.205 356.067 585.004 356.139C584.804 356.211 584.637 356.354 584.535 356.541C582.846 359.63 580.469 362.288 577.587 364.309C574.706 366.331 571.398 367.662 567.919 368.198C567.704 368.241 567.512 368.363 567.383 368.54C567.254 368.718 567.197 368.938 567.223 369.155C567.265 369.368 567.389 369.555 567.568 369.677C567.747 369.799 567.967 369.846 568.18 369.808C569.255 369.638 570.316 369.391 571.355 369.068Z" fill="#263238"/>
<path d="M580.663 310.217C580.902 310.086 581.098 309.889 581.229 309.651C581.453 309.276 581.519 308.827 581.413 308.403C581.307 307.98 581.038 307.615 580.663 307.389C578.46 306.042 575.96 305.255 573.382 305.096C570.805 304.937 568.227 305.41 565.874 306.476C565.68 306.572 565.507 306.707 565.365 306.872C565.224 307.037 565.118 307.229 565.053 307.436C564.988 307.644 564.965 307.862 564.987 308.078C565.009 308.294 565.074 308.504 565.178 308.694C565.382 309.079 565.729 309.368 566.145 309.498C566.56 309.628 567.01 309.59 567.397 309.39C569.255 308.578 571.283 308.228 573.306 308.372C575.328 308.516 577.286 309.149 579.011 310.217C579.257 310.376 579.544 310.46 579.837 310.46C580.13 310.46 580.417 310.376 580.663 310.217Z" fill="#263238"/>
<path d="M580.272 614.828L552.999 603.258L553.912 638.055C553.912 638.055 580.924 648.973 585.404 634.576L580.272 614.828Z" fill="#FFC3BD"/>
<path d="M519.115 611.044L525.117 635.793L553.956 637.925L553.043 603.258L519.115 611.044Z" fill="#FFC3BD"/>
</svg>
